<svg xmlns="http://www.w3.org/2000/svg" viewBox="0 0 1166.06 757.8"><defs><style>.cls-1{fill:#3f3f75;}.cls-2{fill:#fec05f;}.cls-3{fill:#7ea2af;}.cls-4{fill:#2a284f;}.cls-5{fill:#7d4cc7;}.cls-6{fill:#7da1ae;}.cls-7{fill:#fe7473;}.cls-8{fill:#fec26a;}.cls-9{fill:#6c96a2;}.cls-10{fill:#7e4cc7;}.cls-11{fill:#e65459;}.cls-12{fill:#7fa2af;}.cls-13{fill:#434979;}.cls-14{fill:#5f8c98;}.cls-15{fill:#6a3eb7;}.cls-16{fill:#da4550;}.cls-17{fill:#90afb9;}.cls-18{fill:#e4901f;}.cls-19{fill:#f4ab5b;}.cls-20{fill:#f28a8c;}.cls-21{fill:#804ec6;}.cls-22{fill:#ee808f;}.cls-23{fill:#fefefe;}.cls-24{fill:#fdc26a;}.cls-25{fill:#fdfcfb;}.cls-26{fill:#8fa5b6;}.cls-27{fill:#766265;}.cls-28{fill:#776366;}.cls-29{fill:#776264;}.cls-30{fill:#7b6665;}.cls-31{fill:#7a6666;}.cls-32{fill:#a7b6c5;}.cls-33{fill:#435175;}.cls-34{fill:#445277;}.cls-35{fill:#76605c;}.cls-36{fill:#564a5e;}.cls-37{fill:#4b5d83;}.cls-38{fill:#737392;}.cls-39{fill:#646387;}.cls-40{fill:#757595;}.cls-41{fill:#fe7372;}.cls-42{fill:#91b0ba;}.cls-43{fill:#93b1bb;}.cls-44{fill:#8eaeb8;}.cls-45{fill:#90b0b9;}.cls-46{fill:#8dadb7;}.cls-47{fill:#58577a;}.cls-48{fill:#69688f;}.cls-49{fill:#e8d8c4;}.cls-50{fill:#5b5a7c;}.cls-51{fill:#666589;}.cls-52{fill:#656487;}.cls-53{fill:#e5d7c6;}.cls-54{fill:#676689;}.cls-55{fill:#7b7a99;}.cls-56{fill:#5f5e81;}.cls-57{fill:#5d5d81;}.cls-58{fill:#59587d;}.cls-59{fill:#ef7f83;}.cls-60{fill:#f68587;}.cls-61{fill:#f89495;}.cls-62{fill:#f78789;}.cls-63{fill:#6d8c96;}.cls-64{fill:#faca84;}.cls-65{fill:#d15877;}.cls-66{fill:#c95377;}.cls-67{fill:#d1a976;}</style></defs><g id="Layer_12" data-name="Layer 12"><path class="cls-1" d="M470.05,692.52c-3.4-.09-3.4-.09-3.36-3.42q.78-63.2,1.54-126.37.75-61.51,1.52-123c.4-5.89.09-11.79.16-17.68,0-1.2,0-2.13,1.64-2.19,8.74-.3,17.29-2.14,25.93-3.28,7.46-1,14.9-2.05,22.34-3.07a9.57,9.57,0,0,1,1.77-.26c6.69-.8,13.38-1.72,20.1-2.31,7.12-.62,14.21-1.73,21.39-1.26.34,0-.08-.61,0-.28,0,.06,0,.06-.16.08-1.77.25-3.14-.76-4.44-1.63a52.65,52.65,0,0,1-9.3-8.41,2.89,2.89,0,0,1-.93-2.31c2-2,4.44-1.36,6.76-1.17,3.25.26,3.69.13,5.31-2.72A12.55,12.55,0,0,0,556.87,377c-1.48-1.08-2.83-1.42-4.42-.28a11.67,11.67,0,0,1-5.33,1.67,3.15,3.15,0,0,1-3-.94c-.76-1.52-.09-3,.23-4.43,1.39-4.71,4.18-8.18,8.85-10a26,26,0,0,1,5.45-1.26,109.58,109.58,0,0,0,23.2-5.5,132.82,132.82,0,0,0,24.43-11.94,4.89,4.89,0,0,0,2.72-5.08c-.36-6.34.49-12.65.52-19a102.21,102.21,0,0,1,1.19-13.08,10.32,10.32,0,0,0,.37-3.83,119.83,119.83,0,0,1,4.49-22.65,98.79,98.79,0,0,1,5-13.51,4.69,4.69,0,0,1,2-2.54,70.19,70.19,0,0,1,9.78-15.49,2,2,0,0,1,.35,2.16c-1.36,5-2.25,10.2-3.59,15.24a3.31,3.31,0,0,0-.6,2.65,2.07,2.07,0,0,1-.29,1,4.38,4.38,0,0,0-.23,2.7,2.58,2.58,0,0,1-.31,1c-.56,1.08-.06,2.18-.09,3.28-.17,5.3-1.12,10.54-1.21,15.85a5.25,5.25,0,0,1-.49,2c-.88,2-.57,4.06-.26,6.12a4.49,4.49,0,0,1-.42,2.5,20,20,0,0,0,0,8c-.12,2.78-.26,5.57-.48,8.35a13.86,13.86,0,0,0-.18,5.84,3.27,3.27,0,0,1-.32,1.66c-.71,3.53-.41,7.07-.18,10.61a4.23,4.23,0,0,1-.38,2.14c-.71,2.88-.16,5.81-.34,8.71.11,1.35-.5,2.61-.49,3.94a94.79,94.79,0,0,0,.18,9.83,4.26,4.26,0,0,1-.36,2.17,39.23,39.23,0,0,0-.15,10.27,4.39,4.39,0,0,1-.39,2.14c-.67,2.14-.2,4.34-.33,6.51-.07,1.25.14,2.54-.56,3.69-3,2.88-6.88,4.44-10.41,6.52-1.77,1-3.67,1.87-5.5,2.8-1.15.53-2.28,1.09-3.38,1.71a156.26,156.26,0,0,1-31.5,11.26c-.36,0-.09.19,0,.13.57-.57,1.4-.36,2.1-.58a22,22,0,0,1,5.62-.05,11.23,11.23,0,0,0,3.87.35h2.25c2.81,0,5.62,0,8.43,0,1.5,0,3,0,4,1.4.91,3.38.53,6.8.28,10.2-.14,1.88-.3,3.75-.31,5.64-.07,12.93-1,25.83-1.1,38.76,0,2.47-.56,4.93-.5,7.42a69.52,69.52,0,0,1-.45,11.63c.15,14-.88,27.9-1.14,41.86-.18,9.92-.62,19.85-1,29.77q-.86,23.24-1.57,46.47c-.29,9.84-.65,19.68-1,29.52-.56,15.57-1.17,31.14-1.58,46.72-.1,3.67-.42,7.35-.46,11,0,1.83-.62,3.21-2.79,3.2-9.57.21-19.15,0-28.72.09-.86,0-1.71,0-2.57,0-2.66.08-2.92.29-2.94,3,0,8.12,0,16.25,0,24.37,0,1.35.17,2.75-.54,4a.69.69,0,0,1-.85.29c-1-1.18-.73-2.61-.74-4,0-8.07,0-16.14,0-24.2,0-2-.13-3.54-2.67-3.77-1.77-.16-1.94-1.72-2-3.14,0-3.26-.44-6.52-.43-9.75,0-6.87-.44-13.72-.73-20.57-.45-10.78-.58-21.58-1.35-32.36-.34-4.7-.35-9.43-.47-14.13-.16-7-.47-14.06-.75-21.07-.43-10.53-.56-21.08-1.35-31.6-.35-4.7-.3-9.42-.46-14.13q-.33-9.76-.76-19.53c-.46-10.61-.79-21.23-1.29-31.85-.31-6.76-.74-13.52-.7-20.3,0-4-.62-8,0-11.44-1,16.84-3.38,34.16-5.18,51.54-1.83,17.75-3.82,35.48-5.74,53.21-1.86,17.14-3.66,34.29-5.52,51.43-1.65,15.26-3.23,30.53-4.91,45.79-.79,7.25-1.6,14.5-2.29,21.75-.12,1.29-.35,2.55-.53,3.83a2.46,2.46,0,0,1-2.5,2.44c-2.19,0-2.63,1.22-2.66,3.16,0,2.17.64,4.47-.75,6.51-1.38-.31-1.21-1.49-1.29-2.45-.15-1.62-.06-3.24-.08-4.86a1.94,1.94,0,0,0-2.18-2.2c-2.14-.05-4.27,0-6.4,0H474C472.63,693.3,471.23,693.42,470.05,692.52Z"/><path class="cls-2" d="M405.54,209.58c5.51,4.07,11.56,7.29,17.27,11,1.05.68,2.37,1,3,2.28-1.81,4.75-3.36,9.53-2.75,14.74a81,81,0,0,0,3.26,14.53,105.74,105.74,0,0,1,3.44,13.43c1.36,7.94-.7,15.14-4.48,22-3.12,5.64-7.26,10.59-11.23,15.65a2.64,2.64,0,0,1-1.61,1.18c-5,6-9.72,12.23-12.3,19.74-3.2,9.31-2.25,18.56.5,27.77,3.45,11.51,8.38,22.48,12.43,33.77a287,287,0,0,1,14.48,57.95,230,230,0,0,1,2,33.58c-.05,5.24-.68,10.42-1.09,15.63a2.6,2.6,0,0,1-1.37,2c-2.7,2.06-5.94,3-8.9,4.58-3,2.31-6.75,2.3-10.26,2.74-10.51,1.35-20.75-.57-30.92-3-4.79-.88-9.43-2.47-14.25-3.29a154.52,154.52,0,0,0-44.58-4.32,1.4,1.4,0,0,1-.82-.39A28.61,28.61,0,0,0,309,492c-2.2.54-2.79-.13-2.49-2.24a108.47,108.47,0,0,0,.92-19.48c-.44-10.95-1.42-21.86-2.82-32.73-1.94-15.07-3.18-30.19-2.13-45.36a81.65,81.65,0,0,1,8.38-30.79c.5-1,.91-2,1.36-3,.93-.8,2-.4,2.95-.21,5.16,1,10,0,14.83-1.83a22.28,22.28,0,0,1,13.58-1.08c5,1.23,8.71-1.61,9.45-6.79a15.88,15.88,0,0,0-8.92-16.22,19.13,19.13,0,0,0-12.27-1.56c-1.27.29-2.65.94-3.92-.13-.45-1.1.13-2,.56-2.93,5.74-12.22,7.73-25.14,7.08-38.52a105.21,105.21,0,0,0-3.2-19,27.42,27.42,0,0,0,1-11.87c-1.5-9.39-7.26-15.11-15.9-18.32-1.17-.44-2.55-.48-3.36-1.66,8.77-10.62,19.76-18.35,31.95-24.51.91-.46,1.88-.82,2.82-1.22,1.43.4,1.84,1.71,2.44,2.8,4.37,8,7.16,16.29,6.28,25.55-.2,2.06.62,2.67,2.62,2.05a10.55,10.55,0,0,0,7.26-7.67,19.19,19.19,0,0,0,.62-5.6,6.43,6.43,0,0,1,.46-3.52c.88-.72,1.83-.31,2.69,0,11.44,3.39,23.87-4.5,28-16.51.33-1,.38-2.06,1.33-2.71C402.8,206.62,404.12,208.2,405.54,209.58Z"/><path class="cls-3" d="M753.34,440.2c.31,8.3.69,16.61.93,24.92.3,10.29.45,20.58.73,30.86q.74,27.39,1.55,54.76.51,17.61,1,35.22l1.56,54.25c.34,11.83.56,23.66,1.07,35.48.27,6.25.37,12.51.42,18.76.44,1-.18,1.41-1,1.69a7,7,0,0,1-2.28.26q-16.41,0-32.81,0a5.7,5.7,0,0,1-3-.53c-1.12-1-1.21-2.41-1.38-3.77q-10.42-83.86-21-167.71c-1.69-13.36-3.41-26.71-5-40.07a66.15,66.15,0,0,1-.42-8.9c.34,29.61.24,59.22.25,88.83s0,59.52,0,89.29c0,3.43.08,6.86,0,10.29-.09,9.43,0,18.87,0,28.3,0,3.83-.33,4.16-4.08,4.16-10.38,0-20.76,0-31.14,0-2.33,0-3.82-.63-4.12-3.1-1.22-8.14-1.58-16.37-2.32-24.56-1-11.34-1.89-22.7-2.88-34.06-.82-9.3-1.56-18.61-2.31-27.91-.72-8.88-1.51-17.76-2.27-26.63-.79-9.31-1.54-18.61-2.34-27.92q-1.17-13.57-2.3-27.14c-.76-9.31-1.6-18.61-2.36-27.92-.74-9-1.54-18.1-2.33-27.14-.72-8.28-1.3-16.57-2.13-24.84a3.65,3.65,0,0,1,.29-2c.15-.2.46-.52.58-.34,1.77,2.62,4.29,1.77,6.7,1.49a6,6,0,0,1,1.79.07,17.84,17.84,0,0,0,7.56,0,6.83,6.83,0,0,1,3.84-.46,17.54,17.54,0,0,0,7.53-.07,7.44,7.44,0,0,1,4.27-.45,16.87,16.87,0,0,0,7.11,0,8.51,8.51,0,0,1,4.24-.49,16.94,16.94,0,0,0,7.09,0,8.62,8.62,0,0,1,4.24-.48,16.94,16.94,0,0,0,7.09,0,8.51,8.51,0,0,1,4.24-.49,17.52,17.52,0,0,0,7.14,0c1.56-.31,3.1-.84,4.73-.5a14,14,0,0,0,7-.15,12.19,12.19,0,0,1,3-.57c9.42-.08,18.81-.91,28.23-1.11A4.55,4.55,0,0,1,753.34,440.2Z"/><path class="cls-1" d="M942.4,426.27q-1.49,18.94-3,37.91-1.35,17-2.75,34.08-2,24.19-3.95,48.41-1.89,23.33-3.78,46.64-2.46,30.36-5,60.73-1.62,19.86-3.25,39.72c-.08.88.54,2.2-1.07,2.46-1.06.78-2.3.58-3.48.59-8.38,0-16.77,0-25.16,0-3.51,0-4.11-.51-4-4,.3-15.61-.49-31.21-.67-46.81-.12-10.71,0-21.45-.52-32.14-.44-8.84-.11-17.66-.41-26.48-.61-18.68-.7-37.37-1.15-56-.2-8.14.14-16.3-.45-24.41-.81-11.05.12-22.12-.83-33.16a33.5,33.5,0,0,1,.31-7.06c-.2,6-1.08,12.87-1.88,19.79q-3.5,30.42-7,60.83-3.52,30.93-7,61.86c-2.29,20.2-4.54,40.39-6.88,60.58q-1.23,10.61-2.36,21.22c-.08.77-.15,1.54-.28,2.3-.56,3.14-.92,3.45-4.21,3.55-8.59.16-17.18.06-25.77.06a5,5,0,0,1-2.69-.65c-1.67-.09-1.22-1.36-1.22-2.29-.05-9.27-.05-18.53-.09-27.8l-.72-176.28q-.13-32-.24-64.08c1.12-.76,2.17-.11,3.18.22a178.45,178.45,0,0,0,36.52,8c7.65.8,15.33,1.24,23,1.37,3.24.62,5.58,2.93,8.23,4.59,8.15,5.08,16.2,10.3,24.28,15.48,1.58,1,2.23.9,2.92-.9,2.92-7.69,6.21-15.24,9.23-22.89a7.37,7.37,0,0,1,1.73-3.11,73.24,73.24,0,0,1,8.1-2.82C940.89,425.5,941.94,424.86,942.4,426.27Z"/><path class="cls-4" d="M623.63,326.93a1.06,1.06,0,0,0,.43-1.09,15.12,15.12,0,0,1,.06-5.61,50.48,50.48,0,0,1,.48-8.77,29.7,29.7,0,0,1,0-8.21,3.2,3.2,0,0,0,.47-2.09,17,17,0,0,1,0-6.15c.91-3.29.49-6.71,1-10.05.44-2.83.68-5.69,1-8.54a4.57,4.57,0,0,1,0-3l.46-.61a4.19,4.19,0,0,1,.1-3l.43-.57a2.92,2.92,0,0,1,.1-2.53q2-8.78,4-17.55a63.82,63.82,0,0,1,29.14-21.49,49.92,49.92,0,0,1,17.11-3.13c1,.39,1.23,1.38,1.65,2.19,1.54,3,3.08,5.94,4.47,9,.81,1.77,1.47,2,2.84.5a84.11,84.11,0,0,1,12-10.46,62.86,62.86,0,0,1,9.67-5.83,3.21,3.21,0,0,1,2.42-.6c13.54,2.26,26.95,5,39.87,9.77,2.17.8,4.23,1.86,6.34,2.8,3.85,1.24,7.5,2.76,9.59,6.56-1.71,2-3.73,3.72-5.51,5.68-8.26,9.1-12.4,19.87-13.49,32,0,2.34,0,4.69,0,7,.06.54.25,1.06.33,1.6.14.81.1,1.63.26,2.43,3.7,16,9.86,31.29,15.05,46.85,2,6,1.73,6.72-4.21,8.76-1.86.64-3.65,1.54-5.69,1.39-1.7,0-3.4,0-5.09-.05a9.79,9.79,0,0,1-2-.39c-.76-.15-1.54-.12-2.3-.25-.49-.09-1-.21-1.45-.33-.72-.1-1.44-.13-2.16-.22a23.41,23.41,0,0,1-7.33-1.3c-1.12-.15-2.26,0-3.36-.26-.37-.07-.73-.17-1.09-.26a7.52,7.52,0,0,0-3.23.28c-.7.13-1.41.11-2.11.19a11.62,11.62,0,0,1-3.18.76,7.3,7.3,0,0,0-2.11.8c-.19.11-.39.21-.59.31a6.23,6.23,0,0,0-2.21,1.48,16.73,16.73,0,0,0-3.94,5.16c-.44.87-.84,1.88-2.11,1.88-2-.76-2.72-2.74-3.73-4.35-1.67-2.65-2.9-5.59-5.65-7.43a2.62,2.62,0,0,1-.9-2c-.28-2.76.44-5.45.55-8.19.07-1.58-.51-2.18-2-2.18q-15.66,0-31.32,0c-2.09,0-2.36,1.27-2.18,2.9.62,5.53,1.11,11.06,1.66,16.59.45,4.42.8,8.85,1.26,13.26a10.79,10.79,0,0,0,.28,3.44,8.9,8.9,0,0,1,.22,1.71,10.82,10.82,0,0,0,.39,3.84c.6,5,1,10.07,1.48,15.1.21,2.14,1.14,2.93,3.3,2.89,6.09-.11,12.18,0,18.27,0,2.92,0,3.19-.32,3.41-3.23a39.93,39.93,0,0,1,.77-5.34c2-2.62,12.06-6.85,15.23-6.4a3.76,3.76,0,0,1,1.58,2c3.06,7.11,9.22,8.65,15.94,8.25,11.54-.68,23-2.09,34.53-3.14.85-.08,1.72-.26,2.39.51-2.78,9.13-1.61,18.24.11,27.36a21.11,21.11,0,0,1-12,23.14c-1.78,2.2-4.42,2.56-6.91,3a70,70,0,0,1-13,1.27c-29.76-.24-59.51.91-89.28.59a27.39,27.39,0,0,1-10.78-2.05,18.36,18.36,0,0,1-5.22-3.13c-5.48-4.18-7.79-10.11-8.76-16.59a69.44,69.44,0,0,1,.4-22.74,8.64,8.64,0,0,1,1.14-3.38c.7-2.52.14-5.09.33-7.63.08-1-.26-2.05.26-3l.44-1.58a53.2,53.2,0,0,1,.07-10.78c.14-.53.29-1.06.43-1.59-.4-3.31-.07-6.63-.17-9.95,0-1.4.81-2.7.51-4.13.14-3-.3-6,.25-9l.44-1.61A56.39,56.39,0,0,1,623.63,326.93Z"/><path class="cls-5" d="M886.21,436c-18.86.09-37.4-2.13-55.45-7.79-2.6-.82-5.22-1.6-7.83-2.4a4.3,4.3,0,0,0-.62-.43c-1.66-.83-4.31-.74-4.86-2.34-.45-1.33,1-3.28,1.57-5,5.94-18.74,10.92-37.71,12-57.42a60.41,60.41,0,0,0-9.23-35.8,155.41,155.41,0,0,1-9.3-16.57c-1.24-.74-1.46-2.05-1.8-3.28-2.82-10.32-1.57-20.42,2-30.26a109.18,109.18,0,0,1,10.68-20.47,12.74,12.74,0,0,1,1.91-2.41,19.29,19.29,0,0,0,2.11-2.73l3-3.94c.57-1.73,1-3.56,3.38-3.63a5.71,5.71,0,0,1,1,2.35c2.07,7.31,8.43,12,16.08,12.38,8,.38,15.13-2,21.76-6.32a9.38,9.38,0,0,1,3.3.13c4.78.33,8.23-1.69,10.67-5.72.64-1.05,1-2.44,2.41-2.82,1.13,1.6,2.94,2.32,4.47,3.38,5.13,3.57,10.32,7.06,15.49,10.58.39,1.35-.51,2.27-1.12,3.28-3,4.88-5.37,10-6.2,15.69-1.78,12.24,1.18,23.12,9.78,32.26,1.11,1.17,2.5,2.13,3,3.78.27,1.93-.39,3.74-.77,5.57-2.2,10.76-2.46,21.44,1,32,2.35,7.15,6.15,13.57,10,20a7.64,7.64,0,0,1,1.51,3.22c-.46,2.51-2.53,3.94-3.93,5.81-1.69,2.24-3.8,4.12-5.54,6.32A3.41,3.41,0,0,1,914,385c-3.2-1.06-5.74-3.28-8.53-5-6-3.82-12.06-7.69-18.12-11.5a5,5,0,0,0-2-1,7.59,7.59,0,0,0-2.92,2.46c-10.44,11.57-21.37,22.67-31.77,34.28a41.91,41.91,0,0,1-3.26,3.27c-1.49,1.32-1.12,2.18.41,3.12,6.69,4.16,13.29,8.48,20,12.69,3,1.88,5.92,3.78,8.89,5.65,2.89,2.53,5.84,5,9.49,6.35A.59.59,0,0,1,886.21,436Z"/><path class="cls-6" d="M622.54,264.62a82.49,82.49,0,0,0-6.24,15.92,115.36,115.36,0,0,0-4.57,22.67c-.63,1.15.18,2.5-.49,3.65l-1,13.39c-1.9,1-2.29,2.67-2.32,4.71-.11,5.79-.37,11.58-.88,17.35a4.49,4.49,0,0,1-.85,2.64,106.35,106.35,0,0,1-22.4,11.32,98.44,98.44,0,0,1-25.08,6.09c-.86-1.66-.28-3.39-.11-5q1.59-16.35,3.13-32.71c.33-3.46.28-3.56-3.34-3.56q-13.23,0-26.47,0c-.94,0-1.88,0-2.82-.07a2.23,2.23,0,0,1-2.31-2.73c.16-1.54.26-3.07.43-4.6,2.69-4.08,4.11-8.68,5.55-13.31,1.2-3.89,1.72-7.34-2.46-9.77-.21-.12-.26-.42-.36-.66-.41-4.57.65-9,.9-13.55.17-3.06.17-3.19-2.95-3.19q-14.65,0-29.32,0c-3.23,0-3.4.27-3.09,3.36.73,7.33,1.47,14.66,2.07,22a3.7,3.7,0,0,1-1.72,2.71,12.92,12.92,0,0,0-4.62,6.3,3.59,3.59,0,0,1-2.64,2.55c-2.24.53-4.3,2.11-6.8,1.21-.72-1.55-.37-3.21-.44-4.82-.61-14.76-1.72-29.46-5.57-43.79-1.4-5.21-2.91-10.41-6.19-14.88-2.06-2.8-4.44-5-8-5.65a1.85,1.85,0,0,1-1.3-.74,178.36,178.36,0,0,1,53.52-26.63c1.21-.36,2.42-.9,3.75-.52.09,1.66-1.31,2.14-2.36,2.71-1.74.95-1.55,1.92-.51,3.26,7,8.93,19.53,13.8,31.27,9.8a29.91,29.91,0,0,0,14.32-10.39c1.8-2.35,1.77-2.4-.94-3.29a23.17,23.17,0,0,1-5.59-2.55c-.75-.49-1.76-.86-1.63-2.07,17.84,2.42,33.6,10.1,48.83,19.2,5.44,3.25,8.31,8.51,11.47,13.54a99.61,99.61,0,0,1,8.87,18.47C621.5,263.58,621.43,264.59,622.54,264.62Z"/><path class="cls-7" d="M317.39,491.15l.42.05c.82.81.66,1.87.68,2.87,0,3.13,0,6.26,0,9.39,0,3.34.21,3.48,3.5,2.88,1.31,0,2.64.32,3.92-.19a7.37,7.37,0,0,1,2.42-.37,42.22,42.22,0,0,0,8.26-.06,6.93,6.93,0,0,1,2.82.4,7.06,7.06,0,0,0,3.92.07,122.39,122.39,0,0,1,18.43,3.15c.66,3.71-.37,7.32-.75,10.95-1.55,14.75-3.24,29.48-4.92,44.22s-3.28,29.31-4.91,44c-1.8,16-3.54,32-5.38,48.06-1.85,16.18-3.56,32.39-5.44,48.57-.43,3.68-.27,4.12,3.09,5.81,6.13,3.09,12.31,6.09,18.39,9.27.89.47,2.74.56,1.95,2.5a7.87,7.87,0,0,1-3.78.5q-20.26,0-40.54,0c-1.42,0-3,.29-4.12-.91,2-9.26,2.32-18.62,2.31-28.07q-.17-91-.07-182C317.6,505.2,317.46,498.18,317.39,491.15Z"/><path class="cls-7" d="M914.11,310.4c-5.87-5.46-10.38-11.79-12.42-19.67-3.06-11.83-.39-22.65,5.89-32.82.49-.8,1-1.61,1.44-2.41,6.84,6,13.65,12,20.52,17.94,12.33,10.66,25,21,36.47,32.56,5.54,5.59,10.35,11.67,13.22,19.11,4.48,11.65,1.29,22-5.38,31.79a189.87,189.87,0,0,1-22.41,27.15c-3.93,3.95-7.91,7.83-11.87,11.75a15,15,0,0,1-3.36,3.58c-3.33,2.51-6.45,5.3-9.81,7.77-4.3,3.38-9,6.18-13,10a48.25,48.25,0,0,0-4.78,5.34c-4,5-8.23,9.63-14.33,12.1-2.62,1.07-5.28,2-8.16,1-4-.79-6.86-3.41-9.66-6.11-5.29-7.62-1.9-17.87,6.64-24.76a17.24,17.24,0,0,1-5.55-1.67c-3.16-1.42-4.83-4.2-4.19-6.87.57-2.44,3.75-4.33,7-3.91a46.39,46.39,0,0,1,16,4.61c1.17.61,2.27,1.61,3.78,1.24,4.21-3.57,7.85-7.73,11.82-11.54a9.14,9.14,0,0,1,2.09-1.83c2.4-1,3.57-3.36,5.24-5.15,2.39-2.55,4.52-5.34,6.77-8,1.59-3.5,4.56-6,6.83-8.95,4.77-6.28,9.52-12.58,14.18-18.94a2.31,2.31,0,0,0-.15-3.38,156.26,156.26,0,0,0-16.66-16.39c-4.64-3.93-9.34-7.78-14.22-11.42A7.4,7.4,0,0,1,914.11,310.4Z"/><path class="cls-7" d="M416,516.89c-.72,6-1.43,12.06-2.18,18.08q-1.92,15.15-3.88,30.29T406,595.81q-2.17,16.94-4.33,33.87-2.2,17.33-4.42,34.64-2.17,17.05-4.34,34.13c-.37,3-.54,6-1.15,8.91-.4,1.9.42,2.51,1.88,3.23,7.66,3.81,15.28,7.72,22.92,11.59-.84,1.15-2.12,1-3.28,1q-21.3,0-42.58,0a5.12,5.12,0,0,1-3-.61c-.9-1.07-.55-2.3-.32-3.45,1.64-8.53,1.86-17.16,2.11-25.83.47-16.26,1.08-32.52,1.56-48.78q.45-15.15,1-30.29c.57-15.92,1.06-31.84,1.56-47.76.32-10.18.54-20.38,1.08-30.54.36-6.67-.16-13.38.83-20a7.54,7.54,0,0,1,.48-2.25c.75-1.15,1.8-.65,2.77-.46,5.46,1,10.8,2.67,16.35,3.15,4.59.4,9.16,1.16,13.78.65a6.3,6.3,0,0,0,3.55-.06C413.67,516.69,414.83,516,416,516.89Z"/><path class="cls-1" d="M747.73,275.49c.66-2.54.8-5.17,1.33-7.74,2.28-11.08,8-20.09,15.94-27.88a7,7,0,0,1,2.34-1.52,2.4,2.4,0,0,1,2.26.92c3.59,3.91,7.62,7.53,8.9,13,4.75,10,5.5,20.73,6.23,31.49.06.85.15,1.7.23,2.55,1.82,2.69,1.08,5.85,1.38,8.76a84.45,84.45,0,0,0,5.6,23.4,4.74,4.74,0,0,1,.55,2.22c2,4.63,4.56,9,6.65,13.57,8,17.55.27,34.37-17.58,42.26a41.1,41.1,0,0,1-16.2,3.48c-6.24.64-12.47,1.33-18.72,1.91-4.82.44-9.67.62-14.48,1.16a29.52,29.52,0,0,1-11.35-.47A12.44,12.44,0,0,1,712,375.1a18.87,18.87,0,0,0-1.43-2.39c.82-1.88,2.52-1.24,3.74-1,2.41.48,3.82-.43,5.16-2.3,2.84-4,3.33-8.28,2.29-12.91-.37-1.63-1.06-2.25-2.87-1.83a9.33,9.33,0,0,1-7.18-1c-.78-.48-1.76-.82-1.68-2,1.72-1.38,2-3.71,3.44-5.26.68-.73,1.48-1.34,2.23-2s1.85-.87,2.61-1.57l0,0c.83-.45,1.84-.49,2.61-1.12,1,.21,1.78-.5,2.62-.89.81.45,1.68.12,2.52.21,1.11-.65,2.43-.31,3.58-.75l.52.45a6.84,6.84,0,0,0,4,.12c2.1,1.26,4.54,1,6.81,1.51a3.17,3.17,0,0,0,2.49,0l1.13.48a3,3,0,0,0,2.47,0l1.7.5a14.69,14.69,0,0,0,5.49,0c3.23-.12,6-1.66,9-2.77,1.54-.58,1.69-2,1.19-3.46-3.16-9.2-6.27-18.41-9.46-27.59-2.26-6.49-4.69-12.93-5.83-19.75a18.58,18.58,0,0,0-.89-2.67,3,3,0,0,0,0-2.47l-.5-1.13A30.81,30.81,0,0,0,747.73,275.49Z"/><path class="cls-8" d="M521.55,413.86l-1.42.18c-9.82,2.43-14.72-9.55-11.78-17.06,2.5-6.41,7.74-10.06,13.19-13.53a27.93,27.93,0,0,1,5.27-2.57,20.27,20.27,0,0,1-8-2.74c-1.51-1-2.94-.49-4.44-.08-13.88,3.77-27.74,7.62-41.66,11.23-1.46.38-2.93,1-4.5.37-4.42.16-8.8.72-13.25-.3-8.58-2-14.14-6.85-16.19-15.53s-2.14-17.45-2.18-26.26c0-.92.25-1.89-.3-2.76.2-1.21,1.27-1,2-1.12A148,148,0,0,0,470,332.47c1.21-.58,2.39-1.9,4-.78a136.55,136.55,0,0,1-.74,14.59c-.45,5.37.13,10.6.54,15.89.16,2.09,1.19,2.77,3.2,2.65A120,120,0,0,0,504.8,360c3.77-1.16,7.45-2.61,11.12-4.05a4.72,4.72,0,0,0,3.26-3.87A27.43,27.43,0,0,1,524.39,341c.59-.82,1.15-1.74,2.28-1.95,1.6.35,1.39,1.81,1.64,2.88.46,1.91,1.47,2.35,3.19,1.62,2.14-.91,4.13-2.11,6.27-3a10.2,10.2,0,0,1,13.14,4.8c2.63,5.29,3.1,11,2.79,16.81a2.69,2.69,0,0,1-.59,1.4,16.53,16.53,0,0,0-8.29,9.27c-1.43,1.51-3.29,1.13-5,1.07s-3.51-.53-5-.52c2.87,1.43,6.31,2.43,9.5,4a9,9,0,0,0,8.24-1.64c1.4-1.08,2.39-.82,3.67-.05a13.37,13.37,0,0,1,3.28,20.07,3.19,3.19,0,0,1-3.42,1.06,18.48,18.48,0,0,0-7.66.17,4.56,4.56,0,0,1-2.58,1,19.87,19.87,0,0,0-10.49,5.94,56.49,56.49,0,0,1-7.81,7.33A14.43,14.43,0,0,1,521.55,413.86Z"/><path class="cls-7" d="M314.07,238.26c10.65,2.66,18.14,8.59,19.93,20,.61,3.86.84,7.92-1.28,11.59-.44,1.23-1.57,1.79-2.52,2.49-10.5,7.7-20.67,15.83-30.65,24.2-5.51,4.62-10.5,9.82-15.6,14.9-1.28,1.28-1,2.06.32,3q14.94,11.12,29.81,22.37c1.6,1.22,2.62.93,3.93-.39,2.79-2.81,5.87-5.22,9.93-5.94,1.42.33,2.7-.36,4-.56,8-1.21,14.55,1,19.32,7.7,2.59,3.62,3.82,11.28.69,15.3-2.22,2.84-4.64,4.2-8.2,3.14-4.88-1.44-9.43-.73-14,1.1a28.08,28.08,0,0,1-17.58,1.18c-10.35-3.8-19.51-9.95-29.21-15-5.91-3.08-12-6.06-17-10.5-5.56-4.89-9.76-10.64-9.85-18.45-.07-5,1.79-9.54,4.4-13.75,4.77-7.7,11.1-14.14,17-20.91Q295.2,259.48,313,239.33C313.32,239,313.71,238.61,314.07,238.26Z"/><path class="cls-1" d="M889.06,241.54a44.79,44.79,0,0,1-3.07,5c-3.45,4.33-8,5.06-13.13,3.73-1.78.4-3-.67-4-1.78a13.8,13.8,0,0,1-4-9.22A47,47,0,0,1,866.25,227c1.23-5.37.94-10.54-1.72-15.49-1.49-2.78-1.43-5.78-.91-8.79.2-1.19.53-2.35.84-3.51,1-3.74.16-6.85-3.29-8.87-3-1.78-3.88-4.39-3.41-7.66,0-.25.07-.51.11-.76.86-6.28-.3-7.75-6.53-8.18-7.64-.53-10.43-3.43-10.69-11.11,0-.43,0-.85-.08-1.28,1.25-3.33,1.69-7,3.9-9.94,3.8-6,5.55-6.76,12.56-5a30.43,30.43,0,0,0,12.46.46c11.66-1.86,16.43,1.69,18.22,13.31.3,2,.71,3.88,1,5.83a15.38,15.38,0,0,0,6.54,10.9c.56.4,1.08.85,1.62,1.27,6.06,4.59,7,9,3.16,15.58-1.24,2.15-2.63,4.21-3.87,6.37a11.39,11.39,0,0,0,.32,12.61c1.89,3,4.28,5.58,5.81,8.78,1.92,4,1.2,7.81-2.28,10.56a38.76,38.76,0,0,1-4.72,3.1A15.72,15.72,0,0,0,889.06,241.54Z"/><path class="cls-7" d="M473.64,331.57c-5.37,2.35-10.69,4.87-16.15,7a120.87,120.87,0,0,1-21.21,6.23,21.38,21.38,0,0,1-7.14-.09c-4.81-1.19-7.77-4.44-9.44-9-3.14-8.53-4.13-17.58-6.15-26.38-.38-1.67-.74-3.33-1.11-5,3.74-5.41,8.17-10.32,11.56-16,4.79-8,6.73-16.48,4.52-25.79-1.59-6.74-4.18-13.2-5.44-20-1-5.54-1.33-11,.79-16.42a6.79,6.79,0,0,1,1.94-3.26A158.21,158.21,0,0,1,432,246.72a225.34,225.34,0,0,1,4.37,43.12,4.52,4.52,0,0,0,.24,1,2.08,2.08,0,0,1,.61,2.08c-.54,2-.26,4.05-.29,6.08.27,5.06-.85,10.07-.51,15.13.36,5.3,3.55,7.86,8.8,7.06a28.24,28.24,0,0,0,3.51-.79c9.54-2.76,19-5.64,28.57-8.48,1.52-.46,3-1.31,4.72-.62,1-.27,2-.58,3-.8,3-.63,5.48-1.46,6.41-5.05.72-2.78,3.54-4.26,5.57-6.18a38.82,38.82,0,0,1,9.91-8,3.64,3.64,0,0,1,4.32.59,4.31,4.31,0,0,1,1.52,4.38c-.54,2.74-2.58,4.2-4.83,5.32-1.5.74-1.85,1.44-1.36,3.14,1.87,6.64-.42,11.24-7.38,15.38a40.53,40.53,0,0,1-7,2.32c-3.64.84-6.4,3.39-9.64,5a18.28,18.28,0,0,0-2.9,1.54C477.68,329.93,475.93,331.35,473.64,331.57Z"/><path class="cls-9" d="M482,311.28c-11.53,3.43-23.06,6.89-34.61,10.26a11.35,11.35,0,0,1-5.3.6c-3.9-.72-6.16-3.36-6.41-7.52-.31-5.23.47-10.41.71-15.61.22-2-.21-4.11.24-6.14,0-.69,0-1.37,0-2.05,3-14,7.4-27.47,15.06-39.66a39.13,39.13,0,0,1,8.59-9.75c6.05,0,9.12,4.18,11.63,8.76,3.48,6.35,5.05,13.4,6.49,20.43,2.07,10.11,2.69,20.4,3.57,30.66C482.24,304.57,482,307.94,482,311.28Z"/><path class="cls-8" d="M552.09,211.73a17.36,17.36,0,0,0,8.34,4.29c2.5.6,2.24,1.42,1,3.15-8.87,12.52-25.53,17.13-39.48,8.46a29,29,0,0,1-8.86-8.42c-.69-1-.67-1.58.54-2.14a8.06,8.06,0,0,0,3.88-2.81c4.24-2.49,6.36-6.51,7.88-11,.8-1.07,2.08-1.12,3.21-1.44,4.94-1.41,8.38-4.68,11.57-9.1-3.53,1.06-6.44,2.59-9.72,2.67a11.19,11.19,0,0,0-3.56,0,1,1,0,0,1-.65-.27c-6.38,1.48-12.82-2.93-14.88-10.18a64.84,64.84,0,0,1-1.64-25.34c.36-1,1.26-1.08,2.07-1.32a50.73,50.73,0,0,0,20.62-11.12c1.75-1.6,2.56-1.33,3.1,1,1.35,5.82,4.14,10.65,9.1,14.12a2.49,2.49,0,0,1,1.08,2.69,35.77,35.77,0,0,0-.23,5.21c.48-.74.72-1.54,1.24-2.19.91-1.12,1.94-2.06,3.5-1.55a3.46,3.46,0,0,1,2.41,3c.44,3.34-.21,6.53-2.8,8.69-2.43,2-2.62,4.2-1.71,6.84.28.81.41,1.66.67,2.47a31.55,31.55,0,0,0-1.41,16.59A11.52,11.52,0,0,0,552.09,211.73Z"/><path class="cls-8" d="M711.61,219.28a82.29,82.29,0,0,0-13.73,8.44A90.29,90.29,0,0,0,685.73,239l-7.16-14.47a13.93,13.93,0,0,0,3.27-9.84,3.67,3.67,0,0,1,1.77-1A27.82,27.82,0,0,0,698,204.21c-7.3,2.44-14.8,3.09-22.41.65-3.75-3.16-5.3-7.4-5.9-12.1-1.17-9.21-1.38-18.4.74-27.52a21,21,0,0,1,2.95-7.06c.81-.61,1.5,0,2.1.34,5.51,3.41,11.48,3.62,17.64,2.67a18.92,18.92,0,0,1,7.15.23,2.49,2.49,0,0,1,2.22,2.68,27.68,27.68,0,0,0,.51,5.37c.1.5,0,1.18.36,1.47,3.34,2.92,2.05,6.91,2.44,10.64.61-2.09,1.61-3.66,3.78-4a3.66,3.66,0,0,1,4.08,2.77,10.37,10.37,0,0,1-3.44,9.93c-2.2,1.62-2.21,2.14-.09,3.95.52.44,1.16.75,1.47,1.41-1.64,6.35-3,12.74-1.54,19.33A38,38,0,0,0,711.61,219.28Z"/><path class="cls-10" d="M368.79,226.07c-.16,3.07.31,6.17-.57,9.19-1.24,4.22-3.65,7.36-8.09,8.49-2.77.7-3.6-.1-3.27-2.85.94-7.86-1.21-15.11-4.54-22.08-1-2.16-2.32-4.2-3.48-6.29.63-7.16,1.17-14.33,1.91-21.48,1-10,1.06-20,3.09-29.86,3.41-16.46,21.11-26.82,36.31-21.17A16.07,16.07,0,0,1,394,142.1c1.45,1.4,1,3.07.66,4.71-.16.91-.37,1.81-.58,2.7-2.68,10.35-9.28,16.94-19.42,20a3.15,3.15,0,0,0-2.65,3.17c-1.13,12.1-2.4,24.2-3.46,36.31-.42,4.81.43,9.57.62,14.36C369.18,224.3,369.55,225.25,368.79,226.07Z"/><path class="cls-11" d="M711.64,195.64a4.51,4.51,0,0,1-3.33-2.17c-.92-1.43-2-2.61.91-3.44,3.06-.86,5.18-7.5,3.71-10.25a3.14,3.14,0,0,0-5-.74c-1.1,1-1.48,2.45-2.22,3.82a10.06,10.06,0,0,1-.76-4.25c.22-2.38.33-4.38-1.77-6.47-1.72-1.7-1.32-4.83-1.26-7.39,0-1.72-.37-2.47-2.27-2.82-3.65-.68-7.2,0-10.72.38-5.32.54-9.93-1-14.37-3.56-.37-.21-.75-.38-1.13-.57-3.13-3.17-6.34-6.27-9.37-9.53-3.47-3.73-4.16-7.35-1.95-10.4,2.34-3.24,5.85-4,9.59-3.77,2.48.16,4.93.61,7.39.94,4.51.6,8.87-.43,13.26-1.18,12.14-2.07,23,4.16,27.33,15.79a3.06,3.06,0,0,0,1.58,1.83c4.34,2.25,6.35,6,6.92,10.74.79,6.49-1.19,12.36-4.17,18-2.62,5-6.2,9.24-9.74,13.54A4.7,4.7,0,0,1,711.64,195.64Z"/><path class="cls-7" d="M778.5,252.29c-2.77-5.41-6.19-10.29-11.16-13.94-2.62-3-6.29-4.42-9.52-6.5q1.89-10.22,3.77-20.43a11.27,11.27,0,0,1,.32-1.51A22.11,22.11,0,0,0,761,194a84.09,84.09,0,0,1-5.3-16.89c-.78-4.06-.47-8.1,2-11.58,3.59-5.06,10.74-5.91,16.31-2.19a17.1,17.1,0,0,1,6.81,9.11c1.94,5.93,3.55,12,3.54,18.73l1.77-3.67a6.77,6.77,0,0,1,3.77-3.66c3.46-1.29,6.55,1.06,6.09,4.74a14.88,14.88,0,0,1-1.89,5.55,41.85,41.85,0,0,1-10.8,12.93,4.27,4.27,0,0,0-1.78,3.45C780.59,224.46,779.53,238.37,778.5,252.29Z"/><path class="cls-4" d="M548.79,187.54c-1.48-1.39-1.59-3.28-1.9-5.13-.36-2.13,1-3.11,2.31-4.39a9,9,0,0,0,2.9-8.39c-.23-1.39-.77-2.56-2.27-2.73a2.89,2.89,0,0,0-3.11,2.17c-.4,1-.69,2.09-1.18,3.62-1.33-2.64-.74-5-.54-7.36.08-.8.69-1.61-.33-2.29-5.86-3.88-9-9.47-10.13-16.3-.25,0-.46-.06-.54,0a54.06,54.06,0,0,1-24.26,12.87,2.9,2.9,0,0,0-.51,0c-5.2.62-5.2.62-5.05-4.78.2-7.66,1.94-14.69,7.52-20.42,6.46-6.65,19-9.42,26.08-4.12a2,2,0,0,0,1.92.38c10.1-3,19,5,21.65,12.12,4.63,12.51,2.56,24.21-4.27,35.34A47.13,47.13,0,0,1,548.79,187.54Z"/><path class="cls-12" d="M468.2,389.66c16.05-3.92,31.92-8.49,47.86-12.8a3.19,3.19,0,0,1,3.2.7c2.65,2.06,6,2.22,9.45,3.15a49.18,49.18,0,0,0-12.94,7.65c-4,3.26-7.13,7-7.51,12.36-.58,8.16,3.77,13,11.87,13.32-5.56.83-11.12,1.68-16.68,2.48-9,1.28-17.94,2.49-26.9,3.84a22.18,22.18,0,0,1-6.43.07c0,5.48,0,10.87,0,16.26,0,1,.25,2.06-.35,3,0-5.8,0-11.61,0-17.41a5.39,5.39,0,0,0-1.25-4c-3.21-3.64-2.76-8.06-2.25-12.42C466.93,400.49,467.93,395.12,468.2,389.66Z"/><path class="cls-4" d="M470.05,692.52c10.93,0,21.86,0,32.79-.07,1.78,0,2.31.52,2.34,2.31.06,2.68-.66,5.42.43,8,1-.52,1.62.25,2.28.69q14.54,9.63,29,19.33a6.84,6.84,0,0,1,1.4,1.11c.84.94.23,1.32-.63,1.61a13.16,13.16,0,0,1-3.07.22H474.07c-1.35,0-2.76.19-3.94-.74Z"/><path class="cls-13" d="M761.11,709.44c1.16,7,2.31,14,3.5,21,.19,1.14,0,1.85-1.35,1.64a5,5,0,0,0-.77,0l-131.42,0c-.59,0-1.19-.07-1.79-.1.76-1.68,2.31-1.18,3.57-1.18,10.8-.06,21.61,0,32.42,0,4.72,0,9.44-.08,14.16,0A13.15,13.15,0,0,0,687,729c1.66-1,3.4-2,5.16-2.9a4.68,4.68,0,0,0,2.39-2.56c.13-.22.37-.62.45-.57,2.27,1.17,3.78-.58,5.44-1.49,7-3.86,14-7.84,21.06-11.77a6.36,6.36,0,0,1,2.39-.9c11.52-.25,23-.08,34.56-.1A3.87,3.87,0,0,1,761.11,709.44Z"/><path class="cls-4" d="M695.22,722.79a3.3,3.3,0,0,1-2.47,3.89,16,16,0,0,0-2.89,1.64,21.58,21.58,0,0,1-12,3.43c-15.18-.31-30.37-.13-45.56-.1-1,0-2.06-.33-3,.39H615.33c.37-1.54,1.86-1.81,2.94-2.51,1.48-.95,3.18-1.55,4.65-2.54,10.23-5.59,20.48-11.13,30.69-16.76a10.65,10.65,0,0,1,3.82-1.47c11.11-.23,22.21-.08,33.31-.08a5.36,5.36,0,0,1,2,.33,2.51,2.51,0,0,1,1.26,1.4c.93,3.27,1.11,6.67,1.73,10A2.48,2.48,0,0,1,695.22,722.79Z"/><path class="cls-8" d="M886.08,435.58c8.73-.26,15.18-4.78,20.17-11.43,5.47-7.28,12.5-12.64,20.06-17.45a7.47,7.47,0,0,1,3.17-.86,42.12,42.12,0,0,0,9.89-2.39,4.07,4.07,0,0,1,3-.32c0,.43,0,.85,0,1.28a13.47,13.47,0,0,1-1,3.67c-2.54,6.07-4.79,12.25-7.42,18.29a6.33,6.33,0,0,1-1.64,2.55c-3.66,8.94-7.35,17.87-10.93,26.85-.63,1.57-1.09,1.82-2.58.86-10-6.47-20-12.84-30.06-19.23-.79-.51-1.62-.94-2.43-1.41A1.16,1.16,0,0,0,886.08,435.58Z"/><path class="cls-4" d="M844.47,151.42c-1.15,3.23-1.66,6.69-3.59,9.62.38.89-.22,1.49-.72,2-5.13,5.4-6.78,12.23-7.69,19.25a98.33,98.33,0,0,0-1.19,17.15c.25,5.72,1.47,11,6,15.06a13,13,0,0,0,6.79,3.36,2.81,2.81,0,0,1,2.16,3.06,23.24,23.24,0,0,1-2.45,10.61c-2.27,4.38-5.34,8-10.06,9.83l-3.21,3.8c-7-1.22-10.37-5.6-9.76-12.67a49.89,49.89,0,0,1,.64-5.61,17,17,0,0,0-2-12.13c-2.56-4.54-1.92-8.88.91-13,.44-.63.83-1.3,1.3-1.91,3.66-4.76,4.31-9.73,1.23-15.05s-2.3-9.91,1.91-14.23a31.32,31.32,0,0,0,6.77-11.41,14.89,14.89,0,0,1,4.33-6.85C838.92,149.71,841,149.5,844.47,151.42Z"/><path class="cls-10" d="M919.43,722.76c.48,2.52.85,5.07,1.5,7.55.45,1.67-.15,2-1.57,1.81a22.23,22.23,0,0,0-2.31,0H784.34l-.12-.35c5.4-2.27,10.77-4.58,16.2-6.76,2.29-.92,4.43-2.28,6.94-2.61a11.81,11.81,0,0,1,4.76-.86q19.29-.06,38.59,0a8.42,8.42,0,0,1,2.29.24c1.8.7,1.7,2.4,2,3.87.56,2.94.65,3,3.46,1.81,3.94-1.68,7.9-3.35,11.88-5a8.94,8.94,0,0,1,3.22-.85c14-.27,28-.06,42-.12a7.32,7.32,0,0,1,3.27.44A1.3,1.3,0,0,1,919.43,722.76Z"/><path class="cls-7" d="M792.49,320.71c-3.57-6.07-4.93-12.84-6.11-19.64A139.78,139.78,0,0,1,785,286.33a253.9,253.9,0,0,0,35.93-30.59c1.49-1.53,3-3,4.57-4.49.44-.15.62,0,.47.45-4.73,7.24-9.23,14.64-12.28,22.76-4.16,11.1-5.39,22.38-1.11,33.8A146.22,146.22,0,0,1,792.49,320.71Z"/><path class="cls-14" d="M633,432.45a35.32,35.32,0,0,0,13.56,2.16c13.45-.13,26.91.17,40.35-.23,15.84-.47,31.69,0,47.52-.5,6.47-.19,13-.54,19-3.36l-.09,9.68q-17.54.33-35,1.57a20.33,20.33,0,0,1-6.65,0c-1.61-.31-3.09.62-4.68.52a23.55,23.55,0,0,1-7.16,0c-1.44-.29-2.76.45-4.17.51a23.23,23.23,0,0,1-7.16,0c-1.44-.29-2.76.45-4.17.51a22.56,22.56,0,0,1-7.15,0c-1.45-.28-2.77.45-4.18.52a23.17,23.17,0,0,1-7.15,0,10,10,0,0,0-4.17.51,26.64,26.64,0,0,1-7.67,0,8.86,8.86,0,0,0-3.65.5,26.36,26.36,0,0,1-7.68,0c-1.65.16-3.32.25-5,.49-2.12.32-3.52-.25-3.74-2.59A16.38,16.38,0,0,1,633,432.45Z"/><path class="cls-7" d="M853.66,722.42l-46.3,0c4.44-2.56,9.31-4.16,14-6.08a3.58,3.58,0,0,0,2.61-3.73c.25-5.45.78-10.89,1.2-16.33l28.51,0c1,.93.86,2.18.86,3.35q.06,9.74,0,19.47C854.57,720.26,854.71,721.52,853.66,722.42Z"/><path class="cls-15" d="M393.47,149.34c.25-2.41,1.33-4.76.5-7.24,6.36-.6,11.6,3.14,13.47,9.43,1.57,5.25.9,10.51.33,15.78a331.73,331.73,0,0,0-2.23,42.27L400.66,207a19.65,19.65,0,0,1-9.66-2.65,7.67,7.67,0,0,1-3.85-6,9.16,9.16,0,0,1,3.32-8.15,52.12,52.12,0,0,0,3.77-3.81,12.1,12.1,0,0,0,4.26-7.7c.71-5.43,1.41-10.86.63-16.36a21.25,21.25,0,0,0-5-11.63A4.51,4.51,0,0,1,393.47,149.34Z"/><path class="cls-16" d="M409.47,517.49c-4.69,1.16-9.32-.14-14-.35-5.68-.26-11-2.52-16.7-3-.86-.07-1.28-1.2-2.27-.88-.18-.18-.44-.32-.47-.58-.57-4.81-1-9.61.84-14.28a118.67,118.67,0,0,0,22.93,3.41A55.38,55.38,0,0,0,416,499.91c.73-.2,1.48-.34,2.22-.51L416,516.89l-3.51.57A4.87,4.87,0,0,1,409.47,517.49Z"/><path class="cls-1" d="M315.36,722.26l48.75-.09c1.34-.4,2.49.44,3.74.6,3.8,2.42,8,4.07,11.93,6.21,1.57.86,3.36,1.44,4.4,3.06H313.83C314.35,728.73,314.85,725.5,315.36,722.26Z"/><path class="cls-17" d="M761.11,709.44l-38.14,0c-1.42-1.79-1.06-4-1.44-6-.33-1.75-.42-3.52-.68-5.28a2.58,2.58,0,0,1,.63-2.58q18.21,0,36.42,0c1,0,2.34.58,2.71-1.1C761.44,699.43,761,704.44,761.11,709.44Z"/><path class="cls-2" d="M470.13,725l65.22,0c1.11,0,2.22-.05,3.34-.08a.87.87,0,0,1,1.16-.09c3,2.19,6.42,3.83,9.12,6.47a.75.75,0,0,1,0,.7c-.68,0-1.36.12-2.05.12-24.76,0-49.52,0-74.28.06-2.09,0-2.72-.6-2.53-2.58C470.24,728.07,470.13,726.53,470.13,725Z"/><path class="cls-2" d="M549,732v-.26c-.09-2.29-1.09-4.68.73-6.77l.37-.14a4.13,4.13,0,0,1,2.93-.71c21.35,0,42.7-.09,64,0,2.72-.14,4.38,1.52,5.88,3.47L615.33,732Z"/><path class="cls-4" d="M384.18,732l-14.57-7.48c-.8-.42-1.81-.62-1.95-1.78a.42.42,0,0,1,.15-.56l48.78,0,18.89,9.46-.11.4Z"/><path class="cls-10" d="M932.21,428.92c3.29-8.2,6.35-16.5,10.09-24.51a38.89,38.89,0,0,1,.1,21.86c-1.88-.55-3.37.74-5,1.13S933.92,428.4,932.21,428.92Z"/><path class="cls-18" d="M675.63,204.86c2-.61,3.93.47,5.89.65a45.52,45.52,0,0,0,17.37-1.95,25.17,25.17,0,0,1-17,11.11C681.19,210.5,678.62,207.55,675.63,204.86Z"/><path class="cls-18" d="M530.34,195A57,57,0,0,0,541,191.81c-3.2,6.57-8.5,10.22-15.58,11.49a26.11,26.11,0,0,0,.85-8.16l.59-.06A7.49,7.49,0,0,1,530.34,195Z"/><path class="cls-19" d="M942.34,403.13c-5.17,2-10.4,3.69-16,3.57a73.49,73.49,0,0,1,9.84-7.74c2.6-.2,4,1.68,5.57,3.22Z"/><path class="cls-20" d="M919.43,722.76l-.36-.39c-.88-1.11-.73-2.43-.73-3.71,0-6,0-12,0-18,0-3-.26-3.27-3.25-3.22-8,.13-15.94-.44-23.9.34-.92-.32-.71-.92-.4-1.55q14.44-.36,28.87,0,0,11.88-.09,23.74C919.55,720.89,919.47,721.82,919.43,722.76Z"/><path class="cls-21" d="M941.72,402.18,936.15,399a9,9,0,0,1,3.42-3.16A37.7,37.7,0,0,1,941.72,402.18Z"/><path class="cls-22" d="M825.92,251.7l-.47-.45a7.14,7.14,0,0,1,2-2.14A4.21,4.21,0,0,1,825.92,251.7Z"/><path class="cls-23" d="M498.83,319.6c1.76-1.33,4-2,5.28-4a12.25,12.25,0,0,0,1.38-11.95c-.53-1.29-.19-1.59.8-2a13.79,13.79,0,0,0,4.49-2.93,4.62,4.62,0,0,0,.48-6.06c-1.41-1.6-3.27-1.67-5.5,0-3,2.17-5.87,4.42-8.8,6.64-.85-8.24-1.67-16.48-2.58-24.72-.21-1.9.51-2.28,2.26-2.27,11,.07,21.92.09,32.87,0,2.14,0,2.59.64,2.35,2.64-.61,5.17-1,10.37-1.54,15.56a1.3,1.3,0,0,1-.86.89c-3.37,1-4.49,3.7-5.27,6.71a55.35,55.35,0,0,0-1.26,8.39c-.39,3.94.9,5.52,5,6.57a39,39,0,0,1-.41,4.85c-.36,1.85.16,2.39,2,2.38,10.2-.08,20.41,0,30.62-.1,2.39,0,2.85.7,2.62,2.91-1.26,12.09-2.39,24.19-3.59,36.29-.1,1-.35,2-.53,3l-5.55,1.2c.06-5.21-.15-10.37-1.74-15.43-1.77-5.64-7.61-10.41-15.25-6.11a37.45,37.45,0,0,1-5.3,2.55c-1.8.67-2.73.35-3-1.64-.18-1.25-.57-2.47-.86-3.71a2.08,2.08,0,0,1-.86-1.78c0-2.59-1.52-3-3.7-3q-9.5.07-19,0c-3.43,0-3.76-.39-4.28-3.69-.4-2.54-.43-5.11-.82-7.65A5,5,0,0,1,498.83,319.6Z"/><path class="cls-8" d="M628.46,429.67c-1,5-.68,10.07-1.13,15.1-.4,4.51-.49,9.06-1.08,13.56-.68,5.23.83,10.19,1.7,15.24,1.19,6.84,2.22,13.74.28,20.62-1.61,5.75-5.15,10-10.84,11.82-7,2.3-14.52-3.29-15.92-11.3-.72-4.1.1-8,1-12.21-2.58,1.34-5,2.18-7.58.63-.72-.43-.55.63-.87.91q.18-5.44.38-10.87c1.49-3.55,4.55-5.76,7.68-7.31,4.47-2.21,5.47-5.3,5.45-10,0-12.1-.83-24.16-1.28-36.23-.21-5.89-.65-11.8-1.31-17.67a13.67,13.67,0,0,1,.23-5.62l15.35-8.67c.18-.21.34-.18.48,0-.81,5.91-1.82,11.81-1.5,17.82s.63,12.13,3.73,17.62A21.43,21.43,0,0,0,628.46,429.67Z"/><path class="cls-4" d="M585.12,692.52c0,3.33-1,7.19.32,9.84s5,3.83,7.73,5.63l25,16.54c-.53.63-1.26.44-1.92.44H551.31a10.85,10.85,0,0,1-1.26-.16c0-9.92,0-19.84,0-29.75,0-2,.46-2.65,2.55-2.63C563.4,692.55,574.26,692.51,585.12,692.52Z"/><path class="cls-3" d="M521.55,413.86c4.43-1.67,7.87-4.69,11-8.11,3.87-4.25,8.22-7.7,14.12-8.61.58-.09,1.18-.09,1.77-.14,4,5.59,8.89,10.06,15.49,12.71a13.58,13.58,0,0,1-2.63.52c-8.9.07-17.7,1.24-26.53,2.17C530.35,412.86,526,413.37,521.55,413.86Z"/><path class="cls-3" d="M601.93,398a26.45,26.45,0,0,1-5.59,12.88l-3.68-.55c-2.88-.47-5.78-.07-8.66-.21-3.94-.27-7.88-.82-11.84-.31h-2c7-2.25,13.9-4.46,20.69-7.12C594.56,401.18,598.23,399.52,601.93,398Z"/><path class="cls-24" d="M606.14,345c.36-7.48.76-14.95,1-22.43.09-2.2,1.28-2.48,3-2.27-.16,7.09-.33,14.19-.47,21.28C609.67,343.91,607.59,344.08,606.14,345Z"/><path class="cls-25" d="M544.32,377.39c-4.22-.21-7.58-2.74-11.35-4.32,3.95-.78,7.94,1,11.85-.24C544.66,374.35,544.49,375.87,544.32,377.39Z"/><path class="cls-26" d="M572.16,409.76a29.91,29.91,0,0,1,11.81.07c.16.09.21.18.16.28s-.1.15-.16.15l-2.12,0c-1.19-.42-2.47.13-3.66-.35Z"/><path class="cls-27" d="M621,387.7a2,2,0,0,1-.48,0c1-2,.27-4.13.52-6.19.18-1.54-.49-3.18.53-4.62,0,2.82,0,5.64,0,8.46C621.51,386.12,621.8,387,621,387.7Z"/><path class="cls-28" d="M623.63,326.93q-.06,5.63-.1,11.25A26.35,26.35,0,0,1,623.63,326.93Z"/><path class="cls-29" d="M622.07,364.49c0,3.6-.05,7.19-.07,10.78A24.22,24.22,0,0,1,622.07,364.49Z"/><path class="cls-30" d="M622.56,352.69l-.06,10.21c-1-3.37-.22-6.81-.41-10.21C622.25,352.44,622.4,352.45,622.56,352.69Z"/><path class="cls-31" d="M623.09,339.79c0,3.08,0,6.17-.05,9.25-.14.27-.29.26-.45,0C622.84,346,622,342.82,623.09,339.79Z"/><path class="cls-32" d="M584,410.26v-.43c2.89.23,5.83-.52,8.69.45Z"/><path class="cls-33" d="M624.64,303.25q0,4.1,0,8.21A14.09,14.09,0,0,1,624.64,303.25Z"/><path class="cls-34" d="M625.15,295c0,2.05,0,4.1,0,6.15A8.28,8.28,0,0,1,625.15,295Z"/><path class="cls-35" d="M624.12,320.23l-.06,5.61A7.06,7.06,0,0,1,624.12,320.23Z"/><path class="cls-36" d="M622.59,349.05a2.26,2.26,0,0,0,.45,0,8,8,0,0,1-.48,3.65h-.47C622.26,351.48,622.43,350.26,622.59,349.05Z"/><path class="cls-3" d="M578.19,409.88c1.23.07,2.51-.42,3.66.35C580.62,410.27,579.36,410.54,578.19,409.88Z"/><path class="cls-37" d="M611.24,306.86c.08-1.23-.41-2.53.49-3.65C611.62,304.43,612.22,305.75,611.24,306.86Z"/><path class="cls-38" d="M627.76,269.78c0,1-.07,2-.1,3A2.22,2.22,0,0,1,627.76,269.78Z"/><path class="cls-39" d="M627.2,273.39c0,1,0,2,0,3A2.33,2.33,0,0,1,627.2,273.39Z"/><path class="cls-40" d="M628.29,266.68c0,.84-.06,1.69-.1,2.53A1.68,1.68,0,0,1,628.29,266.68Z"/><path class="cls-41" d="M393.47,149.34c4.69,3.59,6.1,8.82,6.51,14.26a52,52,0,0,1-1.24,17.08,11,11,0,0,1-4.13,6.31,21.36,21.36,0,0,1-7.75,2.16c-.84,0-1.69,0-2.53,0-.41,0-.83,0-1.24,0-1.07,0-2.14,0-3.2,0-1.69-.12-3.4.14-5.14-.31,3,3.6,6.35,6.57,10.85,8.05a3.72,3.72,0,0,1,2.09,1.38c.74,3.61,3,5.74,6.46,6.79,2.17.65,4.47.86,6.51,1.92-1.69,6.25-4.7,11.64-10,15.6-6.69,5-13.94,6.34-21.88,3.51-1.71-10.49-.78-20.95.33-31.41.81-7.65,1.49-15.3,2.21-22.95.11-1.08-.11-2.11,1.5-2.48C383.67,166.74,390.44,160,393.47,149.34Z"/><path class="cls-16" d="M363.08,495.29l-1.62,13.92c-1.23,1-2.46.16-3.68,0q-7.41-1.23-14.81-2.5a6.61,6.61,0,0,1-3.53,0l-2.66-.48a43.31,43.31,0,0,1-8.67,0l-2.14.49a6.57,6.57,0,0,1-3.52,0c-.8.18-1.27,1-2.29.93-1.68-.05-2.5-.31-2.41-2.36.19-4.68.06-9.37.06-14.05a3.64,3.64,0,0,1,2-.48A154,154,0,0,1,362.39,495,4,4,0,0,1,363.08,495.29Z"/><path class="cls-42" d="M693.16,663.56a3.55,3.55,0,0,1,.35,2.24q0,22.37,0,44.75l-.5-1c-1.34-2.23-.67-4.69-.73-7-.14-6,.59-5.56-5.53-5.57-8.31,0-16.62,0-24.93,0a49.12,49.12,0,0,0-6.42.31c-.7-1.35-.31-2.79-.34-4.2.34,2.08,1.47,2.66,3.63,2.63,10.63-.15,21.27-.11,31.91,0,1.91,0,2.51-.51,2.49-2.46C693.07,683.29,693.14,673.42,693.16,663.56Z"/><path class="cls-42" d="M654,444.35h7.67A12.41,12.41,0,0,1,654,444.35Z"/><path class="cls-43" d="M642.68,444.86h7.68A12.37,12.37,0,0,1,642.68,444.86Z"/><path class="cls-44" d="M699.83,442.29H707A11.32,11.32,0,0,1,699.83,442.29Z"/><path class="cls-44" d="M688.5,442.8h7.16A11,11,0,0,1,688.5,442.8Z"/><path class="cls-45" d="M677.18,443.31h7.15A11.08,11.08,0,0,1,677.18,443.31Z"/><path class="cls-43" d="M665.85,443.83H673A11.22,11.22,0,0,1,665.85,443.83Z"/><path class="cls-46" d="M711.67,441.77h6.65A9.46,9.46,0,0,1,711.67,441.77Z"/><path class="cls-8" d="M710.06,351.7a9,9,0,0,0,9.69,2.08c1.39-.47,1.75,0,2.23,1.07,2.42,5.26.76,13-3.61,17a2.75,2.75,0,0,1-2.77.75,7.17,7.17,0,0,0-5,.1c-3.87.26-7,2.57-10.43,3.93-1.34.53-2.63,1.18-3.95,1.77-2.32,1.94-5.2,2.07-8,2.2a22.41,22.41,0,0,1-15.48-5,13.61,13.61,0,0,1-4.82-7.06c-.4-1-.14-2.1-.56-3.08l-.08-1.33a9.67,9.67,0,0,1-.2-3c-.82-7.48,7.88-14.19,15-12.49,1.75.41,3.52.75,5.25,1.25a21.2,21.2,0,0,0,6.07,1c3.51,0,4.26-.59,5.3-3.94a8.83,8.83,0,0,0,.33-3.65c.26-1.43-.66-3.14,1-4.23,3.57,2,5.09,5.53,7,8.8A10.5,10.5,0,0,0,710.06,351.7Z"/><path class="cls-23" d="M699.35,347c-.71,3.86-1.62,4.58-5.54,4.7s-7.39-1.28-11-2.21c-7.37-1.92-14.83,3.95-15.51,11.4-.12.26-.25.26-.38,0-1.06-10.65-2.08-21.3-3.21-31.93-.2-1.87.33-2.29,2.14-2.27q16.57.12,33.14,0c2,0,2.43.5,2.12,2.46-.53,3.29-.7,6.64-1,10-.55,1.36-.2,2.79-.31,4.18C699.19,344.47,699.86,345.8,699.35,347Z"/><path class="cls-23" d="M668.33,368.18c2.67,8,12.79,13,22.14,11.51,1.94-.31,3.84-.85,5.75-1.28-.23,2.72-.47,5.45-.67,8.17-.08,1.13-.49,1.61-1.73,1.6-7.61-.05-15.22,0-22.82,0-1,0-1.53-.1-1.62-1.32-.47-5.88-1-11.74-1.59-17.61C667.7,368.75,667.34,368.12,668.33,368.18Z"/><path class="cls-47" d="M747.73,275.49a14.91,14.91,0,0,1,0,8.14C747.74,280.92,747.73,278.2,747.73,275.49Z"/><path class="cls-48" d="M754.29,343.47a6.94,6.94,0,0,1-5.49,0Z"/><path class="cls-49" d="M668.33,368.18l-.54,1.06a8,8,0,0,1-.39-3.76C668.13,366.23,667.89,367.32,668.33,368.18Z"/><path class="cls-50" d="M729.65,340.34c-1.07.8-2.45.49-3.6,1-.16-.1-.21-.21-.16-.31s.1-.15.15-.15C727.16,340.12,728.42,340.33,729.65,340.34Z"/><path class="cls-51" d="M734.2,340.91a3.67,3.67,0,0,1-4-.12Z"/><path class="cls-52" d="M718.34,342.87a3.07,3.07,0,0,1-2.61,1.57A3.57,3.57,0,0,1,718.34,342.87Z"/><path class="cls-53" d="M666.92,360.9a1.6,1.6,0,0,0,.38,0c0,1.09,0,2.18,0,3.26A5.5,5.5,0,0,1,666.92,360.9Z"/><path class="cls-54" d="M720.93,341.77a2.71,2.71,0,0,1-2.61,1.12A3.7,3.7,0,0,1,720.93,341.77Z"/><path class="cls-55" d="M726,340.87a2.34,2.34,0,0,1,0,.46c-.85-.1-1.79.38-2.5-.45Z"/><path class="cls-56" d="M747.1,343a1.71,1.71,0,0,1-2.47,0Z"/><path class="cls-57" d="M743.5,342.44a1.75,1.75,0,0,1-2.49,0Z"/><path class="cls-58" d="M748.24,284.76a1.71,1.71,0,0,1,0,2.47C748.25,286.41,748.25,285.58,748.24,284.76Z"/><path class="cls-7" d="M833.71,241.37c.11-.3.15-.78.35-.86,4.24-1.69,6.77-5.1,9-8.83,2.61-1.63,5.57-2.56,8.23-4.11A27.72,27.72,0,0,0,863,214.46c-6.28,3.14-12.25,5.68-19,3.94-5.5-.54-10.68-5.55-12.3-11.6-1.83-6.89-1-13.78-.31-20.67a73.54,73.54,0,0,1,1.49-9.89,31,31,0,0,1,8.08-15.2c1.09.66.49,1.7.51,2.56.12,4.71,2.75,10,9.33,9.56.34,0,.69,0,1,0,6.4.21,8.15,2.35,6.82,8.59-.75,3.55-.12,6.23,3.29,8.26,3.62,2.14,4.58,4.7,3.35,8.75-1.61,5.34-1.5,10.27,1.15,15.36,2.21,4.27,1.55,9,.53,13.59a51,51,0,0,0-1.44,9.62c-.16,5.85,1.94,10.33,7.41,12.91-8.1,6.17-17.18,8.44-27,5.75C838.7,254,834.57,248.89,833.71,241.37Z"/><path class="cls-8" d="M900.62,398.5c-.58,1.26-1.38.63-2.1.22A48.74,48.74,0,0,0,881.37,393a12.88,12.88,0,0,0-1.52-.19c-2.77-.11-5.57,1.51-6,3.45-.52,2.44,1.12,5.06,3.95,6.18a20.33,20.33,0,0,0,6.69,1.79c-1.39,1.31-2.67,2.36-3.78,3.57-5.57,6-8.26,12.69-4.24,20.7a.73.73,0,0,1-.06.93c-10-6.38-20.09-12.79-30.18-19.1-1.6-1-.84-1.6,0-2.47Q862.57,390.44,878.9,373c2-2.17,3.82-4.59,6.25-6.37,1.1,1.76.84,3.8,1.15,5.72A39.14,39.14,0,0,0,899.11,396C899.85,396.7,900.87,397.22,900.62,398.5Z"/><path class="cls-19" d="M900.62,398.5c-3.18-3.08-6.46-6-8.84-9.86a41.31,41.31,0,0,1-6.63-22c3.24,1.39,6,3.55,9,5.42,6.66,4.2,13.28,8.47,19.91,12.71-.36,1.53-1.7,2.28-2.7,3.28C907.79,391.55,904.19,395,900.62,398.5Z"/><path class="cls-7" d="M527.9,313c-2.93.75-4.82-.11-5.24-3.09a26.52,26.52,0,0,1,2.76-16.57c1-1.91,3-2.4,4.9-2.9,3.46,1.19,4.63,3.25,3.84,6.84A97.63,97.63,0,0,1,530.58,309,14,14,0,0,1,527.9,313Z"/><path class="cls-59" d="M328.11,506.17h8.67A17.32,17.32,0,0,1,328.11,506.17Z"/><path class="cls-60" d="M339.44,506.66H343A3.15,3.15,0,0,1,339.44,506.66Z"/><path class="cls-61" d="M322.45,506.68l3.52,0A3.14,3.14,0,0,1,322.45,506.68Z"/><path class="cls-62" d="M409.47,517.49l3,0A2.34,2.34,0,0,1,409.47,517.49Z"/><path class="cls-12" d="M498.83,319.6c.39,4,.9,8,1.13,12,.1,1.69.64,2.11,2.26,2.1,7.1-.08,14.19.07,21.28-.1,2.44-.05,3.46.67,3.3,3.1a22.2,22.2,0,0,0,.14,2.56,25.85,25.85,0,0,0-7.29,14.12,3,3,0,0,1-2,2.62,105.9,105.9,0,0,1-36.39,9.12q-3.19.18-6.4.4c-1.05.07-1.44-.36-1.63-1.44-1.51-8.78-.74-17.58-.32-26.38.1-2,.46-4.07.7-6.1l5.82-3.1c.86-.46,2.08-.32,2.56-1.45C487,323.13,493,321.44,498.83,319.6Z"/><path class="cls-6" d="M436.65,292.87c0,2.05.36,4.12-.24,6.14C436.35,297,436,294.89,436.65,292.87Z"/><path class="cls-63" d="M482,327c.06,2.08-1.52,1.29-2.56,1.45A6.34,6.34,0,0,1,482,327Z"/><path class="cls-64" d="M530.34,195l-3.49.05A3.28,3.28,0,0,1,530.34,195Z"/><path class="cls-14" d="M655.44,697.21c.21-1.17,1.08-1.13,2-1.13,11.23,0,22.47,0,33.71,0,1.67,0,2,.68,2,2.14-.07,3.78,0,7.55,0,11.33l-36.58-.13Q656,703.31,655.44,697.21Z"/><path class="cls-16" d="M843.92,218.4c3.47-.28,7,.11,10.42-1,3.27-1,6.23-2.67,9.8-4.21-4,10.12-11.25,15.76-21.09,18.46a26.25,26.25,0,0,0,2.51-10.86C845.55,219.5,845.14,218.75,843.92,218.4Z"/><path class="cls-7" d="M872.9,722.41c4.44-2.55,9.3-4.15,14-6a3.91,3.91,0,0,0,2.8-3.94c.33-4.94.77-9.87,1.17-14.81.65-1,1.62-1,2.69-1,7.7,0,15.4.07,23.1,0,1.91,0,2.5.52,2.48,2.46-.12,7.78-.08,15.56-.09,23.35Z"/><path class="cls-65" d="M383.14,188.46h1.07a3,3,0,0,0,2.54,0l7.86-1.47c-1,1-2,2.11-3.09,3-2.53,2.17-4.12,4.74-3.83,8.21A23.7,23.7,0,0,1,373.55,188c2.15.62,4.09.36,6,.43A5.53,5.53,0,0,0,383.14,188.46Z"/><path class="cls-66" d="M383.14,188.46a3,3,0,0,1-3.57,0Z"/><path class="cls-66" d="M386.75,188.46a1.75,1.75,0,0,1-2.54,0Z"/><path class="cls-67" d="M699.35,347c0-1.26-.35-2.55.43-3.71C699.66,344.53,700.24,345.85,699.35,347Z"/><path class="cls-23" d="M919.15,375c-10.21-.08-20.42,0-30.62-.1-2.4,0-2.86.69-2.63,2.91,1.26,12.09,2.39,24.19,3.59,36.28.1,1,.35,2,.54,3l5.54,1.2c-.06-5.22.16-10.37,1.74-15.43,1.77-5.65,7.62-10.41,15.25-6.12a38,38,0,0,0,5.3,2.56c1.8.67,2.74.34,3-1.64.19-1.25.57-2.47.86-3.71a2.06,2.06,0,0,0,.86-1.78c0-2,.94-2.75,2.4-3-1-4.84,2-9.44.82-14.3C925.58,374.94,919.47,375,919.15,375Z"/></g></svg>