<svg xmlns="http://www.w3.org/2000/svg" viewBox="0 0 882.46 730.44"><defs><style>.cls-1{fill:#933;}.cls-2{fill:#c75169;}</style></defs><g id="body"><path class="cls-1" d="M1082.9,746.79c-.27,1.21,2.46,5.18,5.12,8.82a.25.25,0,0,0,.17.11c2.64.71,10.77,4.14,11.88,4.61a.3.3,0,0,1,.17.18l2.57,8,.27.83a.31.31,0,0,0,.58,0c7.91-28.07-1.75-27.87-7-35.5a.31.31,0,0,0-.53.06l-2.93,7.06a.29.29,0,0,1-.17.17C1091.94,741.52,1083.35,744.78,1082.9,746.79Z" transform="translate(-266.31 -67.55)"/><circle class="cls-2" cx="784.85" cy="658.78" r="3.03"/><path class="cls-2" d="M1093.18,741.06l3.2-7.72a15.31,15.31,0,0,1-1.92-4.52c-3.51-13.7-33.15-25.46-33.15-25.46-4.15-7.93-33.16-24.9-33.16-24.9s-218.2-72.69-312.76,14c-15.92,1.5-32.26,3.54-48.87,6.25,0,0-10,2.07-30-2.07S556.86,709.54,540,709.38s-14.73,14.18-25,14-69.71,26-68.9,28.05,16.56,2.1,17.54,4.13-18.69,7.6-15.44,8.87,30.87-8.5,34.52-8.87.46,5.83,2.41,7,192.93-15.75,205.62-7,36.8,21.66,47.82,20.33,100.07,15.1,105,20.39,41.92-3.88,84.79-.22,157.95-40.32,159.06-40.48a2,2,0,0,1,.65.1c-2.69-3.67-5.46-7.69-5.19-8.91C1083.38,744.64,1093.18,741.06,1093.18,741.06Zm-36.55-12.77c-2.12,3.51-9.78,5.05-12.43,2.34-1.88-1.92-4.09-10,3.29-10C1050.76,720.8,1060.82,721.38,1056.63,728.29Z" transform="translate(-266.31 -67.55)"/></g><g id="wing_2" data-name="wing 2"><path class="cls-2" d="M1081.71,204.78c-75-138.72-102.65-82.56-102.65-82.56l-1.43-.16c-1.43-.16-76.66-54-87-54.51s20.72,50.36,20.72,50.36S860,85.72,850.6,106.28s49.57,56.26,48.77,55.78-71.24-35.22-75.54-18.17,38.89,45.9,38.89,45.9-46.86-24.54-48.93-1.75,65.66,56.1,65.66,56.1c-6.85,7.49,1.6,38.57,1.6,38.57-12.91,28.85,2.39,48.3,2.39,48.3-4.63,14.5,5.57,29.16,5.57,29.16-16.73,11-12.59,40-8.28,42.08s27.41,8.93,27.41,8.93-24.54,14.34-42.24,19-26.81,44.06-31.55,46.54c-19,9.94-39.49,53-43.61,59.94-.37.63-.61,1-.7,1s-84.37,91.75-74.65,154.88c94.56-86.68,312.76-14,312.76-14C988.31,550,1139.72,443.65,1139.72,443.65S1182.59,391.41,1081.71,204.78Z" transform="translate(-266.31 -67.55)"/></g><g id="wing_1" data-name="wing 1"><path class="cls-1" d="M946.36,704.45c-19.6-12.67-70.07-76.67-72.94-98s6.8-19.79-2.23-32.52c-12.64-17.83-58.27-31.52-80.45-37.29-.37.63-21.69-17.87-150.25-53.66-91.12-25.37-67.4-16.85-199.18-69.55-5-2,30.78,24.42,69.59,41.91,55.87,25.2,113.5,44.19,28.75,19.93-25.72-7.37-246.88-71.88-240-65.13,6.36,6.26,156.46,54.3,171.86,59,.45.1.79.2,1,.27.58.2.2.1-1-.27-16.61-3.93-189.8-29.14-187.38-20.64,1.4,4.95,61.17,17.21,108.24,26,25,3.74,46,7.37,53.91,9,10.71,2.29-17.88-2.35-53.91-9-53.29-8-124.73-16.41-126-7.36l163.37,25.66s-5.26,2.07-33.47-1.28-110.45-5.73-108.86,2.39,109.65,4.47,135.47,16.9,112.83,40.93,112.83,40.93c-12.3,15.58,21.37,6.88,36.78,15.47s21.41,12.61,21.41,12.61a37.65,37.65,0,0,0,11.32,24.28c-2.39,10.89,7.65,18.59,7.65,18.59,1.11,7.49,12.43,17.29,12.43,17.29-.16,12,13.39,17.6,13.39,17.6-.48,6,14.5,20.1,14.5,20.1-1.12,5.58,13.39,21,13.39,21C818,674,946.36,704.45,946.36,704.45Z" transform="translate(-266.31 -67.55)"/></g></svg>