<svg xmlns="http://www.w3.org/2000/svg" viewBox="0 0 882.46 420.71"><defs><style>.cls-1{fill:#933;}.cls-2{fill:#c75169;}</style></defs><g id="body"><path class="cls-1" d="M1082.9,746.79c-.27,1.21,2.46,5.18,5.12,8.82a.25.25,0,0,0,.17.11c2.64.71,10.77,4.14,11.88,4.61a.3.3,0,0,1,.17.18l2.57,8,.27.83a.31.31,0,0,0,.58,0c7.91-28.07-1.75-27.87-7-35.5a.31.31,0,0,0-.53.06l-2.93,7.06a.29.29,0,0,1-.17.17C1091.94,741.52,1083.35,744.78,1082.9,746.79Z" transform="translate(-266.31 -377.28)"/><circle class="cls-2" cx="784.85" cy="349.05" r="3.03"/><path class="cls-2" d="M1093.18,741.06l3.2-7.72a15.31,15.31,0,0,1-1.92-4.52c-3.51-13.7-33.15-25.46-33.15-25.46-4.15-7.93-33.16-24.9-33.16-24.9s-218.2-72.69-312.76,14c-15.92,1.5-32.26,3.54-48.87,6.25,0,0-10,2.07-30-2.07S556.86,709.54,540,709.38s-14.73,14.18-25,14-69.71,26-68.9,28.05,16.56,2.1,17.54,4.13-18.69,7.6-15.44,8.87,30.87-8.5,34.52-8.87.46,5.83,2.41,7,192.93-15.75,205.62-7,36.8,21.66,47.82,20.33,100.07,15.1,105,20.39,41.92-3.88,84.79-.22,157.95-40.32,159.06-40.48a2,2,0,0,1,.65.1c-2.69-3.67-5.46-7.69-5.19-8.91C1083.38,744.64,1093.18,741.06,1093.18,741.06Zm-36.55-12.77c-2.12,3.51-9.78,5.05-12.43,2.34-1.88-1.92-4.09-10,3.29-10C1050.76,720.8,1060.82,721.38,1056.63,728.29Z" transform="translate(-266.31 -377.28)"/></g><g id="wing_2" data-name="wing 2"><path class="cls-2" d="M1081.71,446.49c-75-70-102.65-41.64-102.65-41.64l-1.43-.08c-1.43-.08-76.66-27.25-87-27.49s20.72,25.4,20.72,25.4S860,386.44,850.6,396.81s49.57,28.38,48.77,28.14-71.24-17.77-75.54-9.17,38.89,23.15,38.89,23.15-46.86-12.38-48.93-.88,65.66,28.29,65.66,28.29c-6.85,3.78,1.6,19.46,1.6,19.46-12.91,14.55,2.39,24.35,2.39,24.35-4.63,7.32,5.57,14.71,5.57,14.71-16.73,5.55-12.59,20.18-8.28,21.23s27.41,4.5,27.41,4.5-24.54,7.23-42.24,9.56-26.81,22.22-31.55,23.48c-19,5-39.49,26.74-43.61,30.23-.37.31-.61.48-.7.47s-84.37,46.28-74.65,78.12c94.56-43.72,312.76-7.06,312.76-7.06C988.31,620.6,1139.72,567,1139.72,567S1182.59,540.62,1081.71,446.49Z" transform="translate(-266.31 -377.28)"/></g><g id="wing_1" data-name="wing 1"><path class="cls-1" d="M946.36,704.45c-19.6-4.72-70.07-28.51-72.94-36.46s6.8-7.35-2.23-12.09c-12.64-6.63-58.27-11.72-80.45-13.86-.37.23-21.69-6.65-150.25-20-91.12-9.43-67.4-6.27-199.18-25.86-5-.74,30.78,9.08,69.59,15.58,55.87,9.37,113.5,16.44,28.75,7.41-25.72-2.74-246.88-26.73-240-24.22,6.36,2.33,156.46,20.2,171.86,22l1,.11-1-.11c-16.61-1.46-189.8-10.83-187.38-7.67,1.4,1.84,61.17,6.4,108.24,9.66,25,1.39,46,2.74,53.91,3.36,10.71.85-17.88-.87-53.91-3.36-53.29-3-124.73-6.11-126-2.74l163.37,9.54s-5.26.77-33.47-.47-110.45-2.14-108.86.89,109.65,1.66,135.47,6.28,112.83,15.22,112.83,15.22c-12.3,5.8,21.37,2.56,36.78,5.75s21.41,4.69,21.41,4.69c1.12,5.75,11.32,9,11.32,9-2.39,4,7.65,6.92,7.65,6.92,1.11,2.78,12.43,6.43,12.43,6.43-.16,4.47,13.39,6.54,13.39,6.54-.48,2.25,14.5,7.48,14.5,7.48-1.12,2.07,13.39,7.82,13.39,7.82C818,693.12,946.36,704.45,946.36,704.45Z" transform="translate(-266.31 -377.28)"/></g></svg>