<svg xmlns="http://www.w3.org/2000/svg" viewBox="0 0 882.46 592.28"><defs><style>.cls-1{fill:#933;}.cls-2{fill:#c75169;}</style></defs><g id="body"><path class="cls-1" d="M1082.9,746.79c-.27,1.21,2.46,5.18,5.12,8.82a.25.25,0,0,0,.17.11c2.64.71,10.77,4.14,11.88,4.61a.3.3,0,0,1,.17.18l2.57,8,.27.83a.31.31,0,0,0,.58,0c7.91-28.07-1.75-27.87-7-35.5a.31.31,0,0,0-.53.06l-2.93,7.06a.29.29,0,0,1-.17.17C1091.94,741.52,1083.35,744.78,1082.9,746.79Z" transform="translate(-266.31 -205.7)"/><circle class="cls-2" cx="784.85" cy="520.62" r="3.03"/><path class="cls-2" d="M1093.18,741.06l3.2-7.72a15.31,15.31,0,0,1-1.92-4.52c-3.51-13.7-33.15-25.46-33.15-25.46-4.15-7.93-33.16-24.9-33.16-24.9s-218.2-72.69-312.76,14c-15.92,1.5-32.26,3.54-48.87,6.25,0,0-10,2.07-30-2.07S556.86,709.54,540,709.38s-14.73,14.18-25,14-69.71,26-68.9,28.05,16.56,2.1,17.54,4.13-18.69,7.6-15.44,8.87,30.87-8.5,34.52-8.87.46,5.83,2.41,7,192.93-15.75,205.62-7,36.8,21.66,47.82,20.33,100.07,15.1,105,20.39,41.92-3.88,84.79-.22,157.95-40.32,159.06-40.48a2,2,0,0,1,.65.1c-2.69-3.67-5.46-7.69-5.19-8.91C1083.38,744.64,1093.18,741.06,1093.18,741.06Zm-36.55-12.77c-2.12,3.51-9.78,5.05-12.43,2.34-1.88-1.92-4.09-10,3.29-10C1050.76,720.8,1060.82,721.38,1056.63,728.29Z" transform="translate(-266.31 -205.7)"/></g><g id="wing_2" data-name="wing 2"><path class="cls-2" d="M1081.71,312.59c-75-108-102.65-64.3-102.65-64.3l-1.43-.13c-1.43-.12-76.66-42.08-87-42.46s20.72,39.23,20.72,39.23S860,219.86,850.6,235.87s49.57,43.83,48.77,43.45-71.24-27.43-75.54-14.15,38.89,35.75,38.89,35.75-46.86-19.11-48.93-1.36,65.66,43.7,65.66,43.7c-6.85,5.83,1.6,30,1.6,30-12.91,22.47,2.39,37.62,2.39,37.62-4.63,11.29,5.57,22.71,5.57,22.71-16.73,8.57-12.59,31.16-8.28,32.78s27.41,6.95,27.41,6.95-24.54,11.17-42.24,14.77-26.81,34.32-31.55,36.25c-19,7.75-39.49,41.31-43.61,46.69-.37.49-.61.75-.7.74s-84.37,71.47-74.65,120.64c94.56-67.51,312.76-10.9,312.76-10.9-39.84-100.06,111.57-182.9,111.57-182.9S1182.59,458,1081.71,312.59Z" transform="translate(-266.31 -205.7)"/></g><g id="wing_1" data-name="wing 1"><path class="cls-1" d="M946.36,704.45c-19.6-9.93-70.07-60.05-72.94-76.78s6.8-15.5-2.23-25.47c-12.64-14-58.27-24.69-80.45-29.21-.37.49-21.69-14-150.25-42-91.12-19.87-67.4-13.2-199.18-54.48-5-1.56,30.78,19.13,69.59,32.83,55.87,19.74,113.5,34.61,28.75,15.61-25.72-5.77-246.88-56.31-240-51,6.36,4.9,156.46,42.54,171.86,46.24.45.08.79.15,1,.21.58.16.2.08-1-.21-16.61-3.08-189.8-22.83-187.38-16.17,1.4,3.88,61.17,13.49,108.24,20.34,25,2.93,46,5.78,53.91,7.1,10.71,1.78-17.88-1.85-53.91-7.1-53.29-6.24-124.73-12.85-126-5.76l163.37,20.1s-5.26,1.62-33.47-1-110.45-4.49-108.86,1.87S397,543,422.82,552.76s112.83,32,112.83,32c-12.3,12.21,21.37,5.4,36.78,12.12s21.41,9.88,21.41,9.88c1.12,12.11,11.32,19,11.32,19-2.39,8.53,7.65,14.56,7.65,14.56,1.11,5.87,12.43,13.55,12.43,13.55-.16,9.42,13.39,13.78,13.39,13.78-.48,4.73,14.5,15.75,14.5,15.75C652,687.84,666.52,700,666.52,700,818,680.59,946.36,704.45,946.36,704.45Z" transform="translate(-266.31 -205.7)"/></g></svg>