<svg xmlns="http://www.w3.org/2000/svg" viewBox="0 0 882.46 521.82"><defs><style>.cls-1{fill:#933;}.cls-2{fill:#c75169;}</style></defs><g id="body"><path class="cls-1" d="M1082.9,746.79c-.27,1.21,2.46,5.18,5.12,8.82a.25.25,0,0,0,.17.11c2.64.71,10.77,4.14,11.88,4.61a.3.3,0,0,1,.17.18l2.57,8,.27.83a.31.31,0,0,0,.58,0c7.91-28.07-1.75-27.87-7-35.5a.31.31,0,0,0-.53.06l-2.93,7.06a.29.29,0,0,1-.17.17C1091.94,741.52,1083.35,744.78,1082.9,746.79Z" transform="translate(-266.31 -276.17)"/><circle class="cls-2" cx="784.85" cy="450.16" r="3.03"/><path class="cls-2" d="M1093.18,741.06l3.2-7.72a15.31,15.31,0,0,1-1.92-4.52c-3.51-13.7-33.15-25.46-33.15-25.46-4.15-7.93-33.16-24.9-33.16-24.9s-218.2-72.69-312.76,14c-15.92,1.5-32.26,3.54-48.87,6.25,0,0-10,2.07-30-2.07S556.86,709.54,540,709.38s-14.73,14.18-25,14-69.71,26-68.9,28.05,16.56,2.1,17.54,4.13-18.69,7.6-15.44,8.87,30.87-8.5,34.52-8.87.46,5.83,2.41,7,192.93-15.75,205.62-7,36.8,21.66,47.82,20.33,100.07,15.1,105,20.39,41.92-3.88,84.79-.22,157.95-40.32,159.06-40.48a2,2,0,0,1,.65.1c-2.69-3.67-5.46-7.69-5.19-8.91C1083.38,744.64,1093.18,741.06,1093.18,741.06Zm-36.55-12.77c-2.12,3.51-9.78,5.05-12.43,2.34-1.88-1.92-4.09-10,3.29-10C1050.76,720.8,1060.82,721.38,1056.63,728.29Z" transform="translate(-266.31 -276.17)"/></g><g id="wing_2" data-name="wing 2"><path class="cls-2" d="M1081.71,367.59c-75-92.41-102.65-55-102.65-55l-1.43-.11c-1.43-.1-76.66-36-87-36.31s20.72,33.55,20.72,33.55S860,288.28,850.6,302s49.57,37.48,48.77,37.16-71.24-23.46-75.54-12.1,38.89,30.58,38.89,30.58-46.86-16.35-48.93-1.17,65.66,37.37,65.66,37.37c-6.85,5,1.6,25.69,1.6,25.69-12.91,19.22,2.39,32.17,2.39,32.17-4.63,9.67,5.57,19.43,5.57,19.43-16.73,7.33-12.59,26.65-8.28,28s27.41,5.95,27.41,5.95-24.54,9.55-42.24,12.63-26.81,29.35-31.55,31c-19,6.62-39.49,35.32-43.61,39.93-.37.41-.61.64-.7.62s-84.37,61.13-74.65,103.18c94.56-57.74,312.76-9.32,312.76-9.32-39.84-85.58,111.57-156.42,111.57-156.42S1182.59,491.91,1081.71,367.59Z" transform="translate(-266.31 -276.17)"/></g><g id="wing_1" data-name="wing 1"><path class="cls-1" d="M946.36,704.45c-19.6-7.69-70.07-46.54-72.94-59.5s6.8-12-2.23-19.73c-12.64-10.83-58.27-19.14-80.45-22.64-.37.38-21.69-10.85-150.25-32.57-91.12-15.39-67.4-10.23-199.18-42.21-5-1.21,30.78,14.82,69.59,25.44,55.87,15.29,113.5,26.82,28.75,12.09-25.72-4.47-246.88-43.63-240-39.53,6.36,3.8,156.46,33,171.86,35.83.45.06.79.12,1,.17.58.12.2.05-1-.17-16.61-2.38-189.8-17.69-187.38-12.53,1.4,3,61.17,10.45,108.24,15.76,25,2.27,46,4.48,53.91,5.5,10.71,1.39-17.88-1.43-53.91-5.5-53.29-4.83-124.73-10-126-4.46L429.68,576s-5.26,1.26-33.47-.77-110.45-3.48-108.86,1.45S397,579.36,422.82,586.9s112.83,24.85,112.83,24.85c-12.3,9.46,21.37,4.18,36.78,9.39s21.41,7.65,21.41,7.65c1.12,9.39,11.32,14.74,11.32,14.74-2.39,6.61,7.65,11.28,7.65,11.28,1.11,4.55,12.43,10.5,12.43,10.5-.16,7.3,13.39,10.68,13.39,10.68-.48,3.66,14.5,12.2,14.5,12.2C652,691.57,666.52,701,666.52,701,818,686,946.36,704.45,946.36,704.45Z" transform="translate(-266.31 -276.17)"/></g></svg>