<?xml version="1.0" encoding="utf-8"?>
<!-- Generator: Adobe Illustrator 25.2.1, SVG Export Plug-In . SVG Version: 6.00 Build 0)  -->
<svg version="1.1" id="Layer_1" xmlns="http://www.w3.org/2000/svg" xmlns:xlink="http://www.w3.org/1999/xlink" x="0px" y="0px"
	 viewBox="0 0 168.94 168.94" style="enable-background:new 0 0 168.94 168.94;" xml:space="preserve">
<style type="text/css">
	.st0{clip-path:url(#SVGID_2_);}
	.st1{fill:#FFFFFF;}
	.st2{clip-path:url(#SVGID_4_);}
	.st3{fill:#333333;}
	.st4{clip-path:url(#SVGID_6_);}
	.st5{clip-path:url(#SVGID_8_);}
	.st6{clip-path:url(#SVGID_10_);}
	.st7{fill:#CC6666;}
	.st8{fill:#993333;}
	.st9{clip-path:url(#SVGID_12_);}
	.st10{clip-path:url(#SVGID_14_);}
	.st11{clip-path:url(#SVGID_16_);}
	.st12{clip-path:url(#SVGID_18_);}
	.st13{clip-path:url(#SVGID_20_);}
	.st14{fill:#FF3300;}
	.st15{fill:#C75169;}
</style>
<g>
	<defs>
		<circle id="SVGID_7_" cx="84.47" cy="84.47" r="84.47"/>
	</defs>
	<use xlink:href="#SVGID_7_"  style="overflow:visible;"/>
	<clipPath id="SVGID_2_">
		<use xlink:href="#SVGID_7_"  style="overflow:visible;"/>
	</clipPath>
	<g class="st0">
		<path d="M-15.2,201.29c0,0,25.74-43.84,32.03-47.11c6.29-3.27,16.61-17.87,17.87-19.12c1.26-1.26,3.02-21.39,3.02-21.39l1.89-5.98
			c0,0,0.44-9.5,0.88-10.76c0.44-1.26,0-2.33,0-2.33l-0.75,2.2c0,0,0.69-6.98,0.69-7.17c0-0.19-1.32,0-1.32,0l0.82-3.15l-1.95-1.07
			c0,0,1.07-4.22,1.76-4.28c0.69-0.06-1.2,0-1.2,0l1.01-2.71l-0.44-4.34l0.06-2.58l-0.57-1.07l0.13-12.46l3.71-9.44h-0.94
			c0,0,0.88-3.9,2.52-4.28s0-1.89,0-1.89l1.38-1.26c0,0,0.13-5.16,1.26-4.47c1.13,0.69,1.2-0.75,1.2-0.75l8.49-11.14l0.75,0.75
			l2.45-2.52l0.57,0.69l2.52-2.26l1.07,0.5l4.34-3.4l0.82,0.63l4.66-1.32l1.01,0.63l2.83-1.7l0.63,0.88l4.72-1.13l0.75-0.5
			l1.45,0.38l2.39-0.13l1.13,0.75l1.13-0.63l0.94,0.82l2.77,0.19l2.45-0.57l0.88,1.26h1.2l1.51,1.45l1.82,0.19l1.45,1.07l2.96,2.14
			l4.53,3.15l1.89,2.08l0.57-0.63l1.07,1.51l0.88,1.64l3.15,2.45l0.25,1.51l3.9,5.22l-0.63,1.32c0,0,3.08,1.32,4.28,5.98
			c1.2,4.66,1.51,4.34,1.51,4.34l-1.07-0.06l2.33,5.85l-0.88-1.2l0.88,4.72l-1.45-2.39c0,0,3.21,6.86,2.77,7.8
			c-0.44,0.94-1.95-3.21-1.95-3.21l0.5,5.03l-0.94-0.82l1.13,3.02l-1.38-1.82l2.68,6.42l1.41,2.17H129l13.65,33.44
			c0,0,6.67,16.04,10.95,22.46c4.28,6.42,22.7,68.37,22.7,68.37H-15.2z"/>
		<path class="st1" d="M36.08,137.82c-0.82,1.64,1.51-0.44,1.76-0.57c0,0-0.94,2.33-0.5,3.02c0,0,0.22,0.6,0.79-0.98
			c0,0-1.04,3.05-0.53,4.12c0,0,0.09,0.41,0.53-0.75c0,0-0.38,1.64,0,2.14c0,0-0.53,3.43-0.16,4.31c0,0,5.13-7.77,6.95-8.41
			c1.51-0.53,1.68-0.6,1.7-0.61l0,0c0,0,0,0,0,0l0.31,3.43c0,0,0.5,0.53,1.26-0.82c0.75-1.35,1.51-1.07,1.51-1.07
			s2.14,9.03,6.95,10.63c0,0,4.97-9.72,6.13-9.72c0,0-2.77,5.76,3.46,11.36c0,0,2.39-4.28,3.49-3.9c0,0,1.48,4.84,2.71,5.69
			c0,0,7.74-15.22,9.59-15.04c0,0,9.5,13.81,11.17,14.5c0,0-6.51-26.2-4.37-27.78c2.14-1.57,2.67,2.26,2.67,2.26
			s1.52,1.02,3.16-4.09c0.13-0.41,0.65-0.56,0.97-0.26c1.17,1.08,3.44,3.15,3.9,3.32l0.94-0.91c0,0,1.32,2.14,2.52,3.77l0.5-0.63
			c0,0,1.23,7.11,1.95,7.64c0,0,1.76-3.05,2.33-3.81c0,0,2.39,3.87,2.77,4.06c0.38,0.19,2.89-13.02,3.74-12.8
			c0.85,0.22,13.68,16.2,13.87,16.29c0.19,0.09,3.96-21.3,3.96-21.3s0.09,5.1,0.5,5.47c0.41,0.38,3.52,5.32,3.55,6.07
			c0.03,0.75,1.32-5.6,1.32-5.6l4.47,11.73l0.85-2.42l2.42,4.44l0.69-1.82l5.16,4.15l-0.91-9.37l1.95,2.33l-1.3-7.78
			c-3.9-7.39-8.17-17.67-8.17-17.67L129,77.01h1.95l-1.41-2.17l-2.68-6.42l1.38,1.82l-1.13-3.02l0.94,0.82l-0.5-5.03
			c0,0,0.32,1.12,0.77,0.18c0.44-0.94-1.58-4.77-1.58-4.77l1.45,2.39l-0.88-4.72l0.88,1.2l-2.33-5.85l1.03,0.06
			c-0.11-0.06-0.5-0.57-1.47-4.34c-1.2-4.66-4.28-5.98-4.28-5.98l0.63-1.32l-3.9-5.22l-0.25-1.51l-3.15-2.45l-0.88-1.64l-1.07-1.51
			l-0.57,0.63l-1.89-2.08l-4.53-3.15l-2.96-2.14l-1.45-1.07l-1.82-0.19l-1.51-1.45h-1.2l-0.88-1.26l-2.45,0.57l-2.77-0.19
			l-0.94-0.82l-1.13,0.63l-1.13-0.75l-2.39,0.13l-1.45-0.38l-0.75,0.5l-4.72,1.13l-0.63-0.88l-2.83,1.7l-1.01-0.63l-4.66,1.32
			l-0.82-0.63l-4.34,3.4l-1.07-0.5l-2.52,2.26l-0.57-0.69l-2.45,2.52l-0.75-0.75L47.84,35.9c0,0-0.06,1.45-1.2,0.75
			c-1.13-0.69-1.26,4.47-1.26,4.47L44,42.38c0,0,1.64,1.51,0,1.89s-2.52,4.28-2.52,4.28h0.94l-3.71,9.44l-0.13,12.46l0.57,1.07
			l-0.06,2.58l0.44,4.34l-1.01,2.71c0,0,1.89-0.06,1.2,0c-0.69,0.06-1.76,4.28-1.76,4.28l1.95,1.07l-0.82,3.15c0,0,1.32-0.19,1.32,0
			c0,0.19-0.69,7.17-0.69,7.17l0.75-2.2c0,0,0.44,1.07,0,2.33c-0.44,1.26-0.88,10.76-0.88,10.76l-1.89,5.98
			c0,0-1.31,14.94-2.47,19.88l1.66-1.26C36.89,132.28,36.89,136.18,36.08,137.82z"/>
		<path d="M101.44,45.97c0,0,4.22-1.51,4.53-2.71c0.31-1.2,4.23,4.41,0.82,10.69c-2.39,4.4-7.64,0.21-7.68-3.21
			C99.09,48.49,99.69,46.69,101.44,45.97z"/>
		<path d="M65.14,45.97c0,0-4.22-1.51-4.53-2.71c-0.31-1.2-4.23,4.41-0.82,10.69c2.39,4.4,7.64,0.21,7.68-3.21
			C67.49,48.49,66.89,46.69,65.14,45.97z"/>
		<path d="M84.58,43.14c0,0,8.33,1.71,11.6,12c0.61,1.6-0.96,4.99,11.39,5.03c1.16-0.03,4.1,2.93-1.84,4.87
			c-2.25,0.71-6.44-2.75-10.88,6.74c-1.47,2.3-4.26,2.04-5.26,5.47c-1.06,3.67-0.88,9.89-2.05,10.83c0.01,0.69-1.82,0.72-1.83,0.03
			c-1.26-0.82-1.71-7.03-3.15-10.57c-1.34-3.31-4.09-2.77-5.79-4.91c-5.38-8.99-9.21-5.12-11.51-5.6c-6.1-1.32-3.48-4.57-2.33-4.66
			c12.29-1.3,10.38-4.51,10.82-6.17c2.2-10.57,10.32-13.12,10.32-13.12L84.58,43.14z"/>
		<ellipse class="st1" cx="62.68" cy="49.48" rx="1.65" ry="2.37"/>
		
			<ellipse transform="matrix(0.4342 -0.9008 0.9008 0.4342 -3.6995 103.4348)" class="st1" cx="80.49" cy="54.66" rx="1.8" ry="0.9"/>
		
			<ellipse transform="matrix(0.8548 -0.5189 0.5189 0.8548 -15.1694 54.2465)" class="st1" cx="89.36" cy="54.23" rx="0.9" ry="1.8"/>
		<ellipse class="st1" cx="102.88" cy="49.48" rx="1.65" ry="2.37"/>
	</g>
</g>
<g>
	<defs>
		<circle id="SVGID_13_" cx="84.47" cy="84.47" r="84.47"/>
	</defs>
	<use xlink:href="#SVGID_13_"  style="overflow:visible;fill:#CC6666;"/>
	<clipPath id="SVGID_4_">
		<use xlink:href="#SVGID_13_"  style="overflow:visible;"/>
	</clipPath>
	<g class="st2">
		<path class="st7" d="M-15.2,201.29c0,0,25.74-43.84,32.03-47.11c6.29-3.27,16.61-17.87,17.87-19.12
			c1.26-1.26,3.02-21.39,3.02-21.39l1.89-5.98c0,0,0.44-9.5,0.88-10.76c0.44-1.26,0-2.33,0-2.33l-0.75,2.2c0,0,0.69-6.98,0.69-7.17
			c0-0.19-1.32,0-1.32,0l0.82-3.15l-1.95-1.07c0,0,1.07-4.22,1.76-4.28c0.69-0.06-1.2,0-1.2,0l1.01-2.71l-0.44-4.34l0.06-2.58
			l-0.57-1.07l0.13-12.46l3.71-9.44h-0.94c0,0,0.88-3.9,2.52-4.28s0-1.89,0-1.89l1.38-1.26c0,0,0.13-5.16,1.26-4.47
			c1.13,0.69,1.2-0.75,1.2-0.75l8.49-11.14l0.75,0.75l2.45-2.52l0.57,0.69l2.52-2.26l1.07,0.5l4.34-3.4l0.82,0.63l4.66-1.32
			l1.01,0.63l2.83-1.7l0.63,0.88l4.72-1.13l0.75-0.5l1.45,0.38l2.39-0.13l1.13,0.75l1.13-0.63l0.94,0.82l2.77,0.19l2.45-0.57
			l0.88,1.26h1.2l1.51,1.45l1.82,0.19l1.45,1.07l2.96,2.14l4.53,3.15l1.89,2.08l0.57-0.63l1.07,1.51l0.88,1.64l3.15,2.45l0.25,1.51
			l3.9,5.22l-0.63,1.32c0,0,3.08,1.32,4.28,5.98c1.2,4.66,1.51,4.34,1.51,4.34l-1.07-0.06l2.33,5.85l-0.88-1.2l0.88,4.72l-1.45-2.39
			c0,0,3.21,6.86,2.77,7.8c-0.44,0.94-1.95-3.21-1.95-3.21l0.5,5.03l-0.94-0.82l1.13,3.02l-1.38-1.82l2.68,6.42l1.41,2.17H129
			l13.65,33.44c0,0,6.67,16.04,10.95,22.46c4.28,6.42,22.7,68.37,22.7,68.37H-15.2z"/>
		<path class="st1" d="M36.08,137.82c-0.82,1.64,1.51-0.44,1.76-0.57c0,0-0.94,2.33-0.5,3.02c0,0,0.22,0.6,0.79-0.98
			c0,0-1.04,3.05-0.53,4.12c0,0,0.09,0.41,0.53-0.75c0,0-0.38,1.64,0,2.14c0,0-0.53,3.43-0.16,4.31c0,0,5.13-7.77,6.95-8.41
			c1.51-0.53,1.68-0.6,1.7-0.61l0,0c0,0,0,0,0,0l0.31,3.43c0,0,0.5,0.53,1.26-0.82c0.75-1.35,1.51-1.07,1.51-1.07
			s2.14,9.03,6.95,10.63c0,0,4.97-9.72,6.13-9.72c0,0-2.77,5.76,3.46,11.36c0,0,2.39-4.28,3.49-3.9c0,0,1.48,4.84,2.71,5.69
			c0,0,7.74-15.22,9.59-15.04c0,0,9.5,13.81,11.17,14.5c0,0-6.51-26.2-4.37-27.78c2.14-1.57,2.67,2.26,2.67,2.26
			s1.52,1.02,3.16-4.09c0.13-0.41,0.65-0.56,0.97-0.26c1.17,1.08,3.44,3.15,3.9,3.32l0.94-0.91c0,0,1.32,2.14,2.52,3.77l0.5-0.63
			c0,0,1.23,7.11,1.95,7.64c0,0,1.76-3.05,2.33-3.81c0,0,2.39,3.87,2.77,4.06c0.38,0.19,2.89-13.02,3.74-12.8
			c0.85,0.22,13.68,16.2,13.87,16.29c0.19,0.09,3.96-21.3,3.96-21.3s0.09,5.1,0.5,5.47c0.41,0.38,3.52,5.32,3.55,6.07
			c0.03,0.75,1.32-5.6,1.32-5.6l4.47,11.73l0.85-2.42l2.42,4.44l0.69-1.82l5.16,4.15l-0.91-9.37l1.95,2.33l-1.3-7.78
			c-3.9-7.39-8.17-17.67-8.17-17.67L129,77.01h1.95l-1.41-2.17l-2.68-6.42l1.38,1.82l-1.13-3.02l0.94,0.82l-0.5-5.03
			c0,0,0.32,1.12,0.77,0.18c0.44-0.94-1.58-4.77-1.58-4.77l1.45,2.39l-0.88-4.72l0.88,1.2l-2.33-5.85l1.03,0.06
			c-0.11-0.06-0.5-0.57-1.47-4.34c-1.2-4.66-4.28-5.98-4.28-5.98l0.63-1.32l-3.9-5.22l-0.25-1.51l-3.15-2.45l-0.88-1.64l-1.07-1.51
			l-0.57,0.63l-1.89-2.08l-4.53-3.15l-2.96-2.14l-1.45-1.07l-1.82-0.19l-1.51-1.45h-1.2l-0.88-1.26l-2.45,0.57l-2.77-0.19
			l-0.94-0.82l-1.13,0.63l-1.13-0.75l-2.39,0.13l-1.45-0.38l-0.75,0.5l-4.72,1.13l-0.63-0.88l-2.83,1.7l-1.01-0.63l-4.66,1.32
			l-0.82-0.63l-4.34,3.4l-1.07-0.5l-2.52,2.26l-0.57-0.69l-2.45,2.52l-0.75-0.75L47.84,35.9c0,0-0.06,1.45-1.2,0.75
			c-1.13-0.69-1.26,4.47-1.26,4.47L44,42.38c0,0,1.64,1.51,0,1.89s-2.52,4.28-2.52,4.28h0.94l-3.71,9.44l-0.13,12.46l0.57,1.07
			l-0.06,2.58l0.44,4.34l-1.01,2.71c0,0,1.89-0.06,1.2,0c-0.69,0.06-1.76,4.28-1.76,4.28l1.95,1.07l-0.82,3.15c0,0,1.32-0.19,1.32,0
			c0,0.19-0.69,7.17-0.69,7.17l0.75-2.2c0,0,0.44,1.07,0,2.33c-0.44,1.26-0.88,10.76-0.88,10.76l-1.89,5.98
			c0,0-1.31,14.94-2.47,19.88l1.66-1.26C36.89,132.28,36.89,136.18,36.08,137.82z"/>
		<path class="st8" d="M101.44,45.97c0,0,4.22-1.51,4.53-2.71c0.31-1.2,4.23,4.41,0.82,10.69c-2.39,4.4-7.64,0.21-7.68-3.21
			C99.09,48.49,99.69,46.69,101.44,45.97z"/>
		<path class="st8" d="M65.14,45.97c0,0-4.22-1.51-4.53-2.71c-0.31-1.2-4.23,4.41-0.82,10.69c2.39,4.4,7.64,0.21,7.68-3.21
			C67.49,48.49,66.89,46.69,65.14,45.97z"/>
		<path class="st7" d="M84.58,43.14c0,0,8.33,1.71,11.6,12c0.61,1.6-0.96,4.99,11.39,5.03c1.16-0.03,4.1,2.93-1.84,4.87
			c-2.25,0.71-6.44-2.75-10.88,6.74c-1.47,2.3-4.26,2.04-5.26,5.47c-1.06,3.67-0.88,9.89-2.05,10.83c0.01,0.69-1.82,0.72-1.83,0.03
			c-1.26-0.82-1.71-7.03-3.15-10.57c-1.34-3.31-4.09-2.77-5.79-4.91c-5.38-8.99-9.21-5.12-11.51-5.6c-6.1-1.32-3.48-4.57-2.33-4.66
			c12.29-1.3,10.38-4.51,10.82-6.17c2.2-10.57,10.32-13.12,10.32-13.12L84.58,43.14z"/>
		<ellipse class="st1" cx="62.68" cy="49.48" rx="1.65" ry="2.37"/>
		
			<ellipse transform="matrix(0.4342 -0.9008 0.9008 0.4342 -3.6995 103.4348)" class="st1" cx="80.49" cy="54.66" rx="1.8" ry="0.9"/>
		
			<ellipse transform="matrix(0.8548 -0.5189 0.5189 0.8548 -15.1694 54.2465)" class="st1" cx="89.36" cy="54.23" rx="0.9" ry="1.8"/>
		<ellipse class="st1" cx="102.88" cy="49.48" rx="1.65" ry="2.37"/>
	</g>
</g>
</svg>
