<svg id="body" xmlns="http://www.w3.org/2000/svg" viewBox="0 0 660.57 148.05"><defs><style>.cls-1{fill:#933;}.cls-2{fill:#c75169;}</style></defs><path class="cls-1" d="M1082.9,746.79c-.27,1.21,2.46,5.18,5.12,8.82a.25.25,0,0,0,.17.11c2.64.71,10.77,4.14,11.88,4.61a.3.3,0,0,1,.17.18l2.57,8,.27.83a.31.31,0,0,0,.58,0c7.91-28.07-1.75-27.87-7-35.5a.31.31,0,0,0-.53.06l-2.93,7.06a.29.29,0,0,1-.17.17C1091.94,741.52,1083.35,744.78,1082.9,746.79Z" transform="translate(-446.08 -649.93)"/><circle class="cls-2" cx="605.07" cy="76.4" r="3.03"/><path class="cls-2" d="M1093.18,741.06l3.2-7.72a15.31,15.31,0,0,1-1.92-4.52c-3.51-13.7-33.15-25.46-33.15-25.46-4.15-7.93-33.16-24.9-33.16-24.9s-218.2-72.69-312.76,14c-15.92,1.5-32.26,3.54-48.87,6.25,0,0-10,2.07-30-2.07S556.86,709.54,540,709.38s-14.73,14.18-25,14-69.71,26-68.9,28.05,16.56,2.1,17.54,4.13-18.69,7.6-15.44,8.87,30.87-8.5,34.52-8.87.46,5.83,2.41,7,192.93-15.75,205.62-7,36.8,21.66,47.82,20.33,100.07,15.1,105,20.39,41.92-3.88,84.79-.22,157.95-40.32,159.06-40.48a2,2,0,0,1,.65.1c-2.69-3.67-5.46-7.69-5.19-8.91C1083.38,744.64,1093.18,741.06,1093.18,741.06Zm-36.55-12.77c-2.12,3.51-9.78,5.05-12.43,2.34-1.88-1.92-4.09-10,3.29-10C1050.76,720.8,1060.82,721.38,1056.63,728.29Z" transform="translate(-446.08 -649.93)"/></svg>