<svg id="Layer_1" data-name="Layer 1" xmlns="http://www.w3.org/2000/svg" viewBox="0 0 174.05 55.69"><defs><style>.cls-1{fill:#999;}</style></defs><rect class="cls-1" x="0.05" y="23.35" width="174" height="9" rx="4.5"/><path class="cls-1" d="M24.28,49.49l22.8-20a4.5,4.5,0,0,0,.42-6.35h0a4.5,4.5,0,0,0-6.35-.42L14.47,46.11l-.11.13a2.8,2.8,0,0,0-.31.28l-.13.18-.18.26q-.16.24-.3.48c0,.1-.09.2-.13.3a5.1,5.1,0,0,0-.19.5c0,.12,0,.24-.08.36a3.81,3.81,0,0,0-.07.47,4.42,4.42,0,0,0,0,.84,4,4,0,0,0,.07.48c0,.12.05.24.08.35a4.29,4.29,0,0,0,.19.5,2.88,2.88,0,0,0,.13.31q.13.24.3.48l.18.26c.05.05.08.12.13.17h0a2.81,2.81,0,0,0,.31.29,1.31,1.31,0,0,0,.11.12L41.15,76.22a4.5,4.5,0,0,0,6.35-.42h0a4.5,4.5,0,0,0-.42-6.35Z" transform="translate(-12.95 -21.65)"/><path class="cls-1" d="M175.68,49.5l-22.8-19.95a4.51,4.51,0,0,1-.43-6.35h0a4.51,4.51,0,0,1,6.35-.43l26.68,23.35.12.12a4.11,4.11,0,0,1,.3.29l.13.18a2.48,2.48,0,0,1,.19.26,3.82,3.82,0,0,1,.29.48l.14.3a5,5,0,0,1,.18.5c0,.12.06.23.08.35s.06.32.08.48,0,.28,0,.42,0,.28,0,.42-.05.32-.08.48,0,.23-.08.35a5,5,0,0,1-.18.5l-.14.3a3.82,3.82,0,0,1-.29.48,2.48,2.48,0,0,1-.19.26l-.13.18h0a4.11,4.11,0,0,1-.3.29l-.12.12L158.8,76.23a4.51,4.51,0,0,1-6.35-.43h0a4.51,4.51,0,0,1,.43-6.35Z" transform="translate(-12.95 -21.65)"/></svg>