<svg xmlns="http://www.w3.org/2000/svg" viewBox="0 0 428.66 523.32"><defs><style>.cls-1{fill:#fc9;}.cls-2{fill:#666;}.cls-3,.cls-4,.cls-6{fill:none;stroke-miterlimit:10;}.cls-3{stroke:#666;stroke-width:3px;}.cls-3,.cls-4{stroke-linecap:round;}.cls-4{stroke:#333;stroke-width:5px;}.cls-5{fill:#ccc;}.cls-6{stroke:#ccc;stroke-width:2px;}.cls-7{fill:#dd9452;}.cls-8{fill:#6cf;}.cls-9{fill:#1c75bc;}.cls-10{fill:#39f;}.cls-11{fill:#ededed;}.cls-12{fill:#999;}</style></defs><g id="Layer_2" data-name="Layer 2"><g id="doctor"><g id="Layer_1-2" data-name="Layer 1"><path class="cls-1" d="M267.35,178.82s20.42,49.54,30.29,55.83-135.49,84.43-135.49,84.43L155,251.33s28.25-18.72,12.83-59.74"/><path class="cls-1" d="M145.94,33.51c2.09.42-31.73,31.57-14.25,93.1,3,.41-4.29,64.35,37.63,87.31,37,20.25,47.64,18.69,78.78-5.12,32.68-25,21.83-59.21,24.81-58.23,0,0,11.8,4.24,14.18-13.11s.79-29.88-2.72-33.36-8.56-1.73-8.82.2,5-42.33-1.4-54.16-22-27.69-27.91-30.64S210.83-10.28,181.9,4.87c-23.45,12.27-60.26,11.74-57.48,28.64,3.89,23.62,7.54,26.6,7.54,26.6"/><path class="cls-2" d="M139.79,101.48a3.34,3.34,0,0,1,.5-2.13,8.34,8.34,0,0,1,1.07-1.59A11.54,11.54,0,0,1,144,95.45a14.05,14.05,0,0,1,6.26-2.11,14.21,14.21,0,0,1,6.5.88,10.9,10.9,0,0,1,5.44,4.36l.1.16a.22.22,0,0,1-.07.3.2.2,0,0,1-.17,0c-.93-.21-1.86-.41-2.81-.53s-1.88-.27-2.83-.33a30.92,30.92,0,0,0-5.69.12,29.57,29.57,0,0,0-5.6,1,22.17,22.17,0,0,0-2.67.93,10.57,10.57,0,0,0-1.27.6,2.46,2.46,0,0,0-.94.79.26.26,0,0,1-.33.13.25.25,0,0,1-.14-.19Z"/><path class="cls-2" d="M196.63,93.33a2.68,2.68,0,0,1,0-1.43,6.27,6.27,0,0,1,.58-1.29,9.6,9.6,0,0,1,1.69-2,16.36,16.36,0,0,1,4-2.68,22.65,22.65,0,0,1,9-2.11,22.36,22.36,0,0,1,9.1,1.57,13.91,13.91,0,0,1,7.27,6.1l.07.12a.23.23,0,0,1-.1.31.24.24,0,0,1-.22,0,20,20,0,0,0-3.78-1.6,25.47,25.47,0,0,0-4-1,37.52,37.52,0,0,0-8.2-.5,38.67,38.67,0,0,0-8.16,1,21.81,21.81,0,0,0-3.89,1.26,9.31,9.31,0,0,0-1.76,1,2.87,2.87,0,0,0-1.18,1.42.23.23,0,0,1-.29.17.22.22,0,0,1-.16-.15Z"/><path class="cls-3" d="M178.6,110.68c2.94,26-.67,35.91-2.23,39.89-6.41,16.28,17.3,11.47,22.4,5.94"/><path class="cls-2" d="M274.15,49.88c-6.38-11.82-22-27.69-27.91-30.64S210.83-10.55,181.9,4.6c-23.45,12.28-60.26,11.75-57.48,28.65,2.53,15.35,4.37,21.8,5.29,23.55A39.84,39.84,0,0,0,132,60.11l3.75-8c3.06-6.89,13.83-10.37,25.52-5.69,22.13,8.85,71.05-21.12,75.14,14.88,3.18,28,20.18,5.89,21.54,22.91.17,2.06,1.53,66.18,3.65,66.37,11.35,1,1.89-34.53,14.05-47.15.14-1.38.48-4.74.82-9.17C277.46,80.91,278.49,57.91,274.15,49.88Z"/><path class="cls-4" d="M164.66,117.25c-1.49-.93-11.08-1.76-15.36,1.79"/><path class="cls-4" d="M222.88,109.08c0-.19-9.15-.84-15.36,1.79"/><path class="cls-5" d="M131.28,129.88s23.9,10.41,51.84,6.44c35.54-5.06,73.33-17.28,73.33-17.28-1.58,7.56-2.3,16.84-3.06,27.4-1,14.12-1,29.06,3.06,32.38,0,0-54.37,62.28-97,30C132.06,188,134.66,130.16,131.28,129.88Z"/><path class="cls-6" d="M256.45,119s38.47-43.76,30.64,9.74c-5.6,38.25-30.64,50-30.64,50"/><path class="cls-7" d="M172.37,215.08a7.61,7.61,0,0,1,1.69.49l1.67.59c1.1.39,2.2.77,3.31,1.12,2.22.71,4.44,1.38,6.69,1.91a78.67,78.67,0,0,0,13.53,2.2,61.63,61.63,0,0,0,26.5-3.77,72.45,72.45,0,0,0,22.76-14.43,149.5,149.5,0,0,0,18.33-20.88A86.48,86.48,0,0,1,251.26,206a63.45,63.45,0,0,1-23.72,16.32,56.1,56.1,0,0,1-28.71,3A63.68,63.68,0,0,1,185,221.52a70.17,70.17,0,0,1-6.47-3c-1-.55-2.08-1.12-3.1-1.71l-1.51-.92A10,10,0,0,0,172.37,215.08Z"/><path class="cls-8" d="M188.71,240.13s13.95,17.5,45.95-4.63,54.81,89.88,54.81,89.88L171.35,419.67,107.69,323Z"/><polygon class="cls-9" points="197.56 281.63 168.45 356.95 185.13 401.21 226.66 345.04 209.98 281.55 197.56 281.63"/><path class="cls-9" d="M198.58,245.85c3.4,1.06,10.13,2.34,20.56-1.92l13,17.79-19.74,24.17-17.19-1.19L183.6,265.12S195.18,244.79,198.58,245.85Z"/><path class="cls-10" d="M269.05,183.76s4.17,13.23-21.79,39.49C229,241.76,217,244.36,217,244.36s28.94,28.25,30.64,37.44,41.87-68.42,41.87-68.42Z"/><path class="cls-10" d="M172.37,215.08c-.26,3.16,20,29.39,28.43,32.14,0,0-18.22-4.57-28.43,14.5S172.37,215.08,172.37,215.08Z"/><path class="cls-11" d="M360.47,522.82c24-28.59,38.28-65.36,38.28-65.36C450.83,271.59,421.22,265.19,411,255.25c-11.14-10.85-86-25.55-93.95-36.77-10.9-15.4-41-24.51-41-24.51S283,229,234.41,301.24c-11.48,17.05-40.94,79.63-40.94,79.63s-25-45.71-23.49-149.11c0,0-41.87,24.51-60.25,31.66s-64.3,71.51-63.28,94-59.27,96-44,123.55,46,41.87,46,41.87Z"/><path class="cls-1" d="M154.15,447.84s-75.68,20.07-62.42,29.29c20.64,14.35,48.35,18.63,48.35,18.63S134.92,474.91,154.15,447.84Z"/><path class="cls-12" d="M118.4,377.44a141.8,141.8,0,0,1-.79,20.39c-.19,1.69-.44,3.38-.67,5.08s-.52,3.39-.83,5.08c-.62,3.38-1.43,6.74-2.38,10.09-.49,1.68-1,3.36-1.59,5-.3.84-.61,1.66-.94,2.49l-1.11,2.46a49.38,49.38,0,0,1-2.56,4.87c-.91,1.53-1.82,2.91-2.73,4.36-3.71,5.67-7.65,11.15-11,16.67a41.1,41.1,0,0,0-4.1,8.05,10.52,10.52,0,0,0-.65,3.47,5.11,5.11,0,0,0,.67,2.54l.52.67a4.16,4.16,0,0,0,.56.72c.51.5,1,1,1.5,1.51l1.73,1.49c.6.49,1.25,1,1.87,1.44,2.55,1.88,5.25,3.71,8,5.43s5.65,3.33,8.55,4.91,5.86,3.06,8.85,4.47c1.5.71,3,1.38,4.53,2.06s3.07,1.27,4.62,1.84l2.34.87c.78.29,1.58.49,2.38.76,1.58.58,3.2.9,4.84,1.33h.06a.26.26,0,0,1,.18.31.25.25,0,0,1-.27.18c-1.68-.21-3.38-.33-5-.7-.82-.17-1.66-.29-2.48-.5l-2.46-.61c-1.64-.39-3.23-.95-4.86-1.41s-3.19-1.09-4.77-1.67a143.15,143.15,0,0,1-18.39-8.41c-1.49-.78-2.92-1.68-4.39-2.52s-2.87-1.77-4.24-2.77c-.69-.49-1.39-1-2.07-1.48l-2-1.6c-.65-.55-1.25-1.17-1.87-1.75a24.75,24.75,0,0,1-1.67-2,9.44,9.44,0,0,1-1.55-5,14.9,14.9,0,0,1,.82-5.1,45.15,45.15,0,0,1,4.46-9.16c3.55-5.75,7.53-11.18,11.33-16.73.94-1.39,1.91-2.77,2.81-4.18a46.34,46.34,0,0,0,2.46-4.35l1.1-2.25,1-2.31c.66-1.54,1.2-3.13,1.75-4.71a145,145,0,0,0,5-19.48c1.26-6.6,2.25-13.26,2.9-19.94a.26.26,0,0,1,.28-.23.26.26,0,0,1,.22.24Z"/><path class="cls-12" d="M337.16,319.24a32.47,32.47,0,0,0-3.12,6.89c-.43,1.18-.73,2.42-1.11,3.62s-.63,2.45-.89,3.69l-.71,3.72-.55,3.75c-.17,1.25-.26,2.52-.39,3.77s-.21,2.52-.28,3.78a172.66,172.66,0,0,0,1.19,30.31c1.18,10.22,1.81,20.89-.52,31.25l-.94,3.86-1.29,3.77a44.89,44.89,0,0,1-3.47,7.19l-.5.86-.58.83-1.15,1.64c-.38.54-.86,1-1.28,1.55a17.16,17.16,0,0,1-1.35,1.48c-.49.47-1,.95-1.46,1.39l-1.56,1.28a18.1,18.1,0,0,1-3.57,2.12l-.18.08h-.18c-12.66.26-25.29.9-37.92,1.72s-25.25,1.92-37.87,2.92-25.25,1.7-37.88,2.49l-18.95,1.15c-6.32.31-12.64.7-19,.94l1.24-.38c-.23.14-.61.4-.93.64s-.67.5-1,.75c-.66.54-1.31,1.09-1.94,1.67a40.76,40.76,0,0,0-3.59,3.72,52.5,52.5,0,0,0-6,8.55,57.21,57.21,0,0,0-4.23,9.61,60.93,60.93,0,0,0-2.55,10.29,86.11,86.11,0,0,0-.69,21.42c.13,1.8.4,3.59.57,5.39l.81,5.38,1.06,5.35,1.23,5.32h0a.25.25,0,0,1-.18.3.26.26,0,0,1-.3-.16l-1.8-5.19-1.55-5.29-1.31-5.36c-.35-1.81-.75-3.62-1-5.45s-.57-3.66-.71-5.51l-.25-2.77-.11-2.79-.06-1.39V488l0-2.8c.12-1.86.18-3.74.44-5.6A61.66,61.66,0,0,1,145.31,458a51.36,51.36,0,0,1,6.28-9.56,45,45,0,0,1,3.94-4.23c.7-.67,1.43-1.32,2.18-1.95a28.87,28.87,0,0,1,2.47-1.84l.52-.34.72,0c6.32-.4,12.64-.65,19-1l19-.77c12.64-.48,25.29-1,37.94-1.33s25.32-.51,38-.91,25.28-1.1,37.9-2.11l-.35.08a17.75,17.75,0,0,0,2.89-2l1.34-1.24c.43-.44.82-.91,1.23-1.35a14.51,14.51,0,0,0,1.15-1.44c.35-.49.75-1,1.07-1.48l1-1.57.48-.78.4-.83a41.88,41.88,0,0,0,2.75-6.85l1-3.56.68-3.66a34.49,34.49,0,0,0,.52-3.69c.12-1.23.32-2.46.38-3.71s.09-2.49.16-3.74l.09-1.87c0-.62,0-1.25,0-1.88l-.09-3.76c0-.63,0-1.25,0-1.88l-.15-1.88c-.21-2.53-.37-5-.61-7.58a144,144,0,0,1-.07-31.06A85.39,85.39,0,0,1,330,332.91c.37-1.25.83-2.47,1.24-3.7s.94-2.43,1.51-3.6a29.76,29.76,0,0,1,4-6.69.24.24,0,0,1,.35,0,.24.24,0,0,1,.05.32Z"/><path class="cls-12" d="M248.11,393.12c9.07-1.09,18.15-1.95,27.23-2.81s18.17-1.6,27.28-2.22l6.85-.46.87,0,.43,0h1.38a2.44,2.44,0,0,1,1.2.52,3.56,3.56,0,0,1,.42.45,1.73,1.73,0,0,1,.21.34l.13.27.15.38a5.89,5.89,0,0,1,.16.59,28.74,28.74,0,0,1,.53,3.69c.41,4.67.54,9.22.68,13.81.21,9.15.16,18.27.08,27.41l0,2.35-2.35.11-16.28.76c-5.42.25-10.85.51-16.28.69l-16.29.61L248.2,440l-1.88.06.05-1.8.34-11.55c.12-3.83.26-7.64.43-11.41Zm0,0,1,23q.25,5.63.43,11.16l.34,11L248,436.54l16.26-1.17,16.27-1c5.42-.36,10.84-.65,16.27-.95l16.27-.88L310.72,435c.17-9.08.23-18.19.2-27.27,0-4.53-.05-9.09-.32-13.52a25.87,25.87,0,0,0-.34-3.08,1.84,1.84,0,0,0-.06-.23v0a.3.3,0,0,0,0,.08l.1.15a1.28,1.28,0,0,0,.28.29,1.87,1.87,0,0,0,1,.43h-2l-6.8.16-27.33.78C266.36,392.92,257.24,393.12,248.11,393.12Z"/><path class="cls-12" d="M193.72,380.89a80.4,80.4,0,0,1,1.78,15.31,141.46,141.46,0,0,1-.39,15c-.38,5-1,9.92-1.83,14.84-.38,2.46-.95,4.92-1.4,7.38s-1,4.88-1.64,7.48l0,.11a.24.24,0,0,1-.28.18.27.27,0,0,1-.19-.2,85.79,85.79,0,0,1-.45-15.11c.17-5,.49-10,.83-15.06s.89-10,1.39-15l.79-7.5.92-7.48a.24.24,0,0,1,.28-.21.23.23,0,0,1,.2.18Z"/></g></g></g></svg>