<svg xmlns="http://www.w3.org/2000/svg" viewBox="0 0 526.22 522.82"><defs><style>.cls-1{fill:#fc9;}.cls-2{fill:#f96;}.cls-3{fill:#666;}.cls-12,.cls-4,.cls-5,.cls-7{fill:none;stroke-miterlimit:10;}.cls-4{stroke:#666;}.cls-12,.cls-4,.cls-5{stroke-linecap:round;}.cls-12,.cls-4{stroke-width:3px;}.cls-5{stroke:#333;stroke-width:5px;}.cls-6{fill:#ccc;}.cls-7{stroke:#ccc;stroke-width:2px;}.cls-8{fill:#dd9452;}.cls-9{fill:#6cf;}.cls-10{fill:#1c75bc;}.cls-11{fill:#39f;}.cls-12{stroke:#999;}.cls-13{fill:#ededed;}.cls-14{fill:#999;}.cls-15{fill:#e6534b;}</style></defs><g id="Layer_2" data-name="Layer 2"><g id="doctor"><g id="Layer_1-2" data-name="Layer 1"><path class="cls-1" d="M79.63,354.63c-11.2,6.53-22.43,13-33.54,19.66-1.87,1.11-1.17-.28-1.54-.7-2.16-2-2.71-4.84-4.09-7.25s-2.37-5.31-4-7.75c-1.18-3.41-3.53-6.32-4.66-9.77-.57-1.73-2.57-2.59-4.3-3.58a36.65,36.65,0,0,1-16.17-18,9,9,0,0,1-.3-2.87c.28-1.5.49-3.48,2.87-1.41,1.3,1.14,2.76.71,4.31.36a66.08,66.08,0,0,0,11.24-4.06,4.08,4.08,0,0,1,1.21,0c1.72.78,3,2.11,4.86,2.73a5.33,5.33,0,0,1,2.44,3.1c.78,5.3,1.25,10.67,3.36,15-2-6.47-4.78-13.48-2.18-21.3a12.24,12.24,0,0,1,6.29-3.16c.68-.13,1.56-.64,2-.12,2.42,3,5.12.73,7.86-.06,3.92-1.13,7.81-2.88,12-1.92a2.76,2.76,0,0,0,2.34-.71c1.87-1.46,2.74-.4,3.53.83a2.25,2.25,0,0,1,.09,1c-.45,1.29-1.31,2.5-1.46,3.86-1.67,3.46-4.24,6.53-6.56,9.68-1.66,2.27-1.54,3.86-.12,5.9,1.32,1.87,3.2,3.43,4,5.58,2.47,2.39,3.79,5.5,6.18,7.94a18.16,18.16,0,0,0,1.77,2.61C77.79,351.72,80,352.57,79.63,354.63Z"/><path class="cls-1" d="M36.39,269.27l3,1.32c-1.67-6.78-3.41-13.09-5.49-19.33-2.55-7.65-5.56-15.21-5.65-23.45,0-3.05,0-6.75,4.06-7.94,4.43-1.3,6.36,1.93,7.81,4.8a257,257,0,0,1,13.35,32c1.41,4.1,2.76,8.22,3.89,12.4.51,1.9,1.48,2.25,3.52,1.52,5.28-1.9,9.11-.38,11.92,3.21,5.72,7.3,9.56,15.35,9.94,24.52.2,5-3,9.47-5.9,13.85a1,1,0,0,1-1.54-.22c-.52-2.59,1.58-4.75,2.27-7.14,1-2.13,2-4.26,1.9-6.55.19-1.52-.47-2.86-.75-4.28-.69-3.48-2.2-6.69-3.5-10a44.13,44.13,0,0,0-3-5.43,18,18,0,0,0-1.2-1.83c-3.38-4.08-4.46-4.36-10.18-3a41.53,41.53,0,0,0-8.72,3.4,33.74,33.74,0,0,1-3.78,2.09c-.56.28-1.09.59-1.64.88-2.56.9-4.49,3.1-7.48,3.07a1.35,1.35,0,0,1-.84-.66c-.25-1.64,1.56-3.21.69-4.88-.67-2.31-2.44-4.07-3.67-6.1a2.49,2.49,0,0,1-.13-1.05A2,2,0,0,1,36.39,269.27Z"/><path class="cls-1" d="M36.39,269.27l-.72,1.14c-1.42,1-3,.36-4.53.69-1.81.39-3.19,1.16-3.84,2.75-2.28,3.85.45,6.6,2,9.62,1.12,2.11,2.12,4.27,3.35,6.32a53.13,53.13,0,0,0,3.11,5.68c.83,1.22,1,2.83,2.66,3.56,2.15,1.06,4.4,1.32,6.43-.47,1.54-1.35,2-2.94.41-4.39a4.78,4.78,0,0,0-2-.36,6.63,6.63,0,0,1-1.1-.07,17.75,17.75,0,0,1-5.27-1.8c-2-1.09-3.66-2.34-3.63-4.65.55-2.72,1.67-5,5.52-5l.24.79c.61,1.29-1,2.12-1.19,3.25-.38,2.38,1.52,3.1,3.53,3.66a22.07,22.07,0,0,0,10.8-.1c2.35-.51,4.62-1.49,7.07-1.37.65.16,1.12.44,1,1.12-1.79,2.13-4.38,2.82-7.08,3.2-1.74.25-2.7.73-3.15,2.44-1.81,6.75-5.35,8.67-13.28,7.5a2.56,2.56,0,0,1-1.57-.8c-.68-.88-1.09-1.89-1.73-2.79-1.12-2.1-2.51-4.07-3.7-6.13-1.39-2.78-3.16-5.38-4.69-8.08-2.52-4.56-4.08-5.14-9.85-3.61-1.08-.05-1.31-.9-1.86-1.45,1.63-2,4.07-2.46,6.42-2.26s3.14.26,3.37-2.38C23.63,269.25,30.45,266.35,36.39,269.27Z"/><path class="cls-1" d="M4.21,303.86c-.35-1.6-1.84-2.54-2.77-3.8-3.27-4.38-.75-9.91,5.43-11.11,2.86-.55,3.64-1.36,3.45-3.73a4.61,4.61,0,0,1,2.24-4.57c.72.48.55,1.38,1.12,1.94,0,2.77-.37,5.66,2.21,7.73,1.4,1.56,2.48,3.32,3.86,4.89.91,1,1.73,2.14,2.57,3.23,1.11,1.65,2.53,3.11,3.79,4.67.8,1.07,2.27,1.59,3.05,2.68a2.4,2.4,0,0,1-.16,1.53c-1.87,7.48-6.68,10.08-13.65,7.4a5,5,0,0,1-.86-.63,20.6,20.6,0,0,0-4.52-4,11.37,11.37,0,0,1-1.44-1.42c-1-1.33-2.37-2.38-3.45-3.65A6.65,6.65,0,0,1,4.21,303.86Z"/><path class="cls-1" d="M4.21,303.86l1.22.48c.47,1.53,1.11,3,1.54,4.56,1.37,4.11,1.62,8.54,3.63,12.47,1,1.6.09,3.71,1.42,5.22a36.16,36.16,0,0,0,15.24,17.3c3.1,1.77,5.32,3.66,6.27,6.9.77,2.6,2.38,5,3.61,7.43-1.5.87-1.31-.73-2.06-1-2.58-6.56-8.2-10.73-14-15.23-10.74-8.4-14.93-20.22-16.63-32.81C4.25,307.49,3.46,305.74,4.21,303.86Z"/><path class="cls-1" d="M75.54,311.62l1.29.59c-2.56,5.62-6.59,10.63-10.26,15.75-1.83,2.55-1.94,4.36-.09,6.51,1.27,1.48,2.69,2.94,3.16,4.87a.87.87,0,0,1-1,.32c-6.3-5.11-7.17-10.65-.52-17,1.32-1.26,2-3,3-4.56.6-1.14,1.27-2.26,1.82-3.41h0C73.45,313.46,73.38,311.84,75.54,311.62Z"/><path class="cls-1" d="M35.08,357.27l2.06,1a21.85,21.85,0,0,1,3.77,8c.47.76,1.62,1.51-.19,2.3Z"/><path class="cls-1" d="M68.6,339.66l1-.32c2.83,2.27,4.23,5.4,6.2,8.18-.18.38-.44.46-.79.2C72.06,345.56,70.6,342.44,68.6,339.66Z"/><path class="cls-1" d="M40.72,368.48c.73-.78.31-1.54.19-2.3,1.86,2.2,2.6,4.87,3.64,7.41C41.63,372.87,41.79,370.3,40.72,368.48Z"/><path class="cls-1" d="M79.63,354.63l-2.9-4.41c.19-.36.44-.43.75-.16C78.51,351.45,81.19,352.18,79.63,354.63Z"/><path class="cls-1" d="M13.09,282.23c-1.06-.25-.36-1.05-.53-1.58l.76-.75c1.43-.4,1.43.29,1.18,1.17A1.21,1.21,0,0,1,13.09,282.23Z"/><path class="cls-1" d="M77.48,350.06l-.75.16a4.43,4.43,0,0,1-1.68-2.5l.79-.2Z"/><path class="cls-1" d="M15,313.84c7.54,2.58,10.87.79,13.21-7.11,3.48-.54,5.81-2.87,8.59-4.49,1.94-.91,3.52.61,5.51.11,4-1,6.69-3.8,6.66-7.73,0-1.39,0-2.66,1.93-2.55,3.44.18,6.26-1.36,9.23-2.57a5,5,0,0,1,4-2.7,2.72,2.72,0,0,1,1.57.87c1.44,2.23.55,3.9-2.1,5.15a92.49,92.49,0,0,0-9,5.32,24.87,24.87,0,0,0-4,3.23c-1,1.08-1.66,2.37-3.16,3.05A9.13,9.13,0,0,0,42.55,309c-3.43,4.9-3.61,10.42-5.35,15.64-.79-.8-1.57-1.61-2.35-2.42-1.66-.61-2.75-1.84-4.22-2.65h0c-3.92-.6-7.74-1.47-11.55-2.38-1.68-.4-3.51-.72-4.31-2.29A1.33,1.33,0,0,1,15,313.84Z"/><path class="cls-1" d="M75.54,311.62c-.9,1-1.8,2-2.69,3-.91-.65-.95-4.1-3.23-.49a2.85,2.85,0,0,1-2.31.47c-4.66-1.74-8.76.91-13,2.08-2.65.73-5.34,3.24-7.26-.47-.12-.23-2.95.49-4.3,1.14a13.48,13.48,0,0,1-2.65,1.19c-1.52-3.53.33-6.5,2.93-9.35,9.93-1.5,19.54-4.81,29.55-5.85,2.31-.24,5-1.28,5.76,1.64Q76.94,308.32,75.54,311.62Z"/><path class="cls-1" d="M15.14,314.57c3.24,2.37,7.67,2.25,11.53,3.33,1.44.41,3,.57,4,1.64a50.33,50.33,0,0,1-13.5,5c-3.15.73-3.15.74-4.48-1.88-1.52,1.28-.11,2.67-.63,3.95-1.82-1.12-1.41-3.11-2.08-4.68-1-2.15-.75-4.66-1.9-6.78-.42-.78-.86-1.54.5-2.1s2.65-.26,2.67.78c0,2.55,1.37.84,2.34.55A2.18,2.18,0,0,1,15.14,314.57Z"/><path class="cls-1" d="M43.18,309.6a19,19,0,0,0-3.08,9c-2.15,7.88-.37,15.21,2.09,22.53-2.7-3.17-5.43-12.23-5-16.5-.44-5.7,1.38-11.07,4.74-16.21.65-.49,1-.16,1.39.24A1,1,0,0,1,43.18,309.6Z"/><path class="cls-1" d="M30.63,319.54c2,.23,3.09,1.46,4.22,2.65A4.59,4.59,0,0,1,30.63,319.54Z"/><path class="cls-1" d="M72.85,314.65c.21,1.41-.66,2.46-1.82,3.41C70.77,316.63,71.64,315.58,72.85,314.65Z"/><path class="cls-1" d="M43.18,309.6c-.06-.22-.11-.45-.16-.67a6.5,6.5,0,0,1,4-4.84c.93-1,1.85-2,2.77-3,2.9-1.73,6.25-1.9,9.39-2.31,5.62-.73,11.26-.88,16.82-2.37,2.14-.58,4-.16,4.22,2.12.62,2.34-.66,4.39-1.9,6.45-1.18-1.13-2.42-1.29-4.42-.89-5.4,1.09-10.9,1.66-16.34,2.55a11.9,11.9,0,0,0-4.42,1.41C49.92,310.19,46.57,309.74,43.18,309.6Z"/><path class="cls-1" d="M53.44,298a37.68,37.68,0,0,1,9.06-5.59c2.71-1.18,3.59-2.62,2.45-4.85,3.75-1.43,8.06-1.6,11.23-4.36,1.37,3.62,3.2,7.09,3.73,11-3.93.49-7.81,1.74-11.83,1.26-3.26-.38-6.38.65-9.45,1.79C57,297.8,55.29,298.82,53.44,298Z"/><path class="cls-1" d="M53.44,298c4-1.09,7.6-3.13,11.75-3.75,3-.44,5.76,1.31,8.69-.06a7.4,7.4,0,0,1,6,0c.2,1.47,1.39,2.81.33,4.44-1.2-1.73-2.93-1.6-5.07-1-8.34,2.28-16.93,2.1-25.36,3.57C50.16,299.34,52.32,299.09,53.44,298Z"/><path class="cls-2" d="M28.42,283.5c-2-3.07-5.34-5.89-1.7-10.05,2.68-2.24,5.88-2.42,9.14-2.35a15.43,15.43,0,0,1,4.29,6.36c-2.36.65-2.17-1.17-2.85-2.14a2.37,2.37,0,0,1-1.62,3.33C32.4,279.44,30.9,282,28.42,283.5Z"/><path class="cls-2" d="M54,265.65a5.09,5.09,0,0,0-.18-.67h0l-1.68-6.31c-.22-2.49-1.61-4.57-2.61-6.79h0c-.42-3.18-2-6-3.19-8.9h0c-.76-1.79-1.51-3.59-2.27-5.38h0c-.7-1.57-1.39-3.14-2.09-4.7l-2.1-4.7c-.42-2.92-2.76-4.69-5-6.49-1.65-1.33-2.86-.75-3.81,1-1.54,2.92-.62,5.82-.95,8.73h0l1.44,5.61h0c1.4,3.79,1.25,8.07,3.5,11.6a1,1,0,0,0,.57.81l6.73,25.93a1.09,1.09,0,0,0,.8-.17c.35.95-1.07,2.79,1.59,2.56L55,272.86C56.8,270.09,54.58,268,54,265.65Zm-2.19,1c.14-.29.26-.59.37-.89.06.38.11.76.17,1.14A.57.57,0,0,1,51.81,266.61Z"/><path class="cls-2" d="M35.86,271.1c-2.85,1.55-6.14,1.37-9.14,2.35,1.67-4.53,5.45-3.42,9-3A5.41,5.41,0,0,1,35.86,271.1Z"/><path class="cls-1" d="M55,272.86c1.25-2.67-1.3-4.69-1-7.21C55.38,267.87,57.6,270,55,272.86Z"/><path class="cls-2" d="M47.58,278.56c1.72.93,3.66.11,5.53.3a7,7,0,0,1-6.23.58Z"/><path class="cls-1" d="M43.14,275.2c1.18.54-.29,2.42,1.6,2.61-3.53,1.28-1.22-1.88-2.39-2.39Z"/><path class="cls-2" d="M73.1,278h0a1.44,1.44,0,0,0-1.16-1.21c-1.2-2.83-3.23-5.27-7.08-4.73-4.69.65-9.42,1.85-13.34,4.76h0l-3.94,1.79a1,1,0,0,0,1,.86,11.81,11.81,0,0,1-1.68,0c-3,.49-5,2.85-7.9,3.62-.68.89-1.35,1.79-2,2.69-1.92,3.18.72,4.06,3.13,4.91,6.37,2.25,12.69,0,19-1.66a7,7,0,0,0,5.17-5.21c-1-1.18.75-1.67,1-2.52a2.58,2.58,0,0,0,.32-.8c1.1-.29.78,1,1.25,1.38-2.26,1.24-3.32,2.93-2.93,5.18l1,.49c5.38.3,9.87-1.45,11.23-4.36ZM71,279.65l.11.05-.42.21c0-.05,0-.09,0-.14C70.73,279,70.55,279.49,71,279.65Zm-20,0a4.5,4.5,0,0,0-1.71-.22C49.88,279.32,50.56,279.2,51,279.62Z"/><path class="cls-1" d="M45.17,293.33c3,1.27,3,4.27-.08,6.32-2.45,1.63-4.91,1.73-7.17.11-1.78-4.67-1.23-5.43,4.6-6.48a7.55,7.55,0,0,1,.8-.16A2.1,2.1,0,0,0,45.17,293.33Z"/><path class="cls-1" d="M25.62,303.67c.39-3.06,3.1-4.32,5.83-5.66,1.89-.94,1.59,1.25,2.82,1.16,1.35.44,1.15,1.62,1.46,2.56-1.16,2.87-3.14,4.65-6.88,4.08C27.38,305.52,26.06,305.07,25.62,303.67Z"/><path class="cls-2" d="M42.52,293.28l-4.94-1.68c-1.47-1.27-3.44-2.2-3.7-4.29h0a7.61,7.61,0,0,1,4.86-5c1.54-1.44,2.43-3,1.41-4.81-1.41-.36-1.75-1.65-3-2.57.06,1.82-1.57,3.65-2.56,3.6-4.38-.19-4.59,2.94-6.16,5a15,15,0,0,0,3.47,6.59h0A10.56,10.56,0,0,0,35.17,296h0c.53,1.49.34,3.39,2.75,3.78C37.38,296.61,39.21,294.59,42.52,293.28Z"/><path class="cls-1" d="M65,280.78l.65-.91c2.24-.41.9,1.27,1.38,1.89L63.92,287l-3.8,2.47-1-.5c2-1.65,4-3.31,4.78-5.68A19,19,0,0,1,65,280.78Z"/><path class="cls-1" d="M28.85,305.81a10.6,10.6,0,0,0,6.88-4.08l1.06.51c-2,2.91-4.33,5.17-8.59,4.49C28.42,306.42,28.63,306.11,28.85,305.81Z"/><path class="cls-1" d="M45.17,293.33c-.16.56-.33,1.32-1.1,1.21-.37-.06-.51-.92-.75-1.42A1.92,1.92,0,0,1,45.17,293.33Z"/><path class="cls-1" d="M23.14,304.28c1.34,1.3,3.05,2.5,2.76,4.52a6.26,6.26,0,0,1-3.69,4.45,4.86,4.86,0,0,1-5.07-.58c-1.23-.85-2.72-1.57-3.25-3-.54-.54-.36-1.52.07-1.61,2.79-.61,1.9-3.66,4.44-4.48C20.36,302.94,21.64,303.8,23.14,304.28Z"/><path class="cls-1" d="M15.14,314.57c-2.21.25-3.17,1.06-1,3.32-2.86-.71-3.1-2.12-3.4-3.45-.2-.9-.67-1.24-1.73-.82-1.59.61-.3,1.1,0,1.6a11.81,11.81,0,0,1,1,6.69c-2.86-3.94-2.72-8.78-4.2-13.14,1.21-1.92,2.36-1.56,3.48-.17a1.49,1.49,0,0,1,1.17,1.19,47,47,0,0,1,4.6,4.06h0Z"/><path class="cls-2" d="M18,298.11h0a19.53,19.53,0,0,0-4-4.95c-2.68-2.94-6.72-3.68-9.61-1.77a5.09,5.09,0,0,0-1.85,6.7c-.05.17.08.43.55.88,1.07,1.74,2.28,3.38,4.57,4.12h0c1.13,2.85,4,4.48,6.17,6.57.63-2,1.48-3,3-.52.08-5.18.17-5.25,5.51-4.45.19,0,.48-.27.72-.41A23.27,23.27,0,0,0,18,298.11Z"/><path class="cls-2" d="M30.75,292.6h0l-4.85-8.47h0c-3.19-5.07-5.92-5.8-11.4-3.05l-1.41,1.15c-.63,3.14-1.42,6.32,2.09,8.43,1.17,1.74,2.13,3.62,3.95,5h0a7.06,7.06,0,0,0,2.56,3.09h0c.64,2.07,2.36,3.47,3.93,5a9.28,9.28,0,0,1,8.65-4.5C33.71,296.7,31.89,294.8,30.75,292.6Z"/><path class="cls-1" d="M9.22,308.6a3.16,3.16,0,0,0-3.49.17,6.25,6.25,0,0,1-.3-4.43C6.85,305.65,8.72,306.65,9.22,308.6Z"/><path class="cls-1" d="M15,313.85c-1.9-1.05-3.78-2.11-4.6-4.06C12.56,310.61,14.41,311.69,15,313.85Z"/><path class="cls-1" d="M47,304.09l-4,4.84-1.08-.53C43.17,306.54,43.8,304.17,47,304.09Z"/><path class="cls-1" d="M65,280.78a2.23,2.23,0,0,1-1.11,2.54C62.48,282,64.51,281.6,65,280.78Z"/><path class="cls-1" d="M328.16,178.82s20.43,49.54,30.3,55.83S223,319.08,223,319.08l-7.15-67.75s28.25-18.72,12.83-59.74"/><path class="cls-1" d="M206.76,33.51c2.09.42-31.73,31.57-14.25,93.1,3,.41-4.29,64.35,37.63,87.31,37,20.25,47.64,18.69,78.77-5.12,32.69-25,21.84-59.21,24.82-58.23,0,0,11.8,4.24,14.18-13.11s.79-29.88-2.73-33.36-8.55-1.73-8.81.2,5-42.33-1.4-54.16S313,22.45,307.06,19.5,271.65-10.28,242.72,4.87c-23.46,12.27-60.26,11.74-57.48,28.64,3.89,23.62,7.54,26.6,7.54,26.6"/><path class="cls-3" d="M200.6,101.48a3.47,3.47,0,0,1,.5-2.13,8.83,8.83,0,0,1,1.07-1.59,11.79,11.79,0,0,1,2.67-2.31,14.06,14.06,0,0,1,6.25-2.11,14.24,14.24,0,0,1,6.51.88A10.9,10.9,0,0,1,223,98.58l.1.16a.22.22,0,0,1-.07.3.2.2,0,0,1-.17,0c-.93-.21-1.86-.41-2.81-.53s-1.88-.27-2.83-.33a30.9,30.9,0,0,0-5.69.12,29.57,29.57,0,0,0-5.6,1,22.17,22.17,0,0,0-2.67.93,10.57,10.57,0,0,0-1.27.6,2.58,2.58,0,0,0-.95.79.24.24,0,0,1-.32.13.25.25,0,0,1-.14-.19Z"/><path class="cls-3" d="M257.45,93.33a2.49,2.49,0,0,1,0-1.43,6.27,6.27,0,0,1,.58-1.29,9.6,9.6,0,0,1,1.69-2,16.36,16.36,0,0,1,4.05-2.68,22.61,22.61,0,0,1,9-2.11,22.39,22.39,0,0,1,9.1,1.57,13.91,13.91,0,0,1,7.27,6.1l.06.12a.23.23,0,0,1-.09.31.24.24,0,0,1-.22,0,20.22,20.22,0,0,0-3.78-1.6,26,26,0,0,0-4-1,37.52,37.52,0,0,0-8.2-.5,38.67,38.67,0,0,0-8.16,1,21.81,21.81,0,0,0-3.89,1.26,9.71,9.71,0,0,0-1.77,1,2.8,2.8,0,0,0-1.17,1.42.23.23,0,0,1-.29.17.22.22,0,0,1-.16-.15Z"/><path class="cls-4" d="M239.42,110.68c2.94,26-.67,35.91-2.24,39.89-6.4,16.28,17.3,11.47,22.41,5.94"/><path class="cls-3" d="M335,49.88c-6.38-11.82-22-27.69-27.91-30.64S271.65-10.55,242.72,4.6c-23.46,12.28-60.26,11.75-57.48,28.65,2.53,15.35,4.37,21.8,5.28,23.55.5,1,2.26,3.31,2.26,3.31l3.74-8c3.07-6.89,13.84-10.37,25.53-5.69,22.13,8.85,71.05-21.12,75.13,14.88,3.19,28,20.19,5.89,21.55,22.91.17,2.06,1.53,66.18,3.65,66.37,11.35,1,1.89-34.53,14.05-47.15.14-1.38.48-4.74.82-9.17C338.27,80.91,339.31,57.91,335,49.88Z"/><path class="cls-5" d="M225.48,117.25c-1.49-.93-11.08-1.76-15.36,1.79"/><path class="cls-5" d="M283.7,109.08c0-.19-9.15-.84-15.36,1.79"/><path class="cls-6" d="M192.1,129.88s23.9,10.41,51.84,6.44c35.54-5.06,73.33-17.28,73.33-17.28-1.58,7.56-2.3,16.84-3.06,27.4-1,14.12-1,29.06,3.06,32.38,0,0-54.37,62.28-97,30C192.87,188,195.47,130.16,192.1,129.88Z"/><path class="cls-7" d="M317.27,119s38.47-43.76,30.64,9.74c-5.6,38.25-30.64,50-30.64,50"/><path class="cls-8" d="M233.18,215.08a7.7,7.7,0,0,1,1.7.49l1.66.59c1.11.39,2.21.77,3.32,1.12,2.22.71,4.44,1.38,6.68,1.91a78.78,78.78,0,0,0,13.54,2.2,61.68,61.68,0,0,0,26.5-3.77,72.3,72.3,0,0,0,22.75-14.43,148.92,148.92,0,0,0,18.34-20.88A86.29,86.29,0,0,1,312.07,206a63.37,63.37,0,0,1-23.72,16.32,56.06,56.06,0,0,1-28.7,3,63.68,63.68,0,0,1-13.85-3.73,70.17,70.17,0,0,1-6.47-3c-1.05-.55-2.09-1.12-3.1-1.71l-1.52-.92A9.52,9.52,0,0,0,233.18,215.08Z"/><path class="cls-9" d="M249.52,240.13s14,17.5,46-4.63,54.81,89.88,54.81,89.88L232.16,419.67,168.5,323Z"/><polygon class="cls-10" points="258.38 281.63 229.27 356.95 245.95 401.21 287.48 345.04 270.8 281.55 258.38 281.63"/><path class="cls-10" d="M259.4,245.85c3.4,1.06,10.12,2.34,20.55-1.92l13,17.79-19.75,24.17L256,284.7l-11.57-19.58S256,244.79,259.4,245.85Z"/><path class="cls-11" d="M329.87,183.76S334,197,308.08,223.25c-18.3,18.51-30.3,21.11-30.3,21.11s28.94,28.25,30.64,37.44,41.87-68.42,41.87-68.42Z"/><path class="cls-11" d="M233.18,215.08c-.25,3.16,20,29.39,28.44,32.14,0,0-18.22-4.57-28.44,14.5S233.18,215.08,233.18,215.08Z"/><path class="cls-1" d="M215,447.84s-75.69,20.07-62.42,29.29c20.64,14.35,48.34,18.63,48.34,18.63S195.74,474.91,215,447.84Z"/><path class="cls-12" d="M254.29,380.87s-5.52,49.34-3.48,61.09"/><path class="cls-1" d="M6.28,314l-1.21-2.27A18.4,18.4,0,0,0,6.28,314Z"/><path class="cls-13" d="M471.82,255.25c-11.15-10.85-86-25.55-93.95-36.77-10.9-15.4-41-24.51-41-24.51s6.91,35.07-41.69,107.27c-11.47,17.05-40.93,79.63-40.93,79.63s-25-45.71-23.49-149.11c0,0-41.87,24.51-60.25,31.66s-64.3,71.51-63.28,94c.23,5.14-2.76,13-7.31,22.31-6.61-22.17-12.86-47.61-10.77-58.84,4.08-22-64.34,34.68-64.34,34.68s17,67.4,36.05,112.24c-.31,5,.38,9.51,2.41,13.16,15.32,27.58,46,41.87,46,41.87h312c24-28.59,38.28-65.36,38.28-65.36C511.65,271.59,482,265.19,471.82,255.25Z"/><path class="cls-12" d="M308.93,393.12s61.74-3.7,63.78-3.45-.63,68.09-.63,68.09H310.46Z"/><path class="cls-14" d="M253,386a79.56,79.56,0,0,1,1.77,15.3,139,139,0,0,1-.39,15c-.37,5-1,9.91-1.82,14.84-.38,2.45-.95,4.92-1.4,7.38s-1,4.88-1.65,7.48l0,.1a.24.24,0,0,1-.29.18.25.25,0,0,1-.18-.19,85.85,85.85,0,0,1-.45-15.11c.17-5,.49-10.05.83-15.06s.88-10,1.39-15l.78-7.49.93-7.49a.25.25,0,0,1,.27-.21.25.25,0,0,1,.21.19Z"/><path class="cls-13" d="M390.27,522.82h83.67a45.51,45.51,0,0,0,4.27-8c8.64-21,1.61-48.75-14-56.43-26.47-13-80.73,29.84-75.06,60.26A23.36,23.36,0,0,0,390.27,522.82Z"/><path class="cls-15" d="M263.36,522.82H417l103.19-83a16.08,16.08,0,0,0,2.46-22.62l-91.6-113.89a16.08,16.08,0,0,0-22.62-2.46l-184,148A16.09,16.09,0,0,0,222,471.43Z"/><path class="cls-1" d="M406,522.82H459.2c4.34-5.34,7.24-11,7.24-15.08,0-11.73-5.37-30.68-16.09-34.51s-23.23-.48-41.62,16.59-15.83,18.67-13.53,23C396.58,515.45,400.67,519,406,522.82Z"/></g></g></g></svg>