<svg xmlns="http://www.w3.org/2000/svg" viewBox="0 0 25 20"><defs><style>.cls-1{fill:#545554;}</style></defs><g id="Layer_2" data-name="Layer 2"><g id="Layer_1-2" data-name="Layer 1"><g id="hamburger-menu"><path class="cls-1" d="M2.5,0h20A2.5,2.5,0,0,1,25,2.5h0A2.5,2.5,0,0,1,22.5,5H2.5A2.5,2.5,0,0,1,0,2.5H0A2.5,2.5,0,0,1,2.5,0Z"/><path class="cls-1" d="M2.5,7.5h20A2.5,2.5,0,0,1,25,10h0a2.5,2.5,0,0,1-2.5,2.5H2.5A2.5,2.5,0,0,1,0,10H0A2.5,2.5,0,0,1,2.5,7.5Z"/><path class="cls-1" d="M2.5,15h20A2.5,2.5,0,0,1,25,17.5h0A2.5,2.5,0,0,1,22.5,20H2.5A2.5,2.5,0,0,1,0,17.5H0A2.5,2.5,0,0,1,2.5,15Z"/></g></g></g></svg>