<svg xmlns="http://www.w3.org/2000/svg" viewBox="0 0 752.77 514.94"><defs><style>.cls-1{fill:#f5b592;}.cls-2{fill:#ccc;}.cls-3{fill:#9ff;}</style></defs><g id="Layer_2" data-name="Layer 2"><g id="Layer_12" data-name="Layer 12"><path class="cls-1" d="M340.09,196a42.89,42.89,0,0,0-11.52.47c-10.3,1.45-77,35.75-77.52,36.82L240,239.41s-11.21,5-16.73,7.73c-.64.53-1,1.35-1.76,1.67.05,0,69.84-56.9,74.28-63.27.23-3.32,2.49-6.58.29-10,0,0-3.2-6.4-7.59-6.19h0c-4.06-1.28-7.57.67-11.08,2.09-25.68,10.38-49.1,24.95-72.43,39.61-14.31,9-29.27,17.16-41.39,29.28-8.14,4.48-15.21,11-24.77,12.75l0,0c-2.87,1.36-5.16,1.3-5.95-2.43,2.23-12.52,6.39-24.52,9.82-36.72,1.68-6,4.71-11.86,2.45-18.39-.39-2.81-11.83-24.71-17.22-27.06-10-4.35-11.49-3.83-13.09,6.9-5.31,35.7-20.65,67.18-39.59,97.37-12.5,19.92-20,41.59-19,65.56h0c-.34,2.83-.79,19.53.5,25,.15,2.68.31,5.37.46,8.06h0c-9,12.4-17.89,24.93-27.17,37.14C21.34,420,12.09,431,3.35,442.47c-1.68,2.19-6.89,5.69.52,7.73h0L66.8,501.38c.6,3.72,2.56,3.44,4.4,1.14a108.08,108.08,0,0,0,7.22-10.26c12.84-20.42,25.7-40.83,38.34-61.37,3.53-5.74,7.61-8,14.83-7.89a70.17,70.17,0,0,0,48-17.2h0c13.71-7.95,24.35-19.4,34.88-30.91,6.21-6.79,45.76-19.58,49.31-20.87,9.95-1.9,59.06-12.54,61.75-14.88,3.22-3.44,4.51-7.38,1.05-11.1-4.37-4.72-49.47-4.81-59.14-3.66h0l-12.32.09c-.78-.19-2.19,0-2.18-.75,0-1.84,1.26-3,3.14-3.33l6-4.14s0,.05,0,.07c9.76,1.5,78.94-35.51,84.23-42.71,4.76-6.48,3-11.31-4.66-13.61-6.64-2-61,8.28-78.34,14.4C278.22,264.21,297,255,312.62,241.08c6-4.9,30.47-23.91,34.5-30.6C351.62,203,348.77,197.13,340.09,196ZM190.68,234.58q-.23.79-.42,1.53a7.42,7.42,0,0,0-.56-1.74A3.79,3.79,0,0,1,190.68,234.58Zm-5.54,29.88.58-.62.07.09A5.56,5.56,0,0,1,185.14,264.46ZM179,242.9a5.4,5.4,0,0,0-.92-1.69,8.21,8.21,0,0,1,1.76.1C179.54,241.85,179.27,242.38,179,242.9Zm89.36,11.3-.5,1.38c-.06-.07-.08-.14-.14-.2a3.5,3.5,0,0,0-.31-.27Z"/><path class="cls-1" d="M405.65,221.2c4,6.69,28.49,25.7,34.5,30.61,15.61,13.94,34.4,23.12,49.24,33.31-17.29-6.11-71.69-16.39-78.33-14.39-7.66,2.3-9.42,7.12-4.66,13.6,5.28,7.2,74.47,44.21,84.22,42.72l.05-.07,6,4.13c1.87.34,3.12,1.49,3.14,3.34,0,.78-1.41.55-2.19.74l-12.32-.09h0c-9.67-1.14-54.76-1.06-59.14,3.66-3.45,3.72-2.16,7.67,1.05,11.1,2.7,2.34,51.8,13,61.75,14.88,3.55,1.3,43.1,14.08,49.31,20.87,10.53,11.51,21.18,23,34.89,30.92h0a70.1,70.1,0,0,0,48,17.19c7.22-.12,11.29,2.16,14.82,7.89,12.65,20.54,25.5,40.95,38.35,61.37a106.34,106.34,0,0,0,7.21,10.27c1.85,2.29,3.8,2.57,4.41-1.14q31.46-25.61,62.93-51.19h0c7.4-2,2.19-5.53.52-7.73-8.75-11.43-18-22.47-26.7-33.94-9.27-12.21-18.13-24.74-27.17-37.13h0c.16-2.69.31-5.38.47-8.07,1.29-5.42.83-22.13.5-24.95h0c1-24-6.49-45.65-19-65.56-18.94-30.19-34.28-61.68-39.59-97.38-1.6-10.73-3.09-11.25-13.09-6.9-5.4,2.35-16.83,24.25-17.23,27.06-2.25,6.53.77,12.44,2.45,18.39,3.44,12.2,7.59,24.2,9.83,36.73-.79,3.73-3.09,3.78-5.95,2.43l0,0c-9.57-1.71-16.63-8.27-24.77-12.75-12.13-12.12-27.09-20.28-41.4-29.27-23.33-14.67-46.75-29.24-72.43-39.62-3.5-1.42-7-3.37-11.08-2.09h0c-4.38-.21-7.58,6.19-7.58,6.19-2.2,3.39.06,6.65.28,10,4.44,6.38,74.24,63.25,74.29,63.28-.8-.33-1.12-1.15-1.76-1.67-5.53-2.73-16.72-7.75-16.73-7.73L501.71,244c-.55-1.08-67.22-35.38-77.51-36.83a43.38,43.38,0,0,0-11.53-.46C404,207.85,401.14,213.72,405.65,221.2Zm157.42,23.9a6.87,6.87,0,0,0-.57,1.73c-.13-.49-.27-1-.42-1.52A3.56,3.56,0,0,1,563.07,245.1Zm3.9,29.55a.27.27,0,0,0,.07-.08l.59.61A5.67,5.67,0,0,1,567,274.65ZM572.9,252a7.59,7.59,0,0,1,1.76-.09,5.23,5.23,0,0,0-.92,1.68A17.56,17.56,0,0,0,572.9,252Zm-87.57,13.8a2.44,2.44,0,0,0-.3.27c-.06.07-.09.14-.14.2-.16-.44-.33-.88-.51-1.37Z"/><ellipse class="cls-2" cx="217.92" cy="289.4" rx="27.16" ry="21.07"/><ellipse class="cls-2" cx="229.73" cy="302.44" rx="27.16" ry="21.07"/><ellipse class="cls-2" cx="201.78" cy="305.4" rx="27.16" ry="21.07"/><ellipse class="cls-2" cx="490.31" cy="228.17" rx="10.3" ry="7.99"/><ellipse class="cls-2" cx="494.79" cy="233.12" rx="10.3" ry="7.99"/><ellipse class="cls-2" cx="484.19" cy="234.24" rx="10.3" ry="7.99"/><ellipse class="cls-2" cx="412.1" cy="178.53" rx="19.88" ry="12.55"/><ellipse class="cls-2" cx="420.75" cy="186.3" rx="19.88" ry="12.55"/><ellipse class="cls-2" cx="386.31" cy="191.09" rx="19.88" ry="12.55"/><ellipse class="cls-2" cx="400.29" cy="188.06" rx="19.88" ry="12.55"/><ellipse class="cls-2" cx="415.43" cy="200.61" rx="19.88" ry="12.55"/><ellipse class="cls-2" cx="303.78" cy="209.85" rx="26.43" ry="16.69"/><ellipse class="cls-2" cx="315.28" cy="220.17" rx="26.43" ry="16.69"/><ellipse class="cls-2" cx="269.49" cy="226.54" rx="26.43" ry="16.69"/><ellipse class="cls-2" cx="288.08" cy="222.51" rx="26.43" ry="16.69"/><ellipse class="cls-2" cx="308.2" cy="239.2" rx="26.43" ry="16.69"/><ellipse class="cls-2" cx="464.9" cy="300.66" rx="16.21" ry="25.68" transform="translate(-27.07 554.63) rotate(-60.2)"/><ellipse class="cls-2" cx="460.19" cy="286.41" rx="16.21" ry="25.68" transform="translate(-17.07 543.37) rotate(-60.2)"/><ellipse class="cls-2" cx="501.87" cy="303.15" rx="16.21" ry="25.68" transform="translate(-10.63 587.96) rotate(-60.2)"/><ellipse class="cls-2" cx="484.26" cy="297.57" rx="16.21" ry="25.68" transform="translate(-14.65 569.87) rotate(-60.2)"/><ellipse class="cls-2" cx="484.38" cy="316.09" rx="16.21" ry="25.68" transform="translate(-30.66 579.3) rotate(-60.2)"/><ellipse class="cls-2" cx="475.35" cy="273.78" rx="16.21" ry="25.68" transform="translate(1.51 550.17) rotate(-60.2)"/><ellipse class="cls-2" cx="502.38" cy="284.67" rx="16.21" ry="25.68" transform="translate(5.66 579.11) rotate(-60.2)"/><path class="cls-3" d="M305,18.67c-.8-2.15,2.24,29.36-7.72,40.09S275.6,82.44,282,90.67C289.7,100.63,334.83,98.33,305,18.67Z"/><path class="cls-3" d="M330.11,94.91c.05-1.57-6.24,19.2-15.35,23.41s-19.9,9.37-18,16.25C299.05,142.9,328.27,153.21,330.11,94.91Z"/><path class="cls-3" d="M254.52,131.65c0-1.14-4.53,13.95-11.15,17s-14.46,6.81-13.08,11.81C232,166.52,253.19,174,254.52,131.65Z"/><path class="cls-3" d="M403.56,56.78c-.05-1.57,6.24,19.2,15.35,23.41s19.9,9.37,18,16.25C434.62,104.77,405.4,115.08,403.56,56.78Z"/><path class="cls-3" d="M452.86,135.14c0-1,4,12.44,9.94,15.16s12.88,6.06,11.65,10.52C473,166.21,454.05,172.89,452.86,135.14Z"/><path class="cls-3" d="M400.64,103c.43-1.14-1.18,15.53,4.08,21.2s11.45,12.52,8.07,16.87C408.71,146.32,384.85,145.1,400.64,103Z"/><path class="cls-3" d="M355.08.13c.62-2.65,1.58,35,14.57,46.33s28.28,25,22.1,35.62C384.28,94.92,332,98.44,355.08.13Z"/><path class="cls-3" d="M356.51,124.11c.39-1.63,1,21.53,9,28.48S382.86,168,379.06,174.5C374.47,182.39,342.31,184.56,356.51,124.11Z"/></g></g></svg>