<svg xmlns="http://www.w3.org/2000/svg" viewBox="0 0 752.77 348.96"><defs><style>.cls-1{fill:#f5b592;}</style></defs><g id="Layer_2" data-name="Layer 2"><g id="Layer_12" data-name="Layer 12"><path class="cls-1" d="M340.09,30a42.89,42.89,0,0,0-11.52.47c-10.3,1.45-77,35.75-77.52,36.82L240,73.43s-11.21,5-16.73,7.73c-.64.53-1,1.35-1.76,1.67.05,0,69.84-56.9,74.28-63.27.23-3.32,2.49-6.58.29-10,0,0-3.2-6.4-7.59-6.19h0c-4.06-1.28-7.57.67-11.08,2.08-25.68,10.39-49.1,25-72.43,39.62-14.31,9-29.27,17.16-41.39,29.28-8.14,4.48-15.21,11-24.77,12.75l0,0c-2.87,1.36-5.16,1.3-5.95-2.43,2.23-12.52,6.39-24.52,9.82-36.72,1.68-6,4.71-11.87,2.45-18.4-.39-2.8-11.83-24.71-17.22-27-10-4.35-11.49-3.83-13.09,6.89-5.31,35.71-20.65,67.19-39.59,97.38-12.5,19.91-20,41.59-19,65.56h0c-.34,2.83-.79,19.53.5,25,.15,2.69.31,5.38.46,8.07h0c-9,12.39-17.89,24.92-27.17,37.14C21.34,254,12.09,265.06,3.35,276.49c-1.68,2.19-6.89,5.69.52,7.72h0q31.45,25.6,62.93,51.19c.6,3.72,2.56,3.43,4.4,1.14a109.37,109.37,0,0,0,7.22-10.26c12.84-20.42,25.7-40.83,38.34-61.38,3.53-5.73,7.61-8,14.83-7.89a70.12,70.12,0,0,0,48-17.19h0c13.71-7.95,24.35-19.4,34.88-30.91,6.21-6.79,45.76-19.58,49.31-20.88,9.95-1.89,59.06-12.53,61.75-14.88,3.22-3.43,4.51-7.37,1.05-11.1-4.37-4.71-49.47-4.8-59.14-3.65h0l-12.32.09c-.78-.19-2.19,0-2.18-.75a3.37,3.37,0,0,1,3.14-3.33l6-4.14s0,0,0,.07c9.76,1.49,78.94-35.51,84.23-42.71,4.76-6.48,3-11.31-4.66-13.61-6.64-2-61,8.28-78.34,14.4C278.22,98.23,297,89.05,312.62,75.1c6-4.91,30.47-23.91,34.5-30.61C351.62,37,348.77,31.15,340.09,30ZM190.68,68.6c-.15.53-.29,1-.42,1.52a7.48,7.48,0,0,0-.56-1.73A3.42,3.42,0,0,1,190.68,68.6Zm-5.54,29.88.58-.62.07.09A6.81,6.81,0,0,1,185.14,98.48ZM179,76.92a5.4,5.4,0,0,0-.92-1.69,8.88,8.88,0,0,1,1.76.09C179.54,75.87,179.27,76.39,179,76.92Zm89.36,11.3-.5,1.37c-.06-.06-.08-.13-.14-.19a3.73,3.73,0,0,0-.31-.28Z"/><path class="cls-1" d="M405.65,55.22c4,6.69,28.49,25.7,34.5,30.6,15.61,14,34.4,23.13,49.24,33.32-17.29-6.12-71.69-16.39-78.33-14.4-7.66,2.3-9.42,7.13-4.66,13.61,5.28,7.2,74.47,44.21,84.22,42.72l.05-.07,6,4.13c1.87.34,3.12,1.49,3.14,3.33,0,.79-1.41.56-2.19.75l-12.32-.09h0c-9.67-1.14-54.76-1.06-59.14,3.66-3.45,3.72-2.16,7.66,1.05,11.1,2.7,2.34,51.8,13,61.75,14.88,3.55,1.3,43.1,14.08,49.31,20.87,10.53,11.51,21.18,23,34.89,30.91h0a70.15,70.15,0,0,0,48,17.19c7.22-.13,11.29,2.15,14.82,7.89,12.65,20.54,25.5,40.95,38.35,61.37a106.2,106.2,0,0,0,7.21,10.26c1.85,2.3,3.8,2.58,4.41-1.14l62.93-51.18h0c7.4-2,2.19-5.54.52-7.73-8.75-11.43-18-22.48-26.7-33.94-9.27-12.21-18.13-24.74-27.17-37.14h0c.16-2.69.31-5.37.47-8.06,1.29-5.42.83-22.13.5-25h0c1-24-6.49-45.64-19-65.56C658.6,87.36,643.26,55.88,638,20.18c-1.6-10.73-3.09-11.25-13.09-6.9-5.4,2.35-16.83,24.25-17.23,27.06-2.25,6.53.77,12.43,2.45,18.39,3.44,12.2,7.59,24.2,9.83,36.72-.79,3.74-3.09,3.79-5.95,2.43l0,0c-9.57-1.71-16.63-8.27-24.77-12.75C577.08,73,562.12,64.82,547.81,55.82c-23.33-14.66-46.75-29.23-72.43-39.61-3.5-1.42-7-3.37-11.08-2.09h0c-4.38-.21-7.58,6.19-7.58,6.19-2.2,3.39.06,6.65.28,10,4.44,6.38,74.24,63.25,74.29,63.27-.8-.32-1.12-1.14-1.76-1.67-5.53-2.72-16.72-7.74-16.73-7.72L501.71,78c-.55-1.07-67.22-35.37-77.51-36.82a43,43,0,0,0-11.53-.47C404,41.87,401.14,47.74,405.65,55.22ZM563.07,79.11a7.1,7.1,0,0,0-.57,1.74c-.13-.49-.27-1-.42-1.52A3.57,3.57,0,0,1,563.07,79.11Zm3.9,29.56.07-.09.59.62A5.67,5.67,0,0,1,567,108.67Zm5.93-22.62a8.21,8.21,0,0,1,1.76-.1,5.4,5.4,0,0,0-.92,1.69A17.56,17.56,0,0,0,572.9,86.05Zm-87.57,13.8a1.43,1.43,0,0,0-.44.47c-.16-.44-.33-.88-.51-1.38Z"/></g></g></svg>