<svg xmlns="http://www.w3.org/2000/svg" xmlns:xlink="http://www.w3.org/1999/xlink" viewBox="0 0 512.94 472.81"><defs><style>.cls-1{fill:#f5a688;}.cls-2{fill:url(#radial-gradient);}.cls-3,.cls-5,.cls-6,.cls-7,.cls-8,.cls-9{fill:none;stroke-linecap:round;stroke-miterlimit:10;}.cls-3,.cls-5,.cls-6,.cls-7{stroke:#666;}.cls-3{stroke-width:4.39px;}.cls-4{fill:#333;}.cls-5{stroke-width:10px;}.cls-6{stroke-width:3px;}.cls-7,.cls-8,.cls-9{stroke-width:5px;}.cls-8{stroke:#930;}.cls-9{stroke:#ccc;}.cls-10{fill:#c75169;}.cls-11{fill:#f0e6e7;}</style><radialGradient id="radial-gradient" cx="221.36" cy="95.88" r="54.85" gradientUnits="userSpaceOnUse"><stop offset="0" stop-color="#c12937"/><stop offset="0.12" stop-color="#c5343f"/><stop offset="0.33" stop-color="#d05154"/><stop offset="0.61" stop-color="#e28076"/><stop offset="0.94" stop-color="#fbc0a6"/><stop offset="1" stop-color="#ffccae"/></radialGradient></defs><g id="Layer_2" data-name="Layer 2"><g id="Layer_12" data-name="Layer 12"><path class="cls-1" d="M302.16,235.85c16.43,37.45,34.6,36.26,50.89,38.47,20.66,2.8,19.56,4.12,24.68,9.87,18.56,20.81,15.15,65.49-2.72,88.17-43.14,54.76-238.13-7.69-249.45-60.51-2.74-12.8,54.39-2.81,101.37-58"/><path class="cls-2" d="M174.38,82.48s-11.41,57.87.68,98,35.06,86.74,47.94,95.24,33.17,15,61.82,2.68,40.64-82,40.64-82,11.33-.79,13.68-15.66c1.28-8.12,1.17-22.89,7.45-29.92,2.66-3,.33-18.57-2-21.3-5.4-6.2-10.94-1.7-10.94-1.7s-3.79-51.34-2-56.05S214.19,18.26,174.38,82.48Z"/><ellipse class="cls-3" cx="227.88" cy="239.9" rx="10.85" ry="6.51"/><path class="cls-4" d="M169.55,130.76s-14.94-43.48-9.11-53.32,3.5-45.26,27.68-49.44,25.6-23.15,39.11-21.81,27.39-17.8,50,5.24,23.4-6.1,36.5,16.62,23.75,12.66,22.18,27.48-2.28,72.23-2.28,72.23-5.9,2-8,21.28c-2.7,25.44-11.24-25-25.55-50.64-9.87-17.68-5.34-22.36-27-27.11C255,67.31,183.56,74.14,176,86c-6.69,10.44-3,32.12-6.4,44.76"/><path class="cls-5" d="M169.9,149s8.1-10.07,24.53-8.34"/><path class="cls-5" d="M239.58,135.8s13.27-8,33.78-2.66"/><path class="cls-6" d="M217.15,156.51s4.67,9.41-1.14,33.22c-3.42,14-5.09,23.8,10.33,22.28"/><path class="cls-7" d="M181.24,167.49c1.82,2.79,13.78.6,24.62-8.46"/><path class="cls-7" d="M252.66,153c4.16,4.21,17,5.52,25.84,3.21"/><rect class="cls-7" x="116.84" y="237.09" width="117.19" height="8.17" rx="4.09" transform="translate(-7.43 5.58) rotate(-1.79)"/><line class="cls-8" x1="168.42" y1="241.19" x2="230.58" y2="238.81"/><line class="cls-9" x1="121.1" y1="243.01" x2="168.42" y2="241.19"/><path class="cls-10" d="M290.45,326.12c49.92-9.8,67.3-35.83,73.15-49.9-7.81-5.68-17.55-2.62-17.55-2.62-.58,22-38.43,42.65-81.67,40.73s-56.21-42.21-56.21-42.21-6.11-1.07-15.28,4C198.63,292.56,221.34,339.67,290.45,326.12Z"/><path class="cls-10" d="M502.21,402.42c-5-51.71-43.78-77.59-52.94-86.56-36.49,0-87.28,102.87-60.81,157H512.94S507.21,454.12,502.21,402.42Z"/><path class="cls-10" d="M131.54,305.83C125,309.51,102.1,316,97.29,319.69,83.34,330.46,0,472.81,0,472.81H93.25C89.73,428.58,100.13,365.85,131.54,305.83Z"/><path class="cls-11" d="M388.46,472.81c-2.78-9.44-14.53-52.88,60.81-156.95-26.19-25.64-64.65-35.81-85.67-39.64-5.85,14.07-23.23,40.1-73.15,49.9-69.11,13.55-91.82-33.56-97.56-50-.95.21-1.91.44-2.85.7-11.47,3.2-36.58,16.8-63.36,31.74-31.42,60-45,120-41.43,164.27H388.46Z"/></g></g></svg>