<svg xmlns="http://www.w3.org/2000/svg" viewBox="0 0 292 257.28"><defs><style>.cls-1{fill:#f5a688;}.cls-2{fill:#099;}.cls-3{fill:#366;}.cls-4{fill:#ffccae;}.cls-5{fill:#333;}.cls-6{fill:#666;}.cls-7{fill:#ccc;}.cls-8{fill:#fff;}</style></defs><g id="Layer_2" data-name="Layer 2"><g id="doctor_copy" data-name="doctor copy"><path class="cls-1" d="M169.94,120.05c9.52,21.69,20,21,29.47,22.28,12,1.62,11.32,2.39,14.29,5.71,10.75,12.05,8.78,37.93-1.57,51.06-25,31.71-137.9-4.46-144.45-35-1.59-7.41,31.49-1.62,58.69-33.56"/><path class="cls-2" d="M163.16,172.33c28.92-5.67,39-20.75,42.36-28.89-4.52-3.29-10.16-1.52-10.16-1.52-.34,12.73-22.26,24.69-47.3,23.58s-32.54-24.44-32.54-24.44-3.54-.62-8.85,2.31C110,152.89,123.15,180.18,163.16,172.33Z"/><path class="cls-2" d="M285.79,216.51c-2.9-29.94-25.35-44.92-30.66-50.12-21.12,0-50.54,59.57-35.21,90.89H292S288.68,246.45,285.79,216.51Z"/><path class="cls-3" d="M219.92,257.27c-1.61-5.46-8.42-30.62,35.21-90.89-15.16-14.84-37.43-20.74-49.61-22.95-3.39,8.15-13.45,23.22-42.36,28.89-40,7.85-53.17-19.43-56.5-29-.55.13-1.1.26-1.65.41-6.64,1.85-21.18,9.73-36.69,18.38-18.19,34.76-26,69.51-24,95.13H219.92Z"/><path class="cls-4" d="M94.79,32s-6.61,33.52.39,56.72S115.49,139,123,143.92s19.2,8.67,35.79,1.55S182.28,98,182.28,98s6.56-.46,7.92-9.07c.74-4.7.68-13.26,4.31-17.33,1.54-1.72.19-10.76-1.18-12.33-3.12-3.6-6.33-1-6.33-1s-10.15-19.71-9.12-22.44S117.84-5.15,94.79,32Z"/><path class="cls-5" d="M92,60s-8.65-25.18-5.27-30.88S87.05,18,99.3,10.78a69.69,69.69,0,0,1,26.45-9.27c8.16-1.09,7.21-2.72,25.71-.1C161.9,2.89,171.67,5,179.25,18.17s10.16,12.6,9.25,21.19S187,58.27,187,58.27s-3.42,1.13-4.61,12.32c-1.56,14.73-6.5-14.49-14.79-29.32-5.72-10.24-3.1-13-15.63-15.7-10.48-2.31-51.86,1.66-56.27,8.52C91.82,40.13,94,52.68,92,60Z"/><path class="cls-6" d="M92.19,72.87a2.31,2.31,0,0,1-1.8-3.76c.22-.28,5.6-6.8,16.25-5.68a2.32,2.32,0,0,1-.48,4.61c-8-.85-12,3.79-12.17,4A2.33,2.33,0,0,1,92.19,72.87Z"/><path class="cls-6" d="M132.55,65.24a2.32,2.32,0,0,1-1.2-4.3c.34-.21,8.66-5.11,21.34-1.8a2.32,2.32,0,1,1-1.17,4.48c-10.69-2.79-17.5,1.12-17.79,1.29A2.29,2.29,0,0,1,132.55,65.24Z"/><path class="cls-6" d="M123.19,108c-2.44,0-4.15-.6-5.21-1.83-2.11-2.43-1.3-6.6.07-12.23,3.23-13.21.75-18.6.72-18.65a.89.89,0,0,1,.4-1.16.87.87,0,0,1,1.16.4c.12.23,2.81,5.89-.59,19.82-1.17,4.79-2,8.89-.46,10.69.91,1,2.71,1.42,5.51,1.14a.88.88,0,0,1,.95.79.87.87,0,0,1-.78,1C124.33,108,123.74,108,123.19,108Z"/><path class="cls-6" d="M100.74,83.38a7.21,7.21,0,0,1-1-.06,3,3,0,0,1-2.22-1.25,1.45,1.45,0,0,1,2.35-1.69c1,.5,6.6-.44,12.19-5.11a1.44,1.44,0,1,1,1.85,2.22C109.17,81.48,103.94,83.38,100.74,83.38Z"/><path class="cls-6" d="M149.53,76.81c-4.2,0-8.48-1-10.44-2.94a1.45,1.45,0,0,1,2.06-2c2,2,8.8,2.72,13.56,1.48a1.45,1.45,0,1,1,.73,2.8A23.77,23.77,0,0,1,149.53,76.81Z"/><path class="cls-7" d="M109.28,110.68l-26.08,23,1.91,2.17,26.08-23Z"/><path class="cls-1" d="M84.16,162.59l12.32-10.05c4-4.86,8.92-20.37-3.27-25.35-11.64-4.76-21-10.8-27.09-2.84s-3.1,23-3.1,23Z"/><path class="cls-1" d="M84.16,162.59s-14.17,25-23.28,26.18-27.3-7.92-26.61-8.77C51.54,158.76,63.66,152.72,63,147.34S84.16,162.59,84.16,162.59Z"/><path class="cls-8" d="M113.44,113c1.53-1.53,1.8-3.74.6-4.93s-3.4-.92-4.92.6-1.8,3.73-.61,4.93S111.91,114.52,113.44,113Z"/><path class="cls-6" d="M124.59,132.43a1.45,1.45,0,0,1-1.35-.92,1.43,1.43,0,0,1,.82-1.87c.57-.23,1-.43,1.45-.62,2-.9,3.22-1.34,7.47-1.29a1.45,1.45,0,0,1,0,2.89h0c-3.81,0-4.64.33-6.28,1-.45.2-1,.43-1.56.66A1.61,1.61,0,0,1,124.59,132.43Z"/><path class="cls-2" d="M21.72,257.27H50.38c7.16-19.84,19.92-74.81,28.51-76,7.11-1-14.29-37.1-22.31-33.38s-37.29,53.25-52.4,70.84C-7.16,232,6.53,248,21.72,257.27Z"/></g></g></svg>