<svg xmlns="http://www.w3.org/2000/svg" xmlns:xlink="http://www.w3.org/1999/xlink" viewBox="0 0 492.27 464.29"><defs><style>.cls-1{fill:#f5a688;}.cls-2{fill:#c75169;}.cls-3{fill:#f0e6e7;}.cls-4{fill:url(#radial-gradient);}.cls-5{fill:#333;}.cls-10,.cls-11,.cls-6,.cls-7,.cls-8{fill:none;stroke-linecap:round;stroke-miterlimit:10;}.cls-6,.cls-7,.cls-8{stroke:#666;}.cls-6{stroke-width:10px;}.cls-7{stroke-width:3px;}.cls-10,.cls-11,.cls-8{stroke-width:5px;}.cls-9{fill:#f5b592;}.cls-10{stroke:#c75169;}.cls-11{stroke:#f5a688;}</style><radialGradient id="radial-gradient" cx="242.11" cy="167.37" fx="210.83009563202512" fy="205.99030645047264" r="104.45" gradientUnits="userSpaceOnUse"><stop offset="0" stop-color="#c12937"/><stop offset="0.12" stop-color="#c5343f"/><stop offset="0.33" stop-color="#d05154"/><stop offset="0.61" stop-color="#e28076"/><stop offset="0.94" stop-color="#fbc0a6"/><stop offset="1" stop-color="#ffccae"/></radialGradient></defs><g id="Layer_2" data-name="Layer 2"><g id="Layer_12" data-name="Layer 12"><path class="cls-1" d="M281.49,227.33c16.43,37.45,34.61,36.26,50.9,38.47,20.66,2.8,19.55,4.12,24.68,9.87,18.55,20.81,15.15,65.49-2.73,88.17-43.14,54.76-238.13-7.69-249.44-60.51-2.74-12.8,54.38-2.81,101.36-58"/><path class="cls-2" d="M269.78,317.6c49.93-9.79,67.3-35.83,73.15-49.9-7.81-5.68-17.55-2.62-17.55-2.62-.58,22-38.43,42.65-81.67,40.73s-56.2-42.21-56.2-42.21-6.12-1.07-15.29,4C178,284,200.68,331.15,269.78,317.6Z"/><path class="cls-2" d="M481.54,393.9c-5-51.71-43.78-77.58-52.94-86.56-36.49,0-87.28,102.88-60.81,157H492.27S486.55,445.6,481.54,393.9Z"/><path class="cls-3" d="M367.79,464.29c-2.78-9.44-14.52-52.88,60.81-157C402.41,281.7,364,271.53,342.93,267.7c-5.85,14.07-23.22,40.11-73.15,49.9-69.1,13.55-91.82-33.56-97.56-50-.95.21-1.91.44-2.85.7C157.9,271.48,132.8,285.08,106,300c-31.42,60-44.95,120-41.43,164.27H367.79Z"/><path class="cls-4" d="M157.86,82.48s-11.41,57.87.67,98,35.06,86.74,47.95,95.24,33.16,15,61.81,2.68a54.63,54.63,0,0,0,10.89-8c22.55-20.94,28.41-62.88,29.75-74a15.19,15.19,0,0,0,6-2.26c3.13-2.05,6.55-6,7.73-13.4,1.28-8.12,1.16-22.89,7.44-29.92,2.67-3,.33-18.57-2-21.3-5.41-6.2-10.94-1.7-10.94-1.7s-3.79-51.34-2-56.05S197.67,18.26,157.86,82.48Z"/><path class="cls-5" d="M153,130.76s-14.94-43.48-9.11-53.32,3.5-45.26,27.68-49.44,25.6-23.15,39.12-21.81,27.38-17.8,50,5.24,23.4-6.1,36.5,16.62,23.75,12.66,22.18,27.48-2.27,72.23-2.27,72.23-5.91,2-8,21.28c-2.7,25.44-11.23-25-25.54-50.64-9.88-17.68-5.35-22.36-27-27.11-18.1-4-89.55,2.85-97.17,14.71-6.69,10.44-3,32.12-6.4,44.76"/><path class="cls-6" d="M154.9,151.72s5.47-11.71,21.84-13.94"/><path class="cls-6" d="M230.61,134.54s15.26-2.77,32.52,9.53"/><path class="cls-7" d="M200.61,156.51s4.67,9.41-1.15,33.22c-3.42,14-5.09,23.8,10.33,22.28"/><path class="cls-8" d="M164.69,167.49c3.59.2,8.22,1.45,16.37-3.66"/><path class="cls-8" d="M244.21,156.51c8.59,2.15,9.31,1.11,14.8.34"/><path class="cls-2" d="M.24,372.58c-4.77,88.85,64.34,91.71,64.34,91.71C68.16,413.41,80.23,360.36,106,300c-37.08,12.79-62.76,17.19-76.5,27C10.32,340.6,1.11,356.35.24,372.58Z"/><path class="cls-8" d="M202.2,245.05c5.17-2,6.92-3.13,14.48-3.13s18.79,6.45,4.15,12.38-29.42-4.35-18.63-9.25"/><path class="cls-9" d="M282.88,265.27a17.69,17.69,0,0,0-4.76-.85c-4.34-.34-34.73,7.69-35.05,8.08L238,274s-5,1-7.55,1.65c-.31.16-.52.46-.87.52,0,0,33.72-17,36.12-19.19.39-1.34,1.61-2.47,1-4.06,0,0-.73-2.91-2.54-3.22h0c-1.55-.89-3.16-.41-4.73-.14-11.45,1.93-22.35,5.78-33.22,9.68-6.67,2.39-13.53,4.38-19.59,8.25-3.73,1.1-7.22,3.14-11.29,3v0c-1.3.29-2.23.06-2.22-1.53,2-4.93,4.83-9.47,7.34-14.15,1.22-2.29,3-4.43,2.66-7.31.09-1.18-2.61-11.18-4.61-12.63-3.7-2.68-4.36-2.6-6,1.64-5.4,14.14-14.52,25.64-25,36.29-6.91,7-11.93,15.22-13.69,25.13h0c-.39,1.12-2.08,7.92-2,10.25l-.54,3.35h0c-4.82,4.26-9.58,8.59-14.47,12.75-4.6,3.91-9.38,7.59-14,11.48-.89.75-3.34,1.71-.49,3.21h0l21.14,26.63c-.08,1.58.74,1.64,1.71.87a46.37,46.37,0,0,0,3.87-3.55c7.1-7.2,14.21-14.4,21.24-21.66,2-2,3.83-2.6,6.78-1.9a29.38,29.38,0,0,0,21.19-2.71h0c6.33-2,11.72-5.74,17.07-9.5,3.15-2.22,20.5-3.89,22.07-4.1,4.24.13,25.3.2,26.62-.52,1.62-1.11,2.51-2.61,1.43-4.45-1.37-2.32-19.82-6.42-23.88-6.83h0l-5.05-1.07c-.3-.15-.9-.18-.83-.51a1.42,1.42,0,0,1,1.59-1.08l2.84-1.14a0,0,0,0,1,0,0c3.86,1.49,35.52-7.42,38.34-9.89,2.53-2.22,2.24-4.35-.68-6-2.54-1.41-25.74-2.12-33.37-1.17,7-2.83,15.52-4.9,23.16-9.2,2.9-1.46,14.64-7,16.89-9.41C287,269.18,286.33,266.52,282.88,265.27Zm-64.64,2.32-.31.59a2.81,2.81,0,0,0-.08-.76A1.71,1.71,0,0,1,218.24,267.59Zm-5,11.73.3-.2,0,0Zm-.55-9.38a2.27,2.27,0,0,0-.23-.77,3.3,3.3,0,0,1,.71.2A6.05,6.05,0,0,0,212.72,269.94Zm35.55,12.69c-.11.19-.22.36-.33.52a.36.36,0,0,0,0-.09.5.5,0,0,0-.1-.14Z"/><path class="cls-2" d="M167.64,356.7c11.75,3.92,6.18-68.38-9.08-68.75S60.15,342,23.33,357.68C-22.38,377.2,32,460.84,54.67,460.73,65.17,460.68,150.6,351,167.64,356.7Z"/><path class="cls-10" d="M81.69,281.29s4-14.41,18.15-12.43,23.92-7.46,23.92-7.46"/><path class="cls-10" d="M84.59,292.67s4-14.41,18.15-12.43,23.93-7.46,23.93-7.46"/><path class="cls-10" d="M77.44,268.18s4-14.41,18.15-12.43,23.92-7.46,23.92-7.46"/><path class="cls-10" d="M423.8,275.66s-5.33-14-19.25-10.65S380,259.86,380,259.86"/><path class="cls-10" d="M422,287.27s-5.33-14-19.25-10.65-24.52-5.16-24.52-5.16"/><path class="cls-10" d="M426.78,262.21s-5.33-14-19.25-10.65S383,246.4,383,246.4"/><path class="cls-11" d="M193.26,107.56s4.3,10.72-1.77,14.3"/><path class="cls-11" d="M208.16,104.85s-1.34,11.47,5.45,13.33"/></g></g></svg>