<svg xmlns="http://www.w3.org/2000/svg" viewBox="0 0 544.05 464.29"><defs><style>.cls-1{fill:#f5a688;}.cls-2{fill:#c75169;}.cls-3{fill:#f0e6e7;}.cls-4{fill:#ffccae;}.cls-5{fill:#333;}.cls-6,.cls-7,.cls-8,.cls-9{fill:none;stroke-linecap:round;stroke-miterlimit:10;}.cls-6,.cls-7,.cls-8{stroke:#666;}.cls-6{stroke-width:10px;}.cls-7{stroke-width:3px;}.cls-8,.cls-9{stroke-width:5px;}.cls-9{stroke:#c75169;}</style></defs><g id="Layer_2" data-name="Layer 2"><g id="Layer_12" data-name="Layer 12"><path class="cls-1" d="M333.27,227.33c16.43,37.45,34.61,36.26,50.9,38.47,20.66,2.8,19.55,4.12,24.68,9.87,18.55,20.81,15.15,65.49-2.72,88.17C363,418.6,168,356.15,156.68,303.33c-2.74-12.8,54.38-2.81,101.36-58"/><path class="cls-2" d="M321.56,317.6c49.93-9.79,67.3-35.83,73.15-49.9-7.81-5.68-17.55-2.62-17.55-2.62-.58,22-38.43,42.65-81.67,40.73s-56.2-42.21-56.2-42.21-6.12-1.07-15.29,4C229.74,284,252.46,331.15,321.56,317.6Z"/><path class="cls-2" d="M533.32,393.9c-5-51.71-43.78-77.58-52.94-86.56-36.48,0-87.28,102.88-60.81,157H544.05S538.33,445.6,533.32,393.9Z"/><path class="cls-3" d="M419.57,464.29c-2.78-9.44-14.52-52.88,60.81-157-26.19-25.64-64.64-35.81-85.67-39.64-5.85,14.07-23.22,40.11-73.15,49.9-69.1,13.55-91.82-33.56-97.56-50-.95.21-1.9.44-2.85.7-11.47,3.2-36.57,16.8-63.36,31.74-31.41,60-44.95,120-41.43,164.27H419.57Z"/><path class="cls-4" d="M209.64,82.48s-11.41,57.87.67,98,35.07,86.74,47.95,95.24,33.16,15,61.82,2.68a55,55,0,0,0,10.88-8c22.55-20.94,28.42-62.88,29.75-74a15.19,15.19,0,0,0,6-2.26c3.13-2.05,6.55-6,7.73-13.4,1.28-8.12,1.17-22.89,7.44-29.92,2.67-3,.33-18.57-2-21.3-5.4-6.2-10.94-1.7-10.94-1.7s-3.79-51.34-2-56.05S249.45,18.26,209.64,82.48Z"/><path class="cls-5" d="M204.78,130.76s-14.94-43.48-9.11-53.32,3.5-45.26,27.68-49.44S249,4.85,262.47,6.19s27.38-17.8,50,5.24,23.41-6.1,36.5,16.62,23.75,12.66,22.18,27.48-2.27,72.23-2.27,72.23-5.91,2-8,21.28c-2.7,25.44-11.23-25-25.54-50.64-9.88-17.68-5.34-22.36-27-27.11-18.1-4-89.55,2.85-97.17,14.71-6.69,10.44-3,32.12-6.4,44.76"/><path class="cls-6" d="M206.68,151.72s5.47-11.71,21.84-13.94"/><path class="cls-6" d="M282.39,134.54s15.26-2.77,32.52,9.53"/><path class="cls-7" d="M252.39,156.51s4.67,9.41-1.15,33.22c-3.42,14-5.09,23.8,10.33,22.28"/><path class="cls-8" d="M216.47,167.49c3.59.2,8.22,1.45,16.37-3.66"/><path class="cls-8" d="M296,156.51c8.6,2.15,9.31,1.11,14.81.34"/><path class="cls-2" d="M7.41,217.82c-42.11,70.13,109,246.47,109,246.47C119.94,413.41,132,360.36,157.79,300c-37.08,12.79-50.62-7.95-58.57-17.43-2.79-3.33-7.6-14.58,3-29.95"/><path class="cls-1" d="M184.1,158.85l26.77-6.1c10-4.44,29.41-24.7,14.37-41.75C210.86,94.72,201,78.18,185.48,85.87s-22.4,33.19-22.4,33.19Z"/><path class="cls-1" d="M184.1,158.85S143,186.75,128,181.54s-36.19-33.18-34.46-34c43-19.64,66.37-19.69,69.52-28.51S184.1,158.85,184.1,158.85Z"/><path class="cls-2" d="M164.31,180c12.17,2.27-3.3-68.57-18.47-66.84s-90,67.05-124.33,87.69c-42.59,25.62,22.81,101,45.22,97.75C77.13,297.08,146.64,176.68,164.31,180Z"/><path class="cls-9" d="M133.47,281.29s4-14.41,18.15-12.43,23.93-7.46,23.93-7.46"/><path class="cls-9" d="M136.37,292.67s4-14.41,18.15-12.43,23.93-7.46,23.93-7.46"/><path class="cls-9" d="M129.22,268.18s4-14.41,18.15-12.43,23.93-7.46,23.93-7.46"/><path class="cls-9" d="M475.58,275.66s-5.33-14-19.25-10.65-24.53-5.15-24.53-5.15"/><path class="cls-9" d="M473.77,287.27s-5.33-14-19.25-10.65S430,271.46,430,271.46"/><path class="cls-9" d="M478.56,262.21s-5.32-14-19.25-10.65-24.52-5.16-24.52-5.16"/><path class="cls-8" d="M268.46,241.92c-8.86-.08-9.31,1.1-14.47,3.13"/></g></g></svg>