<svg xmlns="http://www.w3.org/2000/svg" viewBox="0 0 630.09 472.81"><defs><style>.cls-1{fill:#f5a688;}.cls-2{fill:#ffccae;}.cls-3{fill:#603913;}.cls-4,.cls-5,.cls-6{fill:none;stroke-linecap:round;stroke-miterlimit:10;}.cls-4{stroke:#603913;stroke-width:10px;}.cls-5,.cls-6{stroke:#666;}.cls-5{stroke-width:3px;}.cls-6{stroke-width:5px;}.cls-7{fill:#c75169;}.cls-8{fill:#f0e6e7;}</style></defs><g id="Layer_2" data-name="Layer 2"><g id="Layer_12" data-name="Layer 12"><path class="cls-1" d="M371.17,235.85c20.18,37.45,42.51,36.26,62.52,38.47,25.38,2.8,24,4.12,30.32,9.87,22.79,20.81,18.61,65.49-3.35,88.17-53,54.76-292.52-7.69-306.42-60.51-3.36-12.8,66.81-2.81,124.52-58"/><path class="cls-2" d="M244.43,82.48s-11.4,57.87.68,98-33.9,81.07,47.95,95.24c15.21,2.63,32.38,12.95,61.81,2.68,63-22,40.64-82,40.64-82s11.34-.79,13.69-15.66c1.28-8.12,1.16-22.89,7.44-29.92,2.67-3,.33-18.57-2-21.3-5.41-6.2-10.94-1.7-10.94-1.7s-3.79-51.34-2-56.05S284.25,18.26,244.43,82.48Z"/><path class="cls-3" d="M239.6,130.76s-14.93-43.48-9.11-53.32S234,32.18,258.17,28s25.6-23.15,39.12-21.81,27.38-17.8,50,5.24,23.4-6.1,36.49,16.62,23.76,12.66,22.18,27.48-2.27,72.23-2.27,72.23-5.9,2-8,21.28c-2.71,25.44-11.24-25-25.55-50.64-9.88-17.68-5.34-22.36-27-27.11-18.11-4-89.56,2.85-97.17,14.71-6.7,10.44-3,32.12-6.41,44.76"/><path class="cls-4" d="M241.32,151.47s5.74-11.58,22.17-13.42"/><path class="cls-4" d="M318.91,129.82s15.23-2.93,32.62,9.18"/><path class="cls-5" d="M287.21,156.51s4.67,9.41-1.14,33.22c-3.43,14-5.09,23.8,10.33,22.28"/><path class="cls-6" d="M276.64,162.18c-1.87-2.75-8.58-4.1-19.25,5.16"/><path class="cls-6" d="M341.74,156c-4.52-3.81-10.82-3.51-19.41-.41"/><path class="cls-7" d="M356.79,326.12c61.33-9.8,82.67-35.83,89.85-49.9-9.59-5.68-21.56-2.62-21.56-2.62-.74,22.95-73.86,41.68-100.32,40.73-53.12-1.91-69-42.21-69-42.21s-7.51-1.07-18.77,4C244,292.56,271.9,339.67,356.79,326.12Z"/><path class="cls-7" d="M616.91,402.42c-6.15-51.71-53.78-77.59-65-86.56-44.82,0-107.21,102.87-74.7,157H630.09S623.06,454.12,616.91,402.42Z"/><path class="cls-7" d="M161.59,305.83c-8.11,3.68-36.17,10.15-42.07,13.86C102.37,330.46,0,472.81,0,472.81H114.55C110.22,428.58,123,365.85,161.59,305.83Z"/><path class="cls-8" d="M477.18,472.81c-3.41-9.44-17.84-52.88,74.7-156.95-32.17-25.64-79.41-35.81-105.24-39.64-7.18,14.07-28.52,40.1-89.85,49.9C271.9,339.67,244,292.56,237,276.1c-1.17.21-2.35.44-3.51.7-14.09,3.2-44.92,16.8-77.83,31.74-38.59,60-55.22,120-50.89,164.27H477.18Z"/><path class="cls-6" d="M306.1,247.1c-4.52-3.81-10.82-3.52-19.41-.41"/></g></g></svg>