<svg xmlns="http://www.w3.org/2000/svg" xmlns:xlink="http://www.w3.org/1999/xlink" viewBox="0 0 492.52 485.85"><defs><style>.cls-1{fill:#f5a688;}.cls-2{fill:#c75169;}.cls-3{fill:#f0e6e7;}.cls-4{fill:url(#radial-gradient);}.cls-5{fill:#333;}.cls-10,.cls-11,.cls-6,.cls-7,.cls-8{fill:none;stroke-linecap:round;stroke-miterlimit:10;}.cls-6,.cls-7,.cls-8{stroke:#666;}.cls-6{stroke-width:10px;}.cls-7{stroke-width:3px;}.cls-10,.cls-11,.cls-8{stroke-width:5px;}.cls-9{fill:#f5b592;}.cls-10{stroke:#c75169;}.cls-11{stroke:#f5a688;}.cls-12{fill:#f96;}</style><radialGradient id="radial-gradient" cx="242.56" cy="167.37" fx="211.27166007543" fy="205.99030645047256" r="104.45" gradientUnits="userSpaceOnUse"><stop offset="0" stop-color="#c12937"/><stop offset="0.12" stop-color="#c5343f"/><stop offset="0.33" stop-color="#d05154"/><stop offset="0.61" stop-color="#e28076"/><stop offset="0.94" stop-color="#fbc0a6"/><stop offset="1" stop-color="#ffccae"/></radialGradient></defs><g id="Layer_2" data-name="Layer 2"><g id="Layer_12" data-name="Layer 12"><path class="cls-1" d="M281.93,227.33c16.43,37.45,34.61,36.26,50.9,38.47,20.66,2.8,19.55,4.12,24.68,9.87,18.55,20.81,15.15,65.49-2.72,88.17-43.15,54.76-238.14-7.69-249.45-60.51-2.74-12.8,54.38-2.81,101.36-58"/><path class="cls-2" d="M270.22,317.6c49.93-9.79,67.3-35.83,73.15-49.9-7.81-5.68-17.55-2.62-17.55-2.62-.58,22-38.43,42.65-81.67,40.73S188,263.6,188,263.6s-6.12-1.07-15.28,4C178.4,284,201.12,331.15,270.22,317.6Z"/><path class="cls-2" d="M491.89,426.1c7.45-45.53-53.69-109.78-62.85-118.76-36.48,0-87.28,102.88-60.81,157l90.16-10.92S483.5,477.36,491.89,426.1Z"/><path class="cls-3" d="M368.23,464.29c-2.78-9.44-14.52-52.88,60.81-157-26.19-25.64-64.64-35.81-85.67-39.64-5.85,14.07-23.22,40.11-73.15,49.9-69.1,13.55-91.82-33.56-97.55-50-1,.21-1.91.44-2.86.7-11.47,3.2-36.57,16.8-63.36,31.74C75,360,61.5,420.06,65,464.29H368.23Z"/><path class="cls-4" d="M158.3,82.48s-11.41,57.87.67,98,35.07,86.74,47.95,95.24,33.17,15,61.82,2.68a55,55,0,0,0,10.88-8c22.55-20.94,28.42-62.88,29.75-74a15.19,15.19,0,0,0,6-2.26c3.13-2.05,6.55-6,7.73-13.4,1.28-8.12,1.17-22.89,7.45-29.92,2.66-3,.32-18.57-2.05-21.3-5.4-6.2-10.94-1.7-10.94-1.7s-3.79-51.34-2-56.05S198.11,18.26,158.3,82.48Z"/><path class="cls-5" d="M153.44,130.76s-14.94-43.48-9.11-53.32S147.83,32.18,172,28s25.6-23.15,39.12-21.81,27.38-17.8,50,5.24,23.41-6.1,36.5,16.62,23.75,12.66,22.18,27.48-2.27,72.23-2.27,72.23-5.9,2-8,21.28c-2.7,25.44-11.23-25-25.54-50.64-9.88-17.68-5.34-22.36-27-27.11-18.11-4-89.56,2.85-97.18,14.71-6.69,10.44-3,32.12-6.4,44.76"/><path class="cls-6" d="M155.34,151.72s5.47-11.71,21.84-13.94"/><path class="cls-6" d="M231.05,134.54s15.26-2.77,32.53,9.53"/><path class="cls-7" d="M201.05,156.51s4.67,9.41-1.15,33.22c-3.42,14-5.09,23.8,10.33,22.28"/><path class="cls-8" d="M165.13,167.49c3.59.2,8.22,1.45,16.37-3.66"/><path class="cls-8" d="M244.65,156.51c8.6,2.15,9.31,1.11,14.81.34"/><path class="cls-2" d="M.68,372.58c-8.42,110.59,64.39,61.85,64.39,61.85,3.58-50.88,15.6-74.07,41.38-134.41C69.38,312.81,43.69,317.21,30,327,10.76,340.6,1.91,356.38.68,372.58Z"/><path class="cls-8" d="M202.65,245.05c5.16-2,6.91-3.13,14.47-3.13"/><path class="cls-9" d="M319.11,383.37a18.15,18.15,0,0,0-3.76-3c-3.65-2.39-34.14-10-34.61-9.81l-5.19-1.12s-4.92-1.52-7.41-2.19c-.35,0-.68.16-1,0,0,0,37.74,1.36,40.9.58,1-1,2.6-1.39,2.84-3.06,0,0,.76-2.9-.68-4h0c-.92-1.53-2.57-1.88-4.07-2.4-11-3.83-22.37-5.7-33.77-7.53-7-1.12-14-2.68-21.14-2.21-3.8-.83-7.84-.72-11.33-2.82h0c-1.28-.36-2-1-1.21-2.41,4.17-3.33,8.79-6,13.25-8.86,2.17-1.41,4.75-2.44,5.85-5.12.65-1,3.1-11.05,2.05-13.29-2-4.13-2.57-4.38-6-1.44-11.54,9.79-25.07,15.47-39.38,19.76-9.44,2.82-17.79,7.58-24.1,15.42h0c-.88.8-5.64,5.93-6.73,8l-2.09,2.67h0c-6.27,1.41-12.52,2.91-18.82,4.2-5.91,1.21-11.88,2.14-17.8,3.32-1.13.23-3.74-.11-2,2.58h0l5.7,33.52c-.84,1.34-.14,1.79,1.07,1.58a45.26,45.26,0,0,0,5.11-1.24c9.69-2.89,19.38-5.77,29.05-8.75,2.69-.83,4.61-.43,6.85,1.61a29.42,29.42,0,0,0,19.87,7.84h0c6.52,1.29,13,.62,19.54-.1,3.83-.42,19.83,6.47,21.31,7.05,3.66,2.15,22.08,12.36,23.58,12.37,2-.2,3.45-1.08,3.39-3.21-.07-2.7-14.26-15.19-17.63-17.5h0l-3.91-3.37c-.19-.28-.7-.59-.48-.84a1.41,1.41,0,0,1,1.91-.18l3.05.36s0,0,0,0c2.67,3.16,34.7,10.61,38.36,9.8,3.28-.72,4.06-2.73,2.29-5.57-1.55-2.46-21.53-14.26-28.67-17.11,7.49.89,15.95,3.19,24.72,3.11,3.25.11,16.22.88,19.34-.12C320.8,388.77,321.52,386.13,319.11,383.37Zm-57.77-29.11-.55.36a2.67,2.67,0,0,0,.3-.7A1.36,1.36,0,0,1,261.34,354.26Zm-10,7.88.36,0v.05A2.11,2.11,0,0,1,251.34,362.14Zm4-8.48a2.25,2.25,0,0,0,.18-.79,3.69,3.69,0,0,1,.53.52A5.84,5.84,0,0,0,255.37,353.66Zm25,28.25-.53.29s0-.06,0-.1,0-.11,0-.17Z"/><path class="cls-2" d="M174.07,408c8.41,9.11,38.37-56.93,25.17-64.61S87,343.25,47.15,339.28C-2.31,334.36,5.06,433.87,25,444.68,34.18,449.69,161.89,394.75,174.07,408Z"/><path class="cls-10" d="M82.13,281.29s4-14.41,18.15-12.43,23.93-7.46,23.93-7.46"/><path class="cls-10" d="M85,292.67s4-14.41,18.16-12.43,23.92-7.46,23.92-7.46"/><path class="cls-10" d="M77.88,268.18s4-14.41,18.15-12.43S120,248.29,120,248.29"/><path class="cls-10" d="M424.24,275.66s-5.33-14-19.25-10.65-24.53-5.15-24.53-5.15"/><path class="cls-10" d="M422.43,287.27s-5.33-14-19.25-10.65-24.52-5.16-24.52-5.16"/><path class="cls-10" d="M427.22,262.21s-5.32-14-19.25-10.65-24.52-5.16-24.52-5.16"/><path class="cls-11" d="M193.7,107.56s4.3,10.72-1.77,14.3"/><path class="cls-11" d="M208.6,104.85s-1.33,11.47,5.46,13.33"/><path class="cls-9" d="M188.17,381.56c2.91,1.52,15.81,3,19,3.44,8.63,1.58,17.35.77,24.89,1.18-7.52,1.58-29.24,9.77-31.18,11.93-2.24,2.5-1.82,4.61,1.3,5.89,3.46,1.43,36.3-.42,39.47-3.08v0l3.06.16a1.41,1.41,0,0,1,1.85.51c.17.28-.38.5-.62.74L241.54,405h0c-3.71,1.69-19.83,11.56-20.37,14.2-.43,2.09.9,3.22,2.8,3.75,1.47.25,21.37-6.65,25.35-8.14,1.55-.31,18.5-4.36,22.2-3.29,6.28,1.83,12.59,3.61,19.23,3.46h0a29.32,29.32,0,0,0,20.92-4.31c2.56-1.62,4.52-1.69,7-.41,9,4.6,18.06,9.1,27.11,13.61a45.62,45.62,0,0,0,4.82,2.1c1.16.42,1.93.09,1.33-1.37q5.69-16,11.36-32.05h0c2.21-2.34-.42-2.46-1.49-2.87-5.63-2.19-11.35-4.13-17-6.33-6-2.35-11.89-4.9-17.83-7.37h0l-1.59-3c-.72-2.22-4.53-8.1-5.26-9h0c-4.87-8.8-12.28-14.93-21.09-19.33-13.37-6.67-25.73-14.6-35.41-26.22-2.92-3.49-3.56-3.35-6.19.39-1.42,2-.74,12.35-.27,13.44.62,2.83,3,4.28,4.89,6.05,3.89,3.61,8,7,11.53,11,.53,1.51-.28,2-1.61,2.17v0c-3.8,1.47-7.76.67-11.65.84-7-1.7-14.12-1.35-21.2-1.45-11.55-.17-23.11-.27-34.57,1.61-1.57.26-3.25.33-4.42,1.67h0c-1.62.88-1.37,3.87-1.37,3.87-.05,1.69,1.47,2.37,2.28,3.51,3,1.31,40.36,6.45,40.39,6.45-.36.05-.65-.17-1-.22-2.57.23-7.67.88-7.67.88l-5.31.22c-.43-.26-31.78,2-35.78,3.72a18.11,18.11,0,0,0-4.22,2.35C184.67,377.15,184.93,379.87,188.17,381.56Zm61.56-25.77a3.15,3.15,0,0,0,.18.74l-.48-.45A1.38,1.38,0,0,1,249.73,355.79Zm7.85,9.72v0l.34.09A2,2,0,0,1,257.58,365.51Zm-2.81-9.39a3.26,3.26,0,0,1,.61-.41,2,2,0,0,0,0,.8Zm-28.34,24a.69.69,0,0,0-.05.17s0,.06,0,.1l-.48-.39Z"/><path class="cls-12" d="M188.17,381.56a25.35,25.35,0,0,0,5.34,1.42c1.82.34,3.65.62,5.47.89,3.65.54,7.34.89,11,1.5a92.64,92.64,0,0,0,11,.59c3.69,0,7.39-.07,11.09.11l.78,0-.77.18c-3.27.76-6.48,1.81-9.67,2.89s-6.35,2.26-9.49,3.49-6.26,2.5-9.28,4a19,19,0,0,0-2.17,1.23l-.46.37-.39.48a5.6,5.6,0,0,0-.64,1,2.42,2.42,0,0,0,0,2.25,4,4,0,0,0,1.79,1.54,6.06,6.06,0,0,0,2.37.56c.83.07,1.67.1,2.51.12,1.68,0,3.36,0,5.05,0,3.36-.09,6.73-.28,10.09-.52s6.71-.56,10-1c1.66-.21,3.33-.45,5-.75.83-.16,1.64-.33,2.44-.54a7.39,7.39,0,0,0,2.17-.85l-.15.32v0l0-.44.47,0,3.06.14-.18,0a2.29,2.29,0,0,1,.95-.17,1.82,1.82,0,0,1,1,.34,2.09,2.09,0,0,1,.36.37,1.06,1.06,0,0,1,.18.32.69.69,0,0,1-.1.57,1.5,1.5,0,0,1-.41.38l-.25.19,0,0-.06,0-4.41,2.69-.11.07h-.19l.25,0c-2.21,1.09-4.38,2.42-6.51,3.73s-4.25,2.69-6.32,4.12a54.54,54.54,0,0,0-5.91,4.56,6.51,6.51,0,0,0-1.1,1.27.81.81,0,0,0-.1.25,2.65,2.65,0,0,0-.05.38,2.19,2.19,0,0,0,.07.73,2.93,2.93,0,0,0,2.32,1.79h-.07a.6.6,0,0,1,.22,0c.08,0,.24-.05.36-.07s.5-.11.77-.19c.53-.13,1-.28,1.58-.44,1.06-.31,2.11-.64,3.17-1,2.1-.68,4.21-1.38,6.3-2.1,4.2-1.44,8.4-2.91,12.53-4.45l.05,0,.09,0c3.38-.77,6.85-1.56,10.31-2.23,1.73-.33,3.47-.64,5.23-.9a34.06,34.06,0,0,1,5.42-.46c.24,0,.47,0,.72,0l.8.13c.49.1.86.23,1.3.35l2.53.7c1.68.45,3.37.87,5.06,1.22a43.54,43.54,0,0,0,10.2,1.05l.45.08c-.55-.14-.15,0-.26-.07H291l.13,0,.26,0,.52.07c.35.05.69.08,1,.11.67.07,1.35.08,2,.11a30.51,30.51,0,0,0,4.06-.21,27.79,27.79,0,0,0,7.79-2.17,29.39,29.39,0,0,0,3.6-1.89,10,10,0,0,1,4.39-1.81,8.27,8.27,0,0,1,4.75,1.13l3.79,1.89,15.15,7.56,7.58,3.78c1.25.62,2.49,1.2,3.76,1.71l.95.36a2.27,2.27,0,0,0,.62.19s0,0-.21.08a.81.81,0,0,0-.42.55c0,.2,0-.06-.12-.27l-.22-.42.2-.56L361.94,392l.65,1.75.1.06.77-2.78-1.2.45a2.77,2.77,0,0,0,.46-.62s0,0,0,.05,0,.15,0,.28a1,1,0,0,0,.15.27s.08.06.05.05a3.91,3.91,0,0,0-.8-.27c-.22-.07-.43-.11-.75-.23l-.64-.23L355.81,389,346,385.3c-3.29-1.24-6.5-2.67-9.75-4l-9.72-4.05.42.11h0l-.77-.08-.36-.68-1.59-3-.05-.1,0-.13a16.63,16.63,0,0,0-1-2.14c-.4-.74-.83-1.48-1.27-2.22s-.89-1.47-1.36-2.19-1-1.49-1.38-2.07l-.34-.46.05-.53h0l.17.81a44.21,44.21,0,0,0-16-16.36c-1.66-1-3.37-1.92-5.14-2.82s-3.56-1.84-5.32-2.81c-3.51-1.93-7-4-10.31-6.24A89.43,89.43,0,0,1,264,320.49l-1.92-2.26a10.37,10.37,0,0,0-.93-.94,1.52,1.52,0,0,0-.58-.34s-.28.08-.57.38a10.07,10.07,0,0,0-.87,1l-.43.58-.21.29a.81.81,0,0,0-.15.24l-.1.17-.08.28a3.52,3.52,0,0,0-.15.62,29.76,29.76,0,0,0-.32,5.72c0,1,.06,2,.13,2.93,0,.48.07,1,.12,1.44l.1.7.05.32a.79.79,0,0,1,0,.17l.06.19c.32,1.65,1.57,3,3.06,4.24.75.63,1.54,1.35,2.24,2l2.19,2a104.89,104.89,0,0,1,8.58,8.43l.12.14.05.14a3.78,3.78,0,0,1,.2,1.08,2,2,0,0,1-.46,1.32,2.33,2.33,0,0,1-1.07.67,4.57,4.57,0,0,1-1,.19l-.93.1,0-.93v0l1.11.78a16.54,16.54,0,0,1-6.06.93c-2,0-3.95-.18-5.85-.11h-.11l-.1,0a65.12,65.12,0,0,0-14.93-1.49l-15.19-.21c-5.06,0-10.11,0-15.15.39-2.52.17-5,.41-7.54.74l-3.75.54a4.81,4.81,0,0,0-3.18,1.38l.08-.21-.18.28a2.4,2.4,0,0,0-1,1.51,6.86,6.86,0,0,0-.19,2v0h0a2.37,2.37,0,0,0,.71,1.72,19.56,19.56,0,0,1,1.48,1.6l-.12-.1a41.39,41.39,0,0,0,4.91,1.12l5,.9q5,.82,10.1,1.59l10.11,1.51,10.1,1.45,1.13.16-1.1.15c-.43.06-.75-.18-1-.21h0c-1.28.11-2.56.25-3.84.4l-1.92.22-1,.12-.47.06-.24,0h-.18s.08-.07.06-.11l-.14.12-5.3.2h-.07c-.4,0-1,0-1.48,0l-1.54.07-3.08.19-6.15.45q-6.15.48-12.29,1.12-3.08.33-6.13.75a21.29,21.29,0,0,0-6,1.44c-1.84.86-3.76,1.87-4.84,3.66a3,3,0,0,0-.08,2.94A5.27,5.27,0,0,0,188.17,381.56Zm0,0a5.33,5.33,0,0,1-2.26-2,3,3,0,0,1,.07-3c1.07-1.81,3-2.84,4.83-3.7a10.76,10.76,0,0,1,2.94-.95c1-.23,2-.36,3-.53q3.06-.43,6.12-.78c4.09-.46,8.19-.84,12.29-1.19l6.16-.47,3.08-.21,1.54-.08a10.8,10.8,0,0,1,1.61,0l-.06,0,5.3-.23-.13.12a.27.27,0,0,1,.18-.13h.18l.24,0,.48-.06,1-.12,1.92-.23c1.28-.15,2.56-.3,3.84-.42h0c.39.06.68.27.94.21l0,.31-10.17-1.4-10.12-1.45-10.12-1.55c-1.69-.26-3.37-.54-5.05-.83a41,41,0,0,1-5.06-1.1l-.07,0-.06-.08a18.57,18.57,0,0,0-1.46-1.53,3.47,3.47,0,0,1-.66-1,2.88,2.88,0,0,1-.24-1.19v0a7.1,7.1,0,0,1,.18-2.25,3.08,3.08,0,0,1,1.34-2l-.19.28.09-.2a4.29,4.29,0,0,1,1.68-1.18,9,9,0,0,1,1.92-.48l3.76-.59q3.78-.54,7.58-.84c5.07-.41,10.15-.56,15.22-.59l15.2,0a66.15,66.15,0,0,1,15.27,1.34l-.21,0c2-.1,4,.05,5.91,0a15.3,15.3,0,0,0,5.48-.89l1.13-.45,0,1.23v0l-.9-.84a1.72,1.72,0,0,0,1-.31s.05-.08.05-.22a1.84,1.84,0,0,0-.12-.54l.17.27a108.66,108.66,0,0,0-8.55-8.18l-2.23-2c-.75-.7-1.44-1.3-2.22-1.95a16.27,16.27,0,0,1-2.26-2.22,7.72,7.72,0,0,1-1.5-3.05l.06.18a4.58,4.58,0,0,1-.16-.54l-.08-.41-.11-.79c-.06-.51-.12-1-.16-1.52-.08-1-.15-2-.17-3a31.63,31.63,0,0,1,.28-6.18,5.54,5.54,0,0,1,.2-.83l.13-.44c.07-.16.16-.33.25-.49a1.93,1.93,0,0,1,.24-.39l.22-.31.45-.63a11.92,11.92,0,0,1,1.08-1.26l.34-.31.43-.31a4.49,4.49,0,0,1,.54-.26,2.68,2.68,0,0,1,2.77.69,14.69,14.69,0,0,1,1.19,1.16l2,2.26a89.26,89.26,0,0,0,17.85,15.26c3.28,2.17,6.68,4.18,10.15,6.07q2.6,1.41,5.25,2.74c1.77.89,3.61,1.83,5.34,2.9a47,47,0,0,1,17.08,17.28l.21.38,0,.43h0l-.29-1c.61.82,1,1.51,1.55,2.27s1,1.5,1.41,2.26.91,1.53,1.34,2.33a18,18,0,0,1,1.21,2.6l-.09-.23,1.59,3-1.13-.75h.22l.2.09,9.71,4c3.25,1.31,6.45,2.72,9.74,3.94l9.85,3.66,4.92,1.85.59.22c.09,0,.31.1.51.16a6,6,0,0,1,1.64.65,2.9,2.9,0,0,1,.55.48,2.28,2.28,0,0,1,.46.84,2.47,2.47,0,0,1,.07.93,3.8,3.8,0,0,1-.19.67,5.34,5.34,0,0,1-1.05,1.52l-.44-2.33.11.06,1.07.56L364.7,393l-11.44,32,0-1a3.32,3.32,0,0,1,.27,1.79,1.94,1.94,0,0,1-1,1.39,2.3,2.3,0,0,1-1.25.25,5,5,0,0,1-1.41-.36l-1-.4c-1.35-.55-2.67-1.18-3.94-1.82l-7.56-3.82-15.13-7.64-3.78-1.91a5.86,5.86,0,0,0-3.34-.89,4.87,4.87,0,0,0-1.62.47,16.91,16.91,0,0,0-1.72,1,30.73,30.73,0,0,1-3.92,2,30.36,30.36,0,0,1-8.49,2.25,30.78,30.78,0,0,1-4.4.17c-.73,0-1.46-.06-2.19-.15-.36,0-.73-.07-1.08-.12l-.53-.08-.26,0-.13,0h-.12l-.29-.07.44.08a46.1,46.1,0,0,1-10.7-1.23c-1.74-.39-3.46-.84-5.16-1.32l-2.54-.74c-.41-.11-.87-.27-1.24-.35l-.5-.09c-.18,0-.4,0-.59,0a34.25,34.25,0,0,0-5.08.37c-1.72.23-3.44.52-5.16.83-3.45.62-6.84,1.34-10.32,2.09l.14,0c-4.21,1.51-8.41,2.92-12.64,4.31-2.12.7-4.23,1.38-6.36,2-1.07.33-2.13.65-3.21.95-.54.16-1.09.3-1.64.44l-.85.19c-.15,0-.26.06-.46.08s-.41,0-.61,0h-.07a6.15,6.15,0,0,1-1.93-.9,3.4,3.4,0,0,1-1.32-1.89,3.49,3.49,0,0,1-.09-1.15c0-.19.05-.37.07-.55a2.24,2.24,0,0,1,.25-.63,7.71,7.71,0,0,1,1.37-1.58,54.74,54.74,0,0,1,6.12-4.61c2.1-1.41,4.25-2.76,6.42-4.07s4.33-2.58,6.66-3.7l.09,0h.17l-.31.07,4.45-2.63-.09.07a3,3,0,0,1,.37-.29,1.16,1.16,0,0,0,.18-.14.3.3,0,0,0,0,.2c.05.12,0,0,0,0a.81.81,0,0,0-.18-.19,1.06,1.06,0,0,0-1.06-.06l-.09,0h-.09l-3.07-.18.45-.42v.24l-.16.11a7.38,7.38,0,0,1-2.51,1c-.83.21-1.67.37-2.51.52-1.67.29-3.35.51-5,.7-3.36.38-6.72.64-10.09.85s-6.75.34-10.12.39c-1.69,0-3.38,0-5.07,0-.85,0-1.69-.06-2.54-.14-.43-.05-.85-.09-1.28-.18a3.29,3.29,0,0,1-.65-.17l-.59-.26a4.49,4.49,0,0,1-2-1.73,2.86,2.86,0,0,1,.05-2.61,6.65,6.65,0,0,1,.69-1.11l.42-.49.52-.43a18.88,18.88,0,0,1,2.23-1.25c3-1.48,6.18-2.73,9.32-3.95s6.33-2.37,9.52-3.44,6.42-2.11,9.72-2.86l0,.22c-3.69-.2-7.38-.13-11.08-.17a88.85,88.85,0,0,1-11.06-.65c-3.65-.62-7.32-1-11-1.55-1.83-.27-3.66-.56-5.47-.91A25.26,25.26,0,0,1,188.17,381.56Z"/><path class="cls-12" d="M249.73,355.79a.87.87,0,0,1,.41-.33.8.8,0,0,1,.46,0,1.22,1.22,0,0,1,.69.61l1.37,2.67-3.76-1.15c-.23-.07-.31-.28-.23-.68l-.13-1.5a1.22,1.22,0,0,1,.88-.13A.4.4,0,0,1,249.73,355.79Zm0,0a.65.65,0,0,0,0,.8.61.61,0,0,0,.57.17l-.13-1.5c.4-.1.64,0,.73.22L248.53,357a.66.66,0,0,0,.52-.14,1.21,1.21,0,0,0,.36-.38A2.34,2.34,0,0,0,249.73,355.79Z"/><path class="cls-12" d="M257.58,365.51a.29.29,0,0,1-.4-.09l.51-.34a6.63,6.63,0,0,1,.4-.81c.1-.14.18-.19.23-.15l5.12,3.85-5.6-.92a.82.82,0,0,1-.63-.52.81.81,0,0,1,0-.49A1.15,1.15,0,0,1,257.58,365.51Zm0,0a1.71,1.71,0,0,0,.55-.5.9.9,0,0,0,.17-.47.44.44,0,0,0-.28-.47l-.48,2.93c-.06,0-.11-.07-.12-.24a4.17,4.17,0,0,1,.06-.9l.51-.35A.32.32,0,0,0,257.58,365.51Z"/><path class="cls-12" d="M254.77,356.12c-.31,0-.48-.26-.48-.61a1.53,1.53,0,0,1,.44-1l2,1.4c.21,0,.21.08.05.31l-1.46,2.1-.6-.71a1.32,1.32,0,0,1-.35-.85A.66.66,0,0,1,254.77,356.12Zm0,0a1.64,1.64,0,0,0,1.09-.28.76.76,0,0,0,.3-.46l-2.07,1.39a1.09,1.09,0,0,1,0-1.3l2,1.4a.59.59,0,0,0-.16-.55A1.13,1.13,0,0,0,254.77,356.12Z"/><path class="cls-12" d="M226.43,380.16a.47.47,0,0,1,.55.17l.09.13.1.05.18.07-1.59.62c-.47.26-.69.21-.76,0l-1-3.66,2.18,1.13a1.11,1.11,0,0,1,.56.66.7.7,0,0,1,0,.45A.82.82,0,0,1,226.43,380.16Zm0,0a2,2,0,0,0-.58.36,1,1,0,0,0-.28.38.53.53,0,0,0,0,.54l1.2-2.52c.25,0,.35.22.2.73l-1.6.62.19-.06.11,0,.12.07A.62.62,0,0,0,226.43,380.16Z"/><path class="cls-2" d="M326.18,424c-9.84,7.52-28-62.67-13.69-68S423.09,375.17,463,378.1c49.57,3.64,25.22,100.4,3.77,107.64C456.84,489.1,340.46,413,326.18,424Z"/></g></g></svg>