<svg xmlns="http://www.w3.org/2000/svg" xmlns:xlink="http://www.w3.org/1999/xlink" viewBox="0 0 486.76 574.78"><defs><style>.cls-1{fill:#f5a688;}.cls-2{fill:#c75169;}.cls-3{fill:#f0e6e7;}.cls-4{fill:url(#radial-gradient);}.cls-5{fill:#333;}.cls-10,.cls-11,.cls-13,.cls-6,.cls-7,.cls-8{fill:none;stroke-linecap:round;stroke-miterlimit:10;}.cls-6,.cls-7,.cls-8{stroke:#666;}.cls-6{stroke-width:10px;}.cls-7{stroke-width:3px;}.cls-10,.cls-11,.cls-8{stroke-width:5px;}.cls-9{fill:#f5b592;}.cls-10{stroke:#c75169;}.cls-11,.cls-13{stroke:#f5a688;}.cls-12{fill:#f96;}.cls-13{stroke-width:6.08px;}</style><radialGradient id="radial-gradient" cx="246.68" cy="167.37" fx="215.40088294514052" fy="205.9903064504715" r="104.45" gradientUnits="userSpaceOnUse"><stop offset="0" stop-color="#8dc63f"/><stop offset="0.16" stop-color="#98c74a"/><stop offset="0.44" stop-color="#b5c866"/><stop offset="0.81" stop-color="#e3cb93"/><stop offset="1" stop-color="#ffccae"/></radialGradient></defs><g id="Layer_2" data-name="Layer 2"><g id="Layer_12" data-name="Layer 12"><path class="cls-1" d="M286.06,227.33c16.43,37.45,34.61,36.26,50.9,38.47,20.66,2.8,19.55,4.12,24.68,9.87,18.55,20.81,15.15,65.49-2.72,88.17-43.15,54.76-238.14-7.69-249.45-60.51-2.74-12.8,54.38-2.81,101.36-58"/><path class="cls-2" d="M274.35,317.6c49.93-9.79,67.3-35.83,73.15-49.9C339.69,262,330,265.08,330,265.08c-.58,22-38.43,42.65-81.67,40.73s-56.2-42.21-56.2-42.21-6.12-1.07-15.29,4C182.53,284,205.25,331.15,274.35,317.6Z"/><path class="cls-2" d="M486.11,393.9c-5-51.71-43.78-77.58-52.94-86.56-36.48,0-87.28,102.88-60.81,157l93.42-10.14S491.12,445.6,486.11,393.9Z"/><path class="cls-3" d="M372.36,464.29c-2.78-9.44-14.52-52.88,60.81-157C407,281.7,368.53,271.53,347.5,267.7c-5.85,14.07-23.22,40.11-73.15,49.9-69.1,13.55-91.82-33.56-97.56-50-.95.21-1.9.44-2.85.7-11.47,3.2-36.57,16.8-63.36,31.74-31.41,60-44.95,120-41.43,164.27H372.36Z"/><path class="cls-4" d="M162.43,82.48s-11.41,57.87.67,98,35.07,86.74,48,95.24,33.16,15,61.81,2.68a54.63,54.63,0,0,0,10.89-8c22.55-20.94,28.42-62.88,29.75-74a15.19,15.19,0,0,0,6-2.26c3.13-2.05,6.55-6,7.73-13.4,1.28-8.12,1.16-22.89,7.44-29.92,2.67-3,.33-18.57-2-21.3-5.4-6.2-10.94-1.7-10.94-1.7s-3.79-51.34-2-56.05S202.24,18.26,162.43,82.48Z"/><path class="cls-5" d="M157.57,130.76s-14.94-43.48-9.11-53.32S152,32.18,176.14,28s25.6-23.15,39.12-21.81,27.38-17.8,50,5.24,23.41-6.1,36.5,16.62,23.75,12.66,22.18,27.48-2.27,72.23-2.27,72.23-5.91,2-8,21.28c-2.7,25.44-11.23-25-25.54-50.64-9.88-17.68-5.34-22.36-27-27.11C243,67.31,171.59,74.14,164,86c-6.69,10.44-3,32.12-6.4,44.76"/><path class="cls-6" d="M159.47,151.72s5.47-11.71,21.84-13.94"/><path class="cls-6" d="M235.18,134.54s15.26-2.77,32.52,9.53"/><path class="cls-7" d="M205.18,156.51s4.67,9.41-1.15,33.22c-3.42,14-5.09,23.8,10.33,22.28"/><path class="cls-8" d="M169.26,167.49c3.59.2,8.22,1.45,16.37-3.66"/><path class="cls-8" d="M248.78,156.51c8.6,2.15,9.31,1.11,14.8.34"/><path class="cls-2" d="M5.59,448.24c52.09,0,63.56,16.05,63.56,16.05C72.73,413.41,84.8,360.36,110.58,300,73.5,312.81,35.48,353.3,26,366.73,12.33,385.93-10.66,448.24,5.59,448.24Z"/><path class="cls-8" d="M206.78,245.05c5.16-2,6.91-3.13,14.47-3.13"/><path class="cls-9" d="M283,563.65a18.27,18.27,0,0,0-1.39-4.63c-1.66-4-22.54-27.52-23-27.63q-1.83-1.92-3.65-3.86s-3.2-4-4.89-6c-.28-.21-.64-.26-.86-.55,0,0,30.39,22.43,33.44,23.57,1.37-.26,2.93.32,4.07-.93,0,0,2.27-2,1.73-3.72h0c.09-1.78-1.06-3-2-4.28-6.89-9.35-15.25-17.34-23.63-25.28-5.15-4.87-10-10.09-16.2-13.75-2.67-2.84-6.07-5-7.76-8.73h0c-.85-1-1.07-2,.36-2.67,5.32-.39,10.63,0,15.94.16,2.59.06,5.3.68,7.72-.92,1.1-.45,8.8-7.38,9.19-9.81.72-4.52.36-5.07-4.17-4.6-15,1.57-29.43-1.38-43.66-5.92-9.38-3-19-3.78-28.59-.87h0c-1.18.16-8,1.71-10.08,2.8l-3.23,1h0c-6-2.37-12-4.67-17.91-7.16-5.56-2.33-11-4.94-16.56-7.3-1.07-.45-3-2.2-3.08,1h0l-14.22,30.89c-1.45.63-1.13,1.39,0,1.9a42.86,42.86,0,0,0,4.92,1.86c9.63,3.09,19.26,6.18,28.92,9.17,2.69.84,4,2.25,4.74,5.2a29.43,29.43,0,0,0,12,17.69h0c4.66,4.73,10.41,7.86,16.18,10.94,3.41,1.81,12.72,16.53,13.62,17.84,1.8,3.84,11.25,22.67,12.48,23.52,1.73,1,3.46,1.06,4.61-.73,1.46-2.27-3.2-20.59-4.68-24.39h0l-1.32-5c0-.33-.24-.88.08-1a1.42,1.42,0,0,1,1.68.93l2.31,2,0,0c.42,4.12,22.65,28.35,26.13,29.74,3.12,1.26,4.9,0,5-3.31.12-2.9-9.72-23.92-14-30.3,5.69,5,11.37,11.64,18.66,16.52,2.62,1.93,12.89,9.88,16,10.82C281.37,569.07,283.46,567.3,283,563.65ZM251.77,507h-.66a3.56,3.56,0,0,0,.64-.41A1.19,1.19,0,0,1,251.77,507Zm-12.71.86.31.18,0,0A1.94,1.94,0,0,1,239.06,507.88Zm8.12-4.73a2.11,2.11,0,0,0,.59-.55,3.26,3.26,0,0,1,.14.73A7.05,7.05,0,0,0,247.18,503.15Zm4.73,37.46-.62-.06.07-.08a1.09,1.09,0,0,0,.08-.15Z"/><path class="cls-2" d="M149.42,502.09c1.8,12.26,63.8-25.35,57.24-39.13S114,399.52,83.4,373.76c-38.05-32-88.13,54.32-77.81,74.48C10.38,457.59,146.81,484.31,149.42,502.09Z"/><path class="cls-10" d="M86.26,281.29s4-14.41,18.15-12.43,23.92-7.46,23.92-7.46"/><path class="cls-10" d="M89.16,292.67s4-14.41,18.15-12.43,23.93-7.46,23.93-7.46"/><path class="cls-10" d="M82,268.18s4-14.41,18.15-12.43,23.92-7.46,23.92-7.46"/><path class="cls-10" d="M428.37,275.66s-5.33-14-19.25-10.65-24.53-5.15-24.53-5.15"/><path class="cls-10" d="M426.56,287.27s-5.33-14-19.25-10.65-24.52-5.16-24.52-5.16"/><path class="cls-10" d="M431.35,262.21s-5.33-14-19.25-10.65-24.52-5.16-24.52-5.16"/><path class="cls-11" d="M197.83,107.56s4.3,10.72-1.77,14.3"/><path class="cls-11" d="M185.77,208.49s4.3,10.72-1.76,14.3"/><path class="cls-11" d="M212.73,104.85s-1.33,11.47,5.46,13.33"/><path class="cls-9" d="M182.53,545c3.22-.61,14.26-7.45,17.06-9.09,7.76-4.1,14.11-10.15,20.28-14.49-4.93,5.9-16.9,25.78-17.09,28.68-.21,3.34,1.43,4.74,4.67,3.82,3.6-1,28.24-22.82,29.07-26.87l0,0,2.51-1.77a1.4,1.4,0,0,1,1.77-.74c.31.11,0,.63,0,1l-1.83,4.83h0c-1.86,3.63-8.41,21.37-7.19,23.77,1,1.9,2.69,2,4.51,1.21,1.32-.72,12.66-18.46,14.86-22.09,1-1.21,11.82-14.89,15.39-16.34,6.06-2.45,12.12-5,17.24-9.19h0a29.4,29.4,0,0,0,13.76-16.35c1-2.86,2.49-4.12,5.26-4.67,9.92-2,19.81-4.05,29.71-6.12a44.29,44.29,0,0,0,5.09-1.34c1.17-.39,1.56-1.11.19-1.89q-5.46-16.11-10.93-32.2h0c.28-3.21-1.86-1.67-3-1.33-5.77,1.77-11.46,3.79-17.23,5.54-6.16,1.86-12.37,3.51-18.56,5.26h0l-3.1-1.36c-1.94-1.3-8.58-3.56-9.73-3.84h0c-9.28-3.89-18.89-4.11-28.54-2.11-14.62,3-29.23,4.48-44,1.35-4.45-.93-4.87-.42-4.62,4.14.14,2.46,7.08,10.15,8.12,10.72,2.24,1.83,5,1.51,7.59,1.72,5.29.43,10.62.55,15.86,1.49,1.35.86,1,1.77.09,2.7v0c-2.07,3.51-5.68,5.33-8.63,7.88-6.53,3-11.92,7.68-17.54,12-9.16,7-18.31,14.11-26.13,22.68-1.07,1.18-2.35,2.27-2.44,4.06h0c-.72,1.69,1.33,3.88,1.33,3.88,1,1.36,2.62.94,3.95,1.34,3.16-.81,35.69-19.94,35.71-20-.25.27-.62.27-.92.45-1.87,1.77-5.48,5.44-5.47,5.45l-4,3.46c-.5.05-23.71,21.25-25.78,25.08a18.25,18.25,0,0,0-1.86,4.46C177.05,543.67,178.94,545.65,182.53,545Zm32.36-58.37a3.13,3.13,0,0,0,.6.47l-.66-.06A1.51,1.51,0,0,1,214.89,486.6Zm12.18,2.77,0,0,.33-.14A1.92,1.92,0,0,1,227.07,489.37Zm-8-5.63a3.38,3.38,0,0,1,.22-.7,2.32,2.32,0,0,0,.53.61A6.66,6.66,0,0,0,219.05,483.74Zm-7.36,36.43.07.16s0,0,.05.08h-.61Z"/><path class="cls-12" d="M182.53,545a25,25,0,0,0,5.07-2.2q2.46-1.29,4.84-2.69c3.21-1.83,6.32-3.84,9.55-5.62a90.42,90.42,0,0,0,9-6.39c2.91-2.27,5.76-4.63,8.77-6.77l.65-.46-.5.62c-2.1,2.62-4,5.44-5.8,8.26s-3.59,5.71-5.29,8.61-3.37,5.85-4.82,8.88a19,19,0,0,0-.94,2.31l-.13.58v.62a6.15,6.15,0,0,0,.14,1.21,2.41,2.41,0,0,0,1.36,1.79,3.94,3.94,0,0,0,2.36.11,5.91,5.91,0,0,0,2.2-1c.7-.46,1.38-1,2-1.46,1.34-1,2.65-2.07,4-3.14,2.59-2.15,5.12-4.38,7.6-6.66s4.92-4.59,7.29-7c1.17-1.2,2.33-2.42,3.43-3.68.56-.63,1.09-1.27,1.59-1.93a7.12,7.12,0,0,0,1.17-2l.08.34,0,0-.29-.33.38-.28,2.5-1.78-.13.13a2.41,2.41,0,0,1,.64-.72,1.65,1.65,0,0,1,1-.34,1.81,1.81,0,0,1,.52.06,1.2,1.2,0,0,1,.33.14.68.68,0,0,1,.28.51,1.68,1.68,0,0,1-.09.55,1.38,1.38,0,0,0-.07.31v0l0,.06-1.8,4.84-.06.15-.14.09.17-.19c-1.05,2.22-1.93,4.61-2.8,7s-1.67,4.75-2.41,7.15a53.59,53.59,0,0,0-1.81,7.24,7,7,0,0,0-.08,1.68.73.73,0,0,0,.08.25,2.33,2.33,0,0,0,.2.34,2.53,2.53,0,0,0,.5.53,3,3,0,0,0,2.93,0l-.06,0a1.14,1.14,0,0,1,.15-.16,2.47,2.47,0,0,0,.23-.28c.17-.2.34-.4.5-.62.32-.44.65-.87,1-1.33.64-.89,1.26-1.81,1.88-2.73,1.24-1.84,2.45-3.69,3.65-5.56,2.4-3.72,4.79-7.48,7.08-11.25l0-.05.05-.06c2.18-2.71,4.41-5.47,6.71-8.14,1.16-1.34,2.33-2.66,3.55-4a35.29,35.29,0,0,1,4-3.72c.19-.14.37-.29.58-.43L266,516c.45-.22.83-.35,1.24-.53l2.42-1c1.6-.69,3.18-1.41,4.73-2.18a43.8,43.8,0,0,0,8.66-5.49l.4-.22-.25.11h0l.05,0,.11-.07.23-.13.45-.27c.31-.17.59-.36.87-.55.58-.36,1.12-.77,1.67-1.17a30,30,0,0,0,3.06-2.68,27.56,27.56,0,0,0,4.76-6.53,27.94,27.94,0,0,0,1.65-3.71,10.2,10.2,0,0,1,2.33-4.15,8.35,8.35,0,0,1,4.44-2.05l4.14-.87L323.55,481l8.29-1.73c1.37-.28,2.7-.59,4-1l1-.3a2.54,2.54,0,0,0,.61-.24s0,0-.13.19a.87.87,0,0,0,0,.7c.12.16,0,0-.25-.14l-.43-.2-.2-.56-11-32.17,1.6,1,.11,0L326,443.83l-.66,1.1a2.79,2.79,0,0,0,0-.77s0,0,0,0,.09.11.18.21a.71.71,0,0,0,.28.12s.11,0,.08,0a3.75,3.75,0,0,0-.8.28c-.22.09-.41.18-.73.29l-.65.21-5,1.62-10,3.21c-3.34,1.07-6.74,1.93-10.11,2.91l-10.14,2.84.39-.17h0l-.65.42-.71-.31-3.09-1.37-.11-.05-.11-.07a15.92,15.92,0,0,0-2.11-1.06c-.77-.34-1.57-.65-2.37-1s-1.61-.6-2.42-.88-1.68-.57-2.37-.76l-.56-.16-.29-.44.64.53A44.11,44.11,0,0,0,252,447.71c-1.94.21-3.83.58-5.78,1s-3.93.77-5.91,1.09c-4,.66-7.95,1.18-12,1.49A89.3,89.3,0,0,1,204.23,450l-2.91-.58a9.46,9.46,0,0,0-1.32-.16,1.53,1.53,0,0,0-.66.09,1.08,1.08,0,0,0-.21.65,9.22,9.22,0,0,0-.06,1.33l0,.71v.37a.85.85,0,0,0,0,.28,1.62,1.62,0,0,1,0,.19l.1.28a5.68,5.68,0,0,0,.27.57,29.1,29.1,0,0,0,3.29,4.69c.61.76,1.26,1.5,1.91,2.22.33.36.66.71,1,1.06l.5.48.24.22.14.11.16.11c1.28,1.1,3.08,1.37,5,1.44,1,0,2,.11,3,.2l3,.22a103.58,103.58,0,0,1,12,1.3l.18,0,.12.09a3.2,3.2,0,0,1,.83.72,2,2,0,0,1,.46,1.31,2.34,2.34,0,0,1-.43,1.19,4.47,4.47,0,0,1-.65.76l-.67.66-.56-.75h0l1.36-.08a16.47,16.47,0,0,1-4.19,4.48c-1.57,1.24-3.21,2.31-4.65,3.54l-.08.07-.1,0A65.43,65.43,0,0,0,208.72,486l-12.06,9.25c-4,3.1-7.91,6.3-11.65,9.69-1.87,1.7-3.7,3.44-5.45,5.26l-2.62,2.74a4.86,4.86,0,0,0-1.64,3.05l-.06-.21,0,.33a2.34,2.34,0,0,0,.14,1.82,6.27,6.27,0,0,0,1.1,1.7l0,0h0a2.39,2.39,0,0,0,1.62.92,18.34,18.34,0,0,1,2.16.33h-.16a43.62,43.62,0,0,0,4.55-2.16c1.51-.8,3-1.6,4.51-2.42q4.47-2.47,8.91-5l8.88-5.08,8.82-5.12,1-.57-.77.8c-.3.32-.71.32-.95.47l0,0c-.93.88-1.85,1.79-2.76,2.69L211,505.81l-.68.68-.34.35-.17.17-.08.08,0,.05a.1.1,0,0,0,0-.13l0,.18-4,3.45-.06,0c-.32.24-.76.62-1.14.93l-1.16,1-2.3,2-4.56,4.17q-4.53,4.18-9,8.5-2.21,2.14-4.34,4.38a21.16,21.16,0,0,0-3.79,4.82c-.92,1.81-1.8,3.8-1.53,5.87a3,3,0,0,0,1.75,2.36A5.3,5.3,0,0,0,182.53,545Zm0,0a5.26,5.26,0,0,1-3-.19,3,3,0,0,1-1.77-2.37c-.28-2.08.6-4.08,1.5-5.9a11.26,11.26,0,0,1,1.72-2.56c.65-.8,1.36-1.54,2.06-2.3q2.13-2.24,4.32-4.4c2.93-2.9,5.91-5.74,8.92-8.55l4.53-4.19,2.29-2.07,1.16-1a10.82,10.82,0,0,1,1.27-1l-.07,0,4-3.47,0,.18a.23.23,0,0,1,.06-.21l0-.05.08-.08.17-.18.34-.34.68-.69,1.36-1.37c.91-.91,1.82-1.82,2.76-2.71v0h0c.34-.2.7-.22.87-.43l.22.23-8.85,5.2-8.85,5.13-8.9,5.05c-1.48.84-3,1.66-4.48,2.48a41.75,41.75,0,0,1-4.65,2.27l-.07,0-.09,0c-.63-.18-1.35-.17-2.1-.3a3.63,3.63,0,0,1-1.12-.35A2.91,2.91,0,0,1,176,520l0,0a7.17,7.17,0,0,1-1.25-1.88,3,3,0,0,1-.17-2.36l0,.33,0-.21a4.23,4.23,0,0,1,.59-2,8.54,8.54,0,0,1,1.21-1.56l2.58-2.79c1.75-1.85,3.57-3.63,5.43-5.36,3.72-3.47,7.62-6.73,11.58-9.9l12-9.4a66.34,66.34,0,0,1,12.81-8.41l-.17.11c1.52-1.32,3.16-2.43,4.65-3.63a14.82,14.82,0,0,0,3.75-4.09l.61-1.06.75,1v0l-1.22-.1a1.75,1.75,0,0,0,.56-.84.4.4,0,0,0-.1-.21,2.46,2.46,0,0,0-.43-.35l.3.12a106.3,106.3,0,0,0-11.78-1.13l-3-.18c-1-.08-1.94-.13-2.95-.16a15.87,15.87,0,0,1-3.15-.34,7.66,7.66,0,0,1-3.07-1.47l.16.11a4.58,4.58,0,0,1-.46-.33l-.32-.27-.57-.55c-.37-.36-.73-.73-1.07-1.1-.69-.74-1.37-1.49-2-2.27a32.51,32.51,0,0,1-3.6-5,6.13,6.13,0,0,1-.37-.77l-.16-.43c0-.17-.08-.36-.11-.54a2.24,2.24,0,0,1-.05-.45l0-.38,0-.78a10.4,10.4,0,0,1,.06-1.65l.07-.46.15-.51a5.36,5.36,0,0,1,.26-.54,3.73,3.73,0,0,1,.45-.52,3.22,3.22,0,0,1,2.16-.65,10.42,10.42,0,0,1,1.65.18l3,.54a89.52,89.52,0,0,0,23.47.92c3.92-.33,7.83-.85,11.72-1.52,1.94-.33,3.88-.71,5.82-1.11s4-.8,6-1a47.08,47.08,0,0,1,24.12,3l.39.17.24.36h0l-.84-.6c1,.27,1.76.54,2.62.83s1.67.58,2.51.89,1.66.64,2.49,1a18.15,18.15,0,0,1,2.57,1.29l-.22-.12,3.1,1.36-1.35.11h0l.18-.12.21-.06,10.1-2.89c3.35-1,6.74-1.87,10.07-2.95l10-3.22,5-1.59.6-.2a3.87,3.87,0,0,0,.5-.19,5.43,5.43,0,0,1,1.7-.5,2.58,2.58,0,0,1,.72,0,2.13,2.13,0,0,1,.88.38,2.25,2.25,0,0,1,.63.68,3.21,3.21,0,0,1,.27.65,5.52,5.52,0,0,1,.12,1.84l-1.79-1.56.12,0,1.19-.22.41,1.2,10.85,32.22-.63-.75a3.26,3.26,0,0,1,1.32,1.24,2,2,0,0,1,.08,1.71,2.33,2.33,0,0,1-.83,1,4.71,4.71,0,0,1-1.33.59l-1.05.32c-1.4.41-2.82.73-4.22,1l-8.3,1.69L307.48,487l-4.15.84a5.86,5.86,0,0,0-3.17,1.37,4.71,4.71,0,0,0-1,1.37,16.55,16.55,0,0,0-.75,1.82,31.4,31.4,0,0,1-1.84,4,29.94,29.94,0,0,1-5.27,7,32.33,32.33,0,0,1-3.34,2.86c-.6.42-1.19.86-1.82,1.24-.31.19-.62.4-.92.57l-.47.27-.23.13-.11.07-.06,0,0,0h0c-.12.06.25-.1-.28.13l.4-.21a46.47,46.47,0,0,1-9.16,5.66c-1.61.77-3.24,1.48-4.87,2.16l-2.45,1c-.4.16-.86.32-1.19.49l-.45.24c-.16.1-.32.23-.48.34a34.43,34.43,0,0,0-3.76,3.45c-1.2,1.24-2.38,2.54-3.54,3.84-2.32,2.63-4.54,5.3-6.8,8l.08-.12c-2.36,3.79-4.79,7.5-7.25,11.22-1.23,1.85-2.47,3.7-3.73,5.53-.64.92-1.27,1.83-1.94,2.74-.32.45-.66.9-1,1.35-.16.22-.36.45-.55.67a3,3,0,0,1-.31.35,5.85,5.85,0,0,1-.47.4h0l-.05,0a6.1,6.1,0,0,1-2.07.49,3.34,3.34,0,0,1-2.21-.67,3.44,3.44,0,0,1-.78-.84c-.12-.16-.19-.32-.29-.48a2.08,2.08,0,0,1-.19-.65,7.79,7.79,0,0,1,.09-2.08,56.36,56.36,0,0,1,1.95-7.41c.78-2.42,1.63-4.8,2.52-7.17s1.8-4.72,2.94-7l.06-.12.12-.07h0l-.2.24,1.86-4.81,0,.11a1.82,1.82,0,0,1,.11-.46c0-.11,0-.23,0-.22a.41.41,0,0,0,.11.17c.11.06,0,0,0,0a1.27,1.27,0,0,0-.26,0,1.1,1.1,0,0,0-.88.61l0,.08-.07.06-2.52,1.75.09-.61,0,0,.13.16-.06.18a7.44,7.44,0,0,1-1.35,2.33c-.53.68-1.08,1.33-1.65,2-1.14,1.26-2.32,2.47-3.52,3.67-2.4,2.37-4.88,4.67-7.4,6.92s-5.08,4.45-7.7,6.58c-1.31,1.06-2.63,2.12-4,3.13-.69.5-1.37,1-2.09,1.46a11,11,0,0,1-1.1.65,4.3,4.3,0,0,1-.62.27l-.63.16a4.41,4.41,0,0,1-2.61-.14,2.83,2.83,0,0,1-1.57-2.08,6.4,6.4,0,0,1-.15-1.3l0-.65.15-.65a19,19,0,0,1,1-2.37c1.47-3,3.16-6,4.87-8.88s3.5-5.77,5.34-8.6,3.73-5.62,5.86-8.25l.15.16c-3,2.12-5.87,4.46-8.8,6.72a89,89,0,0,1-9.08,6.35c-3.25,1.77-6.36,3.76-9.58,5.58-1.6.92-3.22,1.82-4.85,2.67A25.07,25.07,0,0,1,182.53,545Z"/><path class="cls-12" d="M214.89,486.6a.72.72,0,0,1,.12-.51.71.71,0,0,1,.35-.29,1.18,1.18,0,0,1,.92.05L219,487.1l-3.67,1.42c-.22.09-.41,0-.6-.39l-1-1.1a1.19,1.19,0,0,1,.61-.64A.4.4,0,0,1,214.89,486.6Zm0,0a.65.65,0,0,0,.51.62A.63.63,0,0,0,216,487l-1-1.1c.26-.33.5-.4.72-.28l-.93,2.68a.68.68,0,0,0,.31-.43,1.38,1.38,0,0,0,.06-.53A2.9,2.9,0,0,0,214.89,486.6Z"/><path class="cls-12" d="M227.07,489.37a.3.3,0,0,1-.36.18l.18-.59a4.58,4.58,0,0,1-.18-.88c0-.18,0-.25.08-.26l6.41-.15-5,2.75a.83.83,0,0,1-.82,0,.79.79,0,0,1-.31-.38A1.24,1.24,0,0,1,227.07,489.37Zm0,0a1.64,1.64,0,0,0,.12-.73.84.84,0,0,0-.15-.47.44.44,0,0,0-.52-.2l1.44,2.6s-.12,0-.24-.12a4.49,4.49,0,0,1-.51-.74l.18-.59A.31.31,0,0,0,227.07,489.37Z"/><path class="cls-12" d="M219.05,483.74a.54.54,0,0,1-.76-.18,1.59,1.59,0,0,1-.25-1l2.41-.11c.16-.13.21-.07.23.21l.15,2.55-.91-.18a1.42,1.42,0,0,1-.81-.45A.68.68,0,0,1,219.05,483.74Zm0,0a1.65,1.65,0,0,0,.68-.89.75.75,0,0,0,0-.55l-.76,2.37a1.08,1.08,0,0,1-.83-1l2.41-.11a.59.59,0,0,0-.48-.34A1.1,1.1,0,0,0,219.05,483.74Z"/><path class="cls-12" d="M211.69,520.17a.49.49,0,0,1,.54-.21l.15,0,.11,0,.19-.06-.87,1.48c-.21.49-.41.59-.62.44l-3-2.26,2.41-.46a1.12,1.12,0,0,1,.85.17.73.73,0,0,1,.26.36A.76.76,0,0,1,211.69,520.17Zm0,0a2.08,2.08,0,0,0-.23.64,1.07,1.07,0,0,0,0,.48.55.55,0,0,0,.35.41l-.62-2.72c.2-.15.41-.05.61.44L211,520.9a1.63,1.63,0,0,1,.11-.17l.07-.09h.13A.61.61,0,0,0,211.69,520.17Z"/><path class="cls-2" d="M317.13,492.75c-3.06,12-60.82-31.84-52.86-44.87S363,394.41,396.14,372c41.16-27.85,82,63.19,69.64,82.17C460.05,463,321.58,475.34,317.13,492.75Z"/><path class="cls-13" d="M258,199.72c-2.94,2.68-2.68,18.85,7.24,19.9"/></g></g></svg>