<svg xmlns="http://www.w3.org/2000/svg" viewBox="0 0 499.06 484.77"><defs><style>.cls-1{fill:#f5a688;}.cls-2{fill:#c75169;}.cls-3{fill:#f0e6e7;}.cls-4{fill:#ffccae;}.cls-5{fill:#666;}.cls-6{fill:#333;}.cls-7,.cls-8,.cls-9{fill:none;stroke:#666;stroke-linecap:round;stroke-miterlimit:10;}.cls-7{stroke-width:10px;}.cls-8{stroke-width:3px;}.cls-9{stroke-width:5px;}.cls-10{fill:#f5b592;}.cls-11{fill:#a7a9ac;}</style></defs><g id="Layer_2" data-name="Layer 2"><g id="Layer_12" data-name="Layer 12"><path class="cls-1" d="M288.28,234.46c16.43,37.45,34.6,36.26,50.9,38.47,20.66,2.8,19.55,4.12,24.68,9.87,18.55,20.8,15.15,65.49-2.73,88.17C318,425.73,123,363.28,111.69,310.46c-2.75-12.8,54.38-2.81,101.36-58"/><path class="cls-2" d="M276.57,324.73c49.93-9.8,67.3-35.83,73.15-49.9-7.81-5.68-17.55-2.62-17.55-2.62-.58,22-38.43,42.65-81.67,40.73s-56.21-42.21-56.21-42.21-6.11-1.07-15.28,4C184.75,291.17,207.47,338.28,276.57,324.73Z"/><path class="cls-2" d="M488.33,401c-5-51.71-43.78-77.59-52.94-86.56-36.49,0-87.28,102.87-60.81,157H499.06S493.33,452.73,488.33,401Z"/><path class="cls-3" d="M374.58,471.42c-2.78-9.44-14.53-52.88,60.81-156.95-26.19-25.64-64.64-35.81-85.67-39.64-5.85,14.07-23.22,40.1-73.15,49.9-69.1,13.55-91.82-33.56-97.56-50-.95.2-1.91.44-2.85.7-11.47,3.2-36.57,16.8-63.36,31.74-31.42,60-45,120-41.43,164.27H374.58Z"/><path class="cls-4" d="M158.5,82.48s-11.41,57.87.68,98,35.06,86.74,47.94,95.24,33.17,15,61.82,2.68,40.64-82,40.64-82,11.33-.79,13.68-15.66c1.28-8.12,1.17-22.89,7.45-29.92,2.66-3,.33-18.57-2-21.3-5.4-6.2-10.94-1.7-10.94-1.7s-3.79-51.34-2-56.05S198.31,18.26,158.5,82.48Z"/><ellipse class="cls-5" cx="212" cy="239.9" rx="10.85" ry="6.51"/><path class="cls-6" d="M153.67,130.76s-14.94-43.48-9.11-53.32,3.5-45.26,27.68-49.44,25.6-23.15,39.11-21.81,27.39-17.8,50,5.24,23.4-6.1,36.5,16.62S321.57,40.71,320,55.53s-2.28,72.23-2.28,72.23-5.9,2-8,21.28c-2.7,25.44-11.23-25-25.55-50.64-9.87-17.68-5.34-22.36-27-27.11-18.1-4-89.56,2.85-97.17,14.71-6.69,10.44-3,32.12-6.4,44.76"/><path class="cls-7" d="M154,149s8.1-10.07,24.53-8.34"/><path class="cls-7" d="M223.7,135.8s13.27-8,33.78-2.66"/><path class="cls-8" d="M201.27,156.51s4.68,9.41-1.14,33.22c-3.42,14-5.09,23.8,10.33,22.28"/><path class="cls-9" d="M165.36,167.49c1.82,2.79,13.78.6,24.62-8.46"/><path class="cls-9" d="M236.78,153c4.16,4.21,17,5.52,25.84,3.21"/><path class="cls-10" d="M235.62,250.41a17.62,17.62,0,0,0-4.76-.85c-4.34-.34-34.73,7.69-35.05,8.08l-5.09,1.52s-5,1-7.55,1.65c-.31.16-.52.46-.87.52,0,0,33.73-17,36.12-19.19.39-1.34,1.61-2.47,1-4.06,0,0-.73-2.91-2.54-3.22h0c-1.55-.89-3.16-.41-4.73-.14-11.44,1.93-22.35,5.78-33.22,9.68-6.67,2.39-13.53,4.38-19.58,8.25-3.74,1.1-7.23,3.14-11.29,3v0c-1.3.3-2.23.07-2.22-1.53,2.05-4.93,4.83-9.47,7.34-14.15,1.22-2.29,3-4.43,2.66-7.31.09-1.18-2.61-11.18-4.61-12.63-3.7-2.68-4.36-2.6-6,1.65-5.39,14.13-14.51,25.63-25,36.28-6.91,7-11.93,15.22-13.69,25.13h0c-.39,1.12-2.08,7.92-2,10.26l-.54,3.34h0c-4.82,4.26-9.57,8.59-14.47,12.75-4.6,3.91-9.38,7.59-14,11.48-.89.75-3.33,1.71-.49,3.21h0L96.2,350.76c-.09,1.58.73,1.64,1.7.87a46.5,46.5,0,0,0,3.88-3.55c7.09-7.2,14.2-14.4,21.23-21.66,2-2,3.83-2.6,6.78-1.9a29.38,29.38,0,0,0,21.19-2.7h0c6.33-2,11.72-5.75,17.07-9.51,3.15-2.22,20.5-3.89,22.07-4.1,4.24.13,25.3.2,26.62-.51,1.62-1.12,2.51-2.62,1.43-4.45-1.37-2.33-19.82-6.43-23.88-6.84h0l-5-1.07c-.3-.15-.9-.18-.83-.5a1.42,1.42,0,0,1,1.59-1.09l2.84-1.14a0,0,0,0,1,0,0c3.86,1.49,35.52-7.41,38.34-9.89,2.53-2.22,2.24-4.35-.68-6-2.54-1.41-25.74-2.12-33.37-1.17,7-2.83,15.52-4.9,23.17-9.2,2.9-1.46,14.63-7,16.88-9.41C239.71,254.32,239.07,251.66,235.62,250.41ZM171,252.73l-.31.59a3.33,3.33,0,0,0-.07-.76A1.63,1.63,0,0,1,171,252.73Zm-5,11.73.3-.2,0,0A1.91,1.91,0,0,1,166,264.46Zm-.55-9.38a2.27,2.27,0,0,0-.23-.77,3.3,3.3,0,0,1,.71.2C165.76,254.7,165.61,254.89,165.46,255.08ZM201,267.77c-.11.19-.22.36-.33.52a.36.36,0,0,0,0-.09.85.85,0,0,0-.09-.14Z"/><path class="cls-2" d="M136.23,340.21c12.27-1.67-24.68-64.06-38.53-57.65S33.3,374.51,7.22,404.89c-32.37,37.71,53.4,88.69,73.66,78.57C90.28,478.78,118.43,342.63,136.23,340.21Z"/><path class="cls-11" d="M169.35,223.16a14.82,14.82,0,0,1-4.26,2.23,21.59,21.59,0,0,1-4.22,1,26.6,26.6,0,0,1-4.18.19c-.69,0-1.4-.1-2.08-.13-.36,0-.69,0-1.06-.06a3.17,3.17,0,0,0-1.11.13l-.27-.15a3.89,3.89,0,0,1,1.81-1.41,14.78,14.78,0,0,1,2.13-.71,41.23,41.23,0,0,1,4.38-.84c1.47-.17,2.95-.29,4.42-.39s3-.14,4.44-.13Z"/><path class="cls-11" d="M177.14,227.88a14.94,14.94,0,0,1-3.5,3.3,21.13,21.13,0,0,1-3.8,2.08,26,26,0,0,1-4,1.31c-.67.18-1.37.29-2,.45-.36,0-.68.14-1,.22a3.48,3.48,0,0,0-1,.43l-.3-.06a3.81,3.81,0,0,1,1.36-1.85,13.88,13.88,0,0,1,1.86-1.27,41,41,0,0,1,4-2c1.37-.57,2.76-1.09,4.15-1.58s2.81-.94,4.24-1.33Z"/><path class="cls-11" d="M184.44,232.42a15.1,15.1,0,0,1-1.09,4.69,22,22,0,0,1-2,3.82,26.05,26.05,0,0,1-2.59,3.29c-.46.52-1,1-1.46,1.5a10.52,10.52,0,0,0-.73.76,3,3,0,0,0-.63.93l-.29.11a3.87,3.87,0,0,1,.11-2.29,14.66,14.66,0,0,1,.86-2.08,40,40,0,0,1,2.22-3.87c.83-1.23,1.7-2.42,2.59-3.6s1.82-2.34,2.8-3.45Z"/></g></g></svg>