<svg xmlns="http://www.w3.org/2000/svg" viewBox="0 0 276 221"><defs><style>.cls-1{fill:#fff;}.cls-2{fill:#007cc2;}</style></defs><g id="Layer_2" data-name="Layer 2"><g id="doctor_copy" data-name="doctor copy"><rect class="cls-1" width="276" height="221"/><g id="g3143"><path id="path3649" class="cls-2" d="M66.35,79.81c0-4.75-2.47-6.47-7-6.47H56.46L47,105.69l3.23.19c11.42.19,16.17-16.55,16.17-26.07M199.18,96a4.19,4.19,0,0,0-4.38-4.38c-5.9,0-8,9.7-9.13,14.08h11.42c.75-3.23,2.09-6.47,2.09-9.7M82.91,84c0,20.93-15,26.64-32.92,26.64H45.61l-6.08,18.84h-16L39.72,73.53v-.19h-7L34,68.59l.19-.19H63.5C74.16,68.4,82.91,72,82.91,84m89.25,4.57-24.74,36.15,14.65.19-1.52,4.57H125.16l24.73-36H135.43L137,88.57Zm41.48,13.7a30.82,30.82,0,0,1-1.33,8.37H184.15c-1.15,3.42-2.48,7.61-2.48,11.23,0,3,1.71,4.56,4.57,4.56,5.13,0,7-7.61,8.37-11.41H211c-3,10.27-14.08,16.55-24.36,16.55-10.85,0-19.22-5.51-19.22-17.12A27.66,27.66,0,0,1,195,86.66c9.71,0,18.65,4.57,18.65,15.61m54.23,2.85c0-56.51-85.63-76.87-130.15-76.87-43.58,0-129.59,20.16-129.59,76.3,0,31.4,28.73,52.71,55,63.56h.19L88.24,82.29C93.57,64,101.37,45,123.63,45c7.81,0,18.08,3.42,18.08,12.94,0,5.33-4,10.28-9.51,10.28A8.29,8.29,0,0,1,123.82,60c0-5.52,4.19-8.18,9.14-8.37-1.52-3-5.14-4.18-8.37-4.18-15.23,0-18.65,30.82-21.7,41.1h27.59l-11.79,40.91h-16l10.47-35.77h-11.8l-16,54.23c-2.48,8.56-5.71,16.74-7.23,25.49a200.65,200.65,0,0,0,59.17,8.76c44.34,0,130.54-19.41,130.54-77.07m-7.42-9.51a8.68,8.68,0,0,1-8.56,8.75,7.9,7.9,0,0,1-7.62-7.61,11.32,11.32,0,0,1,.39-2.48h-.39c-8.18,6.1-12,27.79-14.27,35.21H214l10.47-35.77-6.28-.2,1.71-4.94h21.69l-2.09,7.23c2.85-4.38,7.42-8,12.94-8a7.87,7.87,0,0,1,8,7.8"/></g></g></g></svg>