<svg xmlns="http://www.w3.org/2000/svg" viewBox="0 0 41.85 19.34"><defs><style>.cls-1{fill:#f33;}.cls-2{fill:#ccc;}.cls-3{fill:#999;}</style></defs><g id="Layer_2" data-name="Layer 2"><g id="doctor_copy" data-name="doctor copy"><path class="cls-1" d="M20.59,19.34V0H32.12a9.67,9.67,0,1,1,0,19.34Z"/><path class="cls-2" d="M21.26,0V19.34H9.73A9.67,9.67,0,1,1,9.73,0Z"/><path class="cls-3" d="M30.29.2l0,4.34V5.89h0a.9.9,0,0,0,0-.15.62.62,0,0,0-.41-.36.79.79,0,0,0-.2,0v0l0,0,.09.14.37.54a14.15,14.15,0,0,1,1.21,2.3l.08.2-.08.14-3,5.54,2.32-5.86v.34a6.72,6.72,0,0,1-.82-1.53l-.14-.41,0-.11v0a.69.69,0,0,1-.21,0,.72.72,0,0,1-.42-.42A1.64,1.64,0,0,1,29,6V6l0-.27-.15-1.07L28.19.35Z"/><path class="cls-3" d="M16.39.48,15,5.92l-.06.25-.12.12L11,10l-.26-.77,5.22,1.23.14,0v.13L16.34,14l-.62-3.34.15.16-5.32-.68L9.73,10l.56-.67L13.7,5.27l-.19.36L14.34.06Z"/><path class="cls-3" d="M15.13,3.22,19,6.34l.25.21-.07.2-1,2.64.21-2.8.17.4L14,5Z"/><path class="cls-3" d="M30.4,2.31l-2.6,4-.26.4-.3-.19L24.78,4.93l2.81.76L27,5.9l1.48-4.5Z"/></g></g></svg>