<svg xmlns="http://www.w3.org/2000/svg" viewBox="0 0 516.94 522.82"><defs><style>.cls-1{fill:#6cf;}.cls-2{fill:#fc9;}.cls-3{fill:#666;}.cls-4{fill:#333;}.cls-5{fill:#369;}.cls-6{fill:#dd9452;}.cls-7{fill:#010100;}.cls-8{fill:#010000;}</style></defs><g id="Layer_2" data-name="Layer 2"><g id="doctor_copy" data-name="doctor copy"><polygon class="cls-1" points="381.76 522.82 366.22 288.72 140.59 301.23 110.78 522.82 381.76 522.82"/><path class="cls-2" d="M186.36,212.16l9.52,79.53L297,311.58l2.38-118.42Z"/><path class="cls-3" d="M316.73,522.82l26.21-273.21c-10.52-4.52-35.28-13.71-39.74-27.66-5.74,9.85-40.76,87-41.91,107.49-1.05,18.47-2.71,140.17.67,193.38Z"/><path class="cls-3" d="M229.08,522.82c1.35-8.5,2.74-17.72,3.86-26.14,3.27-24.72-20.51-206.06-30.33-219.49s-17.25-55.5-17.25-55.5l-27,31.72,18.79,269.41Z"/><path class="cls-4" d="M199.54,522.82c-5.08-49.44-12.06-107.48-17.95-120.73-10.7-24-8-167.35-12.49-161.11s-36.56,42.7-36.56,42.7-66.89,34.73-91.85,48.08S30,389.63,22.86,402.09,10.37,468,3.24,498.24A157.33,157.33,0,0,0,0,522.82Z"/><path class="cls-1" d="M186.36,222.7s11.53,61,57.68,68.56L212.2,325.41a3.45,3.45,0,0,1-5.76-1.16l-26.17-71.81a16.66,16.66,0,0,1-.14-11Z"/><path class="cls-1" d="M299.33,219s-11.29,64.7-57.44,72.26l31.57,33.89a3.68,3.68,0,0,0,6.16-1.25l26.12-71.66a16.91,16.91,0,0,0,.31-10.66Z"/><path class="cls-2" d="M194.69,47.74s-26.16,2.38-27.94,22-.15,65.14-.15,65.14S154,119.11,151.29,133.2c-2.49,13.05.74,62.54,16.2,49.49s2.22,73.82,64.65,76.35c57.08,2.3,73.77-43.42,75.5-60l3.42-32.49s19,12.56,12.05-38.74c-3.57-26.26-16.78-4-16.78-4S321.91,55.44,275,47.73,194.69,47.74,194.69,47.74Z"/><path class="cls-4" d="M166.6,134.84c-1.15.62-4,0-4.36-1.23-2.91-10-8.72-2.77-12.73-4.41-9.81-4-4.12-80.11,4.07-91,15.16-20.18,27.58-14.53,42-24.94s25.91-15,41.85-12.64c33.88,5.05,45.49,15.6,57.44,25.3,11.33,9.2,43.43,55.25,33,90.81-5.91,20.16-4.61,2.5-9.36.61-3.51-1.39-7.16,2.46-9.74,6.23a2.23,2.23,0,0,1-4.07-1c-1.87-16-12.78-54.4-45.82-58.49-22.78-2.82-15.06-7.83-40.71-.71-18.34,5.1-47.63-23.85-48.37,50.19C169.7,123.41,172.51,131.66,166.6,134.84Z"/><path class="cls-5" d="M236.56,290.82c2.75,1.15,8.16,2.53,16.56-2.1l10.45,19.38-15.9,26.33-13.84-1.3-9.32-21.32S233.83,289.66,236.56,290.82Z"/><path class="cls-6" d="M193.07,237.17c.49.39,1,.78,1.4,1.17l1.42,1.09c1,.71,1.87,1.42,2.85,2.06a60.39,60.39,0,0,0,5.81,3.64,81.61,81.61,0,0,0,11.82,5.72,59.79,59.79,0,0,0,23.95,4.4c8-.2,16-2.33,24.07-5.61s16.06-7.89,24.8-12.57l.64.61c-1.67,1.69-3.29,3.43-5,5.07s-3.43,3.29-5.31,4.76l-2.77,2.24-2.91,2.09-1.46,1-1.52.95c-1,.62-2,1.3-3.05,1.88-8.26,4.71-17.58,8-27.25,8.26a52,52,0,0,1-14.28-1.62A56.87,56.87,0,0,1,213,257a60.82,60.82,0,0,1-11.62-8.33,56.21,56.21,0,0,1-4.94-5.18,37.71,37.71,0,0,1-4.12-5.86Z"/><path d="M272.25,110.3c4.62,0,9.25,0,13.87,0a12.25,12.25,0,0,1,2.26.2c1.78.35,3.15,1.24,3.41,3.19a3.71,3.71,0,0,1-2.23,4.12,22.28,22.28,0,0,1-9.41,2.59c-7.23.17-14.46.2-21.7.3a19.38,19.38,0,0,1-5.71-.87c-3.07-.91-4.4-2.67-4.16-5.43.21-2.26,1.71-3.55,4.77-4a52.75,52.75,0,0,1,8-.51c3.62.06,7.23,0,10.85,0Z"/><path d="M196.41,112c-2.59-.36-5.57.74-8.16-1.1-1.16-.83-2.74-1.55-2.65-3.13s1.48-2.76,3-3.42A58.89,58.89,0,0,1,207,99.25c3.59-.3,7.18-.89,10.82-.53,3.18.3,5,1.72,5.39,4s-.92,4-3.91,5.2A62.56,62.56,0,0,1,196.41,112Z"/><path class="cls-7" d="M266,204.29a4,4,0,0,1-3.44,3.1c-11.62,2.32-23.13,5.14-34.85,7a72.48,72.48,0,0,1-10,.95C233.19,209.38,249.27,206.22,266,204.29Z"/><path d="M251.5,135c3.56-6.79,9.85-8.49,16.64-9,7-.49,13.13,1.27,17.74,7.94-6.21-1.5-11.5-4.9-17.6-3.39C262.67,131.94,257.09,133.49,251.5,135Z"/><path d="M212.68,136.32c0,3.28-3.25,6.54-6.44,6.53a5.67,5.67,0,0,1-5.58-5.63,6.29,6.29,0,0,1,6.23-6.23A5.47,5.47,0,0,1,212.68,136.32Z"/><path class="cls-8" d="M269.84,143.59a5.1,5.1,0,0,1-5.5-5,5.75,5.75,0,0,1,5.35-5.91,5.46,5.46,0,1,1,.15,10.91Z"/><path class="cls-7" d="M188.84,135.4c7.51-10.78,21.13-13,27.78-4.62a24,24,0,0,0-14.09-.59C198,131.44,193.91,133.8,188.84,135.4Z"/><path class="cls-7" d="M233.17,153.26c-2.2-9-2.11-17.46-1-26.22,1.57.68,2.55,1.49,2.8,3,1.25,7.27,1.38,14.5-1,21.6C233.82,152,233.6,152.34,233.17,153.26Z"/><path class="cls-7" d="M232.71,183.45c-6.19,0-9.92-5.62-7.28-10.36.62-1.12,1.13-1.48,1.77-.05.28.61.64,1.19.9,1.8,1.2,2.76,3.32,3.84,6.26,3.58a47.69,47.69,0,0,1,4.78-.27c1.18,0,1.46.57.64,1.59A9.71,9.71,0,0,1,232.71,183.45Z"/><path class="cls-4" d="M276.82,522.82H516.94c-7.41-79-20.46-195.63-33.9-207.3-20.52-17.8-156.14-74.73-156.14-74.73s6.32,65-15.08,105C298.44,370.84,284,458.32,276.82,522.82Z"/><path d="M184.09,522.82c-4.1-42.54,15.37-89.57,15.58-90.06l-10.47-4.4L178.73,424c-.9,2.15-21.28,51.2-17.44,98.87Z"/><path class="cls-5" d="M212,522.7l.21.12h32.67l10.27-21.52a5.42,5.42,0,0,0,.52-2.66L246.9,334.83a5.51,5.51,0,0,0-11-.5L209.4,517.2A5.49,5.49,0,0,0,212,522.7Z"/><path d="M192.6,462.67l-24-10.8a14.59,14.59,0,0,1-7.32-19.26l43.44-96.36A14.65,14.65,0,0,1,224,328.94l24,10.8A14.6,14.6,0,0,1,255.33,359l-43.44,96.36A14.64,14.64,0,0,1,192.6,462.67Z"/></g></g></svg>