<svg xmlns="http://www.w3.org/2000/svg" viewBox="0 0 617.27 500.2"><defs><style>.cls-1{fill:#fc9;}.cls-2{fill:#6cf;}.cls-3{fill:#666;}.cls-4{fill:#333;}.cls-5{fill:#369;}.cls-6{fill:#dd9452;}.cls-7{fill:none;stroke:#000;stroke-miterlimit:10;stroke-width:10.78px;}.cls-8{fill:#842a2c;}</style></defs><g id="Layer_2" data-name="Layer 2"><g id="doctor"><g id="Layer_1-2" data-name="Layer 1"><polygon class="cls-1" points="334.71 174.83 342.54 240.37 425.69 256.76 427.65 159.17 334.71 174.83"/><polygon class="cls-2" points="297.05 248.23 482.68 237.92 499.56 492.5 266.03 479.2 297.05 248.23"/><path class="cls-3" d="M334.71,183.51s6.12,34.55,14.19,45.58,27.63,160,24.94,180.28c-1.51,11.4-3.63,24.56-5.21,33.92a15.77,15.77,0,0,1-14.51,13.13L329.82,458,312.46,209.56Z"/><path class="cls-3" d="M430.83,182.9c-4.72,8.1-33.53,71.69-34.48,88.57-1.08,18.95-2.94,169.76,3.42,179.35s39.62,6.86,39.62,6.86l24.14-252C454.87,202,434.5,194.39,430.83,182.9Z"/><path class="cls-1" d="M140.27,300.83c-.93-1-1.88-2-2.81-3l-1.77-2.15c-.86-1.25-1.57-2.65-3.17-3.17h0c-.79-.87-1.59-1.73-2.39-2.6-.3-.53-.65-1-1.36-.8-1-.9-.35-1.77.11-2.58,2.5-4.36,2.84-9.08,2.5-13.94-.48-6.81-2.92-13-5.67-19.19-5.93-13.3-13.29-26.22-10.19-41.77.42-2.14-1.19-3.28-3.37-3.16a8.8,8.8,0,0,0-4.66,1.7c-5.95,4.17-8,10.56-5.88,18.81.2,3.54.55,7.09.55,10.64,0,2.95.22,6.38-3.09,7.82-3,1.31-5.11-1.28-7.12-3-7.35-6.15-13.4-13.55-19.66-20.76h0c-2.43-3-4.54-6.36-7.72-8.74h0c-4.43-5.81-9.74-10.47-16.88-12.68l-1.79,1h0c-1.39.14-2.5.63-2.82,2.11l-.22.11c-1.81,3.86.75,6.26,2.74,8.86l-.06,0c-.33-.37-.66-.75-1-1.15a14.57,14.57,0,0,0-3.06-2.86c-2-1.49-4-3.4-6.91-2.26-5,.56-6,1.74-5.15,5.82.48,3.36,2.89,5.65,4.86,8.6-2.2-.14-4.52-.48-4.14,2.7a4.65,4.65,0,0,0,.39,3.58h0c1.74,5.7,5.28,10.36,8.89,15.07-4.69.61-5.5,2-3.87,6.46A50.38,50.38,0,0,0,41.43,261a252.4,252.4,0,0,0,24.81,30.71C71.86,297.72,78,303.19,86,306c2.88,1.75,6.18,2.29,9.38,3a13.34,13.34,0,0,1,6.82,4.13c3.61,3.8,6.88,7.86,10.25,11.86.85,1,1.86,3,2.65-.08h0L140,303C141.19,302.4,141,301.64,140.27,300.83ZM39.39,250.36s0-.05.06-.07l.14.18Zm68.88-22.15c-.26,0-.37-.13-.4-.38A2.83,2.83,0,0,0,108.27,228.21Zm-52.2,20.25a4.12,4.12,0,0,1,.28.31l-.26-.25S56.08,248.48,56.07,248.46Zm6.1-.59-.1-.11.13.06Zm28.67,23.39a7.56,7.56,0,0,0,.34-1,3.91,3.91,0,0,0,.45.69Zm.25-13.38a.75.75,0,0,1,1,0C91.74,257.91,91.41,257.9,91.09,257.88Zm.87-8.12-.4,0,0,0h.28ZM67.67,226.32l0,.05-.08-.07Zm-9.38-9.8.08,0,0,.11ZM42.73,251.93a.49.49,0,0,0,0-.12C42.85,251.94,42.8,251.93,42.73,251.93Zm61.11,32.44h0Zm9.3-55.45a1.22,1.22,0,0,1-.19-.12l.17,0ZM99,252.16v0ZM39.09,230.22a19.33,19.33,0,0,0-2-.11c-.12-.31-.1-.62.43-.93a5.34,5.34,0,0,1,1,.57Zm29.72-9.89a1,1,0,0,0-.25-.06l.11-.09Zm-37,4.24.13.1v.21h0C31.7,225.26,31.76,224.4,31.85,224.57Z"/><path class="cls-4" d="M203.83,355.86S192.45,344,183.14,335.05c-5.64-5.43-31.64-48.89-40.89-64.48a4.53,4.53,0,0,0-7.39-.57L98.29,315.78a9,9,0,0,0-.85,10c6.6,12,23.5,42.15,40,68C158.55,426.77,196,458,196,458"/><path class="cls-4" d="M181.85,488.83s-3.66-53.29,2.2-78.23,10.28-69,16.15-79.25-5.87-47,14.67-58,75.57-39.62,75.57-39.62,26.42-30.05,30.09-35.19,1.46,113,10.27,132.77S351.34,492.5,351.34,492.5Z"/><path class="cls-4" d="M450.33,198.42s5.2,53.52-12.41,86.54-37.42,197.83-31.55,205.9,205.44,0,205.44,0S595.67,274.69,578.8,260,450.33,198.42,450.33,198.42Z"/><path class="cls-2" d="M427.65,180.45s-9.29,53.32-47.26,59.55l26,27.93a3,3,0,0,0,5.06-1l21.49-59.06a14,14,0,0,0,.26-8.78Z"/><path class="cls-2" d="M334.71,183.51s9.48,50.26,47.45,56.49L356,268.16a2.84,2.84,0,0,1-4.74-1L329.69,208a13.79,13.79,0,0,1-.12-9.08Z"/><path class="cls-1" d="M341.56,39.33s-21.52,2-23,18.1-.12,53.68-.12,53.68-10.4-13-12.6-1.34c-2,10.75.61,51.54,13.33,40.78s1.83,60.84,53.19,62.92c47,1.9,60.7-35.78,62.13-49.41l2.81-26.78s15.64,10.36,9.9-31.91c-2.93-21.65-13.8-3.32-13.8-3.32s12.83-56.36-25.82-62.72S341.56,39.33,341.56,39.33Z"/><path class="cls-4" d="M318.45,111.11c-.95.52-3.29,0-3.59-1-2.4-8.25-7.17-2.29-10.47-3.64-8.08-3.3-3.39-66,3.35-75,12.47-16.63,22.69-12,34.55-20.54S363.61-1.45,376.72.5C404.6,4.66,414.15,13.36,424,21.36c9.33,7.58,35.73,45.53,27.15,74.84-4.86,16.6-3.79,2-7.7.5-2.89-1.15-5.9,2-8,5.13a1.83,1.83,0,0,1-3.34-.79c-1.54-13.17-10.53-44.82-37.7-48.19-18.74-2.33-12.39-6.46-33.49-.59-15.09,4.2-39.19-19.66-39.8,41.36C321,101.69,323.31,108.49,318.45,111.11Z"/><path class="cls-5" d="M375.5,275.51l-21.84,150.7a4.53,4.53,0,0,0,2.14,4.53L369.35,439a7.91,7.91,0,0,0,11.24-3.37l10.72-22.49a4.57,4.57,0,0,0,.43-2.19l-7.22-135a4.53,4.53,0,0,0-4.6-4.29h0A4.54,4.54,0,0,0,375.5,275.51Z"/><path class="cls-5" d="M376,239.65c2.26.95,6.71,2.1,13.62-1.73l8.6,16-13.08,21.7-11.39-1.07L366.09,257S373.76,238.7,376,239.65Z"/><path class="cls-3" d="M337.62,102a14.09,14.09,0,0,1,5.81-6.24,19.25,19.25,0,0,1,7.45-2.51,19.6,19.6,0,0,1,7.79.61,15.72,15.72,0,0,1,7.2,4.34l-.07.59c-2.38-.11-4.75-.2-7.11-.16a57.86,57.86,0,0,0-7.08.53,56.8,56.8,0,0,0-7,1.23c-1.16.27-2.29.61-3.42,1a31.1,31.1,0,0,0-3.32,1.18Z"/><path class="cls-3" d="M388.18,94.06a14.36,14.36,0,0,1,7.34-4.71,18.57,18.57,0,0,1,8.25-.46,20.59,20.59,0,0,1,2,.44c.67.22,1.34.41,2,.67s1.29.57,1.91.91c.31.18.63.33.93.52l.88.62a13.64,13.64,0,0,1,5.26,7l-.32.5-1.61-.87a13.75,13.75,0,0,0-1.64-.79l-1.65-.76c-.56-.23-1.14-.43-1.7-.64a15.16,15.16,0,0,0-1.73-.56c-.58-.17-1.16-.35-1.75-.5-1.18-.25-2.36-.53-3.56-.68a42.83,42.83,0,0,0-7.24-.65c-1.22,0-2.43,0-3.65.15a33.63,33.63,0,0,0-3.62.37Z"/><path class="cls-6" d="M340.23,195.44c.4.32.78.65,1.15,1l1.17.91c.78.59,1.54,1.16,2.34,1.69a53.73,53.73,0,0,0,4.78,3,68.93,68.93,0,0,0,9.73,4.71,49.11,49.11,0,0,0,19.69,3.63,56.45,56.45,0,0,0,19.8-4.62c6.66-2.75,13.23-6.51,20.41-10.36l.52.5c-1.37,1.39-2.69,2.83-4.1,4.18s-2.83,2.7-4.37,3.92l-2.28,1.85-2.39,1.72-1.19.85-1.25.79c-.84.51-1.65,1.06-2.5,1.54a48.73,48.73,0,0,1-22.42,6.81,42.25,42.25,0,0,1-11.75-1.34,47.32,47.32,0,0,1-10.95-4.42,50.48,50.48,0,0,1-9.56-6.87,44.26,44.26,0,0,1-4.06-4.27,30.61,30.61,0,0,1-3.39-4.83Z"/><path class="cls-4" d="M342.89,111.47a1.58,1.58,0,0,1-1.43-2.53,14.32,14.32,0,0,1,2.08-2.11,14.62,14.62,0,0,1,5.22-2.75,12.74,12.74,0,0,1,6.15-.31,9.21,9.21,0,0,1,3,1.19,1.57,1.57,0,0,1-.49,2.85c-.89.21-1.69.42-2.48.64-1.51.43-3,.94-4.49,1.35s-3.11.87-4.81,1.22C344.74,111.19,343.84,111.35,342.89,111.47Z"/><path class="cls-4" d="M415.23,106a1.64,1.64,0,0,1-1.49,2.63c-.89-.12-1.73-.27-2.56-.43-1.7-.35-3.29-.79-4.81-1.22s-3-.92-4.49-1.35c-.76-.21-1.52-.41-2.36-.62a1.63,1.63,0,0,1-.48-3,9.46,9.46,0,0,1,2.84-1.1,12.74,12.74,0,0,1,6.15.31,14.62,14.62,0,0,1,5.22,2.75A14.33,14.33,0,0,1,415.23,106Z"/><path class="cls-7" d="M337,353s-18,42.74-13.21,81.44"/><path class="cls-8" d="M0,500.2c64.85-55.38,180.54-92.26,312.46-92.26,126.88,0,238.75,34.12,304.81,86"/><rect x="329.91" y="270.63" width="45.69" height="111.08" rx="12" transform="translate(164.95 -116.04) rotate(24.23)"/></g></g></g></svg>