<?xml version="1.0" encoding="utf-8"?>
<!-- Generator: Adobe Illustrator 25.2.3, SVG Export Plug-In . SVG Version: 6.00 Build 0)  -->
<svg version="1.1" id="Layer_1" xmlns="http://www.w3.org/2000/svg" xmlns:xlink="http://www.w3.org/1999/xlink" x="0px" y="0px"
	 viewBox="0 0 1089.6 757.8" style="enable-background:new 0 0 1089.6 757.8;" xml:space="preserve">
<style type="text/css">
	.st0{fill:#F1F1F1;}
	.st1{fill:#454545;}
	.st2{fill:#919191;}
	.st3{fill:#828282;}
	.st4{fill:#A0A0A0;}
	.st5{fill:#727272;}
	.st6{fill:#636363;}
	.st7{fill:#B0B0B0;}
	.st8{fill:#545454;}
	.st9{fill:#2D2D2D;}
	.st10{fill:#FB6D47;}
	.st11{fill:#F0F0F0;}
	.st12{fill:#3B3B3B;}
	.st13{fill:#DB866F;}
	.st14{fill:#CBC8C5;}
	.st15{fill:#EB7D60;}
	.st16{fill:#EC7F60;}
	.st17{fill:#E37E62;}
	.st18{fill:#ED8568;}
	.st19{fill:#E3866D;}
	.st20{fill:#E78165;}
	.st21{fill:#EA8063;}
	.st22{fill:#E68267;}
	.st23{fill:#E87E61;}
	.st24{fill:#E18268;}
	.st25{fill:#EC8164;}
	.st26{fill:#E77E61;}
	.st27{fill:#DB836B;}
	.st28{fill:#E0876E;}
	.st29{fill:#E38065;}
	.st30{fill:#E5896F;}
	.st31{fill:#E48A71;}
	.st32{fill:#C34538;}
	.st33{fill:#CC9999;}
	.st34{fill:#FFD7E0;}
	.st35{fill:#CCCCCC;}
	.st36{fill:#996666;}
	.st37{fill:#BCBEC0;}
	.st38{fill:#999999;}
	.st39{fill:#666699;}
	.st40{fill:#54508F;}
	.st41{fill:#F5A688;}
	.st42{fill:#009999;}
	.st43{fill:#336666;}
	.st44{fill:#FFCCAE;}
	.st45{fill:#333333;}
	.st46{fill:#666666;}
	.st47{fill:#F5B592;}
</style>
<g id="Layer_12">
	<path class="st0" d="M793.5,256l-0.6-0.1c-1-0.4-1.7-1.5-1.8-2.6c-0.3-2.8-0.3-5.6-0.2-8.4c0.1-6.5,0.4-12.9,0.6-19.4
		c0.1-5,0.2-10.1,0.4-15.2c0.2-4.8,0.3-9.6,0.5-14.4c0.1-3.1,0.3-6.2,0.5-9.3c0.1-3.1,0.3-6.3,0.4-9.4c0.1-3,0.3-6,0.4-8.9
		c0.2-3.4,0.3-6.9,0.5-10.3c0.1-3,0.3-6,0.4-8.9c0.2-3.2,0.2-6.3,0.4-9.5c0.2-3.4,0.2-6.7,0.3-10.1s0.2-7,0.3-10.5
		c0.1-2.5,0.2-5,0.3-7.4c0.1-3.3,0.3-6.5,0.4-9.8c0.1-1.8,0.2-3.6,0.3-5.4c0.6-7,1-13.9,1.8-20.8c0.1-1.1,0.4-2.1,0.6-3.2
		c0.2-1.4,1.5-2.4,2.9-2.4c2.7-0.3,5.3-0.6,8-0.8c4.6-0.3,9.2-0.5,13.8-0.6c0.5-0.1,1.1,0,1.5,0.2c0.3,0.4-0.1,0.5-0.3,0.7
		c-1.1,0.4-1.8,1.4-1.7,2.6c-0.2,3.2-0.2,6.5-0.3,9.7c-0.1,5.3-0.1,10.7-0.1,16c0,3.7,0,7.3,0,11c-0.1,4.2-0.1,8.3-0.1,12.5
		c0,4.5-0.1,9.1-0.2,13.6c-0.1,4.5-0.2,9-0.3,13.5s-0.2,9.2-0.3,13.7c-0.1,4.3-0.1,8.6-0.2,13c-0.1,3.5-0.1,7-0.2,10.6
		c-0.1,3.1-0.2,6.2-0.2,9.3c-0.1,3.4-0.2,6.9-0.3,10.3c-0.1,2.6-0.2,5.2-0.3,7.8c-0.1,3.5-0.4,7-0.5,10.5c-0.1,1.5-0.1,3.1-0.2,4.6
		c-0.3,5-0.5,10-0.8,15c-0.2,4-0.5,8-0.6,12c-0.1,1.2,0.7,2.4,1.9,2.6c1.3,0,2.3-0.9,2.5-2.2c0.1-0.7,0.1-1.4,0.2-2
		c0.2-0.7,0.2-1.5,0.1-2.3c0-0.8,0-1.5,0.1-2.3c0.2-0.7,0.2-1.5,0.1-2.2c0-0.8,0-1.5,0.1-2.3c0.2-0.7,0.2-1.5,0.1-2.2
		c0-0.8,0-1.5,0.1-2.3c0.2-0.7,0.2-1.5,0.1-2.2c0-0.7,0-1.4,0.1-2.1c0.2-0.7,0.2-1.3,0.1-2c0-0.7,0-1.4,0.1-2.1
		c0.2-0.7,0.2-1.3,0.1-2c0-0.6,0-1.3,0.1-1.9c0.2-0.7,0.2-1.5,0.1-2.2c0-0.6,0-1.3,0.1-1.9c0.2-0.7,0.2-1.3,0.1-2
		c0-0.7,0-1.4,0.1-2.1c0.2-0.7,0.2-1.3,0.1-2c0-0.6,0-1.3,0.1-1.9c0.1-0.5,0.1-1,0-1.5c0-0.6,0-1.1,0.1-1.7c0.1-0.5,0.2-1.1,0.1-1.6
		c0-0.5,0-1,0.1-1.5c0.1-0.5,0.1-1.1,0-1.6c0-0.5,0-1,0.1-1.5c0.1-0.5,0.1-1.1,0.1-1.6c0-0.5,0-1,0.1-1.5c0.1-0.5,0.2-1.1,0.1-1.6
		c0-0.5,0-1,0.1-1.5c0.1-0.5,0.1-1.1,0-1.6c0-0.5,0-1,0.1-1.5c0.1-0.5,0.1-1,0-1.5c0-0.4,0-0.9,0-1.3c0.1-0.5,0.1-1,0-1.4
		c0-0.4,0-0.9,0-1.3c0.1-0.4,0.1-0.9,0-1.3c0-0.4,0-0.9,0-1.3c0.1-0.5,0.1-1,0-1.4c0-0.4,0-0.9,0-1.3c0.1-0.4,0.1-0.8,0-1.3
		c0-0.4,0-0.8,0-1.1c0.1-0.4,0.1-0.8,0-1.3c0-0.4,0-0.7,0-1.1c0.1-0.4,0.1-0.8,0-1.2c0-0.4,0-0.8,0-1.1c0.1-0.4,0.1-0.8,0-1.2
		c0-0.4,0-0.8,0-1.1c0.1-0.4,0.1-0.8,0-1.2c0-0.4,0-0.8,0-1.1c0.1-0.4,0.1-0.8,0-1.2c0-0.4,0-0.8,0-1.1c0.1-0.5,0.1-1,0-1.5
		c0-0.4,0-0.7,0-1.1c0.1-0.4,0.1-0.8,0-1.3c0-0.4,0-0.7,0-1.1c0.1-0.4,0.1-0.8,0-1.3c0-0.4,0-0.7,0-1.1c0.1-0.4,0.1-0.8,0-1.2
		c0-0.4,0-0.8,0-1.1c0.1-0.4,0.1-0.8,0-1.2c0-0.4,0-0.8,0-1.1c0.1-0.4,0.1-0.8,0-1.3c0-0.4,0-0.9,0-1.3c0.1-0.4,0.1-0.8,0-1.3
		c0-0.4,0-0.8,0-1.1c0.1-0.5,0.1-1,0-1.4c0-0.4,0-0.8,0-1.1c0.1-0.4,0.1-0.8,0-1.3c0-0.4,0-0.9,0-1.3c0.1-0.4,0.1-0.8,0-1.3
		c0-0.4,0-0.8,0-1.1c0.1-0.5,0.1-1,0-1.4c0-0.4,0-0.8,0-1.1c0.1-0.4,0.1-0.8,0-1.3c0-0.4,0-0.9,0-1.3c0.1-0.4,0.1-0.8,0-1.3
		c0-0.4,0-0.9,0-1.3c0.1-0.4,0.1-0.8,0-1.3c0-0.4,0-0.8,0-1.1c0.1-0.5,0.1-0.9,0-1.4c0-0.4,0-0.8,0-1.1c0.1-0.4,0.1-0.8,0-1.3
		c0-0.4,0-0.8,0.1-1.2c0.1-0.4,0.1-0.8,0-1.3c0-0.4,0-0.9,0-1.3c0.1-0.4,0.1-0.8,0-1.3c0-0.3,0-0.7,0.1-1c0.1-0.1,0.2-0.3,0.4-0.3
		c0.6-0.1,1.2,0.1,1.8-0.1c0.5,0,1,0,1.5,0.1c0.5,0.1,1,0.1,1.5,0c0.5,0,1,0,1.5,0.1c0.5,0.1,1,0.1,1.5,0c0.6,0,1.1,0,1.7,0.1
		c0.5,0.1,1,0.1,1.5,0c0.5,0,1,0,1.5,0.1c0.5,0.1,1,0.1,1.5,0c0.4,0,0.9,0,1.3,0c0.5,0.1,1.1,0.1,1.6,0c0.4,0,0.9,0,1.3,0.1
		c0.4,0.1,0.9,0.1,1.3,0c0.4,0,0.9,0,1.3,0c0.4,0.1,0.8,0.1,1.3,0c0.4,0,0.9,0,1.3,0c0.5,0.1,1,0.1,1.4,0c0.4,0,0.8,0,1.1,0
		c0.5,0.1,1,0.1,1.4,0c0.4,0,0.8,0,1.1,0c0.5,0.1,1,0.1,1.4,0c0.4,0,0.8,0,1.1,0c0.5,0.1,1,0.1,1.4,0c0.4,0,0.8,0,1.1,0
		c0.5,0.1,1,0.1,1.4,0c0.4,0,0.8,0,1.1,0c0.4,0.1,0.8,0.1,1.3,0c0.4,0,0.9,0,1.3,0c0.4,0.1,0.8,0.1,1.3,0c0.4,0,0.9,0,1.3,0
		c0.4,0.1,0.8,0.1,1.3,0c0.4,0,0.9,0,1.3,0c0.4,0.1,0.9,0.1,1.3,0c0.4,0,0.9,0,1.3,0c0.5,0.1,1,0.1,1.4,0c0.4,0,0.9,0,1.3,0.1
		c0.4,0.1,0.9,0.1,1.3,0c0.5,0,1,0,1.5,0.1c0.4,0.1,0.9,0.1,1.3,0c0.5,0,1,0,1.5,0.1c0.4,0.1,0.9,0.1,1.3,0c0.5,0,1,0,1.5,0.1
		c0.4,0.1,0.9,0.1,1.3,0c0.5,0,1,0,1.5,0.1c0.4,0.1,0.9,0.1,1.3,0c0.4,0,0.9,0,1.3,0c0.5,0.1,1,0.1,1.4,0c0.5,0,1,0,1.5,0.1
		c0.5,0.1,1,0.1,1.5,0c0.5,0,1,0,1.5,0.1c0.5,0.1,1.1,0.2,1.6,0.1c0.4,0,0.9,0,1.3,0.1c0.5,0.1,1.1,0.1,1.6,0c0.5,0,1,0,1.5,0.1
		c0.5,0.1,1,0.1,1.5,0c0.5,0,1,0,1.5,0.1c0.5,0.1,1.1,0.2,1.6,0.1c0.5,0,1,0,1.5,0.1c0.5,0.1,1,0.1,1.5,0c0.6,0,1.3,0,1.9,0.1
		c0.7,0.2,1.3,0.2,2,0.1c0.6,0,1.3,0,1.9,0.1c0.6,0.2,1.2,0.2,1.9,0.1c0.6,0,1.3,0,1.9,0.1c0.7,0.2,1.3,0.2,2,0.1
		c0.6,0,1.3,0,1.9,0.1c0.6,0.2,1.2,0.2,1.8,0.1c0.6,0,1.1,0,1.7,0.1c0.5,0.1,1.1,0.1,1.7,0c0.6,0,1.1,0,1.7,0.1
		c0.6,0.1,1.2,0.2,1.8,0.1c0.5,0,1,0,1.5,0.1c0.4,0.1,0.9,0.1,1.3,0c0.4,0,0.7,0,1.1,0c0.4,0.1,0.8,0.1,1.2,0c0.4-0.1,0.7,0,1.1,0.1
		c0.4,0.2,0.7,0.5,0.9,0.9l71.2,86.9c0.5,0.5,0.8,1,0.9,1.7c0.1,3.9,0.2,7.8,0.3,11.7c-0.1,0.4-0.1,0.7,0,1.1c0,0.3,0,0.5,0,0.8
		c-0.1,0.3-0.1,0.7,0,1c0,0.3,0,0.5,0,0.8c-0.1,0.3-0.1,0.7,0,1c0,0.3,0,0.5,0,0.8c-0.1,0.3-0.1,0.7,0,1c0,0.2,0,0.5,0,0.7
		c-0.1,0.3-0.1,0.7,0,1c0,0.2,0,0.5,0,0.7c-0.1,0.3-0.1,0.7,0,1c0,0.2,0,0.5,0,0.7c-0.1,0.3-0.1,0.7,0,1c0,0.2,0,0.5,0,0.7
		c-0.1,0.3-0.1,0.7,0,1c0,0.3,0,0.5,0,0.8c-0.1,0.3-0.1,0.7,0,1c0,0.3,0,0.5,0,0.8c-0.1,0.5-0.1,0.9,0,1.4c0,0.4,0,0.8,0,1.1
		c-0.1,0.4-0.1,0.8,0,1.3c0,0.4,0,0.9,0,1.3c-0.1,0.4-0.1,0.8,0,1.3c0,0.4,0,0.8,0,1.1c-0.1,0.4-0.1,0.9,0,1.3c0,0.4,0,0.9-0.1,1.3
		c0,0.3-0.1,0.7-0.1,1c-0.4,1.3-1.7,2.2-3.1,2.1c-5.1,0.2-10.2,0.5-15.3,0.7c-6.7,0.2-13.5,0.3-20.2,0.5c-1,0.1-2,0.1-2.9,0
		c-0.4-0.1-0.8-0.1-1.2,0c-1.3,0.1-2.7,0.2-4,0.1c-0.4-0.1-0.8-0.1-1.1,0c-1.9,0.1-3.8,0.2-5.8,0.1c-0.4-0.1-0.8-0.1-1.1,0
		c-1.3,0.1-2.7,0.2-4,0.1c-0.4-0.1-0.7-0.1-1.1,0c-0.8,0.1-1.6,0.1-2.4,0c-0.4-0.1-0.7-0.1-1.1,0c-0.3,0-0.6,0-0.9,0
		c-0.4-0.1-0.7-0.1-1.1,0c-0.4,0-0.7,0-1.1,0c-0.3-0.1-0.7-0.1-1,0c-0.3,0-0.6,0-0.9,0c-0.3-0.1-0.7-0.1-1.1,0c-0.3,0-0.6,0-0.9,0
		c-0.3-0.1-0.7-0.1-1,0c-0.3,0-0.6,0-0.9,0c-0.3-0.1-0.7-0.1-1,0c-0.4,0-0.7,0-1.1,0c-0.3-0.1-0.7-0.1-1,0c-0.3,0-0.6,0-0.9,0
		c-0.3-0.1-0.7-0.1-1,0c-0.3,0-0.6,0-0.9,0c-0.4-0.1-0.7-0.1-1.1,0c-0.3,0-0.6,0-0.9,0c-0.4-0.1-0.8-0.1-1.2,0c-0.4,0-0.7,0-1.1,0
		c-0.4-0.1-0.7-0.1-1.1,0c-0.4,0-0.7,0-1.1,0c-0.4-0.1-0.8-0.1-1.2,0c-0.4,0-0.7,0-1.1,0c-0.5-0.1-1,0-1.5,0.2c-0.3,0-0.6,0-0.9,0
		c-0.4-0.1-0.8-0.1-1.2,0c-0.4,0-0.7,0-1.1,0c-0.4-0.1-0.8-0.1-1.2,0c-0.4,0-0.7,0-1.1,0c-0.4-0.1-0.7-0.1-1.1,0c-0.4,0-0.7,0-1.1,0
		c-0.4-0.1-0.8-0.1-1.2,0c-0.4,0-0.7,0-1.1,0c-0.4-0.1-0.7-0.1-1.1,0c-0.4,0-0.7,0-1.1,0c-0.4-0.1-0.8-0.1-1.2,0c-0.4,0-0.7,0-1.1,0
		c-0.4-0.1-0.8-0.1-1.2,0c-0.3,0-0.6,0-0.9,0c-0.4-0.1-0.8-0.1-1.2,0c-0.4,0-0.7,0-1.1,0c-0.4-0.1-0.8-0.1-1.2,0c-0.4,0-0.7,0-1.1,0
		c-0.4-0.1-0.7-0.1-1.1,0c-0.4,0-0.7,0-1.1,0c-0.4-0.1-0.8-0.1-1.2,0c-0.4,0-0.7,0-1.1,0c-0.4-0.1-0.8-0.1-1.2,0c-0.3,0-0.6,0-0.9,0
		c-0.4-0.1-0.8-0.1-1.2,0c-0.4,0-0.7,0-1.1,0c-0.4-0.1-0.8-0.1-1.2,0c-0.4,0-0.7,0-1.1,0c-0.4-0.1-0.8-0.1-1.2,0c-0.4,0-0.7,0-1.1,0
		c-0.4-0.1-0.7-0.1-1.1,0c-0.4,0-0.7,0-1.1,0c-0.4-0.1-0.8-0.1-1.2,0c-0.4,0-0.7,0-1.1,0c-0.4-0.1-0.8-0.1-1.2,0c-0.4,0-0.7,0-1.1,0
		c-0.4-0.1-0.7-0.1-1.1,0c-0.4,0-0.7,0-1.1,0c-0.4-0.1-0.8-0.1-1.2,0c-0.4,0-0.8,0-1.1,0c-0.4-0.1-0.8-0.1-1.3,0c-0.4,0-0.9,0-1.3,0
		c-0.4-0.1-0.8-0.1-1.3,0c-0.4,0-0.9,0-1.3,0c-0.4-0.1-0.8-0.1-1.3,0c-0.4,0-0.9,0-1.3,0c-0.4-0.1-0.9-0.1-1.3,0
		c-0.4,0-0.9,0-1.3-0.1c-0.5-0.1-1.1-0.1-1.6,0c-0.4,0-0.9,0-1.3-0.1c-0.5-0.1-1.1-0.1-1.6,0c-0.5,0-1,0-1.5-0.1
		c-0.5-0.1-1.1-0.1-1.6,0c-0.5,0-1,0-1.5-0.1c-0.6-0.1-1.2-0.2-1.8-0.1c-0.6,0-1.3,0-1.9-0.1c-0.7-0.2-1.3-0.2-2-0.1
		c-0.7,0-1.4,0-2.1-0.1c-0.7-0.2-1.4-0.2-2.1-0.1c-0.8,0-1.5,0-2.3-0.1c-1-0.2-2-0.3-3-0.2c-0.9,0-1.8-0.1-2.7-0.2
		c-1-0.2-2-0.3-3-0.2c-1.4-0.1-2.7-0.3-4-0.4c-1.3-0.2-2.7-0.3-4-0.3c-1.5-0.2-3.1-0.3-4.6-0.5c-1.5-0.2-3.3-0.3-5-0.5
		c-0.4,0.1-0.8-0.1-1.2,0l-0.4,0c-0.4-0.2-0.9-0.1-1.3-0.2l-19.1-1.9C795.3,256,794.4,256,793.5,256z"/>
	<path class="st1" d="M812.3,257.8l3,0.3c0.1,0,0.1,0.1,0,0.1s0,0-0.1,0l-3-0.3C812.2,257.9,812.2,257.8,812.3,257.8
		C812.3,257.8,812.3,257.8,812.3,257.8z"/>
	<path class="st2" d="M798.8,256.4l2.7,0.3c0.1,0,0.1,0.1,0.1,0.1c0,0,0,0-0.1,0l-2.7-0.3C798.7,256.6,798.7,256.5,798.8,256.4
		C798.8,256.4,798.8,256.4,798.8,256.4z"/>
	<path class="st3" d="M801.5,256.8l0-0.2l2.7,0.3c0.1,0,0.1,0.1,0,0.1c0,0,0,0-0.1,0L801.5,256.8z"/>
	<path class="st4" d="M798.8,256.4l0,0.2l-2.7-0.3c-0.1,0-0.1-0.1-0.1-0.1c0,0,0,0,0.1-0.1L798.8,256.4z"/>
	<path class="st5" d="M804.3,257.1c0-0.1,0-0.1,0-0.2l2.7,0.3c0.1,0,0.1,0.1,0,0.1c0,0,0,0-0.1,0L804.3,257.1z"/>
	<path class="st6" d="M807,257.4c0-0.1,0-0.1,0-0.2l2.8,0.3c0.1,0,0.1,0.1,0,0.1c0,0,0,0-0.1,0L807,257.4z"/>
	<path class="st7" d="M796.1,256.1l0,0.2l-2.5-0.3C794.4,255.9,795.2,255.9,796.1,256.1z"/>
	<path class="st8" d="M809.8,257.7c0,0,0-0.1,0-0.2l2.5,0.3l0,0.2L809.8,257.7z"/>
	<path class="st9" d="M815.2,258.2l0-0.2c0.4,0,0.9-0.2,1.2,0.3L815.2,258.2z"/>
	<path class="st10" d="M841.8,68.7c2.5-0.1,5.1-0.1,7.6,0.1c0.6-0.2,1.2,0.1,1.8,0l0.7,0.1c0.6-0.1,1.1,0.1,1.7,0l0.7,0
		c0.6-0.1,1.2,0.2,1.8,0l0.5,0.1c0.6-0.2,1.2,0.1,1.8,0l0.7,0.1c0.6-0.2,1.2,0.1,1.9,0l0.5,0.1c0.7-0.2,1.3,0.2,2,0l0.5,0.1
		c0.5-0.2,1.1,0.1,1.7,0c3.5-0.1,6.9,0.1,10.4,0.2c0.5,0.1,0.5,0.6,0.6,0.9c1.2,5.8,1.3,11.6-1.3,17.2c-1.5,3-4.2,5.3-7.4,6.4
		c-0.6,0.2-1.3,0.4-2,0.6c-0.4,0.2-0.9,0.1-1.3-0.1c-0.2-0.5-0.3-1.1-0.3-1.6c0-1.7,0-3.5-0.1-5.2c0-1.2-1-2.3-2.2-2.3
		c-0.3,0-0.7,0.1-1,0.2c-0.8,0.3-1.3,1.1-1.3,1.9c-0.1,2,0.1,3.9,0.1,5.9c0,4.1,0,8.2-0.3,12.3c0,0.2,0,0.5-0.1,0.7
		c0,1.2,0.8,2.2,2,2.3c1.2,0.1,2.2-0.7,2.4-1.8c0.3-1.3,0.4-2.6,0.4-4c-0.1-1,0-2,0.3-2.9c0.2-0.5,0.8-0.5,1.2-0.5
		c4.9-0.7,9.3-3.4,12.2-7.4c1.7-2.5,2.9-5.4,3.3-8.4c0.8-4.3,0.8-8.8-0.1-13.1c-0.1-0.3-0.1-0.7,0.1-0.9c5.5,0.1,10.9,0.3,16.4,0.4
		c5.5,0.1,10.8,0.2,16.3,0.2l16.7,0.2c5.5,0.1,11,0.1,16.5,0.3c0.5-0.2,1.1,0.1,1.6,0c1.1-0.1,2.2,0,3.3,0.1c0.6-0.1,1.1,0.1,1.6,0
		c1.1-0.1,2.2,0,3.3,0.1c0.5-0.2,1.1,0.1,1.6,0c1.1-0.1,2.2,0,3.3,0.1c0.5-0.2,1.1,0.1,1.6,0c4.8,0.1,9.6,0.1,14.3,0.4
		c0.7-0.2,1.4,0.1,2,0l1.6,0.1c0.6,0.1,0.7,0.7,0.8,1.1c0.8,2.3,1.2,4.6,1.2,7c0.1,3.5-0.5,6.9-1.8,10.1c-1.7,4.3-5.6,7.3-10.1,8
		c-0.4,0.2-0.9,0.1-1.2-0.1c-0.2-1.1-0.3-2.2-0.3-3.3c-0.1-1.4-0.2-2.9-0.3-4.3c0-0.4-0.1-0.8-0.2-1.1c-0.4-1-1.4-1.6-2.4-1.4
		c-1,0.2-1.7,1-1.8,2.1c0,0.9,0,1.8,0.1,2.6c0.4,5.2,0.4,10.4,0.1,15.6c0,0.6,0,1.2,0.1,1.8c0.1,1.1,1,2,2.1,2
		c1.1,0.1,2.1-0.7,2.2-1.8c0.3-2.3,0.4-4.6,0.3-6.8c0.2-0.5,0.6-0.4,1-0.5c5.3-0.6,10.1-3.4,13.1-7.8c1.6-2.5,2.7-5.3,3.2-8.3
		c0.9-4.4,0.8-9-0.3-13.4c-0.1-0.4-0.3-0.8,0.2-1.1c1,0,1.9,0.3,2.9,0.2l2.3,0.2c1.2,0,2.5,0.1,3.7,0.3c0.4,0.1,0.7,0.1,1.1,0
		c1.5,0,3.1,0.1,4.6,0.3c1.2,0.3,2,1.3,2,2.5c0.6,5.7,1.1,11.3,1.7,17c0.6,6.1,1.1,12.3,1.6,18.4c0.5,5.5,0.8,11,1.2,16.6
		c0,0.2,0,0.4-0.1,0.6c-0.3,1.8-1.6,2.1-3,2.2c-5.9,0.5-11.9,1-17.8,1.2c-6.9,0.2-13.9,0.2-20.8,0.1c-6.3-0.1-12.7-0.1-19.1-0.2
		c-2.5,0-5-0.1-7.5-0.1c-0.6,0-1.2-0.1-1.8-0.3l-1.2-0.1c-0.4,0.1-0.8-0.1-1.2,0l-1.1-0.1c-0.4,0.1-0.8-0.1-1.2,0l-1.5-0.2
		c-0.6,0.1-1.2-0.2-1.8,0l-1.7-0.2c-0.5,0.1-1.1-0.2-1.6,0l-1.7-0.1c-0.6,0.1-1.2-0.2-1.8,0l-1.9-0.1c-0.7,0.1-1.3-0.2-2,0l-1.9-0.2
		c-0.6,0.1-1.2-0.2-1.8,0l-1.9-0.1c-0.7,0.1-1.3-0.2-2,0l-1.9-0.1c-0.5,0.1-1-0.1-1.4,0l-1.5-0.1c-0.5,0.1-1.1-0.2-1.6,0l-1.5-0.1
		c-0.5,0.1-1-0.2-1.4,0l-1.5-0.1c-0.5,0.1-1.1-0.2-1.6,0l-1.3-0.1c-0.5,0.1-1.1-0.2-1.6,0l-1.5-0.1c-0.5,0.1-1-0.2-1.4,0l-1.5-0.1
		c-0.5,0.1-1-0.2-1.4,0l-1.3-0.1c-0.4,0.1-0.8-0.1-1.2,0l-1.5-0.1c-0.4,0.1-0.8-0.1-1.2,0l-1.5-0.1c-0.4,0.1-0.8-0.1-1.2,0l-1.5-0.1
		c-0.4,0.1-0.8-0.1-1.2,0l-1.5-0.1c-0.4,0.1-0.8-0.1-1.2,0l-1.3-0.1c-0.5,0.1-1-0.1-1.4,0l-1.3-0.1c-0.4,0.1-0.8-0.1-1.2,0l-1.3-0.1
		c-0.4,0.1-0.8-0.1-1.2,0l-1.3-0.1c-0.4,0.1-0.8-0.1-1.2,0l-1.3-0.1c-0.4,0.1-0.8-0.1-1.2,0l-1.1-0.1c-0.5,0.1-1-0.2-1.4,0l-1.1-0.1
		c-0.5,0.1-1-0.2-1.4,0l-1.1-0.1c-0.5,0.1-1-0.2-1.4,0l-1.1-0.1c-0.5,0.1-1-0.2-1.4,0l-1.1-0.1c-0.5,0.1-1-0.2-1.4,0l-1.3-0.1
		c-0.4,0.1-0.8-0.1-1.2,0l-1.3-0.1c-0.4,0.1-0.8-0.1-1.2,0l-1.3-0.1c-0.5,0.1-1.1-0.2-1.6,0l-1.3-0.1c-0.5,0.1-1-0.2-1.4,0l-1.5-0.2
		c-0.5,0.1-1-0.1-1.4,0l-1.7-0.1c-0.5,0.1-1-0.1-1.4,0l-1.5-0.1c-0.5,0.1-1-0.1-1.4,0l-1.5-0.2c-0.6,0.1-1.2-0.2-1.8,0l-0.2,0
		c-0.5,0-0.4-0.5-0.4-0.8c0.1-4.6,0.1-9.2,0.2-13.8c0-5.2,0-10.4,0.1-15.6s0-10.5,0.1-15.7c0-3,0.2-6.1,0.2-9.1c0.1-1-0.4-2-1.3-2.5
		c-0.2-0.2-0.4-0.3-0.4-0.7c0.2-0.3,0.6,0,0.8-0.2l0.4,0c0.5-0.2,0.9,0.1,1.4,0l0.3,0c0.5-0.2,1,0.1,1.4,0l0.3,0
		c0.4-0.2,0.9,0.1,1.3,0l0.5,0c0.4-0.1,0.9,0.1,1.3,0c1.5-0.1,3-0.1,4.5,0c0.5-0.2,1,0.1,1.4,0l0.7,0.1
		C840.8,68.5,841.3,68.8,841.8,68.7z"/>
	<path class="st11" d="M938.5,130.6c2,0,3.9,0,5.9,0c5.8,0.1,11.6,0.1,17.5,0.2c4.6,0.1,9.2,0.1,13.8,0.1c8.2,0,16.5-0.3,24.7-1
		c1.7-0.1,3.3-0.3,5-0.4c1.4,0.1,2.7-0.6,3.2-1.9c0.6,11.5,0.9,23,1.3,34.5c0.3,8.2,0.4,16.3,0.6,24.5c0.2,8.2,0.4,16.1,0.6,24.2
		c0.1,2.9,0.1,5.8,0.1,8.7c-0.3-0.4-0.6-0.9-0.9-1.3l-71-86.7C939,131.3,938.8,130.9,938.5,130.6z"/>
	<path class="st12" d="M826.3,69.2c1.2,0.4,1.9,1.6,1.8,2.8c-0.1,5.4-0.2,10.9-0.3,16.3c0,6.4,0,12.8,0,19.1c0,4.7-0.1,9.4-0.1,14.1
		c0,1.9,0,3.8-0.1,5.7c0,0.4,0,0.8,0,1.2c0,0.4-0.1,0.9,0,1.3l-0.1,1.3c0.1,0.4-0.1,0.9,0,1.3l-0.1,1.3c0.1,0.4-0.1,0.8,0,1.3
		l-0.1,1.1c0.1,0.5-0.1,1,0,1.4l-0.1,1.1c0.1,0.4-0.1,0.9,0,1.3l-0.1,1.3c0.1,0.4-0.1,0.8,0,1.3l-0.1,1.3c0.1,0.4-0.1,0.8,0,1.3
		l-0.1,1.1c0.1,0.5-0.1,1,0,1.4l-0.1,1.1c0.1,0.4-0.1,0.9,0,1.3l-0.1,1.3c0.1,0.4-0.1,0.8,0,1.3l-0.1,1.1c0.1,0.5-0.1,1,0,1.4
		l-0.1,1.1c0.1,0.4-0.1,0.9,0,1.3l-0.1,1.3c0.1,0.4-0.1,0.8,0,1.3l-0.1,1.1c0.1,0.4-0.1,0.8,0,1.3l-0.1,1.1c0.1,0.4-0.1,0.8,0,1.3
		l-0.1,1.1c0.1,0.4-0.1,0.8,0,1.2l-0.1,1.1c0.1,0.4-0.1,0.8,0,1.3l-0.1,1.1c0.1,0.4-0.1,0.8,0,1.2l-0.1,1.1c0.1,0.4-0.1,0.8,0,1.2
		l-0.1,1.1c0.1,0.4-0.1,0.8,0,1.2l-0.1,1.1c0.1,0.4-0.1,0.8,0,1.2l-0.1,1.1c0.1,0.4-0.1,0.8,0,1.2l-0.1,1.1c0.1,0.4-0.1,0.8,0,1.3
		l-0.1,1.1c0.1,0.4-0.1,0.9,0,1.3L826,187c0.1,0.5-0.1,1,0,1.4l-0.1,1.3c0.1,0.4-0.1,0.9,0,1.3l-0.1,1.3c0.1,0.5-0.1,1,0,1.4
		l-0.1,1.3c0.1,0.5-0.1,1,0,1.5l-0.1,1.5c0.1,0.6-0.1,1.1,0,1.7l-0.1,1.5c0.1,0.6-0.1,1.1,0,1.7l-0.1,1.5c0.1,0.6-0.2,1.1,0,1.7
		l-0.1,1.5c0.1,0.6-0.1,1.1,0,1.7l-0.1,1.5c0.1,0.6-0.2,1.1,0,1.7l-0.1,1.7c0.1,0.5-0.1,1,0,1.5l-0.1,1.9c0.1,0.7-0.2,1.4-0.1,2.1
		l-0.2,2.1c0.1,0.7-0.2,1.4-0.1,2l-0.1,1.9c0.1,0.7-0.2,1.5-0.1,2.2l-0.1,1.9c0.1,0.7-0.2,1.4-0.1,2.1l-0.2,2.1
		c0.1,0.7-0.2,1.4-0.1,2.1l-0.1,2.1c0.1,0.8-0.2,1.5-0.1,2.3l-0.2,2.3c0.1,0.8-0.2,1.5-0.1,2.3l-0.2,2.3c0.1,0.8-0.2,1.5-0.1,2.3
		l-0.2,2.3c0.1,0.8-0.2,1.5-0.1,2.2c-0.1,0.7-0.1,1.4-0.2,2.1c-0.2,1.4-1.4,2.4-2.9,2.4c-1.4-0.2-2.4-1.5-2.2-2.9
		c0.7-13,1.4-26.1,2.1-39.1c0.6-11.9,0.9-23.8,1.1-35.7c0.1-10,0.4-20.1,0.5-30.1c0.2-11,0.4-21.9,0.6-32.9
		c0.2-11.2,0.1-22.4,0.2-33.7c0-3.9,0.2-7.9,0.3-11.8c-0.1-1.4,0.8-2.6,2.1-2.8C824.9,68.7,825.7,68.8,826.3,69.2z"/>
	<path class="st0" d="M918.4,188.4c0-1.5,0-3,0-4.5c-0.1-0.3,0.1-0.7-0.1-1l0-2.7c-0.1-0.3,0.1-0.7,0-1l0.1-0.9
		c-0.1-0.5,0.1-1,0-1.4l0.1-1.1c-0.1-0.5,0.1-1,0-1.4l0.1-1.1c-0.1-0.5,0.2-1,0-1.4l0.1-0.9c-0.1-0.4,0.1-0.8,0-1.2l0-0.9
		c-0.1-0.3,0.1-0.7-0.1-1l0.1-0.7c-0.1-0.3,0.1-0.7-0.1-1l-0.2-6c-0.3-0.2-0.5,0-0.6,0.1c-6.5,5.2-12.6,10.7-18.4,16.5
		c-0.7,0.7-1.4,1.5-2,2.3c-0.4,0.5-1,0.9-1.7,1.1c-0.4,0-0.8,0-1.2-0.1c-1.4-0.4-2.1-1.9-1.7-3.2c0.1-0.4,0.4-0.8,0.7-1.1
		c2.1-2.4,4.4-4.6,6.6-6.9c0.9-0.9,1.9-1.8,2.9-2.6c2.5-2.2,4.9-4.4,7.4-6.6c1.5-1.3,3.2-2.5,4.7-3.8c1.1-0.9,2.2-1.9,3.3-2.9
		c0.9-0.9,2.2-1.1,3.3-0.5c0.9,0.6,1.5,1.6,1.4,2.7c0.1,3.5,0.3,7.1,0.5,10.6c0,0.7,0,1.4,0.1,2c0.1,0.4-0.1,0.8,0,1.2l0,0.9
		c0.1,0.4-0.1,0.7,0,1.1l0,1.1c0.1,0.4-0.1,0.7,0,1.1l-0.1,1.3c0.1,0.4-0.1,0.8,0,1.2l-0.1,1.1c0.1,0.4-0.1,0.9,0,1.3l-0.1,1.3
		c0.1,0.3-0.1,0.7,0,1l0,0.9c0.1,0.3-0.1,0.7,0,1c-0.1,0.9-0.1,1.8,0,2.7c0.1,0.4-0.1,0.7,0,1.1l-0.1,0.9c0.1,0.3-0.1,0.7,0.1,1
		l-0.1,0.7c0.1,0.4-0.1,0.7,0,1.1c-0.1,1-0.1,1.9,0,2.9c0.1,0.4-0.1,0.8,0,1.2l-0.1,0.9c0.1,0.4-0.1,0.8,0,1.3l-0.1,1.1
		c0.1,0.4-0.1,0.9,0,1.3l-0.1,1.3c0.1,0.5-0.1,1,0,1.4l-0.1,1.1c0.1,0.5-0.1,1,0,1.5l-0.1,1.3c0.1,0.4-0.1,0.9,0,1.3l-0.1,1.3
		c0.1,0.5-0.1,1,0,1.4l-0.1,1.1c0.1,0.5-0.1,1,0,1.5l-0.1,1.3c0.1,0.4-0.1,0.9,0,1.3l-0.1,1.3c0.1,0.5-0.1,1,0,1.4l-0.1,1.1
		c0.1,0.5-0.1,1,0,1.4l-0.1,1.3c0.1,0.4-0.1,0.9,0,1.3l-0.1,1.3c0.1,0.5-0.2,1,0,1.4l-0.1,1.1c0.1,0.5-0.1,1,0,1.4
		c0,0.1,0,0.1,0,0.2c-0.1,1.4-0.1,1.4,1.3,1.4c0.4-0.1,0.7,0.1,1,0l1.1,0.1c0.4-0.1,0.8,0.1,1.2,0l1.1,0.1c0.4-0.1,0.8,0.1,1.2,0
		l1.1,0.1c0.4-0.1,0.8,0.1,1.3,0l1.1,0.1c0.5-0.1,1,0.1,1.4,0l1.1,0.1c0.5-0.1,1,0.1,1.4,0l1.1,0.1c0.5-0.1,1,0.1,1.4,0l1.1,0.1
		c0.5-0.1,1,0.1,1.5,0l1.3,0.1c0.5-0.1,0.9,0,1.4,0.1c1.2,0.5,1.9,1.8,1.6,3.1c-0.4,1.3-1.4,1.9-3.3,1.9c-0.4,0.1-0.8-0.1-1.3,0
		l-1.3-0.1c-0.4,0.1-0.8-0.1-1.3,0l-1.3-0.1c-0.4,0.1-0.9-0.1-1.3,0l-1.3-0.1c-0.4,0.1-0.9-0.1-1.3,0l-1.3-0.1
		c-0.4,0.1-0.9-0.1-1.3,0l-1.3-0.1c-0.4,0.1-0.8-0.1-1.2,0l-1.1-0.1c-0.4,0.1-0.7-0.1-1.1,0l-1.1-0.1c-0.4,0.1-0.8-0.1-1.3,0
		l-1.1-0.1c-0.4,0.1-0.8-0.1-1.2,0l-1.1-0.1c-0.4,0.1-0.7-0.1-1.1,0l-1.1-0.1c-0.4,0.1-0.8-0.1-1.2,0l-1.1-0.1
		c-0.4,0.1-0.7-0.1-1.1,0l-1.1,0c-0.4,0.1-0.7-0.1-1.1,0l-1.1-0.1c-0.4,0.1-0.8-0.1-1.2,0l-0.9,0c-0.4,0.1-0.8-0.1-1.3,0l-1.1-0.1
		c-0.4,0.1-0.7-0.1-1.1,0l-1.1-0.1c-0.4,0.1-0.8-0.1-1.3,0l-1.1-0.1c-0.5,0.1-1-0.2-1.4,0l-1.1-0.1c-0.4,0.1-0.9-0.1-1.3,0l-1.3-0.1
		c-0.4,0.1-0.8-0.1-1.3,0l-1.1-0.1c-0.5,0.1-1-0.1-1.4,0l-1.1-0.1c-0.5,0.1-0.9,0-1.4-0.1c-1-0.2-1.8-1.1-1.8-2.2
		c-0.1-0.4,0-0.8,0.1-1.2c0.6-1.5,1.8-1.7,3.2-1.7c0.5-0.1,1,0.1,1.5,0l1.3,0.1c0.4-0.1,0.9,0.1,1.3,0l1.3,0.1c0.5-0.1,1,0.2,1.4,0
		l1.1,0.1c0.5-0.1,1,0.1,1.4,0l1.3,0.1c0.4-0.1,0.8,0.1,1.3,0l1.1,0c0.4-0.1,0.7,0.1,1.1,0l1.1,0.1c0.4-0.1,0.8,0.1,1.2,0l0.9,0
		c0.4-0.1,0.8,0.1,1.3,0l1.1,0.1c0.4-0.1,0.7,0.1,1.1,0l1.1,0.1c0.4-0.1,0.7,0.1,1.1,0c1.4,0.1,1.2,0.1,1.1-1.1
		c-0.1-0.4,0.1-0.9,0-1.3l0.1-1.3c-0.1-0.5,0.1-1,0-1.4l0.1-1.1c-0.1-0.5,0.1-1,0-1.5l0.1-1.3c-0.1-0.4,0.1-0.9,0-1.3l0.1-1.3
		c-0.1-0.5,0.1-1,0-1.4l0.1-1.1c-0.1-0.5,0.1-1,0-1.5l0.1-1.3c-0.1-0.4,0.1-0.9,0-1.3l0.1-1.3c-0.1-0.5,0.1-1,0-1.4l0.1-1.1
		c-0.1-0.5,0.1-1,0-1.5l0.1-1.3c-0.1-0.4,0.1-0.8,0-1.3l0.1-1.3c-0.1-0.5,0.1-1,0-1.4l0.1-1.1c-0.1-0.5,0.1-1,0-1.5l0.1-1.1
		c-0.1-0.5,0.1-1,0-1.4l0.1-1.1c-0.1-0.4,0.1-0.8,0-1.2l0.1-1.1c-0.1-0.3,0.1-0.7,0-1l0.1-0.7C918.3,189.1,918.5,188.8,918.4,188.4z
		"/>
	<path class="st12" d="M802.7,253.2c0,1.4-1.1,2.5-2.4,2.5c-0.1,0-0.1,0-0.2,0c-1.4-0.1-2.5-1.3-2.4-2.8c0-0.1,0-0.1,0-0.2
		c0.3-10.4,0.6-20.8,0.9-31.2c0.3-11.7,0.5-23.4,0.8-35.1c0.2-8.5,0.5-17,0.7-25.6c0.1-3.6,0.2-7.3,0.3-10.9
		c0.1-1.8,1.1-2.9,2.6-2.8c1.5,0,2.5,1.3,2.5,3.1c-0.1,4.1-0.3,8.3-0.4,12.5c-0.2,6.9-0.4,13.8-0.6,20.7c-0.2,6.4-0.3,12.8-0.5,19.2
		c-0.2,7.4-0.3,14.7-0.5,22.1c-0.1,5.7-0.3,11.5-0.5,17.2C802.9,245.6,802.8,249.3,802.7,253.2z"/>
	<path class="st12" d="M818,138.8c-0.1,1.4-1.3,2.5-2.7,2.4c-1.4-0.1-2.5-1.3-2.4-2.8c0,0,0,0,0,0c0.2-10.1,0.3-20.2,0.5-30.3
		c0.1-6.3,0.4-12.6,0.4-18.9c0-5.1,0-10.3-0.2-15.4c-0.2-1.4,0.8-2.7,2.2-2.9c1.2-0.1,2.3,0.5,2.7,1.6c0.2,0.7,0.3,1.4,0.2,2.1
		c0.3,10.2,0.1,20.5-0.2,30.7c-0.3,9.4-0.4,18.7-0.5,28.1C818.1,135.2,818,136.9,818,138.8z"/>
	<path class="st12" d="M813.4,252.5l-0.2,2c-0.1,1.4-1.2,2.5-2.6,2.4c-1.3,0-2.4-1.1-2.4-2.4c0-0.1,0-0.1,0-0.2
		c0-2.3,0.2-4.7,0.3-7.1c0.3-7.8,0.6-15.6,0.9-23.4c0.3-7,0.5-14,0.8-21c0.1-2.1,1.5-3.2,3.3-2.7c1.1,0.3,1.9,1.5,1.7,2.7
		c-0.1,3.9-0.3,7.8-0.4,11.7c-0.2,5.7-0.5,11.3-0.7,17C813.9,238.5,813.6,245.5,813.4,252.5L813.4,252.5z"/>
	<path class="st12" d="M810.6,93.8c-0.1,1.4-1.4,2.4-2.8,2.3c-1.4-0.1-2.4-1.3-2.3-2.7c0-0.1,0-0.1,0-0.2c0.2-6.1,0.3-12.2,0.5-18.2
		c0-0.4,0-0.9,0.1-1.3c0.1-1.3,1.1-2.2,2.4-2.3c1.3,0,2.4,0.9,2.6,2.2c0.1,0.9,0.1,1.8,0,2.6C810.9,82,810.8,87.8,810.6,93.8z"/>
	<path class="st11" d="M823,258.6c-1.7,0-3.5-0.1-5.2-0.4c1.4-0.1,2.7,0,4.1,0.2C822.2,258.5,822.6,258.6,823,258.6z"/>
	<path class="st11" d="M831.6,259.3c-1.3,0-2.7,0-4-0.2C829,259,830.3,259,831.6,259.3z"/>
	<path class="st11" d="M844.4,260.1c-1,0.1-2,0-3-0.1C842.4,259.9,843.4,259.9,844.4,260.1z"/>
	<path class="st11" d="M838.7,259.8c-1,0.1-2,0-3-0.1C836.7,259.5,837.7,259.6,838.7,259.8z"/>
	<path class="st13" d="M826.3,69.2l-1.1-0.1l0.4-0.3c0.4-0.1,0.8-0.2,1.2,0C826.8,69.1,826,68.6,826.3,69.2z"/>
	<path class="st11" d="M824.3,240c-0.1-0.8-0.1-1.5,0.1-2.3C824.5,238.5,824.5,239.3,824.3,240z"/>
	<path class="st11" d="M825,227.6c-0.1-0.7-0.1-1.5,0.1-2.2C825.2,226.2,825.1,226.9,825,227.6z"/>
	<path class="st11" d="M823.6,253.6c-0.1-0.7-0.1-1.5,0.1-2.2C823.8,252.1,823.7,252.9,823.6,253.6z"/>
	<path class="st11" d="M823.8,249.1c-0.1-0.8,0-1.5,0.1-2.3C824,247.6,824,248.3,823.8,249.1z"/>
	<path class="st11" d="M824.1,244.6c-0.1-0.8-0.1-1.5,0.1-2.3C824.3,243.1,824.2,243.8,824.1,244.6z"/>
	<path class="st11" d="M824.5,235.7c-0.1-0.7-0.1-1.4,0.1-2.1C824.9,234.3,824.6,235,824.5,235.7z"/>
	<path class="st11" d="M824.8,231.6c-0.1-0.7-0.1-1.4,0.1-2.1C825.1,230.2,824.8,230.9,824.8,231.6z"/>
	<path class="st11" d="M825.2,223.5c-0.1-0.7-0.1-1.3,0.1-2C825.4,222.2,825.4,222.9,825.2,223.5z"/>
	<path class="st11" d="M919.6,129.9c0.7-0.1,1.3-0.1,2,0C920.9,130.1,920.2,130.1,919.6,129.9z"/>
	<path class="st11" d="M911.9,129.5c0.7-0.1,1.3-0.1,2,0C913.3,129.7,912.6,129.7,911.9,129.5z"/>
	<path class="st11" d="M848.7,260.4c-0.7,0.1-1.4,0.1-2.1,0C847.3,260,848,260.4,848.7,260.4z"/>
	<path class="st11" d="M852.8,260.6c-0.7,0.1-1.4,0.1-2.1-0.1C851.4,260.3,852.1,260.6,852.8,260.6z"/>
	<path class="st11" d="M825.4,219.4c-0.1-0.7-0.1-1.4,0.1-2.1C825.8,218.1,825.4,218.7,825.4,219.4z"/>
	<path class="st11" d="M930.4,130.4c0.6-0.1,1.2-0.1,1.8,0C931.6,130.7,931,130.4,930.4,130.4z"/>
	<path class="st11" d="M923.5,130.1c0.6-0.1,1.2-0.1,1.8,0C924.7,130.4,924.1,130.1,923.5,130.1z"/>
	<path class="st11" d="M915.8,129.7c0.6-0.1,1.2-0.1,1.8,0C917,130,916.4,129.8,915.8,129.7z"/>
	<path class="st11" d="M827.8,127.1c0.6-0.1,1.2-0.1,1.8,0C829,127.4,828.4,127.2,827.8,127.1z"/>
	<path class="st11" d="M856.5,260.8c-0.6,0.1-1.3,0.1-1.9,0C855.3,260.5,855.9,260.7,856.5,260.8z"/>
	<path class="st11" d="M826.2,199.7c-0.1-0.5-0.1-1.1,0-1.7C826.4,198.6,826.2,199.2,826.2,199.7z"/>
	<path class="st11" d="M927,130.3c0.5-0.1,1.1-0.1,1.6,0C928.1,130.5,927.6,130.3,927,130.3z"/>
	<path class="st11" d="M905.4,129.3c0.5-0.1,1.1-0.1,1.6,0C906.5,129.6,905.9,129.3,905.4,129.3z"/>
	<path class="st11" d="M899.3,129.1c0.5-0.1,1.1-0.1,1.6,0C900.4,129.4,899.9,129.1,899.3,129.1z"/>
	<path class="st11" d="M896.4,129c0.5-0.1,1.1-0.1,1.6,0C897.4,129.3,896.9,129,896.4,129z"/>
	<path class="st11" d="M826,202.9c-0.1-0.5-0.1-1.1,0-1.7C826.4,201.8,826.1,202.3,826,202.9z"/>
	<path class="st11" d="M825.7,212.3c-0.1-0.6-0.1-1.1,0-1.7C826,211.2,825.7,211.8,825.7,212.3z"/>
	<path class="st11" d="M843,127.6c0.5-0.1,1.1-0.1,1.6,0C844,127.9,843.5,127.7,843,127.6z"/>
	<path class="st11" d="M862.8,261c-0.5,0.1-1.1,0.1-1.6,0C861.7,260.7,862.3,261,862.8,261z"/>
	<path class="st11" d="M825.8,209.2c-0.1-0.6-0.1-1.1,0-1.7C826.1,208.1,825.8,208.6,825.8,209.2z"/>
	<path class="st11" d="M825.9,206c-0.1-0.5-0.1-1.1,0-1.7C826.2,204.9,825.9,205.5,825.9,206z"/>
	<path class="st11" d="M865.8,261.1c-0.6,0.1-1.1,0.1-1.7,0C864.7,260.8,865.2,261.1,865.8,261.1z"/>
	<path class="st11" d="M859.7,260.9c-0.5,0.1-1.1,0.1-1.7,0C858.6,260.6,859.1,260.9,859.7,260.9z"/>
	<path class="st11" d="M827.4,137.2c-0.1-0.5-0.1-1,0-1.4C827.7,136.3,827.4,136.7,827.4,137.2z"/>
	<path class="st11" d="M837.2,127.4c0.5-0.1,1-0.1,1.4,0C838.2,127.7,837.7,127.5,837.2,127.4z"/>
	<path class="st11" d="M923.3,203.5c-0.1-0.5-0.1-1,0-1.5C923.6,202.5,923.4,202.9,923.3,203.5z"/>
	<path class="st11" d="M917.8,215.6c0.1,0.5,0.1,1,0,1.4C917.6,216.6,917.8,216.1,917.8,215.6z"/>
	<path class="st11" d="M827.2,147.3c-0.1-0.5-0.1-1,0-1.4C827.5,146.3,827.2,146.8,827.2,147.3z"/>
	<path class="st11" d="M923,216.7c-0.1-0.5-0.1-1,0-1.4C923.3,215.7,923,216.2,923,216.7z"/>
	<path class="st11" d="M923.4,200.9c-0.1-0.5-0.1-1,0-1.4C923.7,200,923.4,200.4,923.4,200.9z"/>
	<path class="st11" d="M851,127.8c0.5-0.1,1-0.1,1.4,0C852,128.1,851.5,127.9,851,127.8z"/>
	<path class="st11" d="M840.2,127.5c0.5-0.1,1-0.1,1.4,0C841.2,127.8,840.7,127.6,840.2,127.5z"/>
	<path class="st11" d="M827,154.8c-0.1-0.5-0.1-1,0-1.4C827.3,153.8,827.1,154.3,827,154.8z"/>
	<path class="st11" d="M834.1,127.3c0.5-0.1,1-0.1,1.4,0C835.1,127.6,834.6,127.4,834.1,127.3z"/>
	<path class="st11" d="M945.1,229.2l-1.4-0.1C944.2,228.9,944.7,228.9,945.1,229.2z"/>
	<path class="st11" d="M826.3,196.6c-0.1-0.5-0.1-1,0-1.5C826.5,195.6,826.3,196.1,826.3,196.6z"/>
	<path class="st11" d="M853.6,127.9c0.5-0.1,1-0.1,1.4,0C854.6,128.2,854.1,127.9,853.6,127.9z"/>
	<path class="st11" d="M922.8,227.1c-0.1-0.5-0.1-1,0-1.4C923,226.1,922.8,226.6,922.8,227.1z"/>
	<path class="st11" d="M917.7,223.5c0.1,0.5,0.1,1,0,1.4C917.4,224.5,917.6,224,917.7,223.5z"/>
	<path class="st11" d="M918.1,205.2c0.1,0.5,0.1,1,0,1.5C917.8,206.1,918.1,205.6,918.1,205.2z"/>
	<path class="st11" d="M923.2,208.8c-0.1-0.5-0.1-1,0-1.4C923.5,207.8,923.2,208.3,923.2,208.8z"/>
	<path class="st11" d="M856.2,127.9c0.5-0.1,1-0.1,1.4,0C857.1,128.2,856.6,128,856.2,127.9z"/>
	<path class="st11" d="M942.4,229c-0.5,0.1-1,0.1-1.5,0C941.5,228.7,941.9,229,942.4,229z"/>
	<path class="st11" d="M858.7,128c0.5-0.1,1-0.1,1.4,0C859.7,128.3,859.2,128,858.7,128z"/>
	<path class="st11" d="M939.9,228.9c-0.5,0.1-1,0.1-1.4,0C938.9,228.7,939.4,228.9,939.9,228.9z"/>
	<path class="st11" d="M937.3,228.9c-0.5,0.1-1,0.1-1.4,0C936.3,228.6,936.8,228.9,937.3,228.9z"/>
	<path class="st11" d="M934.7,228.8c-0.5,0.1-1,0.1-1.4,0C933.8,228.6,934.2,228.8,934.7,228.8z"/>
	<path class="st11" d="M861.3,128.1c0.5-0.1,1-0.1,1.4,0C862.2,128.3,861.8,128.1,861.3,128.1z"/>
	<path class="st11" d="M900.2,228.4c-0.5,0.1-1,0.1-1.4,0C899.3,228.1,899.7,228.3,900.2,228.4z"/>
	<path class="st11" d="M894.9,228.2c-0.5,0.1-1,0.1-1.5,0C893.9,228,894.4,228.2,894.9,228.2z"/>
	<path class="st11" d="M923.2,211.3c-0.1-0.5-0.1-1,0-1.5C923.4,210.4,923.2,210.9,923.2,211.3z"/>
	<path class="st11" d="M917.7,220.9c0.1,0.5,0.1,1,0,1.5C917.4,221.9,917.7,221.4,917.7,220.9z"/>
	<path class="st11" d="M901.9,233.6c0.5-0.1,1-0.1,1.4,0C902.9,233.9,902.4,233.6,901.9,233.6z"/>
	<path class="st11" d="M894.4,233.5c0.5-0.1,1-0.1,1.4,0C895.4,233.7,894.9,233.5,894.4,233.5z"/>
	<path class="st11" d="M892,233.3l1.4,0.1C892.9,233.6,892.4,233.6,892,233.3z"/>
	<path class="st11" d="M1011.6,247.7c0.1,0.5,0.1,1,0,1.4C1011.4,248.6,1011.6,248.1,1011.6,247.7z"/>
	<path class="st11" d="M922.8,224.5c-0.1-0.5-0.1-1,0-1.4C923.1,223.6,922.9,224,922.8,224.5z"/>
	<path class="st11" d="M874.1,128.3c0.5-0.1,1-0.1,1.4,0C875,128.6,874.6,128.4,874.1,128.3z"/>
	<path class="st11" d="M918.3,197.3c0.1,0.5,0.1,1,0,1.5C918,198.2,918.2,197.8,918.3,197.3z"/>
	<path class="st11" d="M918.3,176.7c0.1,0.5,0.1,1,0,1.4C918.1,177.7,918.3,177.2,918.3,176.7z"/>
	<path class="st11" d="M826.5,188.5c-0.1-0.5-0.1-1,0-1.4C826.8,187.5,826.5,188,826.5,188.5z"/>
	<path class="st11" d="M918.4,174.2c0.1,0.5,0.1,1,0,1.4C918.1,175.2,918.4,174.7,918.4,174.2z"/>
	<path class="st11" d="M831.1,127.2c0.5-0.1,1-0.1,1.4,0C832.1,127.5,831.6,127.3,831.1,127.2z"/>
	<path class="st11" d="M918,207.7c0.1,0.5,0.1,1,0,1.4C917.8,208.7,918,208.2,918,207.7z"/>
	<path class="st11" d="M918.2,199.9c0.1,0.5,0.1,1,0,1.4C917.9,200.8,918.2,200.3,918.2,199.9z"/>
	<path class="st11" d="M890.5,128.8c0.5-0.1,1-0.1,1.4,0C891.4,129.1,890.9,128.8,890.5,128.8z"/>
	<path class="st11" d="M893.4,128.9c0.5-0.1,1-0.1,1.4,0C894.4,129.1,893.9,128.9,893.4,128.9z"/>
	<path class="st11" d="M902.4,129.2c0.5-0.1,1-0.1,1.4,0C903.4,129.5,902.9,129.2,902.4,129.2z"/>
	<path class="st11" d="M908.5,129.4c0.5-0.1,1-0.1,1.4,0C909.5,129.7,909,129.4,908.5,129.4z"/>
	<path class="st11" d="M918.3,194.7c0.1,0.5,0.1,1,0,1.4C918.1,195.7,918.3,195.2,918.3,194.7z"/>
	<path class="st11" d="M918.5,171.6c0.1,0.5,0.1,1,0,1.4C918.2,172.6,918.4,172.1,918.5,171.6z"/>
	<path class="st11" d="M825.6,215.5c-0.1-0.5-0.1-1,0-1.5C825.8,214.5,825.6,215,825.6,215.5z"/>
	<path class="st11" d="M917.9,213c0.1,0.5,0.1,1,0,1.5C917.6,214,917.9,213.5,917.9,213z"/>
	<path class="st11" d="M826.3,193.8c-0.1-0.5-0.1-1,0-1.4C826.6,192.8,826.4,193.3,826.3,193.8z"/>
	<path class="st11" d="M923,219.2c-0.1-0.5-0.1-1,0-1.4C923.2,218.3,923,218.7,923,219.2z"/>
	<path class="st11" d="M902.8,228.4c-0.5,0.1-1,0.1-1.4,0C901.8,228.2,902.3,228.4,902.8,228.4z"/>
	<path class="st11" d="M826.6,183.4c-0.1-0.4-0.1-0.8,0-1.3C826.8,182.5,826.6,183,826.6,183.4z"/>
	<path class="st11" d="M923.5,193.6c-0.1-0.4-0.1-0.8,0-1.2C923.7,192.8,923.6,193.2,923.5,193.6z"/>
	<path class="st11" d="M918.4,192.4c0.1,0.4,0.1,0.8,0,1.2C918.1,193.2,918.4,192.8,918.4,192.4z"/>
	<path class="st11" d="M826.5,185.8c-0.1-0.4-0.1-0.9,0-1.3C826.8,184.9,826.6,185.3,826.5,185.8z"/>
	<path class="st11" d="M923.5,195.8c-0.1-0.4-0.1-0.8,0-1.3C923.8,194.9,923.5,195.4,923.5,195.8z"/>
	<path class="st11" d="M923.5,198.2c-0.1-0.4-0.1-0.9,0-1.3C923.7,197.3,923.5,197.7,923.5,198.2z"/>
	<path class="st11" d="M826.4,191.1c-0.1-0.4-0.1-0.9,0-1.3C826.7,190.2,826.5,190.7,826.4,191.1z"/>
	<path class="st11" d="M918.1,202.6c0.1,0.4,0.1,0.9,0,1.3C917.9,203.4,918.1,203,918.1,202.6z"/>
	<path class="st11" d="M923.3,206c-0.1-0.4-0.1-0.9,0-1.3C923.5,205.2,923.3,205.6,923.3,206z"/>
	<path class="st11" d="M918,210.4c0.1,0.4,0.1,0.9,0,1.3C917.7,211.3,917.9,210.9,918,210.4z"/>
	<path class="st11" d="M923.1,214c-0.1-0.4-0.1-0.9,0-1.3C923.3,213.1,923.1,213.5,923.1,214z"/>
	<path class="st11" d="M906,261.7c-0.4,0.1-0.8,0.1-1.2,0C905.1,261.5,905.6,261.7,906,261.7z"/>
	<path class="st11" d="M917.8,218.3c0.1,0.4,0.1,0.9,0,1.3C917.5,219.2,917.7,218.8,917.8,218.3z"/>
	<path class="st11" d="M922.9,221.8c-0.1-0.4-0.1-0.9,0-1.3C923.1,221,922.9,221.4,922.9,221.8z"/>
	<path class="st11" d="M917.6,226.2c0.1,0.4,0.1,0.9,0,1.3C917.3,227.1,917.6,226.6,917.6,226.2z"/>
	<path class="st11" d="M936.1,130.6c0.4-0.1,0.8-0.1,1.2,0C936.9,130.8,936.5,130.6,936.1,130.6z"/>
	<path class="st11" d="M933.7,130.5c0.4-0.1,0.8-0.1,1.2,0C934.5,130.8,934.1,130.5,933.7,130.5z"/>
	<path class="st11" d="M887.9,128.7c0.4-0.1,0.8-0.1,1.2,0C888.7,129,888.3,128.8,887.9,128.7z"/>
	<path class="st11" d="M885.1,128.7c0.4-0.1,0.8-0.1,1.2,0C885.9,128.9,885.5,128.7,885.1,128.7z"/>
	<path class="st11" d="M932.2,228.8c-0.4,0.1-0.8,0.1-1.3,0C931.3,228.5,931.8,228.8,932.2,228.8z"/>
	<path class="st11" d="M929.8,228.7c-0.4,0.1-0.8,0.1-1.2,0C929,228.5,929.4,228.7,929.8,228.7z"/>
	<path class="st11" d="M927.4,228.7c-0.4,0.1-0.8,0.1-1.2,0C926.6,228.5,927,228.7,927.4,228.7z"/>
	<path class="st11" d="M912.1,228.6c-0.4,0.1-0.8,0.1-1.3,0C911.2,228.3,911.6,228.5,912.1,228.6z"/>
	<path class="st11" d="M909.9,228.5c-0.4,0.1-0.8,0.1-1.2,0C909,228.3,909.5,228.5,909.9,228.5z"/>
	<path class="st11" d="M905.4,228.5c-0.4,0.1-0.9,0.1-1.3,0C904.5,228.2,904.9,228.5,905.4,228.5z"/>
	<path class="st11" d="M882.4,128.6c0.4-0.1,0.8-0.1,1.2,0C883.2,128.8,882.8,128.6,882.4,128.6z"/>
	<path class="st11" d="M879.6,128.5c0.4-0.1,0.8-0.1,1.2,0C880.4,128.7,880,128.5,879.6,128.5z"/>
	<path class="st11" d="M897.5,228.3c-0.4,0.1-0.9,0.1-1.3,0C896.6,228.1,897.1,228.3,897.5,228.3z"/>
	<path class="st11" d="M876.9,128.4c0.4-0.1,0.8-0.1,1.2,0C877.7,128.7,877.3,128.4,876.9,128.4z"/>
	<path class="st11" d="M871.5,128.3c0.4-0.1,0.8-0.1,1.2,0C872.4,128.5,871.9,128.3,871.5,128.3z"/>
	<path class="st11" d="M942.1,234.3c0.4-0.1,0.8-0.1,1.3,0C943,234.5,942.6,234.3,942.1,234.3z"/>
	<path class="st11" d="M939.6,234.2c0.4-0.1,0.9-0.1,1.3,0C940.4,234.4,940,234.2,939.6,234.2z"/>
	<path class="st11" d="M937,234.2c0.4-0.1,0.9-0.1,1.3,0C937.9,234.4,937.4,234.2,937,234.2z"/>
	<path class="st11" d="M934.4,234.1c0.4-0.1,0.9-0.1,1.3,0C935.3,234.3,934.9,234.1,934.4,234.1z"/>
	<path class="st11" d="M931.9,234c0.4-0.1,0.9-0.1,1.3,0C932.7,234.3,932.3,234.1,931.9,234z"/>
	<path class="st11" d="M890.3,229.9l-0.1,1.2C890,230.7,890,230.2,890.3,229.9z"/>
	<path class="st11" d="M929.3,234c0.4-0.1,0.8-0.1,1.2,0C930.2,234.2,929.8,234,929.3,234z"/>
	<path class="st11" d="M924.8,233.9c0.4-0.1,0.8-0.1,1.3,0C925.7,234.2,925.2,233.9,924.8,233.9z"/>
	<path class="st11" d="M922.5,233.9c0.4-0.1,0.8-0.1,1.2,0C923.3,234.1,922.9,233.9,922.5,233.9z"/>
	<path class="st11" d="M917.9,233.8c0.4-0.1,0.8-0.1,1.2,0C918.7,234.1,918.3,233.9,917.9,233.8z"/>
	<path class="st11" d="M911.2,233.8c0.4-0.1,0.8-0.1,1.2,0C912,234,911.6,233.8,911.2,233.8z"/>
	<path class="st11" d="M909,233.7c0.4-0.1,0.8-0.1,1.3,0C909.9,234,909.4,233.8,909,233.7z"/>
	<path class="st11" d="M869,128.2c0.4-0.1,0.8-0.1,1.2,0C869.8,128.5,869.4,128.2,869,128.2z"/>
	<path class="st11" d="M904.5,233.7c0.4-0.1,0.8-0.1,1.3,0C905.3,233.9,904.9,233.7,904.5,233.7z"/>
	<path class="st11" d="M866.4,128.2c0.4-0.1,0.8-0.1,1.2,0C867.2,128.4,866.8,128.2,866.4,128.2z"/>
	<path class="st11" d="M899.6,233.6c0.4-0.1,0.9-0.1,1.3,0C900.4,233.8,900,233.6,899.6,233.6z"/>
	<path class="st11" d="M897,233.5c0.4-0.1,0.8-0.1,1.3,0C897.8,233.8,897.4,233.5,897,233.5z"/>
	<path class="st11" d="M863.8,128.1c0.4-0.1,0.8-0.1,1.2,0C864.7,128.4,864.3,128.1,863.8,128.1z"/>
	<path class="st11" d="M848.5,127.8c0.4-0.1,0.8-0.1,1.2,0C849.3,128,848.9,127.8,848.5,127.8z"/>
	<path class="st11" d="M845.9,127.7c0.4-0.1,0.8-0.1,1.2,0C846.8,128,846.3,127.7,845.9,127.7z"/>
	<path class="st11" d="M827.6,129.6c-0.1-0.4-0.1-0.9,0-1.3C827.8,128.7,827.6,129.1,827.6,129.6z"/>
	<path class="st11" d="M1011.6,250.2c0.1,0.4,0.1,0.9,0,1.3C1011.3,251,1011.6,250.6,1011.6,250.2z"/>
	<path class="st11" d="M827.5,132.1c-0.1-0.4-0.1-0.9,0-1.3C827.8,131.3,827.6,131.7,827.5,132.1z"/>
	<path class="st11" d="M1011.5,252.7c0.1,0.4,0.1,0.9,0,1.3C1011.3,253.6,1011.5,253.2,1011.5,252.7z"/>
	<path class="st11" d="M1011.5,255.1c0.1,0.4,0.1,0.8,0,1.3C1011.2,256,1011.5,255.5,1011.5,255.1z"/>
	<path class="st11" d="M827.5,134.7c-0.1-0.4-0.1-0.8,0-1.3C827.7,133.8,827.5,134.3,827.5,134.7z"/>
	<path class="st11" d="M827.4,139.6c-0.1-0.4-0.1-0.9,0-1.3C827.6,138.8,827.4,139.2,827.4,139.6z"/>
	<path class="st11" d="M827.3,142.1c-0.1-0.4-0.1-0.9,0-1.3C827.6,141.3,827.3,141.8,827.3,142.1z"/>
	<path class="st11" d="M827.3,144.7c-0.1-0.4-0.1-0.8,0-1.3C827.5,143.9,827.3,144.3,827.3,144.7z"/>
	<path class="st11" d="M931,262c-0.4,0.1-0.8,0.1-1.2,0C930.2,261.8,930.6,262,931,262z"/>
	<path class="st11" d="M926.5,262c-0.4,0.1-0.8,0.1-1.2,0C925.7,261.8,926.1,262,926.5,262z"/>
	<path class="st11" d="M924.2,261.9c-0.4,0.1-0.9,0.1-1.3,0C923.3,261.7,923.7,261.9,924.2,261.9z"/>
	<path class="st11" d="M922,261.9c-0.4,0.1-0.8,0.1-1.2,0C921.1,261.7,921.5,261.9,922,261.9z"/>
	<path class="st11" d="M919.6,261.9c-0.4,0.1-0.9,0.1-1.3,0C918.8,261.7,919.2,261.9,919.6,261.9z"/>
	<path class="st11" d="M915.1,261.8c-0.4,0.1-0.8,0.1-1.3,0C914.2,261.6,914.7,261.8,915.1,261.8z"/>
	<path class="st11" d="M910.5,261.8c-0.4,0.1-0.8,0.1-1.2,0C909.7,261.6,910.1,261.8,910.5,261.8z"/>
	<path class="st11" d="M908.2,261.7c-0.4,0.1-0.9,0.1-1.3,0C907.3,261.5,907.8,261.7,908.2,261.7z"/>
	<path class="st11" d="M903.6,261.7c-0.4,0.1-0.8,0.1-1.3,0C902.8,261.5,903.2,261.7,903.6,261.7z"/>
	<path class="st11" d="M899.1,261.6c-0.4,0.1-0.9,0.2-1.3,0.1C898.3,261.4,898.7,261.6,899.1,261.6z"/>
	<path class="st11" d="M896.8,261.6c-0.4,0.1-0.9,0.1-1.3,0C895.9,261.4,896.3,261.5,896.8,261.6z"/>
	<path class="st11" d="M894.5,261.6c-0.4,0.1-0.8,0.1-1.2,0C893.7,261.3,894.1,261.6,894.5,261.6z"/>
	<path class="st11" d="M892.2,261.5c-0.4,0.1-0.8,0.1-1.3,0C891.3,261.3,891.8,261.5,892.2,261.5z"/>
	<path class="st11" d="M889.9,261.5c-0.4,0.1-0.9,0.1-1.3,0C889,261.3,889.4,261.5,889.9,261.5z"/>
	<path class="st11" d="M885.3,261.5c-0.4,0.1-0.8,0.1-1.3,0C884.4,261.2,884.9,261.4,885.3,261.5z"/>
	<path class="st11" d="M882.9,261.4c-0.4,0.1-0.9,0.1-1.3,0C882.1,261.1,882.5,261.4,882.9,261.4z"/>
	<path class="st11" d="M878.4,261.4c-0.4,0.1-0.8,0.1-1.2,0C877.5,261.1,878,261.3,878.4,261.4z"/>
	<path class="st11" d="M876,261.3c-0.4,0.1-0.9,0.1-1.3,0C875.2,261.1,875.6,261.3,876,261.3z"/>
	<path class="st11" d="M873.5,261.3c-0.4,0.1-0.9,0.1-1.3,0C872.6,261,873,261.2,873.5,261.3z"/>
	<path class="st11" d="M870.9,261.2c-0.4,0.1-0.9,0.1-1.3,0C870.1,260.9,870.5,261.2,870.9,261.2z"/>
	<path class="st11" d="M868.4,261.1c-0.4,0.1-0.9,0.1-1.3,0C867.5,260.9,867.9,261.1,868.4,261.1z"/>
	<path class="st11" d="M827.2,149.7c-0.1-0.4-0.1-0.9,0-1.3C827.4,148.8,827.2,149.2,827.2,149.7z"/>
	<path class="st11" d="M827.1,152.2c-0.1-0.4-0.1-0.8,0-1.3C827.4,151.4,827.1,151.8,827.1,152.2z"/>
	<path class="st11" d="M827,157.2c-0.1-0.4-0.1-0.9,0-1.3C827.3,156.3,827,156.7,827,157.2z"/>
	<path class="st11" d="M923.7,168.5c-0.1-0.4-0.1-0.8,0-1.2C923.9,167.7,923.7,168.1,923.7,168.5z"/>
	<path class="st11" d="M827,159.7c-0.1-0.4-0.1-0.8,0-1.3C827.2,158.9,827,159.3,827,159.7z"/>
	<path class="st11" d="M918.5,169.5c0.1,0.4,0.1,0.8,0,1.2C918.2,170.3,918.5,169.9,918.5,169.5z"/>
	<path class="st11" d="M826.9,162.1c-0.1-0.4-0.1-0.9,0-1.3C827.2,161.2,827,161.7,826.9,162.1z"/>
	<path class="st11" d="M826.9,164.4c-0.1-0.4-0.1-0.8,0-1.3C827.2,163.6,826.9,164,826.9,164.4z"/>
	<path class="st11" d="M923.6,175.2c-0.1-0.4-0.1-0.8,0-1.2C923.8,174.4,923.6,174.8,923.6,175.2z"/>
	<path class="st11" d="M826.8,166.8c-0.1-0.4-0.1-0.8,0-1.2C827.1,166,826.9,166.4,826.8,166.8z"/>
	<path class="st11" d="M923.5,177.6c-0.1-0.4-0.1-0.9,0-1.3C923.8,176.8,923.6,177.2,923.5,177.6z"/>
	<path class="st11" d="M826.8,169.2c-0.1-0.4-0.1-0.8,0-1.3C827.1,168.3,826.8,168.7,826.8,169.2z"/>
	<path class="st11" d="M826.8,171.5c-0.1-0.4-0.1-0.8,0-1.2C827,170.7,826.8,171.1,826.8,171.5z"/>
	<path class="st11" d="M826.7,173.9c-0.1-0.4-0.1-0.8,0-1.2C827,173.1,826.8,173.5,826.7,173.9z"/>
	<path class="st11" d="M894.5,179.6l1.2,0.1C895.3,179.9,894.9,179.9,894.5,179.6z"/>
	<path class="st11" d="M826.7,176.2c-0.1-0.4-0.1-0.8,0-1.2C827,175.4,826.7,175.8,826.7,176.2z"/>
	<path class="st11" d="M826.7,178.6c-0.1-0.4-0.1-0.8,0-1.2C826.9,177.8,826.7,178.3,826.7,178.6z"/>
	<path class="st11" d="M826.6,181c-0.1-0.4-0.1-0.8,0-1.2C826.9,180.2,826.6,180.6,826.6,181z"/>
	<path class="st11" d="M937,262c-0.4,0.1-0.7,0.1-1.1,0C936.3,261.8,936.6,262,937,262z"/>
	<path class="st11" d="M935,262c-0.3,0.1-0.7,0.1-1.1,0C934.3,261.8,934.7,262,935,262z"/>
	<path class="st11" d="M933,262c-0.4,0.1-0.7,0.1-1.1,0C932.3,261.8,932.7,262,933,262z"/>
	<path class="st11" d="M923.6,172.7c-0.1-0.3-0.1-0.7,0-1.1C923.8,172,923.7,172.3,923.6,172.7z"/>
	<path class="st11" d="M927.2,234c0.4-0.1,0.7-0.1,1.1,0C927.9,234.2,927.5,234,927.2,234z"/>
	<path class="st11" d="M928.7,262c-0.4,0.1-0.7,0.1-1.1,0C928,261.8,928.4,262,928.7,262z"/>
	<path class="st11" d="M1011.5,237c0.1,0.3,0.1,0.7,0.1,1C1011.3,237.7,1011.5,237.3,1011.5,237z"/>
	<path class="st11" d="M1011.6,242.3c0.1,0.3,0.1,0.7,0.1,1C1011.4,243,1011.5,242.7,1011.6,242.3z"/>
	<path class="st11" d="M925.1,228.7c-0.3,0.1-0.7,0.1-1,0C924.4,228.5,924.7,228.6,925.1,228.7z"/>
	<path class="st11" d="M920.3,233.9c0.3-0.1,0.7-0.1,1.1,0C921,234.1,920.7,233.9,920.3,233.9z"/>
	<path class="st11" d="M917.3,261.9c-0.4,0.1-0.7,0.1-1.1,0C916.5,261.6,916.9,261.8,917.3,261.9z"/>
	<path class="st11" d="M916.4,228.6c-0.4,0.1-0.7,0.1-1.1,0C915.7,228.4,916.1,228.6,916.4,228.6z"/>
	<path class="st11" d="M912.7,261.8c-0.4,0.1-0.7,0.1-1.1,0C912,261.6,912.4,261.8,912.7,261.8z"/>
	<path class="st11" d="M915.7,233.8c0.3-0.1,0.7-0.1,1.1,0C916.4,234,916.1,233.8,915.7,233.8z"/>
	<path class="st11" d="M913.5,233.8c0.3-0.1,0.7-0.1,1.1,0C914.3,234,913.9,233.8,913.5,233.8z"/>
	<path class="st11" d="M918.3,182.9c0.1,0.3,0.1,0.7,0.1,1C918.1,183.6,918.3,183.2,918.3,182.9z"/>
	<path class="st11" d="M914.2,228.6c-0.3,0.1-0.7,0.1-1.1,0C913.5,228.4,913.9,228.5,914.2,228.6z"/>
	<path class="st11" d="M901.3,261.7c-0.4,0.1-0.7,0.1-1.1,0C900.6,261.4,900.9,261.6,901.3,261.7z"/>
	<path class="st11" d="M923.7,170.5c-0.1-0.3-0.1-0.7,0-1.1C923.9,169.8,923.7,170.2,923.7,170.5z"/>
	<path class="st11" d="M1011.5,233.4c0.1,0.3,0.1,0.7,0.1,1C1011.3,234.1,1011.4,233.8,1011.5,233.4z"/>
	<path class="st11" d="M906.8,233.7c0.3-0.1,0.7-0.1,1.1,0C907.6,233.9,907.2,233.7,906.8,233.7z"/>
	<path class="st11" d="M907.5,228.5c-0.3,0.1-0.7,0.1-1.1,0C906.8,228.3,907.2,228.5,907.5,228.5z"/>
	<path class="st11" d="M1011.6,244.1c0.1,0.3,0.1,0.7,0.1,1C1011.4,244.9,1011.6,244.5,1011.6,244.1z"/>
	<path class="st11" d="M887.5,261.5c-0.4,0.1-0.7,0.1-1.1,0C886.8,261.3,887.1,261.4,887.5,261.5z"/>
	<path class="st11" d="M1011.5,238.8c0.1,0.3,0.1,0.7,0.1,1C1011.3,239.5,1011.5,239.1,1011.5,238.8z"/>
	<path class="st11" d="M918.5,167.5c0.1,0.3,0.1,0.7,0.1,1C918.3,168.2,918.5,167.8,918.5,167.5z"/>
	<path class="st11" d="M880.6,261.4c-0.4,0.1-0.7,0.1-1.1,0C879.8,261.2,880.2,261.4,880.6,261.4z"/>
	<path class="st11" d="M1011.5,235.2c0.1,0.3,0.1,0.7,0,1C1011.3,235.9,1011.5,235.6,1011.5,235.2z"/>
	<path class="st11" d="M923.6,189.4c-0.1-0.3-0.1-0.7,0-1.1C923.8,188.7,923.6,189.1,923.6,189.4z"/>
	<path class="st11" d="M918.5,165.7c0.1,0.3,0.1,0.7,0.1,1C918.3,166.4,918.4,166,918.5,165.7z"/>
	<path class="st11" d="M1011.6,245.9c0.1,0.3,0.1,0.7,0,1C1011.4,246.6,1011.6,246.2,1011.6,245.9z"/>
	<path class="st11" d="M923.5,187.6c-0.1-0.3-0.1-0.7-0.1-1C923.7,187,923.6,187.3,923.5,187.6z"/>
	<path class="st11" d="M923.5,185.7c-0.1-0.3-0.1-0.7,0-1.1C923.7,185,923.6,185.4,923.5,185.7z"/>
	<path class="st11" d="M1011.5,240.6c0.1,0.3,0.1,0.7,0,1C1011.4,241.3,1011.5,240.9,1011.5,240.6z"/>
	<path class="st11" d="M918.4,190.2c0.1,0.3,0.1,0.7,0,1C918.2,190.9,918.4,190.6,918.4,190.2z"/>
	<path class="st11" d="M923.5,181.9c-0.1-0.3-0.1-0.7,0-1C923.7,181.2,923.5,181.6,923.5,181.9z"/>
	<path class="st11" d="M918.4,188.4c0.1,0.3,0.1,0.7,0.1,1C918.2,189.1,918.3,188.8,918.4,188.4z"/>
	<path class="st11" d="M918.3,179.1c0.1,0.3,0.1,0.7,0,1C918.1,179.8,918.3,179.5,918.3,179.1z"/>
	<path class="st11" d="M1011.4,257.7c0.2,0.4,0.1,0.8-0.1,1.1L1011.4,257.7z"/>
	<path class="st11" d="M1011.4,231.7c0.1,0.3,0.1,0.7,0.1,1C1011.3,232.4,1011.4,232,1011.4,231.7z"/>
	<path class="st11" d="M923.5,179.9c-0.1-0.3-0.1-0.7,0-1C923.7,179.2,923.5,179.6,923.5,179.9z"/>
	<path class="st11" d="M970,261.8c-0.3,0.1-0.7,0.1-1,0.1C969.3,261.6,969.6,261.7,970,261.8z"/>
	<path class="st11" d="M964.8,261.8c-0.3,0.1-0.7,0.1-1,0.1C964.1,261.6,964.5,261.8,964.8,261.8z"/>
	<path class="st11" d="M957.9,261.9c-0.3,0.1-0.7,0.1-1,0.1C957.2,261.8,957.6,261.9,957.9,261.9z"/>
	<path class="st11" d="M952.8,262c-0.3,0.1-0.7,0.1-1,0.1C952,261.8,952.4,262,952.8,262z"/>
	<path class="st11" d="M949.2,262.1c-0.3,0.1-0.7,0.1-1.1,0C948.5,261.9,948.9,262.1,949.2,262.1z"/>
	<path class="st11" d="M947.2,262.1c-0.3,0.1-0.7,0.1-1,0C946.5,261.9,946.9,262,947.2,262.1z"/>
	<path class="st11" d="M945.1,262.1c-0.4,0.1-0.7,0.1-1.1,0C944.4,261.8,944.7,262,945.1,262.1z"/>
	<path class="st11" d="M943.1,262.1c-0.4,0.1-0.7,0.1-1.1,0C942.4,261.8,942.8,262,943.1,262.1z"/>
	<path class="st11" d="M941.1,262.1c-0.3,0.1-0.7,0.1-1,0C940.4,261.9,940.8,262,941.1,262.1z"/>
	<path class="st11" d="M939.1,262.1c-0.3,0.1-0.7,0.1-1,0C938.4,261.9,938.8,262,939.1,262.1z"/>
	<path class="st14" d="M864.9,94.3c3.5-0.3,6.8-2,8.9-4.8c1.7-2.2,2.7-4.7,3.1-7.4c0.7-4.1,0.5-8.4-0.6-12.4c0-0.1-0.1-0.2-0.1-0.3
		c-1.1-4.4-3.1-8.1-7.3-10.1c-2.7-1.3-5.5-0.9-8.2,0.2c-2.6,1.1-4.7,3.2-5.7,5.9c-0.5,1.3-1.9,1.9-3.2,1.4c-0.1,0-0.1,0-0.2-0.1
		c-1.3-0.6-1.8-2.1-1.2-3.4c0,0,0,0,0,0c2.8-6.8,9.8-10.8,17-9.7c5.5,0.8,8.9,4.3,11.5,8.8c1.2,2.2,2,4.5,2.5,7
		c0.8,3.5,1,7.1,0.7,10.6c-0.5,6.1-2.3,11.7-7.4,15.7c-2.7,2.1-5.9,3.4-9.3,3.8c-0.2,0-0.4,0.1-0.6,0.1c-1.4,0.4-2.8-0.4-3.2-1.8
		c-0.1-0.3-0.1-0.5-0.1-0.8c0-1.5,1.1-2.8,2.6-2.8C864.5,94.2,864.7,94.2,864.9,94.3z"/>
	<path class="st14" d="M970.7,97.4c5.7-0.7,9.5-3.6,11.4-9c1.8-5.2,1.9-10.9,0.1-16.1c-0.1-0.4-0.2-0.7-0.5-1
		c-0.1-0.9-0.5-1.8-1.1-2.6c-1.7-2.7-3.6-5.1-6.9-5.9c-2.5-0.6-5.1-1-7.7,0.1c-2,0.9-3.5,2.4-4.5,4.4c-0.8,1.5-2,2.1-3.4,1.6
		c-1.3-0.5-1.9-1.9-1.5-3.2c0-0.1,0.1-0.2,0.1-0.3c2.3-4.8,5.9-7.7,11.3-8.1c8-0.6,13.5,2.9,17.2,9.8c0.7,1.5,1.4,3.1,2,4.7
		c0.1,0,0.1,0,0.1,0.1c0,0.1,0,0.1-0.1,0.1c0.5,1.9,0.8,3.9,1,5.8c0.4,5.6-0.4,11-3.2,15.9c-2.6,4.6-7.2,7.8-12.5,8.7
		c-0.8,0.2-1.5,0.2-2.3,0.4c-0.6,0.5-1.2,0.1-1.7-0.2c-1-0.6-1.5-1.7-1.2-2.9c0.2-1.1,1.1-1.9,2.1-2.2
		C970,97.2,970.4,97.2,970.7,97.4z"/>
	<path class="st15" d="M997.4,72.3c-1.6,0-3.2-0.1-4.8-0.3C994.3,72,995.9,72.1,997.4,72.3z"/>
	<path class="st16" d="M987.4,71.7c0,0,0-0.1,0-0.1l3,0.3C989.4,71.9,988.4,71.9,987.4,71.7z"/>
	<path class="st17" d="M980.2,71.2c-0.7,0.3-1.4,0-2,0C978.8,71,979.5,71,980.2,71.2z"/>
	<path class="st18" d="M863.7,69.1c-0.7,0.3-1.3,0-2,0C862.3,68.9,863,68.9,863.7,69.1z"/>
	<path class="st19" d="M861.1,69c-0.6,0.3-1.2,0-1.8,0C859.8,68.9,860.5,68.9,861.1,69z"/>
	<path class="st20" d="M851.2,68.8c-0.6,0.3-1.2,0-1.8,0C850,68.7,850.6,68.7,851.2,68.8z"/>
	<path class="st21" d="M856.2,68.9c-0.6,0.3-1.2,0-1.8,0C854.9,68.8,855.6,68.8,856.2,68.9z"/>
	<path class="st22" d="M858.5,69c-0.6,0.3-1.2,0-1.8,0C857.3,68.8,857.9,68.8,858.5,69z"/>
	<path class="st23" d="M949,70.5c-0.6,0.3-1.1,0-1.6,0C947.9,70.3,948.5,70.3,949,70.5z"/>
	<path class="st24" d="M865.8,69.1c-0.6,0.3-1.1,0-1.7,0C864.7,69,865.3,69,865.8,69.1z"/>
	<path class="st25" d="M853.6,68.9c-0.6,0.3-1.1,0-1.7,0C852.5,68.7,853,68.7,853.6,68.9z"/>
	<path class="st26" d="M963.8,70.8c-0.6,0.3-1.1,0-1.6,0C962.7,70.6,963.3,70.6,963.8,70.8z"/>
	<path class="st23" d="M958.9,70.7c-0.6,0.3-1.1,0-1.6,0C957.8,70.5,958.4,70.5,958.9,70.7z"/>
	<path class="st23" d="M954,70.6c-0.6,0.3-1.1,0-1.6,0C952.9,70.4,953.4,70.4,954,70.6z"/>
	<path class="st27" d="M828.5,68.8c-0.5,0.3-0.9,0-1.4,0C827.6,68.6,828.1,68.6,828.5,68.8z"/>
	<path class="st28" d="M830.3,68.7c-0.5,0.3-1,0-1.4,0C829.3,68.6,829.8,68.6,830.3,68.7z"/>
	<path class="st29" d="M839.6,68.7c-0.5,0.3-0.9,0-1.4,0C838.6,68.5,839.1,68.5,839.6,68.7z"/>
	<path class="st22" d="M841.8,68.7c-0.5,0.3-1,0-1.5,0C840.8,68.6,841.3,68.6,841.8,68.7z"/>
	<path class="st30" d="M833.7,68.7c-0.4,0.3-0.9,0-1.3,0C832.8,68.6,833.3,68.5,833.7,68.7z"/>
	<path class="st31" d="M831.9,68.7c-0.4,0.3-0.8,0-1.3,0C831,68.6,831.5,68.6,831.9,68.7z"/>
	<path class="st32" d="M970.7,97.4c-1.6,0.1-2.6,0.9-2.8,2.1c-0.2,1.7,0.7,2.8,2.6,3c0.2,0.3,0.3,0.7,0.3,1.1
		c-0.2,1.9-0.1,3.9-0.3,5.8c-0.1,1.3-1.1,2.3-2.4,2.2c-0.1,0-0.1,0-0.2,0c-1.3,0-2.4-1.1-2.3-2.5c0,0,0,0,0,0
		c0.1-3.8,0.3-7.6,0.1-11.4c-0.1-2.6-0.3-5.3-0.4-7.9c-0.2-1.4,0.8-2.7,2.1-2.9c1.3-0.2,2.6,0.7,2.9,2c0,0,0,0.1,0,0.1
		C970.6,91.8,970.7,94.6,970.7,97.4z"/>
	<path class="st32" d="M864.9,94.3c-0.3,0.2-0.6,0.1-0.8,0.2c-1.3,0.2-2.2,1.4-2.2,2.7c0.1,1.3,1,2.3,2.3,2.4l0.8,0.1
		c-0.2,2.2-0.1,4.5-0.4,6.7c-0.1,1.4-1.3,2.5-2.7,2.4c0,0,0,0-0.1,0c-1.4-0.1-2.4-1.3-2.4-2.7c0-0.1,0-0.2,0-0.3
		c0.4-4.8,0.5-9.6,0.3-14.3c-0.1-1.4-0.1-2.8,0-4.2c0-1.4,1-2.5,2.4-2.6c0.1,0,0.1,0,0.2,0c1.4,0.1,2.5,1.3,2.5,2.7
		C864.8,89.7,864.9,92,864.9,94.3z"/>
</g>
<g id="Layer_13">
	<g id="tree">
		<circle class="st33" cx="327" cy="345.6" r="41"/>
		<circle class="st33" cx="302.4" cy="396" r="41"/>
		<ellipse class="st33" cx="341.3" cy="402.5" rx="41" ry="63.6"/>
		<ellipse class="st33" cx="302.4" cy="449.3" rx="41" ry="36.5"/>
		<ellipse class="st34" cx="351.7" cy="468.2" rx="41" ry="36.5"/>
		<ellipse class="st33" cx="360.6" cy="412.8" rx="41" ry="36.5"/>
		<ellipse class="st33" cx="324" cy="479.6" rx="41" ry="36.5"/>
		<path class="st35" d="M329.7,333.1c-1.2,103.4,5.8,243.1,11.2,260.9h-32c14-39,18.7-157.5,17.5-260.9H329.7z"/>
		<path class="st35" d="M315.8,404l10.9,1.9l-0.8,3.4l-10.6-3.4c-0.5-0.3-0.7-0.9-0.4-1.4C315.1,404.2,315.4,404,315.8,404z"/>
		<path class="st35" d="M315.1,476.4l9.7,1.7l-0.8,3.4l-9.4-3c-0.5-0.2-0.8-0.8-0.6-1.3C314.2,476.6,314.6,476.3,315.1,476.4z"/>
		<path class="st35" d="M338.8,441.3l-8,5.7l-1.8-2.9l8.7-4.6c0.5-0.3,1.1-0.1,1.4,0.4C339.4,440.4,339.2,441,338.8,441.3z"/>
		<path class="st35" d="M333.7,380l-3.9,2.8c-0.6,0.4-1.4,0.3-1.8-0.3c0,0,0,0,0-0.1l-0.4-0.6c-0.4-0.6-0.2-1.4,0.4-1.8
			c0,0,0,0,0.1,0l4.2-2.2c0.6-0.3,1.4-0.1,1.8,0.5C334.4,378.9,334.2,379.6,333.7,380z"/>
	</g>
	<g id="tree-2">
		<circle class="st36" cx="558" cy="309.7" r="50.3"/>
		<circle class="st36" cx="535.8" cy="367.4" r="50.3"/>
		<ellipse class="st36" cx="563" cy="360" rx="50.3" ry="78"/>
		<ellipse class="st36" cx="512.7" cy="412.1" rx="50.3" ry="44.7"/>
		<ellipse class="st36" cx="577.8" cy="440.3" rx="66.1" ry="44.7"/>
		<ellipse class="st36" cx="597" cy="371.9" rx="50.3" ry="44.7"/>
		<ellipse class="st36" cx="525.3" cy="444.1" rx="50.3" ry="44.7"/>
		<path class="st35" d="M559,319.8c-1.3,104.4,12.5,247.9,26.8,271.6c0.7,1.1-0.3,2.5-1.8,2.5h-56.5c-1.5,0-2.4-1.3-1.8-2.4
			c23-42,30.7-165,29.3-271.7c0.1-1,1-1.8,2-1.7c0,0,0,0,0,0l0,0C558.1,318,558.9,318.8,559,319.8z"/>
		<path class="st35" d="M538.9,360.6l16.5,2.8l-1,4.1l-16-5.1c-0.5-0.3-0.7-0.9-0.4-1.4C538.2,360.8,538.6,360.6,538.9,360.6z"/>
		<path class="st35" d="M537.8,449.2l15.3,2.6l-1,4.1l-14.8-4.7c-0.6-0.1-0.9-0.7-0.8-1.3C536.7,449.5,537.3,449.1,537.8,449.2z"/>
		<path class="st35" d="M575.5,404l-12.6,9l-2.2-3.6l13.7-7.2c0.5-0.3,1.2-0.1,1.5,0.4C576.1,403.1,575.9,403.7,575.5,404L575.5,404
			z"/>
		<path class="st35" d="M567.4,329.3l-8.4,6.1c-0.6,0.4-1.4,0.3-1.8-0.3c0,0,0,0,0-0.1l-0.8-1.2c-0.4-0.6-0.2-1.4,0.4-1.8
			c0,0,0.1,0,0.1,0l9.2-4.9c0.7-0.3,1.4,0,1.7,0.7C568,328.3,567.9,328.9,567.4,329.3z"/>
	</g>
	<g id="tree-3">
		<circle class="st37" cx="239.4" cy="388.5" r="36.6"/>
		<circle class="st37" cx="223.2" cy="430.5" r="36.6"/>
		<ellipse class="st37" cx="243.1" cy="425.1" rx="36.6" ry="56.8"/>
		<ellipse class="st37" cx="206.5" cy="463" rx="36.6" ry="32.6"/>
		<ellipse class="st37" cx="253.9" cy="483.5" rx="48.1" ry="32.6"/>
		<ellipse class="st37" cx="267.8" cy="433.8" rx="36.6" ry="32.6"/>
		<ellipse class="st37" cx="215.6" cy="486.3" rx="36.6" ry="32.6"/>
		<path class="st38" d="M229.3,426.2l8.2,1.4l-0.7,3l-8-2.5c-0.5-0.3-0.7-0.9-0.4-1.4C228.6,426.4,228.9,426.2,229.3,426.2z"/>
		<path class="st38" d="M228.8,490.8l7.1,1.2l-0.7,3l-6.8-2.2c-0.6-0.1-0.9-0.7-0.8-1.3C227.7,491,228.3,490.6,228.8,490.8z"/>
		<path class="st38" d="M248.8,459.6l-5.8,4.2l-1.6-2.6l6.3-3.3c0.5-0.2,1.2,0,1.4,0.5C249.3,458.8,249.1,459.3,248.8,459.6z"/>
		<path class="st38" d="M242.1,405.7l-1.6,1.2c-0.6,0.4-1.4,0.3-1.8-0.3c0,0,0,0,0-0.1l-0.1-0.2c-0.4-0.6-0.2-1.4,0.4-1.8
			c0,0,0.1,0,0.1,0l1.8-0.9c0.6-0.4,1.4-0.2,1.8,0.4C242.9,404.6,242.7,405.4,242.1,405.7z"/>
		<path class="st38" d="M236.3,395.2c-0.9,78.6,3.3,193.7,8,198.4h-19.7c7.5-14.3,10.1-119.8,9.2-198.4H236.3L236.3,395.2z"/>
	</g>
	<g id="tree-4">
		<circle class="st39" cx="143.1" cy="393.1" r="35.5"/>
		<circle class="st39" cx="123.4" cy="436.9" r="35.5"/>
		<ellipse class="st39" cx="123.4" cy="466.2" rx="35.5" ry="31.5"/>
		<ellipse class="st39" cx="141.6" cy="504.6" rx="46.6" ry="31.5"/>
		<ellipse class="st39" cx="162.5" cy="429.6" rx="35.5" ry="31.5"/>
		<ellipse class="st39" cx="158.8" cy="472.2" rx="35.5" ry="31.5"/>
		<path class="st40" d="M143.2,400.5c-0.7,55.2,5.9,193.4,5.1,193.4h-11c-0.8,0,4.5-137,3.8-193.4c0.1-0.6,0.6-1,1.2-0.9
			C142.8,399.7,143.2,400.1,143.2,400.5L143.2,400.5z"/>
		<path class="st40" d="M133.7,429.7l7.6,1.3l-0.7,2.9l-7.3-2.3c-0.5-0.3-0.7-0.9-0.4-1.4C133,429.9,133.3,429.7,133.7,429.7z"/>
		<path class="st40" d="M135.2,493.2l6.4,1.1l-0.7,2.9l-6.2-2c-0.5-0.1-0.9-0.7-0.7-1.2C134.1,493.4,134.7,493.1,135.2,493.2z"/>
		<path class="st40" d="M147.7,464.5l-5.2,3.7l-1.6-2.5l5.7-3c0.5-0.2,1.2,0,1.4,0.5C148.2,463.7,148.1,464.2,147.7,464.5z"/>
		<path class="st40" d="M145.2,410.2l-1.1,0.8c-0.6,0.4-1.4,0.3-1.8-0.3c0,0,0,0,0-0.1l-0.1-0.2c-0.4-0.6-0.2-1.4,0.4-1.8
			c0,0,0.1,0,0.1-0.1l1.2-0.6c0.6-0.4,1.4-0.2,1.8,0.4C146,409,145.8,409.8,145.2,410.2L145.2,410.2z"/>
	</g>
	<path class="st38" d="M54.6,106.3v505.3H700V106.3H54.6z M670.7,582.3H83.9V135.6h586.8V582.3z"/>
	<path class="st38" d="M82.1,135.2v446.6h293.4V135.2H82.1z M216.6,557.4h-110V373.2h110V557.4z M216.6,348.8h-110V159.6h110V348.8z
		 M351.1,557.4H241V373.2h110L351.1,557.4z M351.1,348.8H241V159.6h110L351.1,348.8z"/>
	<path class="st38" d="M376.9,135.2v446.6h293.4V135.2H376.9z M511.3,557.4h-110V373.2h110V557.4z M511.3,348.8h-110V159.6h110
		V348.8z M645.8,557.4h-110V373.2h110V557.4z M645.8,348.8h-110V159.6h110V348.8z"/>
	<path class="st41" d="M744.9,458.3c16.4,37.5,34.6,36.3,50.9,38.5c20.7,2.8,19.5,4.1,24.7,9.9c18.5,20.8,15.2,65.5-2.7,88.2
		c-43.1,54.8-238.1-7.7-249.4-60.5c-2.7-12.8,54.4-2.8,101.4-58"/>
	<path class="st42" d="M733.2,548.5c49.9-9.8,67.3-35.8,73.2-49.9c-7.8-5.6-17.6-2.6-17.6-2.6c-0.6,22-38.4,42.6-81.7,40.7
		s-56.2-42.2-56.2-42.2s-6.1-1.1-15.3,4C641.3,515,664,562.1,733.2,548.5z"/>
	<path class="st42" d="M944.9,624.8c-5-51.7-43.8-77.6-52.9-86.5c-36.5,0-87.3,102.9-60.8,157h124.5
		C955.6,695.3,949.9,676.5,944.9,624.8z"/>
	<path class="st42" d="M573.3,528.2c-6.6,3.7-29.4,10.2-34.2,13.9c-14,10.8-97.3,153.1-97.3,153.1H535
		C531.5,651,541.9,588.3,573.3,528.2z"/>
	<path class="st43" d="M831.2,695.2c-2.8-9.4-14.5-52.9,60.8-157c-26.2-25.6-64.6-35.8-85.7-39.6c-5.8,14.1-23.2,40.1-73.2,49.9
		c-69.1,13.5-91.8-33.6-97.6-50c-1,0.2-1.9,0.4-2.8,0.7c-11.5,3.2-36.6,16.8-63.4,31.7C538,591,524.4,651,528,695.2H831.2z"/>
	<path class="st44" d="M615.1,306.3c0,0-11.4,57.9,0.7,98s35.1,86.7,47.9,95.2s33.2,15,61.8,2.7s40.6-82,40.6-82s11.3-0.8,13.7-15.6
		c1.3-8.1,1.2-22.9,7.5-29.9c2.7-3,0.3-18.6-2-21.3c-5.4-6.2-10.9-1.7-10.9-1.7s-17.5-34-15.8-38.8S654.9,242.1,615.1,306.3z"/>
	<path class="st45" d="M610.2,354.6c0,0-14.9-43.5-9.1-53.3s0.6-19.2,21.7-31.7c14-8.4,29.5-13.8,45.7-16
		c14.1-1.9,12.5-4.7,44.4-0.2c18,2.6,34.9,6.2,48,28.9s17.5,21.8,16,36.6s-2.6,32.6-2.6,32.6s-5.9,2-8,21.3
		c-2.7,25.4-11.2-25-25.5-50.6c-9.9-17.7-5.3-22.4-27-27.1c-18.1-4-89.6,2.9-97.2,14.7C609.9,320.2,613.6,341.9,610.2,354.6"/>
	<path class="st46" d="M610.6,376.8c-2.2,0-4-1.8-4-4c0-0.9,0.3-1.8,0.9-2.5c0.4-0.5,9.7-11.8,28.1-9.8c2.2,0.2,3.8,2.2,3.6,4.4
		c-0.2,2.2-2.2,3.8-4.4,3.6c-13.9-1.5-20.7,6.5-21,6.9C612.9,376.3,611.8,376.8,610.6,376.8z"/>
	<path class="st46" d="M680.3,363.6c-2.2,0-4-1.8-4-4c0-1.4,0.7-2.7,1.9-3.4c0.6-0.4,15-8.8,36.9-3.1c2.2,0.5,3.5,2.6,3.1,4.8
		s-2.6,3.5-4.8,3.1c-0.1,0-0.2,0-0.3-0.1c-18.5-4.8-30.2,1.9-30.7,2.2C681.7,363.4,681,363.6,680.3,363.6z"/>
	<path class="st46" d="M664.1,437.5c-4.2,0-7.2-1-9-3.2c-3.6-4.2-2.2-11.4,0.1-21.1c5.6-22.8,1.3-32.1,1.3-32.2
		c-0.3-0.8,0-1.6,0.8-2c0.7-0.3,1.5,0,1.9,0.7c0.2,0.4,4.8,10.2-1,34.2c-2,8.3-3.5,15.4-0.8,18.5c1.6,1.8,4.7,2.5,9.5,2
		c0.8-0.1,1.6,0.5,1.6,1.4c0.1,0.8-0.5,1.6-1.4,1.6C666.2,437.4,665.2,437.5,664.1,437.5z"/>
	<path class="st46" d="M643.3,380.5c0.6,0,1.1,0.1,1.7,0.1c1.5,0.1,2.9,0.9,3.8,2.2c0.7,1.2,0.4,2.7-0.8,3.4
		c-1.1,0.7-2.5,0.4-3.3-0.6c-1.8-0.9-11.4,0.6-21.2,8.5c-1.1,0.8-2.7,0.7-3.5-0.4c-0.8-1.1-0.7-2.6,0.4-3.5
		C628.7,383.5,637.7,380.4,643.3,380.5z"/>
	<path class="st46" d="M702,375.1c7.1-1.7,14.7-1.8,18.7,0.8c1.2,0.7,1.5,2.3,0.8,3.4s-2.3,1.5-3.4,0.8c-4.1-2.5-15.9-1.1-23.4,2.9
		c-1.2,0.6-2.7,0.2-3.4-1c-0.6-1.2-0.2-2.7,1-3.4C695.4,377.1,698.6,375.9,702,375.1z"/>
	<path class="st47" d="M627.6,476.5l-0.3,0.6c0-0.3,0-0.5-0.1-0.8C627.3,476.4,627.4,476.5,627.6,476.5z M622.6,488.3l0.3-0.2l0,0
		L622.6,488.3z M622,478.9c0-0.3-0.1-0.5-0.2-0.8c0.2,0,0.5,0.1,0.7,0.2C622.3,478.5,622.2,478.7,622,478.9z M657.6,491.6
		c-0.1,0.2-0.2,0.4-0.3,0.5c0,0,0-0.1,0-0.1l-0.1-0.1L657.6,491.6z"/>
	<path class="st46" d="M680.4,470.5c1.4-0.2,2.7,0.7,2.9,2.1c0.2,1-0.3,2.1-1.3,2.6c-0.9,0.5-1.7,1-2.4,1.4c-3.3,2-5.2,3-12.5,4
		c-1.4,0.2-2.6-0.8-2.8-2.2c-0.2-1.4,0.8-2.6,2.2-2.8l0,0l0,0c6.5-0.8,7.8-1.6,10.5-3.3c0.7-0.4,1.5-0.9,2.5-1.5
		C679.8,470.7,680.1,470.6,680.4,470.5z"/>
</g>
</svg>
