<?xml version="1.0" encoding="utf-8"?>
<!-- Generator: Adobe Illustrator 25.2.1, SVG Export Plug-In . SVG Version: 6.00 Build 0)  -->
<svg version="1.1" id="Layer_1" xmlns="http://www.w3.org/2000/svg" xmlns:xlink="http://www.w3.org/1999/xlink" x="0px" y="0px"
	 viewBox="0 0 509.81 370.56" style="enable-background:new 0 0 509.81 370.56;" xml:space="preserve">
<style type="text/css">
	.st0{display:none;}
	.st1{display:inline;}
	.st2{display:inline;clip-path:url(#SVGID_2_);}
	.st3{fill:#FFCC99;}
	.st4{fill:#663300;}
	.st5{fill:#4A448C;}
	.st6{fill:#996633;}
	.st7{fill:#DD9452;}
	.st8{fill:#D4BB69;}
	.st9{fill:#010000;}
	.st10{fill:#010100;}
	.st11{fill:#010101;}
	.st12{clip-path:url(#SVGID_4_);}
	.st13{fill:#050505;}
	.st14{display:inline;clip-path:url(#SVGID_6_);}
	.st15{display:inline;clip-path:url(#SVGID_8_);}
</style>
<g class="st0">
	<defs>
		<rect id="SVGID_1_" x="59.03" y="-3" width="395.32" height="375"/>
	</defs>
	<clipPath id="SVGID_2_" class="st1">
		<use xlink:href="#SVGID_1_"  style="overflow:visible;"/>
	</clipPath>
	<g class="st2">
		<path class="st3" d="M231.62,152.9l5.35,44.79l56.84,11.2l1.33-66.69L231.62,152.9z"/>
		<path class="st4" d="M205.88,201.7l126.88-7.05l11.54,174l-159.61-9.09L205.88,201.7z"/>
		<path class="st4" d="M233.87,164.41c0,0,2.98,18.04,8.5,25.58c5.52,7.54,18.89,109.34,17.05,123.22
			c-1.03,7.79-2.49,16.79-3.56,23.18c-0.83,4.93-4.93,8.65-9.92,8.97l-16.61,1.11l-9.42-170.02L233.87,164.41z"/>
		<path class="st4" d="M293.55,166.5c-3.23,5.54-19.15,40.91-19.8,52.45c-0.73,12.95-2,116.02,2.34,122.58
			c4.34,6.56,27.08,4.69,27.08,4.69l16.5-172.24C313.75,171.45,307.51,168.25,293.55,166.5z"/>
		<path class="st3" d="M120.19,95.55c-0.45-0.83-0.91-1.65-1.37-2.47c-0.27-0.57-0.54-1.15-0.81-1.72
			c-0.37-0.97-0.61-2.02-1.58-2.62c-0.38-0.7-0.77-1.41-1.16-2.12c-0.11-0.4-0.28-0.75-0.77-0.75c-0.49-0.76,0.06-1.24,0.51-1.7
			c2.37-2.47,3.38-5.55,3.96-8.83c0.81-4.6,0.22-9.14-0.59-13.66c-1.74-9.8-4.48-19.59,0.14-29.38c0.64-1.35-0.25-2.37-1.71-2.65
			c-1.14-0.22-2.26-0.07-3.38,0.36c-4.63,1.78-7.03,5.69-7.01,11.5c-0.45,2.39-0.81,4.8-1.39,7.15c-0.49,1.95-0.91,4.27-3.34,4.68
			c-2.23,0.37-3.19-1.69-4.24-3.14c-3.85-5.3-6.65-11.21-9.61-17.02c-1.11-2.42-1.96-4.98-3.68-7.07c0,0,0-0.01-0.01-0.01
			c-1.98-4.59-4.73-8.56-9.1-11.2c-0.45,0.12-0.9,0.25-1.35,0.38c-0.95-0.14-1.76,0.01-2.22,0.94c-0.05,0.01-0.11,0.02-0.17,0.04
			c-1.84,2.26-0.53,4.27,0.36,6.32c-0.01-0.01-0.03-0.01-0.03-0.03c-0.14-0.31-0.3-0.61-0.44-0.93c-0.38-0.89-0.95-1.67-1.56-2.4
			c-1.11-1.33-2.08-2.92-4.2-2.65c-3.4-0.45-4.29,0.16-4.38,3.01c-0.23,2.31,0.98,4.23,1.8,6.51c-1.44-0.45-2.92-1.07-3.2,1.11
			c-0.51,0.76-0.46,1.59-0.33,2.44c0.21,4.07,1.79,7.74,3.4,11.46c-3.22-0.38-3.98,0.4-3.64,3.64c0.29,2.78,1.17,5.42,2.12,8.04
			c3.08,8.49,7.03,16.58,11.38,24.48c2.73,4.94,5.9,9.59,10.74,12.8c1.63,1.63,3.72,2.54,5.71,3.57c1.74,0.9,2.88,2.16,3.85,3.87
			c1.77,3.12,3.27,6.35,4.84,9.56c0.4,0.81,0.74,2.31,1.77,0.38c6.72-3.49,13.44-6.97,20.16-10.46
			C120.54,96.75,120.55,96.21,120.19,95.55z M61.62,45.42c0.02-0.01,0.03-0.03,0.05-0.04c0.02,0.05,0.04,0.1,0.07,0.14
			C61.7,45.49,61.66,45.45,61.62,45.42z M110.97,42.1c-0.18-0.03-0.23-0.14-0.2-0.31C110.82,41.91,110.89,42.01,110.97,42.1z
			 M73,46.91c0.05,0.08,0.1,0.16,0.14,0.25c-0.04-0.07-0.09-0.14-0.13-0.21C73.01,46.94,73,46.93,73,46.91z M77.15,47.53
			c-0.02-0.03-0.03-0.06-0.05-0.09c0.03,0.02,0.05,0.04,0.08,0.05C77.16,47.51,77.16,47.52,77.15,47.53z M94.67,58.94
			c0.3-0.1,0.5-0.01,0.64,0.18C95.1,59.07,94.88,59.01,94.67,58.94z M96.59,53.7c-0.09-0.03-0.18-0.05-0.27-0.08
			c0-0.01-0.01-0.01-0.01-0.02c0.06,0.01,0.12,0.03,0.18,0.04C96.54,53.67,96.56,53.69,96.59,53.7z M84.35,34.15
			c0.01,0.01,0.01,0.03,0.01,0.04c-0.01-0.02-0.03-0.03-0.04-0.05C84.33,34.13,84.34,34.14,84.35,34.15z M79.75,26.1
			c0.02,0,0.04,0.01,0.06,0.01c-0.01,0.02-0.03,0.04-0.04,0.06C79.76,26.14,79.75,26.12,79.75,26.1z M63.58,47.01
			c0.01-0.03,0.02-0.05,0.03-0.08C63.66,47.04,63.62,47.02,63.58,47.01z M98.75,78.63C98.75,78.62,98.75,78.62,98.75,78.63
			C98.75,78.61,98.75,78.62,98.75,78.63C98.75,78.62,98.75,78.62,98.75,78.63z M114.08,43.38c-0.03-0.03-0.08-0.07-0.1-0.11
			c0.03,0.02,0.08,0.03,0.11,0.05C114.08,43.35,114.08,43.37,114.08,43.38z M100.83,56.46c0.01-0.01,0.01-0.01,0.01-0.02
			c0,0.01,0,0.01,0,0.01C100.84,56.46,100.84,56.46,100.83,56.46z M64.75,32.01c-0.34-0.15-0.73-0.23-1.29-0.4
			c-0.03-0.23,0.03-0.43,0.43-0.55c0.22,0.16,0.41,0.35,0.59,0.55C64.57,31.75,64.65,31.88,64.75,32.01z M86.1,30.36
			c-0.05-0.03-0.1-0.05-0.15-0.08c0.03-0.01,0.05-0.03,0.08-0.03C86.05,30.28,86.07,30.32,86.1,30.36z M60.89,27.07
			c0.02,0.03,0.05,0.06,0.07,0.09c-0.01,0.05-0.02,0.1-0.03,0.14c0-0.01-0.01-0.01-0.01-0.01C60.67,27.5,60.85,26.94,60.89,27.07z"
			/>
		<path class="st3" d="M402.61,85.33c7.18,2.4,14.36,4.8,21.54,7.2c1.32,1.74,1.42,0.21,1.69-0.66c1.05-3.41,2.03-6.84,3.29-10.19
			c0.69-1.83,1.62-3.25,3.2-4.42c1.8-1.33,3.74-2.55,5.09-4.42c4.28-3.92,6.69-9.01,8.61-14.31c3.08-8.47,5.72-17.08,7.44-25.94
			c0.53-2.73,0.98-5.47,0.85-8.28c-0.16-3.25-1.04-3.9-4.16-3.03c1.02-3.93,2.01-7.81,1.59-11.86c0-0.85-0.08-1.69-0.7-2.36
			c-0.61-2.11-1.98-1.26-3.33-0.59c0.46-2.38,1.37-4.46,0.77-6.7c-0.53-2.81-1.5-3.27-4.79-2.29c-2.14,0.06-2.86,1.78-3.74,3.27
			c-0.49,0.82-0.94,1.67-1.17,2.61c-0.09,0.33-0.19,0.66-0.3,0.98c-0.01,0.01-0.02,0.02-0.03,0.03c0.56-2.17,1.53-4.36-0.63-6.3
			c-0.05-0.01-0.12-0.01-0.17-0.01c-0.59-0.85-1.42-0.86-2.34-0.57c-0.46-0.05-0.93-0.11-1.39-0.16c-3.91,3.29-6.01,7.63-7.25,12.48
			v0.01c-1.37,2.34-1.82,5-2.53,7.56c-2.02,6.2-3.86,12.47-6.85,18.3c-0.81,1.59-1.44,3.78-3.7,3.76c-2.47-0.02-3.24-2.24-4.03-4.1
			c-0.94-2.24-1.67-4.56-2.49-6.85c-0.88-5.75-3.85-9.23-8.71-10.27c-1.16-0.25-2.29-0.22-3.39,0.17c-1.4,0.51-2.11,1.65-1.27,2.88
			c6.09,8.96,4.9,19.06,4.7,29.01c-0.09,4.6,0.03,9.17,1.54,13.59c1.08,3.14,2.56,6.03,5.28,8.11c0.51,0.38,1.12,0.77,0.76,1.59
			c-0.49,0.08-0.6,0.45-0.65,0.87c-0.27,0.76-0.54,1.52-0.81,2.28c-0.87,0.75-0.94,1.82-1.16,2.84c-0.18,0.61-0.36,1.22-0.54,1.82
			c-0.32,0.88-0.65,1.76-0.96,2.65C401.63,84.72,401.72,85.24,402.61,85.33z M451.84,25.5c0.01-0.05,0.03-0.1,0.04-0.15
			c0.02,0.01,0.03,0.02,0.06,0.03C451.91,25.42,451.88,25.46,451.84,25.5z M402.84,29.43c0.05,0.16,0.02,0.29-0.15,0.34
			C402.74,29.67,402.79,29.56,402.84,29.43z M440.94,28.67c-0.03,0.08-0.07,0.15-0.1,0.23c0.03-0.1,0.05-0.18,0.1-0.27
			C440.94,28.64,440.94,28.65,440.94,28.67z M436.91,29.85c0.03-0.02,0.04-0.05,0.07-0.07c-0.01,0.03-0.02,0.07-0.03,0.1
			C436.93,29.87,436.91,29.86,436.91,29.85z M420.79,44.15c0.11-0.21,0.29-0.33,0.61-0.27C421.2,43.98,421,44.07,420.79,44.15z
			 M418.77,38.93c0.05-0.03,0.12-0.05,0.18-0.07c0,0.01,0,0.01,0,0.02c-0.09,0.03-0.17,0.08-0.25,0.12
			C418.71,38.98,418.73,38.95,418.77,38.93z M427.77,17.76c-0.01,0.02-0.02,0.04-0.03,0.06c0-0.01,0.01-0.03,0.01-0.04
			C427.75,17.77,427.76,17.76,427.77,17.76z M431.02,9.18c-0.02-0.02-0.03-0.03-0.05-0.05c0.02,0,0.04-0.01,0.05-0.01
			C431.03,9.13,431.03,9.15,431.02,9.18z M450.21,27.18c0.01,0.03,0.02,0.05,0.04,0.08C450.21,27.28,450.19,27.3,450.21,27.18z
			 M420.42,63.95C420.43,63.95,420.43,63.95,420.42,63.95C420.43,63.95,420.43,63.95,420.42,63.95
			C420.43,63.95,420.43,63.95,420.42,63.95z M399.8,31.47c0.03-0.03,0.06-0.05,0.1-0.08c-0.03,0.04-0.05,0.08-0.09,0.12
			C399.81,31.5,399.81,31.49,399.8,31.47z M414.91,42.38c0-0.01,0-0.01,0-0.01c0.01,0.01,0.01,0.01,0.01,0.02
			C414.92,42.38,414.92,42.38,414.91,42.38z M446.98,12.19c0.14-0.23,0.3-0.44,0.49-0.64c0.41,0.05,0.51,0.24,0.51,0.47
			c-0.53,0.26-0.9,0.4-1.22,0.6C446.84,12.47,446.91,12.33,446.98,12.19z M425.48,14.18c0.03,0.01,0.05,0.01,0.08,0.02
			c-0.05,0.03-0.1,0.07-0.14,0.1C425.45,14.26,425.46,14.22,425.48,14.18z M449.82,7.35c0,0.01,0,0.01-0.01,0.01
			c-0.02-0.04-0.04-0.09-0.05-0.13c0.02-0.03,0.04-0.07,0.05-0.1C449.83,7.01,450.1,7.53,449.82,7.35z"/>
		<path class="st5" d="M242.99,370.02c0,0-8.02-96.6-14.04-110.14c-6.01-13.54,4.11-97.58,1.61-94.07
			c-2.51,3.51-22.6,24.57-29.18,27.37c-6.59,2.82-13.92,3.86-30.67-2.77c-12.4-4.91-19.64-24.46-22.68-29.32
			c-2.84-4.53-17.73-62.47-21.29-74.34c-0.62-2.05-3.08-2.87-4.8-1.59L90.1,109.47c-1.98,1.51-2.85,4.06-2.21,6.47
			c2.41,9.03,28.92,92.47,43.37,107.62c12.1,12.68,45.34,22.38,56.19,43.16l-2.77,92.83L242.99,370.02z"/>
		<path class="st5" d="M432.29,87.48L397.07,68.4c-1.9-0.99-4.21,0.2-4.5,2.32c-1.67,12.28-14.85,80.58-16.94,85.5
			c-2.94,6.87-11.35,17.31-21.82,22.2c-20.24,5.58-43.17-9.41-43.17-9.41s3.55,36.59-8.48,59.15
			c-12.04,22.57-25.58,135.21-21.56,140.73c2.93,4.03,17.13,3.42,56.57,2.13c14.55-0.48,16.4-54.1,16.4-54.1s-0.94-39.25,5.35-58.34
			c9.95-19.08,57.53-56.67,61.09-77.59c3.51-20.65,14.48-78.17,15.45-87.47C435.74,91.05,434.48,88.67,432.29,87.48z"/>
		<path class="st6" d="M295.15,156.74c0,0-6.35,36.44-32.3,40.7l17.76,19.09c1.05,1.13,2.93,0.75,3.46-0.7l14.69-40.37
			c0.7-1.93,0.77-4.03,0.18-6L295.15,156.74z"/>
		<path class="st6" d="M231.62,158.83c0,0,6.48,34.35,32.43,38.62l-17.9,19.24c-0.98,1.06-2.75,0.7-3.24-0.66l-14.71-40.45
			c-0.73-1.99-0.76-4.18-0.08-6.21L231.62,158.83z"/>
		<path class="st3" d="M236.3,60.28c0,0-14.71,1.34-15.71,12.37c-1,11.03-0.08,36.69-0.08,36.69s-7.1-8.86-8.61-0.92
			c-1.39,7.35,0.42,35.23,9.11,27.87c8.69-7.35,1.25,41.58,36.35,43c32.1,1.3,41.48-24.46,42.46-33.76
			c0.98-9.31,1.92-18.3,1.92-18.3s10.69,7.07,6.77-21.82c-2-14.79-9.43-2.27-9.43-2.27s8.76-38.52-17.65-42.87
			C255.03,55.93,236.3,60.28,236.3,60.28z"/>
		<path class="st7" d="M235.4,166.99c0.27,0.22,0.53,0.44,0.79,0.66l0.8,0.62c0.53,0.4,1.05,0.8,1.6,1.16
			c1.09,0.73,2.13,1.46,3.27,2.05c2.19,1.28,4.41,2.36,6.65,3.22c4.47,1.76,8.98,2.62,13.46,2.48c4.49-0.12,8.99-1.31,13.53-3.16
			c4.54-1.88,9.04-4.45,13.95-7.08l0.36,0.34c-0.94,0.95-1.85,1.93-2.81,2.86c-0.99,0.9-1.93,1.85-2.99,2.68l-1.56,1.26l-1.63,1.18
			l-0.82,0.58l-0.85,0.53c-0.57,0.35-1.13,0.73-1.71,1.06c-4.65,2.65-9.89,4.48-15.32,4.65c-2.71,0.07-5.42-0.24-8.03-0.92
			c-2.61-0.68-5.13-1.72-7.48-3.02c-2.35-1.31-4.56-2.88-6.54-4.7c-0.99-0.91-1.91-1.89-2.78-2.92c-0.86-1.03-1.66-2.12-2.32-3.3
			L235.4,166.99z"/>
		<path class="st8" d="M297.15,102.27c-1.07-5.22-2.58-10.32-4.72-15.23c-1.08-2.47-2.38-4.83-3.81-7.14
			c-2.6-4.22-6.78-5.94-11.54-6.6c-5.57-0.78-11,0.4-16.38,1.52c-8.09,1.7-15.9,4.3-23.49,7.45c-4.68,1.94-8.07,5.37-10.8,9.36
			c-1.39,2.04-1.43,4.59-1.86,6.95c-0.5,2.77-0.68,5.57-0.58,8.39c0.03,0.68-0.09,1.33-0.25,1.98l-0.38,4.02
			c0,3.53,0,7.05-0.01,10.57c0,0.25-0.14,0.51-0.21,0.76c-2.66-3.56-3.52-7.74-4.22-11.91c-1.79-10.66-2.97-21.4-3.24-32.21
			c-0.04-1.64-0.66-2.92-1.67-4.13c-1.85-2.23-3.66-4.5-5.54-6.71c-1.67-1.96-2.84-4.17-3.75-6.53c-0.72-1.89-0.3-2.8,1.69-3.53
			c2.22-0.83,4.61-0.96,6.92-1.48c7.74-1.74,14.96-4.78,22.06-8.11c7.96-3.72,16.13-6.83,24.92-8.24c4.51-0.72,8.99-0.46,13.43,0.39
			c5.34,1.02,10.59,2.43,15.49,4.7c7.72,3.59,12.54,9.54,14.67,17.55c1.71,6.42,2.51,12.97,2.82,19.57
			c0.34,7.4-0.96,6.82-0.63,14.22c0.08,1.6-3.87,12.06-5.16,13.49c-0.25,0.28-0.4,0.85-0.88,0.7c-0.46-0.14-0.31-0.69-0.39-1.07
			c-0.27-1.17-0.49-2.35-0.72-3.53L297.15,102.27z"/>
		<path d="M253.15,142.97c-0.01-5.02,3.98-8.84,9.23-8.82c4.3,0.01,7.38,3.54,7.44,8.51c0.05,4.68-3.63,8.65-8.03,8.69
			C256.88,151.37,253.15,147.75,253.15,142.97z"/>
		<path d="M232.83,100.76c1.41-4.46,5.41-7.46,10.33-7.73c2.4-0.13,4.81-0.05,7.22-0.03c0.48,0.01,0.97,0.15,1.43,0.29
			c1.8,0.57,2.6,1.6,2.38,3.03c-0.22,1.41-1.32,2.33-3.16,2.21c-4.11-0.26-8.19-0.36-12.22,0.7
			C236.87,99.76,235.03,100.66,232.83,100.76z"/>
		<path d="M288.26,94.94c-2.77-0.62-5.74-0.87-8.76-0.33c-2.22,0.4-4.28,1.32-6.47,1.82c-2.09,0.48-3.14,0.03-3.73-1.59
			c-0.55-1.55-0.02-2.9,1.79-3.7c6.34-2.8,12.46-2.13,18.3,1.49c0.53,0.33,1.25,0.77,0.9,1.54
			C289.97,94.89,289.19,94.97,288.26,94.94z"/>
		<path class="st9" d="M289.31,108.07c-1.25-0.8-2.41-1.49-3.52-2.26c-2.99-2.07-6.06-2.23-9.25-0.49
			c-1.24,0.68-2.47,1.39-3.95,1.49c-0.79,0.06-1.2-0.12-0.77-0.97c0.19-0.38,0.34-0.85,0.65-1.11c3.17-2.73,6.7-4.32,10.99-3.18
			C286.53,102.37,289.06,105.14,289.31,108.07z"/>
		<path class="st10" d="M233.86,113.17c-0.27-0.88,0.01-1.59,0.46-2.21c2.28-3.1,5.09-5.57,8.82-6.79c3.38-1.1,6.85,0.36,8.69,3.68
			c-1.22,0.01-2.3-0.3-3.32-0.74c-2.75-1.18-5.22-0.69-7.55,1.04c-2.06,1.53-4.14,3.05-6.21,4.56
			C234.51,112.91,234.19,113.01,233.86,113.17z"/>
		<path class="st11" d="M259.11,114.03c-1.67-3.49-2.11-7.16-1.9-10.94c0.05-0.92,0.15-1.85,0.27-2.77c0.1-0.81,0.53-0.85,1.13-0.43
			c0.46,0.33,0.88,0.74,0.97,1.28C260.32,105.47,260.94,109.78,259.11,114.03z"/>
		<path class="st11" d="M255.78,121.95c0.47,3.71,3.03,4.01,5.94,3.76c0.46-0.04,1.11-0.21,1.39,0.23c0.33,0.53-0.2,1.01-0.47,1.45
			c-0.94,1.52-3.19,2.1-5.47,1.45c-1.69-0.49-3.27-2.36-3.29-3.91C253.88,124.03,254.48,123.05,255.78,121.95z"/>
		<path class="st10" d="M244.33,114.73c-1.87,0.01-3.33-1.26-3.3-2.9c0.04-1.76,1.78-3.37,3.62-3.33c1.63,0.03,3.19,1.55,3.22,3.12
			C247.9,113.33,246.32,114.72,244.33,114.73z"/>
		<path class="st10" d="M281.11,111.77c-1.73,0.02-3.08-1.13-3.12-2.67c-0.05-1.58,1.59-3.23,3.27-3.27
			c1.63-0.06,3.07,1.33,3.08,2.96C284.34,110.46,282.95,111.75,281.11,111.77z"/>
	</g>
</g>
<g>
	<defs>
		<rect id="SVGID_3_" x="13.97" y="21.3" width="485.27" height="325"/>
	</defs>
	<clipPath id="SVGID_4_">
		<use xlink:href="#SVGID_3_"  style="overflow:visible;"/>
	</clipPath>
	<g class="st12">
		<path class="st3" d="M220.13,131.54l5.28,44.16l56.1,11.04l1.32-65.75L220.13,131.54z"/>
		<path class="st4" d="M194.72,179.65l125.25-6.95l11.38,171.53l-157.56-8.96L194.72,179.65z"/>
		<path class="st4" d="M221.17,137.39c0,0,4.12,23.28,9.57,30.71c5.44,7.43,18.65,107.79,16.83,121.47
			c-1.02,7.67-2.46,16.55-3.51,22.86c-0.82,4.86-4.87,8.52-9.79,8.85l-16.4,1.09l-11.71-167.42L221.17,137.39z"/>
		<path class="st4" d="M284.98,136.98c-3.18,5.46-22.62,48.3-23.26,59.68c-0.72,12.77-1.98,114.37,2.31,120.84
			c4.28,6.47,26.73,4.62,26.73,4.62l16.29-169.79C301.2,149.83,287.46,144.72,284.98,136.98z"/>
		<path class="st3" d="M88.95,216.44c-0.63-0.68-1.26-1.36-1.9-2.04c-0.4-0.49-0.8-0.97-1.19-1.45c-0.58-0.84-1.07-1.79-2.14-2.13
			c-0.54-0.59-1.07-1.17-1.61-1.75c-0.2-0.36-0.45-0.65-0.92-0.54c-0.65-0.61-0.24-1.2,0.08-1.74c1.68-2.93,1.92-6.12,1.69-9.39
			c-0.32-4.59-1.98-8.79-3.83-12.93c-4.01-8.96-8.97-17.67-6.88-28.14c0.29-1.45-0.8-2.21-2.27-2.13c-1.15,0.06-2.19,0.47-3.14,1.15
			c-4.01,2.81-5.38,7.11-3.97,12.67c0.14,2.39,0.37,4.78,0.37,7.17c0,1.99,0.15,4.3-2.08,5.27c-2.04,0.88-3.45-0.86-4.81-1.99
			c-4.96-4.14-9.04-9.14-13.26-13.99c-1.64-2.05-3.06-4.29-5.21-5.89c0,0,0,0-0.01-0.01c-2.99-3.92-6.57-7.06-11.39-8.54
			c-0.4,0.23-0.8,0.45-1.21,0.68c-0.94,0.1-1.69,0.42-1.9,1.42c-0.05,0.03-0.1,0.05-0.16,0.07c-1.22,2.59,0.51,4.22,1.85,5.96
			c-0.01-0.01-0.03-0.01-0.04-0.01c-0.22-0.26-0.45-0.51-0.65-0.78c-0.57-0.76-1.31-1.37-2.07-1.93c-1.38-1-2.69-2.29-4.66-1.52
			c-3.37,0.38-4.08,1.17-3.47,3.92c0.32,2.26,1.95,3.81,3.29,5.79c-1.48-0.09-3.05-0.32-2.8,1.82c-0.31,0.85-0.06,1.64,0.27,2.41
			c1.17,3.84,3.56,6.98,6,10.15c-3.17,0.41-3.72,1.33-2.61,4.35c0.94,2.59,2.42,4.91,3.95,7.19c4.97,7.39,10.69,14.19,16.74,20.7
			c3.79,4.08,7.94,7.77,13.34,9.69c1.95,1.17,4.18,1.54,6.33,2.05c1.88,0.44,3.27,1.38,4.61,2.78c2.44,2.56,4.64,5.3,6.92,7.99
			c0.57,0.68,1.26,2.03,1.79-0.05c5.61-4.94,11.21-9.88,16.81-14.81C89.57,217.5,89.45,216.99,88.95,216.44z M20.88,182.44
			c0.01-0.01,0.02-0.03,0.04-0.05c0.03,0.04,0.07,0.08,0.09,0.12C20.97,182.48,20.92,182.46,20.88,182.44z M67.36,167.51
			c-0.18,0.02-0.25-0.09-0.27-0.26C67.17,167.36,67.26,167.44,67.36,167.51z M32.14,181.16c0.07,0.06,0.13,0.13,0.19,0.21
			c-0.06-0.05-0.12-0.12-0.18-0.17C32.14,181.18,32.14,181.17,32.14,181.16z M36.25,180.76c-0.03-0.03-0.05-0.05-0.07-0.07
			c0.03,0.01,0.05,0.03,0.09,0.03C36.27,180.73,36.26,180.74,36.25,180.76z M55.6,196.52c0.11-0.27,0.18-0.5,0.23-0.69
			c0.12,0.21,0.22,0.36,0.3,0.46C55.95,196.37,55.77,196.44,55.6,196.52z M55.76,187.5c0.26-0.17,0.47-0.14,0.65,0.02
			C56.2,187.52,55.98,187.52,55.76,187.5z M56.35,182.02c-0.09-0.01-0.18-0.01-0.27-0.01c-0.01-0.01-0.01-0.01-0.01-0.02
			c0.06,0,0.13-0.01,0.19-0.01C56.29,182,56.32,182.02,56.35,182.02z M39.96,166.24c0.01,0.01,0.01,0.02,0.02,0.03
			c-0.02-0.01-0.03-0.03-0.05-0.04C39.94,166.23,39.95,166.24,39.96,166.24z M33.63,159.63c0.02-0.01,0.04-0.01,0.05-0.01
			c-0.01,0.03-0.01,0.05-0.03,0.07C33.65,159.67,33.64,159.65,33.63,159.63z M23.14,183.49c0-0.03,0.01-0.05,0.01-0.08
			C23.21,183.5,23.18,183.49,23.14,183.49z M64.37,205.35L64.37,205.35C64.36,205.34,64.37,205.34,64.37,205.35z M70.63,167.99
			c-0.04-0.03-0.09-0.05-0.13-0.08c0.04,0.01,0.08,0.02,0.11,0.03C70.63,167.96,70.63,167.98,70.63,167.99z M61.07,183.65
			c0-0.01,0.01-0.01,0.01-0.02c0,0.01,0,0.01,0.01,0.01C61.07,183.65,61.07,183.65,61.07,183.65z M20.67,168.87
			c-0.36-0.06-0.76-0.05-1.34-0.08c-0.09-0.21-0.07-0.42,0.28-0.63c0.25,0.1,0.48,0.24,0.69,0.38
			C20.44,168.66,20.55,168.76,20.67,168.87z M40.73,162.2c-0.05-0.02-0.11-0.03-0.16-0.04c0.02-0.02,0.05-0.03,0.07-0.05
			C40.66,162.13,40.69,162.17,40.73,162.2z M15.8,165.06c0.03,0.02,0.06,0.05,0.09,0.07c0,0.05,0,0.1,0,0.14
			c0-0.01-0.01-0.01-0.01-0.01C15.69,165.52,15.73,164.94,15.8,165.06z"/>
		<path class="st5" d="M131.83,253.52c0,0-7.68-7.99-13.96-14.02c-3.81-3.66-21.35-32.93-27.59-43.44
			c-1.08-1.82-3.64-2.01-4.98-0.38l-24.68,30.85c-1.53,1.92-1.76,4.56-0.57,6.71c4.46,8.07,15.86,28.4,26.99,45.8
			c14.25,22.27,39.54,43.34,39.54,43.34"/>
		<path class="st3" d="M424.44,221.06c5.61,4.94,11.21,9.88,16.81,14.81c0.53,2.09,1.21,0.73,1.79,0.05
			c2.27-2.69,4.47-5.43,6.92-7.99c1.33-1.4,2.73-2.33,4.61-2.78c2.15-0.51,4.38-0.88,6.33-2.05c5.4-1.92,9.55-5.61,13.34-9.69
			c6.05-6.51,11.77-13.31,16.74-20.7c1.53-2.28,3-4.6,3.95-7.19c1.1-3.01,0.55-3.94-2.61-4.35c2.44-3.18,4.83-6.32,6-10.15
			c0.33-0.78,0.58-1.56,0.27-2.41c0.26-2.14-1.32-1.91-2.8-1.82c1.34-1.99,2.95-3.53,3.29-5.79c0.6-2.75-0.11-3.54-3.48-3.92
			c-1.97-0.77-3.29,0.52-4.66,1.52c-0.76,0.55-1.49,1.17-2.07,1.93c-0.21,0.27-0.43,0.53-0.65,0.78c-0.01,0.01-0.03,0.01-0.04,0.01
			c1.34-1.75,3.07-3.37,1.85-5.96c-0.05-0.03-0.1-0.05-0.15-0.07c-0.21-1-0.96-1.33-1.9-1.42c-0.4-0.23-0.8-0.45-1.21-0.68
			c-4.82,1.49-8.4,4.62-11.39,8.54c0,0,0,0-0.01,0.01c-2.15,1.6-3.57,3.84-5.21,5.89c-4.22,4.85-8.31,9.84-13.26,13.99
			c-1.36,1.13-2.77,2.88-4.81,1.99c-2.23-0.97-2.08-3.28-2.08-5.27c0-2.39,0.24-4.78,0.37-7.17c1.41-5.56,0.05-9.87-3.97-12.67
			c-0.96-0.67-2-1.08-3.14-1.15c-1.46-0.08-2.56,0.69-2.27,2.13c2.09,10.47-2.87,19.18-6.88,28.14c-1.85,4.14-3.5,8.34-3.83,12.93
			c-0.23,3.27,0,6.46,1.69,9.39c0.31,0.55,0.72,1.13,0.08,1.74c-0.48-0.12-0.72,0.18-0.93,0.54c-0.54,0.59-1.07,1.17-1.61,1.75
			c-1.07,0.35-1.56,1.29-2.14,2.13c-0.4,0.49-0.8,0.97-1.19,1.45c-0.63,0.68-1.27,1.35-1.9,2.04
			C423.78,220.13,423.66,220.65,424.44,221.06z M492.2,185.66c0.03-0.04,0.07-0.08,0.09-0.12c0.02,0.01,0.03,0.03,0.04,0.05
			C492.3,185.6,492.25,185.62,492.2,185.66z M446.14,170.4c-0.02,0.17-0.1,0.27-0.27,0.26C445.96,170.58,446.05,170.5,446.14,170.4z
			 M481.08,184.34c-0.06,0.06-0.12,0.11-0.18,0.17c0.06-0.07,0.12-0.14,0.19-0.21C481.08,184.31,481.08,184.33,481.08,184.34z
			 M476.96,183.86c0.03-0.01,0.05-0.03,0.09-0.03c-0.03,0.03-0.05,0.05-0.08,0.07C476.97,183.89,476.96,183.88,476.96,183.86z
			 M457.09,199.44c0.09-0.1,0.18-0.25,0.3-0.46c0.05,0.19,0.12,0.41,0.23,0.69C457.45,199.59,457.27,199.52,457.09,199.44z
			 M456.8,190.66c0.18-0.15,0.4-0.19,0.65-0.02C457.24,190.66,457.02,190.67,456.8,190.66z M456.97,185.14c0.06,0,0.12,0,0.19,0.01
			c-0.01,0.01-0.01,0.01-0.01,0.02c-0.1,0-0.18,0-0.27,0.01C456.9,185.16,456.93,185.15,456.97,185.14z M473.3,169.37
			c-0.02,0.01-0.03,0.03-0.05,0.04c0.01-0.01,0.01-0.02,0.02-0.03C473.28,169.38,473.29,169.37,473.3,169.37z M479.56,162.83
			c-0.01-0.03-0.01-0.05-0.03-0.07c0.02,0.01,0.04,0.01,0.05,0.01C479.58,162.8,479.57,162.81,479.56,162.83z M490.08,186.56
			c0,0.03,0,0.05,0.01,0.08C490.04,186.64,490.01,186.65,490.08,186.56z M448.85,208.49C448.85,208.49,448.86,208.49,448.85,208.49
			C448.86,208.49,448.86,208.5,448.85,208.49C448.85,208.5,448.85,208.5,448.85,208.49z M442.59,171.08
			c0.04-0.01,0.07-0.02,0.11-0.03c-0.04,0.03-0.08,0.05-0.13,0.08C442.59,171.12,442.59,171.1,442.59,171.08z M452.14,186.79
			c0-0.01,0-0.01,0.01-0.01c0,0.01,0.01,0.01,0.01,0.02C452.15,186.79,452.15,186.79,452.14,186.79z M492.91,171.69
			c0.22-0.15,0.45-0.29,0.7-0.38c0.35,0.21,0.37,0.42,0.28,0.63c-0.58,0.03-0.97,0.02-1.34,0.08
			C492.67,171.9,492.78,171.8,492.91,171.69z M472.59,165.25c0.02,0.02,0.05,0.03,0.07,0.05c-0.05,0.01-0.11,0.03-0.16,0.04
			C472.53,165.31,472.56,165.28,472.59,165.25z M497.35,168.4c0,0.01-0.01,0.01-0.01,0.01c0-0.05,0-0.09,0-0.14
			c0.03-0.02,0.06-0.05,0.09-0.07C497.49,168.09,497.53,168.67,497.35,168.4z"/>
		<path class="st5" d="M381.39,256.67c0,0,7.68-7.98,13.96-14.02c3.81-3.66,21.35-32.93,27.59-43.45c1.08-1.82,3.64-2.01,4.98-0.38
			l24.68,30.85c1.53,1.92,1.76,4.56,0.57,6.71c-4.46,8.06-15.86,28.4-26.99,45.8c-14.25,22.27-39.54,43.34-39.54,43.34"/>
		<path class="st5" d="M115.24,312.09c0,0-0.72-4.87,3.24-21.68c3.96-16.81,6.93-46.47,10.89-53.39c3.96-6.92-3.96-31.64,9.9-39.05
			c13.86-7.42,50.99-26.7,50.99-26.7s17.82-20.25,20.29-23.71c2.48-3.46,0.99,76.11,6.93,89.46
			c5.94,13.35,13.86,108.58,13.86,108.58l-85.21-1.84L115.24,312.09z"/>
		<path class="st5" d="M298.14,147.44c0,0,3.51,36.07-8.37,58.31c-11.88,22.25-25.25,133.29-21.29,138.73
			c2.89,3.98,51.42,0.38,90.36-0.89c14.36-0.47,45.23-34.92,45.23-34.92s-7.86-109.84-19.24-119.73
			C373.44,179.05,298.14,147.44,298.14,147.44z"/>
		<path class="st6" d="M282.84,135.33c0,0-6.27,35.93-31.89,40.12l17.53,18.82c1.04,1.12,2.89,0.74,3.41-0.69l14.5-39.79
			c0.7-1.9,0.76-3.97,0.18-5.92L282.84,135.33z"/>
		<path class="st6" d="M220.13,137.39c0,0,6.4,33.86,32.01,38.07l-17.67,18.97c-0.97,1.04-2.71,0.69-3.2-0.65l-14.53-39.88
			c-0.71-1.97-0.75-4.12-0.08-6.12L220.13,137.39z"/>
		<path class="st3" d="M224.75,40.25c0,0-14.52,1.32-15.51,12.2c-0.99,10.87-0.08,36.17-0.08,36.17s-7.01-8.73-8.5-0.91
			c-1.38,7.24,0.41,34.73,8.99,27.48c8.58-7.25,1.23,40.99,35.89,42.39c31.68,1.28,40.95-24.11,41.91-33.29
			c0.96-9.18,1.9-18.04,1.9-18.04s10.55,6.97,6.69-21.51c-1.98-14.58-9.31-2.24-9.31-2.24s8.65-37.97-17.42-42.26
			C243.23,35.95,224.75,40.25,224.75,40.25z"/>
		<path class="st7" d="M223.86,145.43c0.27,0.22,0.53,0.43,0.78,0.65l0.79,0.61c0.53,0.4,1.04,0.79,1.58,1.15
			c1.07,0.72,2.1,1.43,3.23,2.02c2.16,1.26,4.35,2.33,6.56,3.17c4.41,1.74,8.87,2.59,13.29,2.44c4.43-0.11,8.87-1.29,13.36-3.11
			c4.49-1.85,8.92-4.39,13.77-6.98l0.35,0.34c-0.93,0.94-1.82,1.91-2.77,2.82c-0.98,0.88-1.9,1.83-2.95,2.64l-1.54,1.25l-1.61,1.16
			l-0.81,0.57l-0.84,0.52c-0.57,0.34-1.11,0.72-1.69,1.04c-4.59,2.61-9.76,4.42-15.13,4.59c-2.67,0.07-5.35-0.24-7.93-0.9
			c-2.58-0.67-5.06-1.69-7.38-2.98c-2.32-1.29-4.5-2.84-6.45-4.63c-0.98-0.9-1.89-1.86-2.75-2.88c-0.85-1.02-1.64-2.09-2.29-3.25
			L223.86,145.43z"/>
		<path class="st8" d="M284.14,81.64c-1.06-5.15-2.54-10.17-4.66-15.01c-1.07-2.43-2.35-4.76-3.76-7.03
			c-2.57-4.16-6.69-5.86-11.39-6.51c-5.5-0.77-10.85,0.39-16.16,1.5c-7.99,1.68-15.69,4.24-23.19,7.34
			c-4.62,1.91-7.97,5.29-10.66,9.23c-1.37,2.01-1.41,4.52-1.84,6.85c-0.49,2.73-0.68,5.49-0.57,8.27c0.03,0.67-0.09,1.31-0.24,1.95
			l-0.38,3.96c0,3.48,0,6.95-0.01,10.42c0,0.25-0.13,0.5-0.2,0.75c-2.62-3.51-3.47-7.63-4.17-11.74c-1.77-10.51-2.93-21.1-3.2-31.75
			c-0.04-1.62-0.65-2.88-1.65-4.07c-1.82-2.2-3.61-4.44-5.46-6.62c-1.65-1.93-2.81-4.11-3.7-6.43c-0.71-1.86-0.3-2.76,1.67-3.48
			c2.19-0.82,4.55-0.95,6.83-1.46c7.64-1.71,14.76-4.72,21.77-7.99c7.86-3.67,15.92-6.73,24.6-8.12c4.45-0.71,8.87-0.45,13.26,0.38
			c5.27,1,10.46,2.4,15.29,4.64c7.62,3.54,12.37,9.41,14.48,17.3c1.69,6.33,2.48,12.78,2.78,19.3c0.34,7.3-0.95,6.72-0.62,14.02
			c0.07,1.58-3.82,11.89-5.09,13.3c-0.25,0.28-0.39,0.84-0.87,0.69c-0.45-0.13-0.3-0.68-0.38-1.05c-0.26-1.15-0.48-2.32-0.72-3.48
			L284.14,81.64z"/>
		<path d="M233.12,82.98c-4.17,0.12-8.26,0.82-12.33,1.64c-0.37,0.07-0.75,0.18-1.13,0.19c-0.54,0.01-0.97-0.22-1.24-0.73
			c-0.27-0.51-0.04-0.9,0.25-1.28c1.08-1.4,2.49-2.43,4.02-3.26c3.79-2.06,7.86-3.12,12.18-3.16c0.71-0.01,1.45,0.07,2.14,0.26
			c2.15,0.59,3.23,3.36,2.1,5.28c-0.4,0.69-1.04,0.93-1.79,1.04C235.92,83.17,234.52,82.95,233.12,82.98z"/>
		<path d="M268.38,73.93c2.22-0.01,4.81,0.36,7.26,1.46c0.67,0.3,1.21,0.69,1.11,1.51c-0.1,0.77-0.75,0.97-1.38,1.13
			c-2.69,0.67-5.46,0.81-8.2,1.1c-2.92,0.31-5.8,0.82-8.54,1.93c-1.52,0.61-2.52,0.27-3.24-1.02c-0.76-1.35-0.51-2.7,0.68-3.63
			c0.37-0.29,0.76-0.53,1.23-0.65c2.05-0.54,4.11-1.06,6.2-1.44C264.97,74.04,266.46,73.99,268.38,73.93z"/>
		<path d="M244.4,126.96c-1.38-0.1-2.98-0.27-4.53-0.77c-0.86-0.28-1.1-0.83-0.86-1.67c0.26-0.94,0.86-0.7,1.51-0.5
			c3.62,1.15,7.21,0.74,10.79-0.21c2.87-0.77,5.63-1.87,8.39-2.99c0.38-0.15,0.94-0.78,1.3-0.05c0.31,0.64,0.08,1.36-0.54,1.85
			C255.36,124.75,250.27,126.82,244.4,126.96z"/>
		<path d="M233.41,92.98c0.09,1.93-1.2,3.4-3.07,3.46c-1.79,0.07-3.32-1.23-3.41-2.9c-0.11-1.98,1.64-3.82,3.72-3.93
			C232.58,89.52,233.28,90.38,233.41,92.98z"/>
		<path d="M256.91,88.52c1.46-3.15,4.01-4.2,7-4.51c3.5-0.36,6.37,0.75,8.54,3.74c-1.21,0.42-2.13-0.08-3.12-0.3
			c-3.12-1.89-6.16-1.53-9.18-0.05C259.18,87.86,258.21,88.33,256.91,88.52z"/>
		<path class="st13" d="M240.1,104.63c0.13,1.02-0.03,1.99,0.25,2.92c0.5,1.68,1.55,2.55,3.31,2.61c1.88,0.05,3.56-0.65,5.18-1.5
			c0.67-0.34,1.27-0.83,2.09-0.99c0.19,0.54-0.14,0.91-0.34,1.28c-1.76,3.2-6.67,4.47-9.78,2.54
			C238.13,109.83,237.82,107.09,240.1,104.63z"/>
		<path d="M243.59,96.58c-0.64-1.23-0.76-2.45-0.87-3.65c-0.26-2.84,0.09-5.66,0.52-8.47c0.09-0.57,0.34-1.1,0.99-1.16
			c0.64-0.06,1.07,0.34,1.19,0.93C246.24,88.52,245.94,92.63,243.59,96.58z"/>
		<path class="st9" d="M236.19,90.4c-0.41-0.15-0.91-0.28-1.36-0.51c-2.75-1.42-5.5-1.13-8.23,0.03c-1.05,0.45-2.09,0.92-3.15,1.37
			c-0.34,0.14-0.77,0.38-1.05-0.03c-0.29-0.43-0.16-0.91,0.22-1.27c0.3-0.29,0.62-0.59,0.97-0.82c3.91-2.52,8.18-2.88,12.81-0.95
			c-0.41,0.44,1.29,0.94,0.77,1.83C236.97,90.42,236.6,90.38,236.19,90.4z"/>
		<path d="M264.73,93.39c-1.65,0.02-2.9-1.19-2.93-2.85c-0.03-1.57,1.34-2.7,3.33-2.75c1.75-0.05,2.94,0.86,2.95,2.26
			C268.08,91.82,266.52,93.37,264.73,93.39z"/>
	</g>
</g>
<g class="st0">
	<defs>
		<rect id="SVGID_5_" x="112.7" y="21.22" width="288.47" height="325"/>
	</defs>
	<clipPath id="SVGID_6_" class="st1">
		<use xlink:href="#SVGID_5_"  style="overflow:visible;"/>
	</clipPath>
	<g class="st14">
		<path class="st3" d="M217.5,131.46l5.28,44.16l56.03,11.04l1.31-65.75L217.5,131.46z"/>
		<path class="st4" d="M192.12,179.57l125.07-6.95l11.37,171.53l-157.35-8.96L192.12,179.57z"/>
		<path class="st4" d="M218.54,137.31c0,0,4.12,23.28,9.56,30.71c5.44,7.43,18.62,107.79,16.81,121.47
			c-1.02,7.67-2.45,16.55-3.51,22.86c-0.82,4.86-4.86,8.52-9.78,8.85l-16.37,1.09l-11.7-167.42L218.54,137.31z"/>
		<path class="st4" d="M282.26,136.9c-3.18,5.46-22.59,48.3-23.23,59.68c-0.72,12.77-1.97,114.37,2.31,120.84
			c4.28,6.47,26.69,4.62,26.69,4.62l16.27-169.79C298.46,149.75,284.73,144.64,282.26,136.9z"/>
		<path class="st5" d="M112.76,312c0,0-0.72-4.87,3.23-21.68c3.96-16.81,6.92-46.47,10.87-53.39c3.96-6.92-3.96-31.64,9.88-39.05
			c13.84-7.42,50.92-26.7,50.92-26.7s17.79-20.25,20.27-23.71c2.47-3.46,0.99,76.11,6.92,89.46
			c5.93,13.35,13.84,108.58,13.84,108.58l-85.09-1.84L112.76,312z"/>
		<path class="st5" d="M295.4,147.36c0,0,3.5,36.07-8.36,58.31s-25.21,133.29-21.26,138.73c2.89,3.98,51.35,0.38,90.23-0.89
			c14.35-0.47,45.16-34.92,45.16-34.92s-7.85-109.84-19.22-119.73S295.4,147.36,295.4,147.36z"/>
		<path class="st6" d="M280.12,135.25c0,0-6.26,35.93-31.84,40.12l17.5,18.82c1.04,1.12,2.89,0.74,3.41-0.69l14.48-39.79
			c0.69-1.9,0.75-3.97,0.17-5.92L280.12,135.25z"/>
		<path class="st6" d="M217.5,137.31c0,0,6.39,33.86,31.97,38.07l-17.65,18.97c-0.97,1.04-2.71,0.69-3.19-0.65l-14.51-39.88
			c-0.71-1.97-0.75-4.12-0.08-6.12L217.5,137.31z"/>
		<path class="st3" d="M244.16,295.79c0,7.47,0,14.92-0.01,22.39c-1.22,1.78,0.25,1.39,1.14,1.37c3.52-0.08,7.03-0.24,10.56-0.11
			c1.93,0.08,3.55,0.5,5.13,1.61c1.81,1.27,3.55,2.7,5.72,3.38c5.01,2.78,10.51,3.44,16.08,3.58c8.88,0.23,17.75,0.01,26.58-1.15
			c2.72-0.36,5.43-0.79,8-1.79c2.99-1.16,3.32-2.19,1.54-4.83c3.99-0.28,7.93-0.56,11.58-2.22c0.8-0.27,1.56-0.6,1.99-1.39
			c1.78-1.23,0.57-2.24-0.48-3.3c2.37-0.32,4.6-0.12,6.51-1.37c2.46-1.38,2.59-2.43,0.65-5.19c-0.73-1.98-2.56-2.12-4.23-2.48
			c-0.92-0.2-1.86-0.35-2.81-0.28c-0.34,0.03-0.68,0.03-1.02,0.03c-0.01-0.01-0.03-0.01-0.04-0.02c2.2-0.15,4.55,0.07,5.69-2.56
			c-0.01-0.05-0.03-0.11-0.04-0.16c0.61-0.82,0.36-1.6-0.19-2.36c-0.09-0.45-0.19-0.9-0.28-1.35c-4.3-2.63-9.02-3.24-13.93-2.88
			h-0.01c-2.62-0.55-5.24-0.14-7.86-0.01c-6.43,0.05-12.87,0.29-19.25-0.68c-1.75-0.26-3.98-0.17-4.67-2.29
			c-0.75-2.31,1.08-3.73,2.57-5.05c1.79-1.58,3.74-2.98,5.63-4.46c5.1-2.62,7.43-6.49,6.89-11.35c-0.13-1.17-0.51-2.21-1.22-3.11
			c-0.91-1.15-2.2-1.46-3.09-0.29c-6.48,8.5-16.29,10.53-25.65,13.46c-4.33,1.35-8.57,2.9-12.22,5.69
			c-2.61,1.99-4.84,4.27-5.93,7.47c-0.2,0.59-0.37,1.29-1.25,1.21c-0.23-0.43-0.61-0.43-1.01-0.34c-0.79-0.01-1.58-0.03-2.38-0.05
			c-0.97-0.57-1.99-0.31-3.01-0.2c-0.63,0.02-1.25,0.05-1.87,0.07c-0.93-0.03-1.85-0.05-2.78-0.07
			C244.42,294.67,243.95,294.92,244.16,295.79z M315.47,323.13c0.05,0,0.1-0.01,0.15-0.01c0,0.03-0.01,0.04-0.01,0.06
			C315.57,323.16,315.53,323.14,315.47,323.13z M296.49,278.53c-0.14,0.1-0.26,0.11-0.36-0.03
			C296.24,278.52,296.36,278.54,296.49,278.53z M309.11,313.92c-0.08-0.01-0.16-0.01-0.24-0.02c0.09-0.01,0.19-0.01,0.28,0.01
			C309.13,313.91,309.12,313.92,309.11,313.92z M306.74,310.52c0.03,0.01,0.05,0.03,0.09,0.04c-0.03,0-0.07,0-0.1-0.01
			C306.73,310.55,306.73,310.53,306.74,310.52z M281.94,305.95c0.14,0,0.3-0.03,0.55-0.08c-0.11,0.16-0.23,0.36-0.36,0.63
			C282.07,306.31,282.01,306.13,281.94,305.95z M288.33,299.92c0.23,0.04,0.4,0.17,0.44,0.48
			C288.62,300.25,288.47,300.09,288.33,299.92z M292.58,296.39c0.04,0.05,0.08,0.1,0.12,0.14c-0.01,0-0.01,0-0.02,0.01
			c-0.06-0.07-0.12-0.13-0.19-0.2C292.52,296.36,292.56,296.37,292.58,296.39z M315.2,298.19c-0.02,0-0.05-0.01-0.07-0.01
			c0.01,0,0.03,0,0.04-0.01C315.18,298.18,315.18,298.18,315.2,298.19z M324.23,298.56c0.01-0.03,0.03-0.04,0.03-0.07
			c0.01,0.01,0.02,0.03,0.03,0.05C324.27,298.55,324.26,298.55,324.23,298.56z M313.39,322.13c-0.02,0.02-0.04,0.04-0.06,0.06
			C313.3,322.16,313.28,322.14,313.39,322.13z M269.71,305.76L269.71,305.76C269.72,305.76,269.71,305.76,269.71,305.76
			C269.71,305.76,269.71,305.76,269.71,305.76z M293.64,276.33c0.03,0.02,0.07,0.05,0.1,0.07c-0.05-0.01-0.09-0.03-0.14-0.04
			C293.6,276.35,293.62,276.34,293.64,276.33z M288.16,293.87c0.01,0,0.01-0.01,0.01-0.01c-0.01,0.01-0.01,0.01-0.01,0.02
			C288.16,293.88,288.16,293.87,288.16,293.87z M326.4,314.42c0.26,0.07,0.51,0.14,0.75,0.26c0.08,0.4-0.07,0.55-0.28,0.63
			c-0.4-0.42-0.65-0.71-0.94-0.95C326.09,314.38,326.25,314.4,326.4,314.42z M317.82,294.94c0,0.03,0,0.06,0.01,0.09
			c-0.05-0.03-0.09-0.07-0.14-0.1C317.73,294.94,317.78,294.93,317.82,294.94z M331.81,315.57c-0.01,0-0.01,0-0.01,0
			c0.03-0.03,0.07-0.06,0.11-0.09c0.03,0.01,0.07,0.01,0.11,0.02C332.14,315.47,331.72,315.88,331.81,315.57z"/>
		<path class="st5" d="M189.02,287.09c0,0,11.06,0.47,19.74,1.19c5.26,0.43,38.8-5.79,50.81-8.07c2.08-0.39,3.91,1.4,3.58,3.48
			l-6.84,38.89c-0.42,2.42-2.26,4.34-4.66,4.87c-8.99,1.99-31.78,6.91-52.18,10.07c-26.12,4.06-58.63-0.95-58.63-0.95"/>
		<path class="st3" d="M222.11,40.17c0,0-14.5,1.32-15.49,12.2c-0.99,10.87-0.08,36.17-0.08,36.17s-7-8.73-8.49-0.91
			c-1.37,7.24,0.41,34.73,8.98,27.48c8.57-7.25,1.23,40.99,35.84,42.39c31.64,1.28,40.89-24.11,41.85-33.29
			c0.96-9.18,1.89-18.04,1.89-18.04s10.54,6.97,6.68-21.51c-1.98-14.58-9.3-2.24-9.3-2.24s8.64-37.97-17.4-42.26
			C240.57,35.87,222.11,40.17,222.11,40.17z"/>
		<path class="st7" d="M221.22,145.35c0.27,0.22,0.53,0.43,0.77,0.65l0.79,0.61c0.53,0.4,1.04,0.79,1.58,1.15
			c1.07,0.72,2.1,1.43,3.22,2.02c2.16,1.26,4.35,2.33,6.56,3.17c4.41,1.74,8.85,2.59,13.27,2.44c4.43-0.11,8.86-1.29,13.34-3.11
			c4.48-1.85,8.91-4.39,13.75-6.98l0.35,0.34c-0.92,0.94-1.82,1.91-2.77,2.82c-0.98,0.88-1.9,1.83-2.94,2.64l-1.54,1.25l-1.61,1.16
			l-0.81,0.57l-0.84,0.52c-0.57,0.34-1.11,0.72-1.69,1.04c-4.58,2.61-9.75,4.42-15.11,4.59c-2.67,0.07-5.34-0.24-7.92-0.9
			c-2.57-0.67-5.05-1.69-7.37-2.98c-2.32-1.29-4.49-2.84-6.44-4.63c-0.98-0.9-1.89-1.86-2.74-2.88c-0.85-1.02-1.64-2.09-2.28-3.25
			L221.22,145.35z"/>
		<path class="st8" d="M282.09,81.56c-1.06-5.15-2.54-10.17-4.65-15.01c-1.07-2.43-2.35-4.76-3.75-7.03
			c-2.57-4.16-6.68-5.86-11.37-6.51c-5.49-0.77-10.84,0.39-16.14,1.5c-7.98,1.68-15.67,4.24-23.16,7.34
			c-4.62,1.91-7.96,5.29-10.65,9.23c-1.37,2.01-1.41,4.52-1.83,6.85c-0.49,2.73-0.67,5.49-0.57,8.27c0.03,0.67-0.09,1.31-0.24,1.95
			l-0.38,3.96c0,3.48,0,6.95-0.01,10.42c0,0.25-0.13,0.5-0.2,0.75c-2.62-3.51-3.47-7.63-4.16-11.74
			c-1.77-10.51-2.92-21.1-3.19-31.75c-0.04-1.62-0.65-2.88-1.64-4.07c-1.82-2.2-3.6-4.44-5.46-6.62c-1.65-1.93-2.8-4.11-3.7-6.43
			c-0.71-1.86-0.3-2.76,1.67-3.48c2.19-0.82,4.55-0.95,6.82-1.46c7.63-1.71,14.74-4.72,21.74-7.99c7.85-3.67,15.9-6.73,24.57-8.12
			c4.45-0.71,8.86-0.45,13.24,0.38c5.26,1,10.44,2.4,15.27,4.64c7.61,3.54,12.36,9.41,14.46,17.3c1.69,6.33,2.47,12.78,2.78,19.3
			c0.34,7.3-0.94,6.72-0.62,14.02c0.07,1.58-3.81,11.89-5.09,13.3c-0.25,0.28-0.39,0.84-0.87,0.69c-0.45-0.13-0.3-0.68-0.38-1.05
			c-0.26-1.15-0.48-2.32-0.71-3.48L282.09,81.56z"/>
		<path class="st3" d="M223.24,303.35c-0.93,0.04-1.85,0.09-2.78,0.13c-0.63-0.01-1.25-0.01-1.88-0.03c-1.02-0.09-2.05-0.34-3,0.26
			c-0.79,0.03-1.58,0.07-2.38,0.1c-0.4-0.07-0.78-0.08-1,0.36c-0.88,0.1-1.06-0.59-1.28-1.18c-1.17-3.17-3.45-5.4-6.1-7.33
			c-3.72-2.71-8-4.15-12.36-5.4c-9.43-2.71-19.29-4.51-25.96-12.86c-0.92-1.15-2.21-0.81-3.09,0.36c-0.69,0.92-1.04,1.97-1.15,3.14
			c-0.43,4.87,1.99,8.68,7.15,11.19c1.91,1.44,3.89,2.79,5.73,4.33c1.52,1.28,3.39,2.65,2.7,4.99c-0.63,2.13-2.88,2.09-4.62,2.39
			c-6.36,1.12-12.8,1.03-19.23,1.13c-2.62-0.07-5.25-0.42-7.86,0.19h-0.01c-4.93-0.23-9.62,0.48-13.86,3.21
			c-0.09,0.45-0.17,0.91-0.26,1.36c-0.53,0.78-0.76,1.56-0.13,2.37c-0.01,0.05-0.03,0.11-0.04,0.17c1.2,2.6,3.55,2.32,5.75,2.43
			c-0.01,0.01-0.03,0.01-0.04,0.02c-0.34,0.01-0.67,0.01-1.02,0c-0.95-0.05-1.89,0.12-2.8,0.34c-1.66,0.4-3.48,0.58-4.16,2.58
			c-1.88,2.82-1.72,3.87,0.77,5.18c1.94,1.21,4.16,0.96,6.54,1.22c-1.02,1.08-2.21,2.12-0.4,3.31c0.45,0.79,1.21,1.1,2.02,1.35
			c3.69,1.58,7.63,1.77,11.63,1.95c-1.72,2.69-1.37,3.7,1.65,4.8c2.59,0.94,5.31,1.31,8.04,1.61c8.85,0.96,17.73,0.96,26.6,0.53
			c5.56-0.27,11.05-1.07,15.99-3.95c2.15-0.74,3.86-2.2,5.64-3.52c1.55-1.15,3.16-1.61,5.09-1.73c3.52-0.22,7.04-0.14,10.56-0.14
			c0.89,0,2.37,0.34,1.11-1.4c-0.18-7.46-0.35-14.92-0.53-22.38C224.45,303.55,223.98,303.31,223.24,303.35z M153.46,333.48
			c0-0.02-0.01-0.04-0.01-0.06c0.05,0,0.1,0,0.15,0.01C153.56,333.44,153.51,333.46,153.46,333.48z M171.92,288.35
			c-0.1,0.15-0.22,0.13-0.36,0.04C171.68,288.39,171.8,288.37,171.92,288.35z M159.72,324.05c0.09-0.01,0.18-0.01,0.28-0.01
			c-0.08,0.01-0.16,0.02-0.24,0.03C159.74,324.06,159.73,324.06,159.72,324.05z M162.06,320.65c-0.03,0-0.07,0-0.1,0.01
			c0.03-0.01,0.05-0.03,0.09-0.04C162.05,320.62,162.05,320.63,162.06,320.65z M186.56,316.01c-0.14-0.26-0.26-0.46-0.38-0.62
			c0.24,0.05,0.42,0.07,0.55,0.07C186.67,315.64,186.61,315.82,186.56,316.01z M179.77,310.08c0.04-0.31,0.2-0.45,0.44-0.49
			C180.06,309.75,179.91,309.92,179.77,310.08z M175.95,306.1c-0.06,0.07-0.12,0.13-0.18,0.2c-0.01,0-0.01,0-0.02-0.01
			c0.04-0.05,0.08-0.1,0.11-0.15C175.89,306.13,175.93,306.12,175.95,306.1z M153.33,308.47c0.01,0,0.03,0,0.04,0.01
			c-0.02,0-0.05,0.01-0.07,0.01C153.31,308.48,153.32,308.47,153.33,308.47z M144.21,309.05c0.01-0.01,0.02-0.03,0.03-0.05
			c0.01,0.02,0.03,0.04,0.04,0.06C144.25,309.06,144.24,309.06,144.21,309.05z M155.73,332.43c-0.02-0.02-0.04-0.04-0.06-0.05
			C155.78,332.38,155.75,332.4,155.73,332.43z M198.96,315c-0.01,0-0.01,0-0.01,0C198.95,314.99,198.95,314.99,198.96,315
			C198.96,314.99,198.96,314.99,198.96,315z M174.4,286.15c-0.05,0.01-0.09,0.03-0.14,0.05c0.03-0.03,0.07-0.05,0.09-0.07
			C174.36,286.14,174.38,286.14,174.4,286.15z M180.23,303.54c-0.01-0.01-0.01-0.01-0.01-0.02c0.01,0,0.01,0.01,0.01,0.01
			C180.23,303.53,180.23,303.54,180.23,303.54z M142.95,324.9c-0.28,0.24-0.53,0.55-0.92,0.97c-0.22-0.07-0.36-0.22-0.3-0.62
			c0.24-0.13,0.49-0.21,0.74-0.28C142.63,324.94,142.79,324.92,142.95,324.9z M150.74,305.28c-0.05,0.03-0.09,0.06-0.13,0.09
			c0-0.03,0-0.06,0-0.09C150.64,305.29,150.69,305.29,150.74,305.28z M136.89,326.17c0.03-0.01,0.07-0.01,0.11-0.03
			c0.03,0.03,0.07,0.06,0.11,0.09c-0.01,0-0.01,0-0.01,0C137.19,326.56,136.77,326.15,136.89,326.17z"/>
		<path class="st5" d="M351.49,275.1c0,0-83.35,20.06-92.01,20.98c-5.25,0.55-38.93-4.89-50.99-6.88c-2.08-0.34-3.87,1.48-3.5,3.56
			l7.74,38.72c0.48,2.41,2.36,4.29,4.77,4.76c9.04,1.79,31.93,6.17,52.4,8.85c26.2,3.44,58.59-2.32,58.59-2.32"/>
		<path d="M255.09,73.61c6.59,0.63,12.47,1.81,17.42,5.76c0.32,0.26,0.67,0.49,0.95,0.78c0.44,0.46,1.23,0.89,0.84,1.62
			c-0.34,0.64-1.12,0.28-1.69,0.22c-5.44-0.58-10.89-1.19-16.33-1.81c-0.56-0.06-1.12-0.16-1.66-0.3c-1.87-0.49-2.81-1.77-2.55-3.44
			C252.37,74.48,253.58,73.52,255.09,73.61z"/>
		<path d="M238.7,80.05c-0.11,1.18-0.65,1.89-1.87,2.1c-2.87,0.49-5.73,1.04-8.6,1.59c-3.7,0.7-7.07,2.35-10.57,3.64
			c-0.49,0.18-1.1,0.72-1.54,0.18c-0.45-0.57,0.22-1.06,0.56-1.43c4.42-4.91,9.56-8.6,16.31-9.53c1.35-0.19,2.65,0.01,3.87,0.64
			C238.03,77.82,238.54,78.84,238.7,80.05z"/>
		<path class="st10" d="M240,123.61c2.66-5.83,14.65-5.97,18.45-1.04C252.15,121.01,246.17,120.91,240,123.61z"/>
		<path class="st11" d="M219.2,98c1.75-1.3,3.51-1.52,5.18-1.13c3.61,0.84,6.87,0.04,10.03-1.62c0.52-0.27,1.04-0.65,1.74-0.57
			c0.08,0.86-0.37,1.44-0.94,1.96c-1.98,1.8-4.29,2.85-6.97,2.61C225.3,98.99,222.4,98.46,219.2,98z"/>
		<path class="st10" d="M256.93,92.96c0.65-0.07,1.21,0.21,1.73,0.49c2.07,1.1,4.08,0.95,6.2,0.07c2.17-0.9,4.39-1.71,6.73-2.08
			c0.32-0.05,0.76-0.3,0.91,0.2c0.11,0.34-0.24,0.55-0.48,0.71c-3,1.9-6.13,3.56-9.69,4.06C260.05,96.72,257.8,95.17,256.93,92.96z"
			/>
		<path class="st11" d="M243.51,101.84c0.84,0.45,0.92,1.23,1,1.99c0.04,0.35-0.04,0.71-0.05,1.07c-0.14,3.21,0.33,3.68,3.51,3.58
			c0.59-0.02,1.19,0,1.89,0c-1.24,1.87-3.35,2.71-5.11,2.16c-1.61-0.51-2.5-1.95-2.48-4.14
			C242.29,104.85,242.48,103.24,243.51,101.84z"/>
		<path class="st11" d="M244.01,92.94c-2-3.6-2.49-7.39-1.45-11.8C244.96,85.1,244.28,89.05,244.01,92.94z"/>
	</g>
</g>
<g class="st0">
	<defs>
		<rect id="SVGID_7_" x="112.7" y="21.3" width="288.47" height="325"/>
	</defs>
	<clipPath id="SVGID_8_" class="st1">
		<use xlink:href="#SVGID_7_"  style="overflow:visible;"/>
	</clipPath>
	<g class="st15">
		<path class="st3" d="M217.5,131.54l5.28,44.16l56.03,11.04l1.31-65.75L217.5,131.54z"/>
		<path class="st4" d="M192.12,179.65l125.07-6.95l11.37,171.53l-157.35-8.96L192.12,179.65z"/>
		<path class="st4" d="M218.54,137.39c0,0,4.12,23.28,9.56,30.71c5.44,7.43,18.62,107.79,16.81,121.47
			c-1.02,7.67-2.45,16.55-3.51,22.86c-0.82,4.86-4.86,8.52-9.78,8.85l-16.37,1.09l-11.7-167.42L218.54,137.39z"/>
		<path class="st4" d="M282.26,136.98c-3.18,5.46-22.59,48.3-23.23,59.68c-0.72,12.77-1.97,114.37,2.31,120.84
			c4.28,6.47,26.69,4.62,26.69,4.62l16.27-169.79C298.46,149.83,284.73,144.72,282.26,136.98z"/>
		<path class="st3" d="M246.12,296.08c-0.92,0.14-1.83,0.3-2.75,0.45c-0.62,0.06-1.25,0.12-1.87,0.18
			c-1.02,0.02-2.07-0.11-2.96,0.59c-0.78,0.12-1.57,0.24-2.35,0.36c-0.41-0.03-0.79,0.01-0.96,0.46c-0.86,0.2-1.12-0.47-1.4-1.03
			c-1.51-3.02-4.03-4.99-6.87-6.61c-4-2.28-8.41-3.24-12.88-4c-9.68-1.64-19.67-2.35-27.22-9.9c-1.04-1.04-2.28-0.56-3.03,0.7
			c-0.59,0.99-0.82,2.07-0.8,3.25c0.11,4.89,2.94,8.42,8.34,10.33c2.06,1.21,4.18,2.35,6.17,3.67c1.65,1.1,3.66,2.26,3.23,4.66
			c-0.4,2.19-2.63,2.39-4.32,2.89c-6.2,1.82-12.61,2.44-18.99,3.25c-2.61,0.22-5.27,0.16-7.79,1.06h-0.01
			c-4.92,0.31-9.51,1.54-13.42,4.72c-0.03,0.46-0.07,0.92-0.1,1.38c-0.44,0.84-0.59,1.64,0.13,2.37c-0.01,0.05-0.01,0.11-0.02,0.17
			c1.48,2.45,3.79,1.92,5.98,1.77c-0.01,0.01-0.02,0.01-0.03,0.03c-0.33,0.04-0.67,0.09-1.01,0.11c-0.95,0.05-1.87,0.33-2.75,0.65
			c-1.6,0.59-3.4,0.96-3.85,3.02c-1.56,3.01-1.29,4.04,1.33,5.07c2.06,0.98,4.24,0.49,6.64,0.49c-0.9,1.19-1.96,2.36-0.03,3.33
			c0.53,0.73,1.33,0.96,2.16,1.12c3.84,1.16,7.78,0.92,11.77,0.65c-1.41,2.86-0.95,3.83,2.17,4.58c2.68,0.65,5.42,0.71,8.17,0.71
			c8.9-0.03,17.73-1,26.49-2.42c5.5-0.89,10.86-2.28,15.45-5.7c2.06-0.96,3.6-2.61,5.22-4.12c1.41-1.31,2.96-1.95,4.86-2.28
			c3.48-0.61,6.98-0.92,10.48-1.31c0.88-0.1,2.39,0.08,0.94-1.52c-1-7.4-2-14.79-3-22.19C247.35,296.15,246.85,295.96,246.12,296.08
			z M180.11,333.75c-0.01-0.02-0.01-0.04-0.02-0.06c0.05-0.01,0.1-0.01,0.15-0.01C180.2,333.69,180.15,333.72,180.11,333.75z
			 M193.45,286.85c-0.08,0.15-0.21,0.16-0.36,0.08C193.22,286.92,193.34,286.89,193.45,286.85z M185.28,323.69
			c0.09-0.02,0.18-0.03,0.28-0.04c-0.08,0.02-0.16,0.03-0.24,0.05C185.31,323.69,185.3,323.69,185.28,323.69z M187.23,320.04
			c-0.03,0.01-0.07,0.01-0.1,0.02c0.03-0.02,0.05-0.03,0.08-0.05C187.22,320.02,187.22,320.04,187.23,320.04z M211.06,312.72
			c-0.17-0.24-0.31-0.42-0.44-0.57c0.25,0.02,0.42,0.02,0.55,0.01C211.14,312.35,211.1,312.53,211.06,312.72z M203.66,307.58
			c0.01-0.31,0.15-0.46,0.38-0.54C203.91,307.23,203.79,307.41,203.66,307.58z M199.43,304.05c-0.05,0.08-0.11,0.15-0.15,0.22
			c-0.01,0-0.01,0-0.02,0c0.03-0.05,0.07-0.11,0.1-0.15C199.37,304.09,199.4,304.07,199.43,304.05z M177.21,308.9
			c0.01,0,0.03,0,0.04,0c-0.02,0.01-0.04,0.01-0.07,0.02C177.19,308.92,177.2,308.91,177.21,308.9z M168.21,310.49
			c0.01-0.02,0.02-0.03,0.02-0.05c0.01,0.02,0.03,0.03,0.05,0.06C168.25,310.5,168.23,310.5,168.21,310.49z M182.24,332.46
			c-0.02-0.02-0.04-0.03-0.07-0.05C182.29,332.4,182.27,332.42,182.24,332.46z M223.27,310.34c-0.01,0-0.01,0-0.01,0
			C223.27,310.34,223.27,310.34,223.27,310.34z M195.67,284.39c-0.05,0.02-0.09,0.04-0.13,0.06c0.03-0.03,0.06-0.05,0.09-0.08
			C195.64,284.38,195.65,284.39,195.67,284.39z M203.4,301.03c-0.01-0.01-0.01-0.01-0.01-0.02c0.01,0,0.01,0.01,0.01,0.01
			C203.4,301.02,203.4,301.03,203.4,301.03z M168.71,326.38c-0.26,0.27-0.46,0.6-0.81,1.06c-0.22-0.05-0.38-0.18-0.36-0.59
			c0.22-0.15,0.46-0.26,0.71-0.36C168.4,326.46,168.55,326.42,168.71,326.38z M174.27,306.03c-0.04,0.03-0.09,0.07-0.13,0.11
			c0-0.03-0.01-0.06-0.01-0.09C174.19,306.04,174.23,306.03,174.27,306.03z M162.83,328.32c0.03-0.01,0.07-0.03,0.11-0.03
			c0.04,0.03,0.08,0.05,0.11,0.08c-0.01,0-0.01,0-0.01,0C163.16,328.67,162.71,328.31,162.83,328.32z"/>
		<path class="st5" d="M300.74,281.03c0,0-10.89,1.95-19.4,3.81c-5.15,1.13-39.23-0.55-51.43-1.19c-2.11-0.11-3.69,1.91-3.08,3.93
			l11.98,37.62c0.75,2.34,2.82,3.99,5.27,4.2c9.18,0.77,32.41,2.59,53.05,3c26.42,0.52,57.97-8.79,57.97-8.79"/>
		<path class="st5" d="M112.76,312.09c0,0-0.72-4.87,3.23-21.68c3.96-16.81,6.92-46.47,10.87-53.39c3.96-6.92-3.96-31.64,9.88-39.05
			c13.84-7.42,50.92-26.7,50.92-26.7s17.79-20.25,20.27-23.71c2.47-3.46,0.99,76.11,6.92,89.46
			c5.93,13.35,13.84,108.58,13.84,108.58l-85.09-1.84L112.76,312.09z"/>
		<path class="st5" d="M295.4,147.44c0,0,3.5,36.07-8.36,58.31c-11.86,22.24-25.21,133.29-21.26,138.73
			c2.89,3.98,51.35,0.38,90.23-0.89c14.34-0.47,45.16-34.92,45.16-34.92s-7.85-109.84-19.22-119.73S295.4,147.44,295.4,147.44z"/>
		<path class="st6" d="M280.12,135.33c0,0-6.26,35.93-31.84,40.12l17.5,18.82c1.04,1.12,2.89,0.74,3.41-0.69l14.48-39.79
			c0.69-1.9,0.75-3.97,0.17-5.92L280.12,135.33z"/>
		<path class="st6" d="M217.5,137.39c0,0,6.39,33.86,31.97,38.07l-17.65,18.97c-0.97,1.04-2.71,0.69-3.19-0.65l-14.51-39.88
			c-0.71-1.97-0.75-4.12-0.08-6.12L217.5,137.39z"/>
		<path class="st3" d="M230.08,235.97c5.6,4.94,11.19,9.88,16.79,14.81c0.53,2.09,1.21,0.73,1.79,0.05c2.26-2.7,4.47-5.43,6.91-7.99
			c1.33-1.4,2.72-2.33,4.6-2.78c2.15-0.51,4.37-0.88,6.32-2.05c5.39-1.92,9.53-5.61,13.32-9.69c6.04-6.51,11.75-13.31,16.72-20.7
			c1.53-2.28,3-4.6,3.94-7.19c1.1-3.01,0.55-3.94-2.61-4.35c2.43-3.18,4.83-6.32,5.99-10.15c0.33-0.78,0.58-1.56,0.27-2.41
			c0.26-2.14-1.31-1.91-2.8-1.82c1.33-1.99,2.95-3.53,3.28-5.79c0.6-2.75-0.11-3.54-3.47-3.92c-1.97-0.77-3.28,0.52-4.66,1.52
			c-0.76,0.55-1.49,1.17-2.07,1.93c-0.21,0.27-0.43,0.53-0.65,0.78c-0.01,0.01-0.03,0.01-0.04,0.01c1.34-1.75,3.07-3.37,1.85-5.96
			c-0.05-0.03-0.1-0.05-0.15-0.07c-0.21-1-0.96-1.33-1.9-1.42c-0.4-0.23-0.8-0.45-1.21-0.68c-4.81,1.49-8.39,4.62-11.37,8.54
			c0,0,0,0-0.01,0.01c-2.14,1.6-3.56,3.84-5.2,5.89c-4.22,4.85-8.29,9.84-13.25,13.99c-1.35,1.13-2.76,2.88-4.8,1.99
			c-2.23-0.97-2.08-3.28-2.08-5.27c0-2.39,0.24-4.78,0.37-7.17c1.41-5.56,0.05-9.87-3.96-12.67c-0.96-0.67-2-1.08-3.14-1.15
			c-1.46-0.08-2.55,0.69-2.26,2.13c2.09,10.47-2.87,19.18-6.87,28.14c-1.85,4.14-3.5,8.34-3.82,12.93c-0.23,3.27,0,6.46,1.68,9.39
			c0.31,0.55,0.72,1.13,0.08,1.74c-0.48-0.12-0.72,0.18-0.92,0.54c-0.54,0.59-1.07,1.17-1.61,1.75c-1.07,0.35-1.56,1.29-2.14,2.13
			c-0.4,0.49-0.79,0.97-1.19,1.45c-0.63,0.68-1.27,1.35-1.89,2.04C229.42,235.05,229.3,235.56,230.08,235.97z M297.75,200.57
			c0.03-0.04,0.07-0.08,0.1-0.12c0.02,0.01,0.03,0.03,0.04,0.05C297.85,200.52,297.8,200.54,297.75,200.57z M251.75,185.32
			c-0.02,0.17-0.09,0.27-0.27,0.26C251.57,185.5,251.66,185.42,251.75,185.32z M286.64,199.25c-0.06,0.06-0.12,0.11-0.18,0.17
			c0.06-0.07,0.12-0.14,0.19-0.21C286.65,199.23,286.64,199.25,286.64,199.25z M282.52,198.78c0.03-0.01,0.05-0.03,0.09-0.03
			c-0.03,0.03-0.05,0.05-0.07,0.07C282.53,198.81,282.52,198.79,282.52,198.78z M262.69,214.36c0.09-0.1,0.18-0.25,0.3-0.46
			c0.05,0.19,0.12,0.41,0.23,0.69C263.05,214.51,262.87,214.43,262.69,214.36z M262.4,205.58c0.18-0.15,0.4-0.19,0.65-0.02
			C262.84,205.58,262.62,205.59,262.4,205.58z M262.56,200.06c0.06,0,0.12,0,0.19,0.01c-0.01,0.01-0.01,0.01-0.01,0.02
			c-0.1,0-0.18,0-0.27,0.01C262.5,200.08,262.53,200.07,262.56,200.06z M278.87,184.29c-0.02,0.01-0.03,0.03-0.05,0.04
			c0.01-0.01,0.01-0.02,0.02-0.03C278.85,184.3,278.86,184.3,278.87,184.29z M285.13,177.75c-0.01-0.03-0.01-0.05-0.03-0.07
			c0.02,0.01,0.04,0.01,0.05,0.01C285.15,177.72,285.13,177.73,285.13,177.75z M295.63,201.48c0,0.03,0,0.05,0.01,0.08
			C295.6,201.56,295.56,201.56,295.63,201.48z M254.46,223.41C254.46,223.41,254.47,223.41,254.46,223.41
			C254.47,223.41,254.46,223.41,254.46,223.41C254.46,223.41,254.46,223.41,254.46,223.41z M248.21,186
			c0.04-0.01,0.07-0.02,0.11-0.03c-0.04,0.03-0.08,0.05-0.13,0.08C248.2,186.03,248.21,186.02,248.21,186z M257.74,201.71
			c0-0.01,0-0.01,0.01-0.01c0,0.01,0.01,0.01,0.01,0.02C257.75,201.71,257.75,201.71,257.74,201.71z M298.45,186.61
			c0.22-0.15,0.45-0.29,0.69-0.38c0.35,0.21,0.37,0.42,0.28,0.63c-0.58,0.03-0.97,0.02-1.33,0.08
			C298.22,186.82,298.33,186.71,298.45,186.61z M278.16,180.16c0.02,0.02,0.05,0.03,0.07,0.05c-0.05,0.01-0.11,0.03-0.16,0.04
			C278.1,180.23,278.13,180.2,278.16,180.16z M302.89,183.32c0,0.01-0.01,0.01-0.01,0.01c0-0.05,0-0.09,0-0.14
			c0.03-0.02,0.06-0.05,0.09-0.07C303.03,183.01,303.07,183.59,302.89,183.32z"/>
		<path class="st5" d="M187.09,271.58c0,0,7.67-7.98,13.94-14.02c3.8-3.66,21.32-32.93,27.55-43.45c1.08-1.82,3.63-2.01,4.97-0.38
			l24.65,30.85c1.53,1.92,1.76,4.56,0.57,6.71c-4.45,8.06-15.83,28.4-26.95,45.8c-14.23,22.27-39.48,43.34-39.48,43.34"/>
		<path class="st3" d="M222.11,40.25c0,0-14.5,1.32-15.49,12.2c-0.99,10.87-0.08,36.17-0.08,36.17s-7-8.73-8.49-0.91
			c-1.37,7.24,0.41,34.73,8.98,27.48c8.57-7.25,1.23,40.99,35.84,42.39c31.64,1.28,40.89-24.11,41.85-33.29
			c0.96-9.18,1.89-18.04,1.89-18.04s10.54,6.97,6.68-21.51c-1.98-14.58-9.3-2.24-9.3-2.24s8.64-37.97-17.4-42.26
			C240.57,35.95,222.11,40.25,222.11,40.25z"/>
		<path class="st7" d="M221.22,145.43c0.27,0.22,0.53,0.43,0.77,0.65l0.79,0.61c0.53,0.4,1.04,0.79,1.58,1.15
			c1.07,0.72,2.1,1.43,3.22,2.02c2.16,1.26,4.35,2.33,6.56,3.17c4.41,1.74,8.85,2.59,13.27,2.44c4.43-0.11,8.86-1.29,13.34-3.11
			c4.48-1.85,8.91-4.39,13.75-6.98l0.35,0.34c-0.92,0.94-1.82,1.91-2.77,2.82c-0.98,0.88-1.9,1.83-2.94,2.64l-1.54,1.25l-1.61,1.16
			l-0.81,0.57l-0.84,0.52c-0.57,0.34-1.11,0.72-1.69,1.04c-4.58,2.61-9.75,4.42-15.11,4.59c-2.67,0.07-5.34-0.24-7.92-0.9
			c-2.57-0.67-5.05-1.69-7.37-2.98c-2.32-1.29-4.49-2.84-6.44-4.63c-0.98-0.9-1.89-1.86-2.74-2.88c-0.85-1.02-1.64-2.09-2.28-3.25
			L221.22,145.43z"/>
		<path class="st8" d="M281.42,81.64c-1.06-5.15-2.54-10.17-4.65-15.01c-1.06-2.43-2.35-4.76-3.75-7.03
			c-2.57-4.16-6.68-5.86-11.37-6.51c-5.49-0.77-10.84,0.39-16.14,1.5c-7.98,1.68-15.67,4.24-23.16,7.34
			c-4.62,1.91-7.96,5.29-10.65,9.23c-1.37,2.01-1.41,4.52-1.83,6.85c-0.49,2.73-0.67,5.49-0.57,8.27c0.03,0.67-0.09,1.31-0.24,1.95
			l-0.38,3.96c0,3.48,0,6.95-0.01,10.42c0,0.25-0.13,0.5-0.2,0.75c-2.62-3.51-3.47-7.63-4.16-11.74
			c-1.77-10.51-2.92-21.1-3.19-31.75c-0.04-1.62-0.65-2.88-1.64-4.07c-1.82-2.2-3.6-4.44-5.46-6.62c-1.65-1.93-2.8-4.11-3.7-6.43
			c-0.71-1.86-0.3-2.76,1.67-3.48c2.19-0.82,4.55-0.95,6.82-1.46c7.63-1.71,14.74-4.72,21.74-7.99c7.85-3.67,15.9-6.73,24.57-8.12
			c4.45-0.71,8.86-0.45,13.24,0.38c5.26,1,10.44,2.4,15.27,4.64c7.61,3.54,12.36,9.41,14.46,17.3c1.69,6.33,2.47,12.78,2.78,19.3
			c0.34,7.3-0.94,6.72-0.62,14.02c0.07,1.58-3.81,11.89-5.09,13.3c-0.25,0.28-0.39,0.84-0.87,0.69c-0.45-0.13-0.3-0.68-0.38-1.05
			c-0.26-1.15-0.48-2.32-0.71-3.48L281.42,81.64z"/>
		<path d="M268.65,71.2c1.11-0.05,3.16,0.23,5.03,1.32c0.29,0.17,0.76,0.26,0.73,0.65c-0.02,0.41-0.45,0.59-0.8,0.77
			c-0.63,0.31-1.31,0.44-1.99,0.58c-5.29,1.01-10.3,2.84-15.02,5.45c-1.48,0.82-3.05,1.25-4.76,1c-0.93-0.13-1.7-0.51-2.01-1.43
			c-0.34-1-0.23-1.99,0.57-2.78c0.4-0.39,0.82-0.81,1.31-1.06C256.73,73.19,261.93,71.29,268.65,71.2z"/>
		<path d="M234.26,81.18c-3.88-0.4-8.58-0.56-13.28-0.55c-0.85,0-1.74-0.11-2.04-1.06c-0.32-1.03,0.55-1.46,1.21-1.92
			c2.88-1.97,6.19-2.44,9.55-2.7c2.35-0.18,4.7-0.35,6.93,0.67c1.12,0.51,2.01,1.21,2.15,2.55
			C239.01,80.48,237.93,81.36,234.26,81.18z"/>
		<path d="M248.67,121.93c-5-0.04-9,1.8-12.45,5.02c-0.38,0.35-0.67,1.47-1.47,0.69c-0.71-0.69-0.59-1.53,0.18-2.28
			c2.7-2.66,5.83-4.53,9.57-5.28c4.08-0.82,7.97-0.33,11.62,1.7c1.11,0.62,2,1.53,2.84,2.49c0.3,0.34,0.5,0.71,0.58,1.15
			c0.07,0.36,0.06,0.75-0.27,0.94c-0.4,0.24-0.63-0.14-0.85-0.39c-1.98-2.3-4.57-3.4-7.49-3.86
			C250.12,121.98,249.29,121.98,248.67,121.93z"/>
		<path d="M265.14,81.76c1.76,0.03,3.39,0.43,4.95,1.15c0.32,0.14,0.63,0.31,0.9,0.53c0.73,0.57,1.66,1.34,1.29,2.18
			c-0.3,0.69-1.45,0.19-2.14-0.05c-4.26-1.46-8.2-0.59-12.04,1.43c-0.76,0.4-1.71,1.17-2.4,0.04c-0.73-1.19,0.42-1.72,1.15-2.24
			C259.35,83.03,262.04,81.78,265.14,81.76z"/>
		<path d="M230.73,85.52c1.27,0,2.96,0.3,4.55,1.09c0.19,0.09,0.38,0.21,0.55,0.35c0.42,0.36,1.04,0.77,0.79,1.35
			c-0.23,0.52-0.96,0.36-1.42,0.22c-1.72-0.5-3.44-0.77-5.26-0.59c-2.71,0.27-5.11,1.26-7.36,2.74c-0.54,0.36-1.1,0.69-1.68,0.99
			c-0.46,0.25-0.92,0.24-1.27-0.23c-0.36-0.46-0.22-0.91,0.1-1.31c0.63-0.77,1.38-1.45,2.18-2.03
			C224.17,86.47,227.19,85.54,230.73,85.52z"/>
		<path d="M241.33,84.69c0-0.78,0-1.57,0-2.35c0-0.63,0.05-1.27,0.83-1.42c0.75-0.14,1.09,0.4,1.37,0.96
			c0.69,1.34,0.97,2.8,1.12,4.27c0.26,2.61,0.2,5.22-0.46,7.78c-0.09,0.34-0.05,0.89-0.51,0.94c-0.41,0.05-0.64-0.4-0.85-0.72
			c-0.92-1.36-0.93-2.98-1.15-4.51C241.45,88,241.26,86.35,241.33,84.69z"/>
		<path d="M250.19,103.95c-1.19,2.49-2.96,4.04-5.49,4.57c-2.26,0.49-4.31-0.07-5.94-1.81c-0.76-0.81-1.09-1.77-0.85-2.87
			c0.09-0.44,0.22-0.85,0.72-0.99c0.49-0.14,0.84,0.09,1.12,0.45c0.03,0.03,0.05,0.07,0.07,0.11c2.47,2.81,2.68,2.86,6.23,1.53
			C247.33,104.46,248.59,103.87,250.19,103.95z"/>
		<path class="st10" d="M267.34,88.96c-0.01,1.59-1.39,2.9-3.06,2.9c-1.56,0-2.72-1-2.76-2.35c-0.03-1.5,1.34-2.53,3.32-2.5
			C266.58,87.04,267.34,87.64,267.34,88.96z"/>
		<path class="st9" d="M230.02,90.36c2.6,0.15,3.46,0.79,2.72,3.19c-0.39,1.28-2.09,1.89-3.5,1.42c-1.42-0.47-2.3-1.96-1.93-3.26
			C227.54,90.89,228.59,90.36,230.02,90.36z"/>
	</g>
</g>
</svg>
