<svg xmlns="http://www.w3.org/2000/svg" viewBox="0 0 276 221"><defs><style>.cls-1{fill:#fff;}.cls-2{fill:none;stroke:#cce4ff;stroke-miterlimit:10;stroke-width:2.9px;}.cls-3{fill:#7c84c9;}.cls-4{fill:#c0c9ff;}.cls-5{fill:#e2e2e2;}</style></defs><g id="Layer_2" data-name="Layer 2"><g id="doctor_copy" data-name="doctor copy"><g id="testtube"><path class="cls-1" d="M0,0V221H276V0ZM153,184c0,10-6.73,18-15,18s-15-8.07-15-18V44.68H153Z"/><path class="cls-2" d="M123,44.68V184c0,10,6.73,18,15,18s15-8.07,15-18V44.68Z"/><rect class="cls-3" x="116.76" y="19.02" width="42.47" height="24.55" rx="2.79"/><rect class="cls-4" x="137.05" y="22.92" width="1.9" height="16.76" rx="0.95"/><rect class="cls-4" x="122.02" y="22.92" width="1.9" height="16.76" rx="0.95"/><rect class="cls-4" x="144.56" y="22.92" width="1.9" height="16.76" rx="0.95"/><rect class="cls-4" x="129.53" y="22.92" width="1.9" height="16.76" rx="0.95"/><rect class="cls-4" x="152.07" y="22.92" width="1.9" height="16.76" rx="0.95" transform="translate(0.57 -2.67) rotate(1)"/><rect class="cls-5" x="125.24" y="182.31" width="11.31" height="1.93" rx="0.96"/><rect class="cls-5" x="125.24" y="166.89" width="11.31" height="1.93" rx="0.96"/><rect class="cls-5" x="125.24" y="151.47" width="11.31" height="1.93" rx="0.96"/><rect class="cls-5" x="125.24" y="136.05" width="11.31" height="1.93" rx="0.96"/><rect class="cls-5" x="125.24" y="120.64" width="11.31" height="1.93" rx="0.96"/><rect class="cls-5" x="125.24" y="105.22" width="11.31" height="1.93" rx="0.96"/><rect class="cls-5" x="125.24" y="89.8" width="11.31" height="1.93" rx="0.96"/><rect class="cls-5" x="125.24" y="74.38" width="11.31" height="1.93" rx="0.96"/><rect class="cls-5" x="125.24" y="58.96" width="11.31" height="1.93" rx="0.96"/></g></g></g></svg>