<svg xmlns="http://www.w3.org/2000/svg" viewBox="0 0 472.01 523.57"><defs><style>.cls-1{fill:#d4bb69;}.cls-2{fill:#fc9;}.cls-3{fill:#dd9452;}.cls-4{fill:#050505;}.cls-5{fill:#010000;}.cls-6{fill:#fff;}.cls-7{fill:#603;}.cls-8{fill:#ccc;}.cls-9{fill:#b5b6ca;}</style></defs><g id="Layer_2" data-name="Layer 2"><g id="doctor_copy" data-name="doctor copy"><path class="cls-1" d="M206.66,266.85c-.47,2-.46,4.38-2.89,5.42a12.21,12.21,0,0,1-4.4-1.95,11.25,11.25,0,0,0-9.12-.86c-4.14,1.21-8.3,2.36-12.45,3.54a7.15,7.15,0,0,1-2.21.24,45.72,45.72,0,0,0-18.06,3.61c-10.94,4.75-21.64,4.41-32.5-.14-9.86-4.14-20.08-6.38-30.85-4.47-4.56.81-9.06,1.84-13.53,3-1.67.43-1.87-.18-1.92-1.47a8.44,8.44,0,0,1,2.61-6.25c5.28-5.62,9.27-11.94,10.52-19.6a64.06,64.06,0,0,0-.09-19.74c-1-6.62-2.12-13.22-2.81-19.89-.93-9.05,2.22-17,7.55-24.27s11.74-14.12,16.78-21.77c6.34-9.62,7.28-19.76,2.52-30.34-4-8.79-8.93-17.16-11-26.73-2.52-11.55-3.08-23,1.42-34.23,3.32-8.29,9.06-14.78,16.13-20.19,11.78-9,25.14-15,39.37-19.11,11.65-3.39,22.44-8.57,30.56-17.38,14.27-15.48,31.09-17,50-10.91,11,3.54,18.9,10,22.77,20.94.68,1.93,1.74,3.74,2.4,5.67.57,1.67,1.46,1.86,3.08,1.46,7-1.76,14-3.85,21.25-4.6,18-1.85,32.29,8.27,36.62,25.48a69.56,69.56,0,0,1,1.48,25c-1.35,11.92,3,21.89,11.47,30.24,6,5.93,12.75,11.17,18.33,17.58,9.16,10.5,9.78,24.71,1.38,35.75q-11.32,14.91-22.6,29.88c-9.72,12.91-9.42,26.32-3.31,40.2,2.65,6,5.07,12,5.51,18.63a75.53,75.53,0,0,1-1.17,16.25c-.53,3.45-2.41,4.36-6.51,3.61-5.53-1-11-2.17-16.57-3.2a34.25,34.25,0,0,0-17.24,1.41,55.71,55.71,0,0,1-21.7,3c-3.34-1.15-6.43-3-10-3.53-1-.08-1.42-.79-1.84-1.51"/><path class="cls-2" d="M172.17,217.62l8.75,71.92,93,18,2.19-107.09Z"/><path class="cls-2" d="M155,167.58c.14,5.73,13.78,92,59.25,92.44,43.64.43,62.83-39.13,65.89-53.86,2.74-13.17,6.71-29.74,6.71-29.74s17.49,11.36,11.08-35c-3.28-23.74-15.43-3.64-15.43-3.64s12.2-38.31-29.45-57.68c-39.57-18.4-80.9,6.36-88,21.29C157.39,117.49,154.2,135.7,155,167.58Z"/><path class="cls-3" d="M182.39,240.24q.62.52,1.17,1l1.2,1c.79.65,1.57,1.29,2.39,1.87a54.18,54.18,0,0,0,4.88,3.29,66.83,66.83,0,0,0,9.94,5.17,47.14,47.14,0,0,0,20.12,4c6.72-.19,13.44-2.11,20.23-5.07s13.5-7.14,20.85-11.37l.53.55c-1.39,1.53-2.75,3.11-4.19,4.59s-2.88,3-4.46,4.3l-2.33,2-2.43,1.89-1.22.93-1.27.86c-.85.56-1.69,1.17-2.57,1.7-6.95,4.25-14.78,7.2-22.89,7.47a40.62,40.62,0,0,1-12-1.47,46.53,46.53,0,0,1-11.18-4.85,52.13,52.13,0,0,1-9.77-7.54,47.71,47.71,0,0,1-4.16-4.69,35,35,0,0,1-3.47-5.29Z"/><path d="M192.07,138.41c-7.59.11-15,.77-22.47,1.55-.68.07-1.37.16-2,.17a3.17,3.17,0,0,1-2.27-.68c-.49-.48-.09-.85.45-1.21a26.15,26.15,0,0,1,7.32-3.08,83.07,83.07,0,0,1,22.19-3,25,25,0,0,1,3.89.24c3.92.56,5.88,3.17,3.83,5a5.54,5.54,0,0,1-3.26,1C197.16,138.58,194.62,138.38,192.07,138.41Z"/><path d="M253.76,129.85A68.23,68.23,0,0,1,269,131.11c1.3.3,2.72.58,2.5,1.51s-1.78,1-3.12,1.17c-4.6.58-9.33.7-14,1a104.12,104.12,0,0,0-16,1.89c-2.51.54-4.29.23-5.6-.87s-1.23-2.41.53-3.31a8.24,8.24,0,0,1,2.75-.86c3-.38,6-.79,9-1.13A77.26,77.26,0,0,1,253.76,129.85Z"/><path d="M212.61,221.78a34.25,34.25,0,0,1-8.44-1.44c-1.5-.51-1.77-1.52-1.4-2.89.45-1.66,1.52-1.32,2.72-.95,6.58,2.09,13.14,1.34,19.65-.36a129.72,129.72,0,0,0,15.28-5.34c.72-.29,1.75-1.37,2.38-.13a2.57,2.57,0,0,1-.89,3.26,1.94,1.94,0,0,1-.4.22C232.37,217.9,223.19,221.53,212.61,221.78Z"/><path d="M192.59,160.93a5.68,5.68,0,0,1-5.57,6.22,5.82,5.82,0,0,1-6.23-5.17c-.21-3.54,3-6.85,6.76-7.06C191.05,154.74,192.34,156.27,192.59,160.93Z"/><path d="M235.39,152.92c2.66-5.56,7.23-7.47,12.63-8,6.42-.69,11.66,1.34,15.66,6.58-1.38.77-2.67.32-3.9.05a10.52,10.52,0,0,1-2.59-1c-5.42-2.82-10.7-2.12-16,.42A16.61,16.61,0,0,1,235.39,152.92Z"/><path class="cls-4" d="M224.63,187.26a4.46,4.46,0,0,1-1,2.67c-3.58,5.85-12.94,7.6-18.54,3.5-3.19-2.33-3.89-4.69-2.44-8.34a10.81,10.81,0,0,1,1.91-3.39,7.13,7.13,0,0,1,.29,3.09c.26,5.05,3.39,7.57,8.48,6.81a25.25,25.25,0,0,0,8.17-3A7.32,7.32,0,0,1,224.63,187.26Z"/><path d="M211.06,167.58c-1.94-5.23-1.8-10.21-1.43-15.19.16-2.26.54-4.51.89-6.76.16-1,.65-2,1.86-2a2.08,2.08,0,0,1,2.18,1.94c1.35,7.37.82,14.48-3,21.15C211.45,166.91,211.33,167.09,211.06,167.58Z"/><path class="cls-5" d="M187.53,150.25c4.27,0,7.81.68,10.76,3.1.75.62,1.84,1.3,1.09,2.41s-1.79.66-2.74.23c-4.15-1.9-8.38-3.05-13-1.68-2.89.87-5.6,2.17-8.39,3.27-.87.34-1.95,1.33-2.71.25s.16-2.11,1.1-2.86A22.62,22.62,0,0,1,187.53,150.25Z"/><path d="M249.52,161.68a5.12,5.12,0,0,1-5.24-5.22c0-2.82,2.75-4.89,6.41-4.81,3.12.07,5.06,1.69,5,4.17A6.19,6.19,0,0,1,249.52,161.68Z"/><path class="cls-1" d="M222.4,68.51s-25,30.29-61.77,45.2C111,133.85,143.12,76.17,143.12,76.17Z"/><path class="cls-1" d="M271.89,62.54s-25,30.29-61.77,45.2c-49.68,20.15-17.51-37.54-17.51-37.54Z"/><path class="cls-1" d="M327.67,55.82s-25,30.29-61.77,45.2c-49.68,20.15-17.51-37.54-17.51-37.54Z"/><path class="cls-1" d="M211,55.82s25,30.29,61.77,45.2c49.67,20.15,17.51-37.54,17.51-37.54Z"/><polygon class="cls-6" points="353.72 523.57 337.61 284.9 130.06 296.22 98.95 523.57 353.72 523.57"/><path class="cls-7" d="M186.83,523.57c-4.64-47.6-12.56-119.87-19-134.2C158,367.63,160.41,238,156.31,243.68S115.45,270,115.45,270,77.77,299.74,52.08,330C35,350.16,28.33,378.11,21.77,389.38S10.29,449,3.73,476.33C.8,488.54,0,506.93,0,523.57Z"/><path class="cls-8" d="M211.31,523.57c1.75-19.19,3.64-41.29,4.62-48.58,3-22.28-18.87-185.72-27.89-197.82s-15.87-50-15.87-50l-24.86,28.58,15,267.84Z"/><rect x="208.81" y="447.43" width="28.83" height="76.14"/><path class="cls-8" d="M292.94,523.57l23.27-272.08c-9.69-4.07-32.47-12.4-36.57-25-5.28,8.9-37.49,78.67-38.55,97.2-.9,15.61-2.43,136.21-.13,199.89Z"/><path class="cls-7" d="M252.84,523.57H472c-15.72-63.83-45.31-181.61-53.4-197.5-30-58.83-117.17-82.56-117.17-82.56s5.81,58.74-13.88,95C273.38,364.58,257.92,465.73,252.84,523.57Z"/><path class="cls-9" d="M170,409.47l2.29,47.35,63.37-4.21,25.4,4.21L262.45,414,239,402.74Z"/><path d="M256.76,375.53c0,24.63-15.52,38.44-34.68,38.44s-34.68-8-34.68-38.44c0-18.8,8-39.54,34.68-39.54C250.2,336,256.76,356.73,256.76,375.53Z"/><path class="cls-6" d="M276.08,223.79s-10.39,58.51-52.84,65.35l29,30.65a3.41,3.41,0,0,0,5.66-1.14l24-64.8a15,15,0,0,0,.29-9.64Z"/><path class="cls-6" d="M172.17,227.15s10.6,55.15,53.05,62L195.94,320a3.2,3.2,0,0,1-5.3-1.06l-24.07-64.93a14.9,14.9,0,0,1-.14-10Z"/></g></g></svg>