<svg xmlns="http://www.w3.org/2000/svg" viewBox="0 0 153.02 152.14"><defs><style>.cls-1{fill:#f7941d;}.cls-2{fill:#f15a29;}</style></defs><g id="Layer_2" data-name="Layer 2"><g id="doctor"><g id="Layer_1-2" data-name="Layer 1"><circle class="cls-1" cx="75.15" cy="74.26" r="63.24"/><path class="cls-2" d="M24.33,81.51c-3.47,1.4-6.81,3.27-10.54.09-.91-.77-3.8-.4-4.91.51-2.86,2.32-1.76,10,1.38,12.06,1.89,1.22,3.68,1.45,5.42-.3A35.47,35.47,0,0,1,18.81,91c1.73-1.37,5.74-1.76,8.06-1.08,8.35-2,6.56-11.33-1.89-8.77A3,3,0,0,1,24.33,81.51Z"/><path class="cls-2" d="M33.8,43c-.41-.54-1-1-1.2-1.64a102,102,0,0,1-2.31-10.73c-.35-2.68-1.68-3.72-4.11-3.85-4-.21-7.59,3.21-7.94,7.48-.32,3.88,1.07,5,6.53,5.41,3.2.22,5.87,4.91,7.42,6.51S36.28,47,34,43.29C33.92,43.11,33.83,43,33.8,43Z"/><path class="cls-2" d="M53.74,10.34c1.3-3.61-.09-6.93-3.41-8.1C44.94.34,38,3.63,36,9c-1.35,3.72,0,6.92,3.5,8,4.91,1.48,8.77,7.06,8.6,12.27,3.22,6.51,15.84-1.54,10.59-5.67C54.79,22.05,52.26,14.42,53.74,10.34Z"/><path class="cls-2" d="M120,38.44c-.29.38,3.08-4.2,6.85-3.72,2.51.32,4.46-.55,5.18-3.14.91-3.24-3.43-9-7.19-9.75-3.37-.63-4.7.74-5.64,5.81-.47,2.55-2.85,4.07-4.53,5.45C111.43,35.73,115.33,41.71,120,38.44Z"/><path class="cls-2" d="M77.89,19.23c-.34-3.21-1.53-6.61,1.89-9.07.54-.39,1.26-1.22,1.15-1.68-.39-1.72-.63-3.87-1.78-4.92-2.44-2.25-9.22-2-11.25.37-1,1.17-1.11,3.34-1,5,0,1,1.25,1.91,2,2.83,1.61,2,2.32,6.35,1.33,8.58-1.27,3.14,9.58,5.17,7.81-.68A1.85,1.85,0,0,1,77.89,19.23Z"/><path class="cls-2" d="M104.16,22.71c.3-1,.73-2,.93-3,.48-2.49,1.84-3.76,4.39-4.38,5.34-1.3,6.87-5.83,3.61-10.32a11.83,11.83,0,0,0-10.43-5c-5,.17-8.18,4.25-6.6,8.13a11.9,11.9,0,0,1-2.61,13.51c-3.47,3,6.75,10.75,10,3.88A28.34,28.34,0,0,1,104.16,22.71Z"/><path class="cls-2" d="M100.63,132.5c-1.27,3.24-.14,6.05,2.77,6.85,3.35.94,8.34-1.12,9.83-4.06s.91-4.3-3.6-7.54a8.8,8.8,0,0,1-3.58-6.6c-3.56-5.74-9.62-2.61-6.63,3.26C100.88,126.74,101.48,130.31,100.63,132.5Z"/><path class="cls-2" d="M128.76,116c.26,4.7,4.2,6.89,8.65,5.27,4.94-1.81,8.38-7.68,7.46-12.75-.61-3.37-3.78-6.13-6.51-4.88-5.56,2.55-8.48-.85-11.59-3.77-6.52-3.57-10.49,6.2-5.66,8.46C124.4,110,128.47,110.88,128.76,116Z"/><path class="cls-2" d="M138.45,86.52c1,1.09,2.37,2.36,3.64,2.44,2.91.18,4.7-1.79,5.68-4.44,1.37-3.65.57-7.59-2-9.37s-4.31-.71-6.34.92c-1.42,1.14-4,1.24-6.27.67-7,.75-6.08,5.7-.78,6.79A10.08,10.08,0,0,1,138.45,86.52Z"/><path class="cls-2" d="M48.91,119.55c-.07,3.25-1.26,6.45-5.44,7.21-2.71.48-3.95,2.44-3.47,5.24.58,3.3,6.17,6.68,10.12,6.18,3.1-.4,3.79-1.93,3.29-7.22a10.65,10.65,0,0,1,0-2.46,9.24,9.24,0,0,1,2.81-5C59,117.2,51,112.92,48.89,119.4,48.89,119.45,48.91,119.5,48.91,119.55Z"/><path class="cls-2" d="M31,100.55c-2.55,4.76-7.68,7.72-11.71,6.76s-7.31,1.37-7.61,5.55a11.69,11.69,0,0,0,8.18,11.88c4.62,1.46,7.76-.92,8.29-5.73.21-1.88,1.15-4.53,2.57-5.29,3.89-2.06,5.63-3.64,7.1-4.11,7-6.68-1-15.55-6.62-9.51A3.07,3.07,0,0,1,31,100.55Z"/><path class="cls-2" d="M65.91,139.52c-3.35,2.61-3.6,6.37-.63,9.46,3.76,3.91,11.11,4.24,15.24.7,3-2.61,3.21-6,.44-8.93-2.47-2.6-3.34-8.41-2.14-12.32-.52-8.78-8.56-8.84-10.07-1C70.09,132.21,69,137.14,65.91,139.52Z"/><path class="cls-2" d="M22.31,55.38a15.77,15.77,0,0,0-2.47-.16c-2.83.17-4.55-1-5.72-3.69-2.16-5-7-5.73-10.77-1.8a11.81,11.81,0,0,0-2.6,12.5c1.57,4.7,5.7,5.75,9.84,2.94a8.33,8.33,0,0,1,4.16-1.56,11.53,11.53,0,0,1,10,5.78C34.83,72,37.13,54.83,28.07,54.67A11.15,11.15,0,0,1,22.31,55.38Z"/><path class="cls-2" d="M149.91,46.12c-4.1-4.59-9.23-3.7-11.62,2-.46,1.07-1.32,2.55-2.24,2.76a58,58,0,0,1-7.32,1.43c-5.95,3.41-1.34,12.1,3.2,9.76,3.76-2.22,8-2.53,11.12-.64,4,2.47,8.51.63,9.58-4.06A12,12,0,0,0,149.91,46.12Z"/><path class="cls-2" d="M121.8,49.9c-4.1-4.6-9.23-3.7-11.63,2-.45,1.08-1.31,2.56-2.23,2.76a54.69,54.69,0,0,1-7.32,1.43c-6,3.41-1.34,12.1,3.2,9.76,3.75-2.21,8-2.52,11.12-.63,4,2.47,8.5.63,9.58-4.06A12,12,0,0,0,121.8,49.9Z"/><path class="cls-2" d="M45,67.86c-2.69,1.4-5.28,3.26-8.19.09-.7-.77-2.94-.4-3.81.5-2.22,2.33-1.36,10,1.08,12.06,1.46,1.23,2.86,1.46,4.21-.29a31,31,0,0,1,2.42-2.88C42,76,45.16,75.58,47,76.26c6.48-2,5.09-11.33-1.46-8.77A2.73,2.73,0,0,1,45,67.86Z"/><path class="cls-2" d="M57.72,103.49c-4.15.92-6,4.22-4.62,8.28,1.73,5.14,8.23,8.58,13.48,7.15,3.86-1.06,5.47-4.08,4.21-7.89-1.12-3.41.58-9,3.34-12.06,3.28-8.15-4-11.64-8.7-5.17C64.62,98.66,61.5,102.64,57.72,103.49Z"/><path class="cls-2" d="M101.71,107.87c-.77,4,2.12,6.72,6.23,6.28a10.55,10.55,0,0,0,9-9.21c.19-3-1.92-6-4.5-5.51-5.25,1-7-2.51-9-5.65-4.78-4.39-10.21,3-6.59,6C99.27,101.91,102.55,103.48,101.71,107.87Z"/><path class="cls-2" d="M85.35,44.18a24.28,24.28,0,0,0,.11-2.55c-.16-2,.74-3.32,2.81-4.46,4.34-2.39,4.63-6.22.78-8.77a11.4,11.4,0,0,0-10.2-1c-4.35,1.45-6.14,5.36-3.88,7.89a8.58,8.58,0,0,1,.84,10.92c-2.34,3.15,8.31,6.37,9.56.31A21.68,21.68,0,0,1,85.35,44.18Z"/><path class="cls-2" d="M57.93,42.3c1.11-3.07-.08-5.9-2.91-6.9-4.58-1.63-10.53,1.18-12.19,5.75-1.16,3.18,0,5.9,3,6.79,4.18,1.27,7.47,6,7.32,10.48,2.74,5.54,13.49-1.33,9-4.84C58.82,52.29,56.67,45.79,57.93,42.3Z"/><path class="cls-2" d="M104.28,85.6c1,1.08,2.37,2.36,3.64,2.44,2.91.18,4.7-1.79,5.68-4.44,1.37-3.66.57-7.6-1.95-9.38s-4.31-.7-6.34.93c-1.42,1.14-4,1.24-6.27.67-7,.75-6.08,5.7-.78,6.78A10.09,10.09,0,0,1,104.28,85.6Z"/><path class="cls-2" d="M69.65,71.49a21.5,21.5,0,0,0-2.11,1.17c-1.5,1.14-3.14,1-5.43-.2-4.78-2.55-8-.88-7.51,3.71.41,3.59,2.59,6.79,6,9.31,4,3,8.35,2.61,8.87-.6.66-4.11,3.67-6.37,8.16-6.17,4.07.45-.44-10.35-6.1-8.4A18.74,18.74,0,0,1,69.65,71.49Z"/></g></g></g></svg>