<svg xmlns="http://www.w3.org/2000/svg" viewBox="0 0 792.51 620.44"><defs><style>.cls-1{fill:#ffd7e0;}.cls-2{fill:#ccc;}.cls-3{fill:#ed6589;}.cls-4{fill:#bcbec0;}.cls-5{fill:#999;}.cls-6{fill:#6a6ada;}.cls-7{fill:#54508f;}.cls-8{fill:#735847;}.cls-10,.cls-9{fill:none;stroke:#5a4736;stroke-miterlimit:10;}.cls-9{stroke-width:7.5px;}.cls-10{stroke-width:10px;}</style></defs><g id="Layer_2" data-name="Layer 2"><g id="Window_open" data-name="Window open"><g id="tree"><path class="cls-1" d="M384.92,293.83c-4.09,27.54-22.57,50.41-50.41,50.41a50.4,50.4,0,0,1-50.4-50.41c0-27.84,22.58-49.41,50.4-50.41C365.89,242.3,389.25,264.62,384.92,293.83Z"/><circle class="cls-1" cx="304.26" cy="355.72" r="50.41"/><ellipse class="cls-1" cx="352.04" cy="363.76" rx="50.41" ry="78.16"/><ellipse class="cls-1" cx="304.26" cy="421.22" rx="50.41" ry="44.82"/><ellipse class="cls-1" cx="364.82" cy="444.41" rx="50.41" ry="44.82"/><ellipse class="cls-1" cx="375.72" cy="376.4" rx="50.41" ry="44.82"/><ellipse class="cls-1" cx="330.77" cy="458.41" rx="50.41" ry="44.82"/><path class="cls-2" d="M337.73,278.52c-1.51,126.89,7.12,298.44,13.79,320.29H312.26c17.15-47.88,23-193.4,21.45-320.29Z"/><path class="cls-2" d="M320.68,365.57l13.41,2.3-1,4.12-13-4.12A1.19,1.19,0,0,1,320.68,365.57Z"/><path class="cls-2" d="M319.89,454.44l11.94,2.05-1,4.12-11.55-3.67A1.29,1.29,0,0,1,319.89,454.44Z"/><path class="cls-2" d="M348.93,411.38l-9.79,7-2.23-3.6,10.66-5.62A1.29,1.29,0,0,1,348.93,411.38Z"/><path class="cls-2" d="M342.66,336.16l-4.72,3.39a1.61,1.61,0,0,1-2.3-.46l-.42-.68a1.6,1.6,0,0,1,.61-2.26l5.14-2.71A1.6,1.6,0,0,1,342.66,336.16Z"/></g><g id="tree-2" data-name="tree"><circle class="cls-3" cx="618.06" cy="249.78" r="61.78"/><circle class="cls-3" cx="590.8" cy="320.63" r="61.78"/><ellipse class="cls-3" cx="624.29" cy="311.56" rx="61.78" ry="95.8"/><ellipse class="cls-3" cx="562.5" cy="375.57" rx="61.78" ry="54.94"/><ellipse class="cls-3" cx="642.47" cy="410.16" rx="81.11" ry="54.94"/><ellipse class="cls-3" cx="665.94" cy="326.2" rx="61.78" ry="54.94"/><ellipse class="cls-3" cx="577.91" cy="414.81" rx="61.78" ry="54.94"/><path class="cls-2" d="M619.35,262.2c-1.56,128.18,15.29,304.4,32.95,333.55.85,1.4-.34,3.06-2.17,3.06H580.72c-1.78,0-3-1.59-2.21-3,28.22-51.59,37.65-202.55,36-333.63a2.29,2.29,0,0,1,2.44-2.13h0A2.29,2.29,0,0,1,619.35,262.2Z"/><path class="cls-2" d="M594.66,312.28l20.26,3.47-1.23,5.05-19.59-6.22A1.19,1.19,0,0,1,594.66,312.28Z"/><path class="cls-2" d="M593.36,421.15l18.79,3.21-1.23,5.06-18.17-5.78A1.28,1.28,0,0,1,593.36,421.15Z"/><path class="cls-2" d="M639.53,365.65,624.1,376.74l-2.74-4.42,16.81-8.86A1.29,1.29,0,0,1,639.53,365.65Z"/><path class="cls-2" d="M629.68,273.82l-10.36,7.45a1.62,1.62,0,0,1-2.31-.46l-.92-1.5a1.59,1.59,0,0,1,.62-2.26L628,271.1A1.61,1.61,0,0,1,629.68,273.82Z"/></g><g id="tree-3" data-name="tree"><circle class="cls-4" cx="226.91" cy="346.52" r="44.97"/><circle class="cls-4" cx="207.06" cy="398.09" r="44.97"/><ellipse class="cls-4" cx="231.44" cy="391.49" rx="44.97" ry="69.73"/><ellipse class="cls-4" cx="186.47" cy="438.08" rx="44.97" ry="39.99"/><ellipse class="cls-4" cx="244.67" cy="463.25" rx="59.03" ry="39.99"/><ellipse class="cls-4" cx="261.76" cy="402.15" rx="44.97" ry="39.99"/><ellipse class="cls-4" cx="197.68" cy="466.64" rx="44.97" ry="39.99"/><path class="cls-5" d="M214.48,392.8l10.14,1.74-.9,3.67-9.8-3.11A1.19,1.19,0,0,1,214.48,392.8Z"/><path class="cls-5" d="M213.93,472.11l8.67,1.48-.89,3.68-8.38-2.66A1.29,1.29,0,0,1,213.93,472.11Z"/><path class="cls-5" d="M238.4,433.83l-7.1,5.1-2-3.22,7.73-4.07A1.29,1.29,0,0,1,238.4,433.83Z"/><path class="cls-5" d="M230.23,367.71l-2,1.46a1.61,1.61,0,0,1-2.3-.46l-.18-.29a1.61,1.61,0,0,1,.62-2.27l2.2-1.16A1.61,1.61,0,0,1,230.23,367.71Z"/><path class="cls-5" d="M223.1,354.75C222,451.29,227.18,592.64,233,598.42H208.76C218,580.89,221.19,451.29,220,354.75h3.06Z"/></g><g id="tree-4" data-name="tree"><circle class="cls-6" cx="108.62" cy="352.22" r="43.56"/><circle class="cls-6" cx="84.41" cy="405.99" r="43.56"/><ellipse class="cls-6" cx="84.41" cy="441.92" rx="43.56" ry="38.74"/><ellipse class="cls-6" cx="106.77" cy="489.14" rx="57.19" ry="38.74"/><ellipse class="cls-6" cx="132.44" cy="396.98" rx="43.56" ry="38.74"/><ellipse class="cls-6" cx="127.97" cy="449.3" rx="43.56" ry="38.74"/><path class="cls-7" d="M108.84,361.34c-.83,67.78,7.2,237.47,6.24,237.47H101.59c-.94,0,5.56-168.15,4.67-237.47a1.3,1.3,0,0,1,2.58,0Z"/><path class="cls-7" d="M97.11,397.15l9.3,1.59-.87,3.56-9-2.86A1.18,1.18,0,0,1,97.11,397.15Z"/><path class="cls-7" d="M98.94,475.1l7.83,1.34L105.9,480l-7.56-2.41A1.28,1.28,0,0,1,98.94,475.1Z"/><path class="cls-7" d="M114.31,439.9l-6.4,4.59L106,441.38l7-3.68A1.3,1.3,0,0,1,114.31,439.9Z"/><path class="cls-7" d="M111.25,373.18l-1.33.95a1.61,1.61,0,0,1-2.3-.46l-.12-.19a1.61,1.61,0,0,1,.62-2.27l1.44-.76A1.61,1.61,0,0,1,111.25,373.18Z"/></g><path class="cls-8" d="M0,0V620.44H792.51V0ZM756.51,584.44H36V36H756.51Z"/><path class="cls-8" d="M36.78,35.53V584L283,515.42V104.08ZM149.62,529,57.28,554V327.75h92.34Zm0-231.2H57.28V68.53l92.34,25ZM262.46,499.93l-92.34,24V327.75h92.34Zm0-202.18H170.12V100.56l92.34,23Z"/><polyline class="cls-9" points="57.28 553.97 149.62 528.95 149.62 327.75"/><polyline class="cls-9" points="169.13 526.18 261.47 501.16 261.47 327.75"/><polyline class="cls-9" points="54.72 295.3 149.62 297.75 147.06 93.55"/><polyline class="cls-9" points="169.34 295.3 264.24 297.75 261.68 123.58"/><line class="cls-10" x1="36.78" y1="35.53" x2="36.78" y2="582.95"/><path class="cls-8" d="M510.3,105.89V517.22l246.19,68.56V37.33ZM643.65,329.56H736V555.78l-92.34-25Zm0-234.2,92.34-25V299.56H643.65ZM530.81,329.56h92.34V525.75l-92.34-24Zm0-204.18,92.34-23v197.2H530.81Z"/><polyline class="cls-9" points="735.99 555.78 643.65 530.76 643.65 329.56"/><polyline class="cls-9" points="624.14 527.99 531.8 502.97 531.8 329.56"/><polyline class="cls-9" points="738.55 297.11 643.65 299.56 646.21 95.36"/><polyline class="cls-9" points="623.93 297.11 529.03 299.56 531.59 125.38"/><line class="cls-10" x1="756.49" y1="37.33" x2="756.49" y2="584.75"/></g></g></svg>