<svg id="wing_1" data-name="wing 1" xmlns="http://www.w3.org/2000/svg" viewBox="0 0 680.05 294.82"><defs><style>.cls-1{fill:#933;}</style></defs><path class="cls-1" d="M946.36,704.45c-19.6-12.67-70.07-76.67-72.94-98s6.8-19.79-2.23-32.52c-12.64-17.83-58.27-31.52-80.45-37.29-.37.63-21.69-17.87-150.25-53.66-91.12-25.37-67.4-16.85-199.18-69.55-5-2,30.78,24.42,69.59,41.91,55.87,25.2,113.5,44.19,28.75,19.93-25.72-7.37-246.88-71.88-240-65.13,6.36,6.26,156.46,54.3,171.86,59,.45.1.79.2,1,.27.58.2.2.1-1-.27-16.61-3.93-189.8-29.14-187.38-20.64,1.4,4.95,61.17,17.21,108.24,26,25,3.74,46,7.37,53.91,9,10.71,2.29-17.88-2.35-53.91-9-53.29-8-124.73-16.41-126-7.36l163.37,25.66s-5.26,2.07-33.47-1.28-110.45-5.73-108.86,2.39,109.65,4.47,135.47,16.9,112.83,40.93,112.83,40.93c-12.3,15.58,21.37,6.88,36.78,15.47s21.41,12.61,21.41,12.61a37.65,37.65,0,0,0,11.32,24.28c-2.39,10.89,7.65,18.59,7.65,18.59,1.11,7.49,12.43,17.29,12.43,17.29-.16,12,13.39,17.6,13.39,17.6-.48,6,14.5,20.1,14.5,20.1-1.12,5.58,13.39,21,13.39,21C818,674,946.36,704.45,946.36,704.45Z" transform="translate(-266.31 -409.62)"/></svg>